# Created by Open3D 
# object name: face_00007
# number of vertices: 267
# number of triangles: 268
v 1.0006 0.611205 0.991111 0.684261 0.96 0.672
v 0.926259 0.597978 0.991487 0.684261 0.96 0.672
v 0.00595851 0.434087 0.992346 0.684261 0.96 0.672
v 0.00172973 0.396538 0.0368821 0.684261 0.96 0.672
v 0.00267058 0.39552 0.00609428 0.684261 0.96 0.672
v 1.0024 0.573597 0.00622117 0.684261 0.96 0.672
v 1.00206 0.599612 0.683356 0.684261 0.96 0.672
v 0.49779 0.518556 0.910907 0.684261 0.96 0.672
v 0.507639 0.520305 0.910786 0.684261 0.96 0.672
v 0.517484 0.522045 0.910424 0.684261 0.96 0.672
v 0.527319 0.523774 0.90982 0.684261 0.96 0.672
v 0.537138 0.52549 0.908975 0.684261 0.96 0.672
v 0.546936 0.527193 0.907891 0.684261 0.96 0.672
v 0.556706 0.528883 0.906566 0.684261 0.96 0.672
v 0.566444 0.530557 0.905002 0.684261 0.96 0.672
v 0.576144 0.532215 0.9032 0.684261 0.96 0.672
v 0.585799 0.533857 0.901161 0.684261 0.96 0.672
v 0.595404 0.53548 0.898886 0.684261 0.96 0.672
v 0.604954 0.537084 0.896377 0.684261 0.96 0.672
v 0.614444 0.538669 0.893634 0.684261 0.96 0.672
v 0.623866 0.540233 0.89066 0.684261 0.96 0.672
v 0.633217 0.541775 0.887456 0.684261 0.96 0.672
v 0.64249 0.543294 0.884025 0.684261 0.96 0.672
v 0.65168 0.54479 0.880367 0.684261 0.96 0.672
v 0.660782 0.546262 0.876486 0.684261 0.96 0.672
v 0.66979 0.547709 0.872383 0.684261 0.96 0.672
v 0.6787 0.549129 0.868061 0.684261 0.96 0.672
v 0.687505 0.550523 0.863523 0.684261 0.96 0.672
v 0.696201 0.551889 0.858771 0.684261 0.96 0.672
v 0.704783 0.553226 0.853807 0.684261 0.96 0.672
v 0.713246 0.554535 0.848636 0.684261 0.96 0.672
v 0.721585 0.555813 0.843259 0.684261 0.96 0.672
v 0.729794 0.55706 0.83768 0.684261 0.96 0.672
v 0.73787 0.558276 0.831902 0.684261 0.96 0.672
v 0.745807 0.55946 0.825929 0.684261 0.96 0.672
v 0.753601 0.560611 0.819764 0.684261 0.96 0.672
v 0.761247 0.561728 0.813411 0.684261 0.96 0.672
v 0.76874 0.562811 0.806873 0.684261 0.96 0.672
v 0.776077 0.563859 0.800154 0.684261 0.96 0.672
v 0.783254 0.564872 0.793258 0.684261 0.96 0.672
v 0.790265 0.565848 0.786189 0.684261 0.96 0.672
v 0.797107 0.566788 0.778952 0.684261 0.96 0.672
v 0.803775 0.567691 0.77155 0.684261 0.96 0.672
v 0.810267 0.568556 0.763988 0.684261 0.96 0.672
v 0.816578 0.569383 0.75627 0.684261 0.96 0.672
v 0.822704 0.570171 0.748401 0.684261 0.96 0.672
v 0.828642 0.57092 0.740385 0.684261 0.96 0.672
v 0.834389 0.571629 0.732227 0.684261 0.96 0.672
v 0.83994 0.572299 0.723932 0.684261 0.96 0.672
v 0.845294 0.572928 0.715505 0.684261 0.96 0.672
v 0.850446 0.573516 0.70695 0.684261 0.96 0.672
v 0.855393 0.574063 0.698273 0.684261 0.96 0.672
v 0.860134 0.574569 0.689478 0.684261 0.96 0.672
v 0.864664 0.575033 0.680571 0.684261 0.96 0.672
v 0.868982 0.575455 0.671557 0.684261 0.96 0.672
v 0.873085 0.575834 0.662441 0.684261 0.96 0.672
v 0.87697 0.576172 0.653229 0.684261 0.96 0.672
v 0.880635 0.576466 0.643925 0.684261 0.96 0.672
v 0.884078 0.576718 0.634536 0.684261 0.96 0.672
v 0.887298 0.576927 0.625067 0.684261 0.96 0.672
v 0.890291 0.577092 0.615523 0.684261 0.96 0.672
v 0.893057 0.577215 0.60591 0.684261 0.96 0.672
v 0.895594 0.577294 0.596233 0.684261 0.96 0.672
v 0.8979 0.57733 0.586499 0.684261 0.96 0.672
v 0.899974 0.577322 0.576713 0.684261 0.96 0.672
v 0.901814 0.577271 0.56688 0.684261 0.96 0.672
v 0.903421 0.577177 0.557006 0.684261 0.96 0.672
v 0.904792 0.57704 0.547098 0.684261 0.96 0.672
v 0.905927 0.576859 0.53716 0.684261 0.96 0.672
v 0.906825 0.576636 0.5272 0.684261 0.96 0.672
v 0.907486 0.576369 0.517221 0.684261 0.96 0.672
v 0.907909 0.57606 0.507231 0.684261 0.96 0.672
v 0.908095 0.575708 0.497235 0.684261 0.96 0.672
v 0.908042 0.575314 0.487239 0.684261 0.96 0.672
v 0.907752 0.574877 0.477249 0.684261 0.96 0.672
v 0.907223 0.574399 0.467271 0.684261 0.96 0.672
v 0.906458 0.573879 0.45731 0.684261 0.96 0.672
v 0.905455 0.573317 0.447373 0.684261 0.96 0.672
v 0.904215 0.572715 0.437464 0.684261 0.96 0.672
v 0.90274 0.572072 0.427591 0.684261 0.96 0.672
v 0.90103 0.571389 0.417758 0.684261 0.96 0.672
v 0.899087 0.570666 0.407972 0.684261 0.96 0.672
v 0.89691 0.569903 0.398237 0.684261 0.96 0.672
v 0.894502 0.569102 0.388561 0.684261 0.96 0.672
v 0.891864 0.568262 0.378948 0.684261 0.96 0.672
v 0.888997 0.567383 0.369404 0.684261 0.96 0.672
v 0.885904 0.566468 0.359935 0.684261 0.96 0.672
v 0.882586 0.565515 0.350545 0.684261 0.96 0.672
v 0.879044 0.564526 0.341242 0.684261 0.96 0.672
v 0.875281 0.563501 0.33203 0.684261 0.96 0.672
v 0.8713 0.562441 0.322914 0.684261 0.96 0.672
v 0.867102 0.561346 0.3139 0.684261 0.96 0.672
v 0.86269 0.560217 0.304993 0.684261 0.96 0.672
v 0.858066 0.559055 0.296198 0.684261 0.96 0.672
v 0.853234 0.55786 0.287521 0.684261 0.96 0.672
v 0.848196 0.556633 0.278966 0.684261 0.96 0.672
v 0.842955 0.555375 0.270538 0.684261 0.96 0.672
v 0.837513 0.554086 0.262243 0.684261 0.96 0.672
v 0.831875 0.552768 0.254085 0.684261 0.96 0.672
v 0.826044 0.55142 0.24607 0.684261 0.96 0.672
v 0.820022 0.550045 0.2382 0.684261 0.96 0.672
v 0.813814 0.548642 0.230483 0.684261 0.96 0.672
v 0.807423 0.547212 0.22292 0.684261 0.96 0.672
v 0.800853 0.545757 0.215519 0.684261 0.96 0.672
v 0.794107 0.544276 0.208281 0.684261 0.96 0.672
v 0.78719 0.542772 0.201213 0.684261 0.96 0.672
v 0.780105 0.541245 0.194317 0.684261 0.96 0.672
v 0.772858 0.539695 0.187598 0.684261 0.96 0.672
v 0.765451 0.538124 0.18106 0.684261 0.96 0.672
v 0.757889 0.536532 0.174706 0.684261 0.96 0.672
v 0.750178 0.534921 0.168541 0.684261 0.96 0.672
v 0.74232 0.533292 0.162568 0.684261 0.96 0.672
v 0.734321 0.531644 0.15679 0.684261 0.96 0.672
v 0.726186 0.529981 0.151212 0.684261 0.96 0.672
v 0.717919 0.528301 0.145835 0.684261 0.96 0.672
v 0.709525 0.526607 0.140663 0.684261 0.96 0.672
v 0.701009 0.524899 0.1357 0.684261 0.96 0.672
v 0.692376 0.523178 0.130948 0.684261 0.96 0.672
v 0.683631 0.521445 0.126409 0.684261 0.96 0.672
v 0.674779 0.519702 0.122087 0.684261 0.96 0.672
v 0.665825 0.517949 0.117985 0.684261 0.96 0.672
v 0.656775 0.516188 0.114103 0.684261 0.96 0.672
v 0.647633 0.514419 0.110446 0.684261 0.96 0.672
v 0.638406 0.512643 0.107014 0.684261 0.96 0.672
v 0.629098 0.510862 0.103811 0.684261 0.96 0.672
v 0.619715 0.509076 0.100836 0.684261 0.96 0.672
v 0.610262 0.507287 0.098094 0.684261 0.96 0.672
v 0.600745 0.505495 0.0955845 0.684261 0.96 0.672
v 0.59117 0.503702 0.0933096 0.684261 0.96 0.672
v 0.581542 0.501908 0.0912706 0.684261 0.96 0.672
v 0.571866 0.500115 0.0894687 0.684261 0.96 0.672
v 0.562149 0.498324 0.0879049 0.684261 0.96 0.672
v 0.552396 0.496536 0.0865801 0.684261 0.96 0.672
v 0.542613 0.494752 0.0854952 0.684261 0.96 0.672
v 0.532805 0.492972 0.0846506 0.684261 0.96 0.672
v 0.522978 0.491199 0.0840471 0.684261 0.96 0.672
v 0.513138 0.489432 0.0836848 0.684261 0.96 0.672
v 0.503291 0.487673 0.083564 0.684261 0.96 0.672
v 0.493442 0.485924 0.0836848 0.684261 0.96 0.672
v 0.483598 0.484184 0.0840471 0.684261 0.96 0.672
v 0.473763 0.482456 0.0846506 0.684261 0.96 0.672
v 0.463944 0.480739 0.0854952 0.684261 0.96 0.672
v 0.454146 0.479036 0.0865801 0.684261 0.96 0.672
v 0.444375 0.477346 0.0879049 0.684261 0.96 0.672
v 0.434637 0.475672 0.0894687 0.684261 0.96 0.672
v 0.424938 0.474014 0.0912706 0.684261 0.96 0.672
v 0.415283 0.472373 0.0933096 0.684261 0.96 0.672
v 0.405677 0.470749 0.0955845 0.684261 0.96 0.672
v 0.396127 0.469145 0.098094 0.684261 0.96 0.672
v 0.386638 0.46756 0.100836 0.684261 0.96 0.672
v 0.377215 0.465997 0.103811 0.684261 0.96 0.672
v 0.367865 0.464454 0.107014 0.684261 0.96 0.672
v 0.358592 0.462935 0.110446 0.684261 0.96 0.672
v 0.349402 0.461439 0.114103 0.684261 0.96 0.672
v 0.3403 0.459967 0.117985 0.684261 0.96 0.672
v 0.331291 0.45852 0.122087 0.684261 0.96 0.672
v 0.322382 0.4571 0.126409 0.684261 0.96 0.672
v 0.313576 0.455706 0.130948 0.684261 0.96 0.672
v 0.30488 0.45434 0.1357 0.684261 0.96 0.672
v 0.296298 0.453003 0.140663 0.684261 0.96 0.672
v 0.287835 0.451695 0.145835 0.684261 0.96 0.672
v 0.279497 0.450416 0.151212 0.684261 0.96 0.672
v 0.271287 0.449169 0.15679 0.684261 0.96 0.672
v 0.263212 0.447953 0.162568 0.684261 0.96 0.672
v 0.255275 0.446769 0.168541 0.684261 0.96 0.672
v 0.247481 0.445619 0.174706 0.684261 0.96 0.672
v 0.239835 0.444501 0.18106 0.684261 0.96 0.672
v 0.232341 0.443418 0.187598 0.684261 0.96 0.672
v 0.225004 0.44237 0.194317 0.684261 0.96 0.672
v 0.217828 0.441358 0.201213 0.684261 0.96 0.672
v 0.210817 0.440381 0.208281 0.684261 0.96 0.672
v 0.203975 0.439441 0.215519 0.684261 0.96 0.672
v 0.197306 0.438538 0.22292 0.684261 0.96 0.672
v 0.190814 0.437673 0.230483 0.684261 0.96 0.672
v 0.184504 0.436846 0.2382 0.684261 0.96 0.672
v 0.178377 0.436058 0.24607 0.684261 0.96 0.672
v 0.172439 0.435309 0.254085 0.684261 0.96 0.672
v 0.166693 0.4346 0.262243 0.684261 0.96 0.672
v 0.161141 0.43393 0.270538 0.684261 0.96 0.672
v 0.155788 0.433301 0.278966 0.684261 0.96 0.672
v 0.150636 0.432713 0.287521 0.684261 0.96 0.672
v 0.145688 0.432166 0.296198 0.684261 0.96 0.672
v 0.140948 0.43166 0.304993 0.684261 0.96 0.672
v 0.136417 0.431197 0.3139 0.684261 0.96 0.672
v 0.1321 0.430775 0.322914 0.684261 0.96 0.672
v 0.127997 0.430395 0.33203 0.684261 0.96 0.672
v 0.124112 0.430058 0.341242 0.684261 0.96 0.672
v 0.120447 0.429763 0.350545 0.684261 0.96 0.672
v 0.117003 0.429511 0.359935 0.684261 0.96 0.672
v 0.113784 0.429303 0.369404 0.684261 0.96 0.672
v 0.11079 0.429137 0.378948 0.684261 0.96 0.672
v 0.108025 0.429015 0.388561 0.684261 0.96 0.672
v 0.105488 0.428935 0.398237 0.684261 0.96 0.672
v 0.103182 0.428899 0.407972 0.684261 0.96 0.672
v 0.101108 0.428907 0.417758 0.684261 0.96 0.672
v 0.0992673 0.428958 0.427591 0.684261 0.96 0.672
v 0.097661 0.429052 0.437464 0.684261 0.96 0.672
v 0.0962899 0.429189 0.447373 0.684261 0.96 0.672
v 0.0951549 0.42937 0.45731 0.684261 0.96 0.672
v 0.0942567 0.429593 0.467271 0.684261 0.96 0.672
v 0.0935957 0.42986 0.477249 0.684261 0.96 0.672
v 0.0931723 0.430169 0.487239 0.684261 0.96 0.672
v 0.0929869 0.430521 0.497235 0.684261 0.96 0.672
v 0.0930394 0.430916 0.507231 0.684261 0.96 0.672
v 0.0933299 0.431352 0.517221 0.684261 0.96 0.672
v 0.0938582 0.43183 0.5272 0.684261 0.96 0.672
v 0.094624 0.43235 0.53716 0.684261 0.96 0.672
v 0.0956269 0.432912 0.547098 0.684261 0.96 0.672
v 0.0968662 0.433514 0.557006 0.684261 0.96 0.672
v 0.0983412 0.434157 0.56688 0.684261 0.96 0.672
v 0.100051 0.43484 0.576713 0.684261 0.96 0.672
v 0.101995 0.435563 0.586499 0.684261 0.96 0.672
v 0.104171 0.436326 0.596233 0.684261 0.96 0.672
v 0.106579 0.437128 0.60591 0.684261 0.96 0.672
v 0.109217 0.437968 0.615523 0.684261 0.96 0.672
v 0.112084 0.438846 0.625067 0.684261 0.96 0.672
v 0.115177 0.439762 0.634536 0.684261 0.96 0.672
v 0.118496 0.440714 0.643925 0.684261 0.96 0.672
v 0.122038 0.441703 0.653229 0.684261 0.96 0.672
v 0.1258 0.442728 0.662441 0.684261 0.96 0.672
v 0.129782 0.443789 0.671557 0.684261 0.96 0.672
v 0.13398 0.444883 0.680571 0.684261 0.96 0.672
v 0.138392 0.446012 0.689478 0.684261 0.96 0.672
v 0.143015 0.447175 0.698273 0.684261 0.96 0.672
v 0.147847 0.448369 0.70695 0.684261 0.96 0.672
v 0.152886 0.449596 0.715505 0.684261 0.96 0.672
v 0.158127 0.450854 0.723932 0.684261 0.96 0.672
v 0.163568 0.452143 0.732227 0.684261 0.96 0.672
v 0.169206 0.453461 0.740385 0.684261 0.96 0.672
v 0.175038 0.454809 0.748401 0.684261 0.96 0.672
v 0.181059 0.456185 0.75627 0.684261 0.96 0.672
v 0.187267 0.457588 0.763988 0.684261 0.96 0.672
v 0.193658 0.459017 0.77155 0.684261 0.96 0.672
v 0.200229 0.460472 0.778952 0.684261 0.96 0.672
v 0.206974 0.461953 0.786189 0.684261 0.96 0.672
v 0.213892 0.463457 0.793258 0.684261 0.96 0.672
v 0.220976 0.464985 0.800154 0.684261 0.96 0.672
v 0.228224 0.466534 0.806873 0.684261 0.96 0.672
v 0.235631 0.468105 0.813411 0.684261 0.96 0.672
v 0.243192 0.469697 0.819764 0.684261 0.96 0.672
v 0.250904 0.471308 0.825929 0.684261 0.96 0.672
v 0.258761 0.472938 0.831902 0.684261 0.96 0.672
v 0.26676 0.474585 0.83768 0.684261 0.96 0.672
v 0.274896 0.476249 0.843259 0.684261 0.96 0.672
v 0.283163 0.477928 0.848636 0.684261 0.96 0.672
v 0.291557 0.479623 0.853807 0.684261 0.96 0.672
v 0.300073 0.481331 0.858771 0.684261 0.96 0.672
v 0.308706 0.483051 0.863523 0.684261 0.96 0.672
v 0.317451 0.484784 0.868061 0.684261 0.96 0.672
v 0.326303 0.486527 0.872383 0.684261 0.96 0.672
v 0.335257 0.48828 0.876486 0.684261 0.96 0.672
v 0.344307 0.490041 0.880367 0.684261 0.96 0.672
v 0.353449 0.49181 0.884025 0.684261 0.96 0.672
v 0.362676 0.493586 0.887456 0.684261 0.96 0.672
v 0.371984 0.495368 0.89066 0.684261 0.96 0.672
v 0.381367 0.497153 0.893634 0.684261 0.96 0.672
v 0.39082 0.498943 0.896377 0.684261 0.96 0.672
v 0.400336 0.500734 0.898886 0.684261 0.96 0.672
v 0.409911 0.502528 0.901161 0.684261 0.96 0.672
v 0.41954 0.504321 0.9032 0.684261 0.96 0.672
v 0.429215 0.506114 0.905002 0.684261 0.96 0.672
v 0.438932 0.507905 0.906566 0.684261 0.96 0.672
v 0.448685 0.509693 0.907891 0.684261 0.96 0.672
v 0.458469 0.511477 0.908975 0.684261 0.96 0.672
v 0.468277 0.513257 0.90982 0.684261 0.96 0.672
v 0.478103 0.515031 0.910424 0.684261 0.96 0.672
v 0.487943 0.516797 0.910786 0.684261 0.96 0.672
f 138 6 5
f 139 138 5
f 204 4 3
f 8 2 9
f 7 2 1
f 4 164 5
f 165 164 4
f 140 139 5
f 144 143 5
f 143 142 5
f 147 146 5
f 145 144 5
f 146 145 5
f 159 158 5
f 158 157 5
f 155 154 5
f 150 149 5
f 151 150 5
f 152 151 5
f 181 180 4
f 178 177 4
f 174 173 4
f 177 176 4
f 169 168 4
f 168 167 4
f 6 96 95
f 100 99 6
f 99 98 6
f 105 104 6
f 104 103 6
f 101 100 6
f 116 115 6
f 113 112 6
f 108 107 6
f 110 109 6
f 109 108 6
f 136 135 6
f 133 132 6
f 128 127 6
f 129 128 6
f 130 129 6
f 119 118 6
f 120 119 6
f 127 126 6
f 126 125 6
f 123 122 6
f 142 141 5
f 141 140 5
f 149 148 5
f 148 147 5
f 157 156 5
f 156 155 5
f 154 153 5
f 153 152 5
f 182 4 183
f 182 181 4
f 180 179 4
f 179 178 4
f 172 171 4
f 173 172 4
f 175 174 4
f 176 175 4
f 171 170 4
f 170 169 4
f 166 165 4
f 167 166 4
f 162 161 5
f 164 163 5
f 163 162 5
f 223 222 3
f 220 219 3
f 215 214 3
f 219 218 3
f 218 217 3
f 205 204 3
f 206 205 3
f 207 206 3
f 212 211 3
f 210 209 3
f 211 210 3
f 186 185 4
f 189 188 4
f 192 191 4
f 190 189 4
f 191 190 4
f 202 201 4
f 200 199 4
f 201 200 4
f 195 194 4
f 199 198 4
f 198 197 4
f 2 267 3
f 267 2 8
f 263 262 3
f 258 257 3
f 262 261 3
f 261 260 3
f 249 248 3
f 250 249 3
f 255 254 3
f 253 252 3
f 254 253 3
f 228 227 3
f 231 230 3
f 236 235 3
f 235 234 3
f 232 231 3
f 244 243 3
f 242 241 3
f 243 242 3
f 237 236 3
f 238 237 3
f 241 240 3
f 2 10 9
f 14 13 2
f 13 12 2
f 17 16 2
f 15 14 2
f 16 15 2
f 29 2 30
f 29 28 2
f 26 25 2
f 20 19 2
f 23 22 2
f 42 41 2
f 46 45 2
f 45 44 2
f 50 49 7
f 49 48 7
f 2 31 30
f 35 34 2
f 34 33 2
f 39 38 2
f 38 37 2
f 7 53 52
f 56 55 7
f 61 60 7
f 59 58 7
f 60 59 7
f 73 72 7
f 69 68 7
f 70 69 7
f 64 63 7
f 68 67 7
f 67 66 7
f 93 92 6
f 92 91 6
f 85 84 6
f 86 85 6
f 89 88 6
f 84 83 6
f 83 82 6
f 81 80 6
f 82 81 6
f 79 7 6
f 80 79 6
f 98 97 6
f 97 96 6
f 103 102 6
f 102 101 6
f 114 113 6
f 115 114 6
f 111 110 6
f 112 111 6
f 106 105 6
f 107 106 6
f 138 137 6
f 137 136 6
f 135 134 6
f 134 133 6
f 132 131 6
f 131 130 6
f 117 116 6
f 118 117 6
f 122 121 6
f 121 120 6
f 125 124 6
f 124 123 6
f 160 159 5
f 161 160 5
f 225 224 3
f 224 223 3
f 222 221 3
f 221 220 3
f 217 216 3
f 216 215 3
f 209 208 3
f 208 207 3
f 214 213 3
f 213 212 3
f 4 184 183
f 185 184 4
f 187 186 4
f 188 187 4
f 194 193 4
f 193 192 4
f 204 203 4
f 203 202 4
f 197 196 4
f 196 195 4
f 266 265 3
f 267 266 3
f 265 264 3
f 264 263 3
f 260 259 3
f 259 258 3
f 247 246 3
f 248 247 3
f 252 251 3
f 251 250 3
f 257 256 3
f 256 255 3
f 226 225 3
f 227 226 3
f 229 228 3
f 230 229 3
f 234 233 3
f 233 232 3
f 246 245 3
f 245 244 3
f 239 238 3
f 240 239 3
f 12 11 2
f 11 10 2
f 19 18 2
f 18 17 2
f 28 27 2
f 27 26 2
f 22 21 2
f 21 20 2
f 25 24 2
f 24 23 2
f 44 43 2
f 43 42 2
f 51 7 52
f 51 50 7
f 48 47 7
f 47 2 7
f 47 46 2
f 33 32 2
f 32 31 2
f 41 40 2
f 40 39 2
f 36 35 2
f 37 36 2
f 55 54 7
f 54 53 7
f 58 57 7
f 57 56 7
f 63 62 7
f 62 61 7
f 71 70 7
f 72 71 7
f 66 65 7
f 65 64 7
f 94 6 95
f 94 93 6
f 90 89 6
f 91 90 6
f 87 86 6
f 88 87 6
f 74 73 7
f 75 74 7
f 77 76 7
f 76 75 7
f 78 77 7
f 79 78 7
f 4 5 4
