# Created by Open3D 
# object name: face_00002
# number of vertices: 265
# number of triangles: 266
v 0.00512954 0.401827 0.991719 0.840075 0.96 0.672
v 0.987922 0.403478 0.987411 0.840075 0.96 0.672
v 0.990597 0.398054 0.00651116 0.840075 0.96 0.672
v 0.00259543 0.396369 0.0060758 0.840075 0.96 0.672
v 0.00172973 0.396538 0.0368821 0.840075 0.96 0.672
v 0.500266 0.402234 0.912737 0.840075 0.96 0.672
v 0.490263 0.402216 0.912617 0.840075 0.96 0.672
v 0.480266 0.402197 0.912254 0.840075 0.96 0.672
v 0.47028 0.402177 0.91165 0.840075 0.96 0.672
v 0.460312 0.402155 0.910805 0.840075 0.96 0.672
v 0.450368 0.402132 0.909719 0.840075 0.96 0.672
v 0.440452 0.402108 0.908393 0.840075 0.96 0.672
v 0.430571 0.402082 0.906829 0.840075 0.96 0.672
v 0.420732 0.402056 0.905025 0.840075 0.96 0.672
v 0.410938 0.402028 0.902985 0.840075 0.96 0.672
v 0.401197 0.401998 0.900708 0.840075 0.96 0.672
v 0.391514 0.401968 0.898197 0.840075 0.96 0.672
v 0.381894 0.401936 0.895453 0.840075 0.96 0.672
v 0.372343 0.401904 0.892477 0.840075 0.96 0.672
v 0.362867 0.40187 0.889271 0.840075 0.96 0.672
v 0.353471 0.401835 0.885837 0.840075 0.96 0.672
v 0.344161 0.401799 0.882177 0.840075 0.96 0.672
v 0.334942 0.401762 0.878293 0.840075 0.96 0.672
v 0.32582 0.401723 0.874187 0.840075 0.96 0.672
v 0.316799 0.401684 0.869862 0.840075 0.96 0.672
v 0.307886 0.401644 0.865321 0.840075 0.96 0.672
v 0.299085 0.401602 0.860565 0.840075 0.96 0.672
v 0.290401 0.40156 0.855598 0.840075 0.96 0.672
v 0.28184 0.401517 0.850423 0.840075 0.96 0.672
v 0.273407 0.401473 0.845042 0.840075 0.96 0.672
v 0.265106 0.401428 0.839459 0.840075 0.96 0.672
v 0.256942 0.401382 0.833678 0.840075 0.96 0.672
v 0.248921 0.401335 0.8277 0.840075 0.96 0.672
v 0.241046 0.401287 0.821531 0.840075 0.96 0.672
v 0.233323 0.401239 0.815173 0.840075 0.96 0.672
v 0.225755 0.40119 0.80863 0.840075 0.96 0.672
v 0.218348 0.40114 0.801907 0.840075 0.96 0.672
v 0.211106 0.40109 0.795006 0.840075 0.96 0.672
v 0.204032 0.401038 0.787933 0.840075 0.96 0.672
v 0.197131 0.400987 0.78069 0.840075 0.96 0.672
v 0.190408 0.400934 0.773283 0.840075 0.96 0.672
v 0.183865 0.400881 0.765716 0.840075 0.96 0.672
v 0.177507 0.400828 0.757992 0.840075 0.96 0.672
v 0.171338 0.400773 0.750118 0.840075 0.96 0.672
v 0.16536 0.400719 0.742096 0.840075 0.96 0.672
v 0.159579 0.400664 0.733933 0.840075 0.96 0.672
v 0.153996 0.400608 0.725632 0.840075 0.96 0.672
v 0.148615 0.400553 0.717198 0.840075 0.96 0.672
v 0.14344 0.400496 0.708637 0.840075 0.96 0.672
v 0.138473 0.40044 0.699954 0.840075 0.96 0.672
v 0.133718 0.400383 0.691153 0.840075 0.96 0.672
v 0.129176 0.400326 0.68224 0.840075 0.96 0.672
v 0.124851 0.400269 0.673219 0.840075 0.96 0.672
v 0.120746 0.400211 0.664097 0.840075 0.96 0.672
v 0.116862 0.400154 0.654878 0.840075 0.96 0.672
v 0.113202 0.400096 0.645568 0.840075 0.96 0.672
v 0.109768 0.400038 0.636172 0.840075 0.96 0.672
v 0.106562 0.39998 0.626697 0.840075 0.96 0.672
v 0.103586 0.399922 0.617146 0.840075 0.96 0.672
v 0.100841 0.399864 0.607526 0.840075 0.96 0.672
v 0.09833 0.399806 0.597843 0.840075 0.96 0.672
v 0.0960536 0.399749 0.588102 0.840075 0.96 0.672
v 0.0940132 0.399691 0.578308 0.840075 0.96 0.672
v 0.0922101 0.399633 0.568469 0.840075 0.96 0.672
v 0.0906453 0.399576 0.558588 0.840075 0.96 0.672
v 0.0893196 0.399519 0.548673 0.840075 0.96 0.672
v 0.088234 0.399462 0.538728 0.840075 0.96 0.672
v 0.087389 0.399406 0.52876 0.840075 0.96 0.672
v 0.086785 0.399349 0.518775 0.840075 0.96 0.672
v 0.0864226 0.399293 0.508778 0.840075 0.96 0.672
v 0.0863018 0.399238 0.498775 0.840075 0.96 0.672
v 0.0864228 0.399183 0.488772 0.840075 0.96 0.672
v 0.0867854 0.399128 0.478775 0.840075 0.96 0.672
v 0.0873895 0.399074 0.46879 0.840075 0.96 0.672
v 0.0882347 0.39902 0.458822 0.840075 0.96 0.672
v 0.0893206 0.398967 0.448878 0.840075 0.96 0.672
v 0.0906464 0.398914 0.438962 0.840075 0.96 0.672
v 0.0922114 0.398862 0.429082 0.840075 0.96 0.672
v 0.0940147 0.398811 0.419242 0.840075 0.96 0.672
v 0.0960553 0.39876 0.409449 0.840075 0.96 0.672
v 0.0983319 0.39871 0.399708 0.840075 0.96 0.672
v 0.100843 0.398661 0.390024 0.840075 0.96 0.672
v 0.103588 0.398612 0.380404 0.840075 0.96 0.672
v 0.106564 0.398564 0.370854 0.840075 0.96 0.672
v 0.10977 0.398517 0.361378 0.840075 0.96 0.672
v 0.113204 0.398471 0.351982 0.840075 0.96 0.672
v 0.116865 0.398426 0.342672 0.840075 0.96 0.672
v 0.120749 0.398382 0.333453 0.840075 0.96 0.672
v 0.124854 0.398338 0.324331 0.840075 0.96 0.672
v 0.129179 0.398296 0.315311 0.840075 0.96 0.672
v 0.133721 0.398254 0.306397 0.840075 0.96 0.672
v 0.138477 0.398213 0.297596 0.840075 0.96 0.672
v 0.143444 0.398174 0.288913 0.840075 0.96 0.672
v 0.148619 0.398135 0.280352 0.840075 0.96 0.672
v 0.154 0.398098 0.271919 0.840075 0.96 0.672
v 0.159583 0.398061 0.263618 0.840075 0.96 0.672
v 0.165365 0.398026 0.255454 0.840075 0.96 0.672
v 0.171342 0.397992 0.247433 0.840075 0.96 0.672
v 0.177512 0.397959 0.239558 0.840075 0.96 0.672
v 0.18387 0.397927 0.231835 0.840075 0.96 0.672
v 0.190413 0.397896 0.224267 0.840075 0.96 0.672
v 0.197137 0.397867 0.21686 0.840075 0.96 0.672
v 0.204037 0.397838 0.209618 0.840075 0.96 0.672
v 0.211111 0.397811 0.202544 0.840075 0.96 0.672
v 0.218354 0.397785 0.195644 0.840075 0.96 0.672
v 0.225761 0.397761 0.18892 0.840075 0.96 0.672
v 0.233329 0.397737 0.182377 0.840075 0.96 0.672
v 0.241052 0.397715 0.176019 0.840075 0.96 0.672
v 0.248927 0.397695 0.16985 0.840075 0.96 0.672
v 0.256949 0.397675 0.163873 0.840075 0.96 0.672
v 0.265112 0.397657 0.158091 0.840075 0.96 0.672
v 0.273413 0.39764 0.152508 0.840075 0.96 0.672
v 0.281847 0.397625 0.147128 0.840075 0.96 0.672
v 0.290408 0.397611 0.141952 0.840075 0.96 0.672
v 0.299092 0.397598 0.136985 0.840075 0.96 0.672
v 0.307893 0.397587 0.13223 0.840075 0.96 0.672
v 0.316806 0.397577 0.127688 0.840075 0.96 0.672
v 0.325827 0.397568 0.123363 0.840075 0.96 0.672
v 0.334949 0.397561 0.119258 0.840075 0.96 0.672
v 0.344168 0.397555 0.115374 0.840075 0.96 0.672
v 0.353478 0.397551 0.111714 0.840075 0.96 0.672
v 0.362874 0.397548 0.10828 0.840075 0.96 0.672
v 0.37235 0.397546 0.105074 0.840075 0.96 0.672
v 0.381901 0.397546 0.102098 0.840075 0.96 0.672
v 0.391521 0.397547 0.0993532 0.840075 0.96 0.672
v 0.401205 0.39755 0.0968419 0.840075 0.96 0.672
v 0.410946 0.397554 0.0945655 0.840075 0.96 0.672
v 0.420739 0.397559 0.092525 0.840075 0.96 0.672
v 0.430579 0.397566 0.0907218 0.840075 0.96 0.672
v 0.44046 0.397574 0.0891569 0.840075 0.96 0.672
v 0.450375 0.397584 0.0878312 0.840075 0.96 0.672
v 0.46032 0.397595 0.0867455 0.840075 0.96 0.672
v 0.470288 0.397607 0.0859004 0.840075 0.96 0.672
v 0.480273 0.397621 0.0852964 0.840075 0.96 0.672
v 0.490271 0.397636 0.0849338 0.840075 0.96 0.672
v 0.500274 0.397652 0.084813 0.840075 0.96 0.672
v 0.510277 0.39767 0.0849338 0.840075 0.96 0.672
v 0.520274 0.397689 0.0852964 0.840075 0.96 0.672
v 0.530259 0.397709 0.0859004 0.840075 0.96 0.672
v 0.540227 0.397731 0.0867455 0.840075 0.96 0.672
v 0.550172 0.397754 0.0878312 0.840075 0.96 0.672
v 0.560087 0.397778 0.0891569 0.840075 0.96 0.672
v 0.569968 0.397804 0.0907218 0.840075 0.96 0.672
v 0.579808 0.39783 0.092525 0.840075 0.96 0.672
v 0.589601 0.397858 0.0945655 0.840075 0.96 0.672
v 0.599343 0.397888 0.0968419 0.840075 0.96 0.672
v 0.609026 0.397918 0.0993532 0.840075 0.96 0.672
v 0.618646 0.39795 0.102098 0.840075 0.96 0.672
v 0.628197 0.397982 0.105074 0.840075 0.96 0.672
v 0.637673 0.398016 0.10828 0.840075 0.96 0.672
v 0.647068 0.398051 0.111714 0.840075 0.96 0.672
v 0.656379 0.398087 0.115374 0.840075 0.96 0.672
v 0.665597 0.398125 0.119258 0.840075 0.96 0.672
v 0.67472 0.398163 0.123363 0.840075 0.96 0.672
v 0.68374 0.398202 0.127688 0.840075 0.96 0.672
v 0.692654 0.398242 0.13223 0.840075 0.96 0.672
v 0.701455 0.398284 0.136985 0.840075 0.96 0.672
v 0.710138 0.398326 0.141952 0.840075 0.96 0.672
v 0.718699 0.398369 0.147128 0.840075 0.96 0.672
v 0.727133 0.398413 0.152508 0.840075 0.96 0.672
v 0.735434 0.398458 0.158091 0.840075 0.96 0.672
v 0.743597 0.398504 0.163873 0.840075 0.96 0.672
v 0.751619 0.398551 0.16985 0.840075 0.96 0.672
v 0.759493 0.398599 0.176019 0.840075 0.96 0.672
v 0.767217 0.398647 0.182377 0.840075 0.96 0.672
v 0.774784 0.398696 0.18892 0.840075 0.96 0.672
v 0.782191 0.398746 0.195644 0.840075 0.96 0.672
v 0.789434 0.398796 0.202544 0.840075 0.96 0.672
v 0.796508 0.398848 0.209618 0.840075 0.96 0.672
v 0.803408 0.398899 0.21686 0.840075 0.96 0.672
v 0.810132 0.398952 0.224267 0.840075 0.96 0.672
v 0.816675 0.399005 0.231835 0.840075 0.96 0.672
v 0.823032 0.399059 0.239558 0.840075 0.96 0.672
v 0.829202 0.399113 0.247433 0.840075 0.96 0.672
v 0.835179 0.399167 0.255454 0.840075 0.96 0.672
v 0.840961 0.399222 0.263618 0.840075 0.96 0.672
v 0.846544 0.399278 0.271919 0.840075 0.96 0.672
v 0.851924 0.399333 0.280352 0.840075 0.96 0.672
v 0.8571 0.39939 0.288913 0.840075 0.96 0.672
v 0.862066 0.399446 0.297596 0.840075 0.96 0.672
v 0.866822 0.399503 0.306397 0.840075 0.96 0.672
v 0.871364 0.39956 0.315311 0.840075 0.96 0.672
v 0.875688 0.399617 0.324331 0.840075 0.96 0.672
v 0.879794 0.399675 0.333453 0.840075 0.96 0.672
v 0.883678 0.399732 0.342672 0.840075 0.96 0.672
v 0.887338 0.39979 0.351982 0.840075 0.96 0.672
v 0.890772 0.399848 0.361378 0.840075 0.96 0.672
v 0.893978 0.399906 0.370854 0.840075 0.96 0.672
v 0.896954 0.399964 0.380404 0.840075 0.96 0.672
v 0.899698 0.400022 0.390024 0.840075 0.96 0.672
v 0.90221 0.40008 0.399708 0.840075 0.96 0.672
v 0.904486 0.400137 0.409449 0.840075 0.96 0.672
v 0.906526 0.400195 0.419242 0.840075 0.96 0.672
v 0.908329 0.400253 0.429082 0.840075 0.96 0.672
v 0.909894 0.40031 0.438962 0.840075 0.96 0.672
v 0.91122 0.400367 0.448878 0.840075 0.96 0.672
v 0.912306 0.400424 0.458822 0.840075 0.96 0.672
v 0.913151 0.400481 0.46879 0.840075 0.96 0.672
v 0.913754 0.400537 0.478775 0.840075 0.96 0.672
v 0.914117 0.400593 0.488772 0.840075 0.96 0.672
v 0.914238 0.400648 0.498775 0.840075 0.96 0.672
v 0.914117 0.400704 0.508778 0.840075 0.96 0.672
v 0.913754 0.400758 0.518775 0.840075 0.96 0.672
v 0.91315 0.400812 0.52876 0.840075 0.96 0.672
v 0.912305 0.400866 0.538728 0.840075 0.96 0.672
v 0.911219 0.400919 0.548673 0.840075 0.96 0.672
v 0.909893 0.400972 0.558588 0.840075 0.96 0.672
v 0.908328 0.401024 0.568469 0.840075 0.96 0.672
v 0.906525 0.401075 0.578308 0.840075 0.96 0.672
v 0.904484 0.401126 0.588102 0.840075 0.96 0.672
v 0.902208 0.401176 0.597843 0.840075 0.96 0.672
v 0.899696 0.401225 0.607526 0.840075 0.96 0.672
v 0.896952 0.401274 0.617146 0.840075 0.96 0.672
v 0.893975 0.401322 0.626697 0.840075 0.96 0.672
v 0.890769 0.401369 0.636172 0.840075 0.96 0.672
v 0.887335 0.401415 0.645568 0.840075 0.96 0.672
v 0.883675 0.40146 0.654878 0.840075 0.96 0.672
v 0.879791 0.401505 0.664097 0.840075 0.96 0.672
v 0.875685 0.401548 0.673219 0.840075 0.96 0.672
v 0.87136 0.401591 0.68224 0.840075 0.96 0.672
v 0.866818 0.401632 0.691153 0.840075 0.96 0.672
v 0.862063 0.401673 0.699954 0.840075 0.96 0.672
v 0.857096 0.401712 0.708637 0.840075 0.96 0.672
v 0.85192 0.401751 0.717198 0.840075 0.96 0.672
v 0.846539 0.401788 0.725632 0.840075 0.96 0.672
v 0.840957 0.401825 0.733933 0.840075 0.96 0.672
v 0.835175 0.40186 0.742096 0.840075 0.96 0.672
v 0.829197 0.401894 0.750118 0.840075 0.96 0.672
v 0.823028 0.401927 0.757992 0.840075 0.96 0.672
v 0.816669 0.401959 0.765716 0.840075 0.96 0.672
v 0.810127 0.40199 0.773283 0.840075 0.96 0.672
v 0.803403 0.40202 0.78069 0.840075 0.96 0.672
v 0.796502 0.402048 0.787933 0.840075 0.96 0.672
v 0.789428 0.402075 0.795006 0.840075 0.96 0.672
v 0.782186 0.402101 0.801907 0.840075 0.96 0.672
v 0.774778 0.402125 0.80863 0.840075 0.96 0.672
v 0.767211 0.402149 0.815173 0.840075 0.96 0.672
v 0.759487 0.402171 0.821531 0.840075 0.96 0.672
v 0.751612 0.402191 0.8277 0.840075 0.96 0.672
v 0.743591 0.402211 0.833678 0.840075 0.96 0.672
v 0.735427 0.402229 0.839459 0.840075 0.96 0.672
v 0.727126 0.402246 0.845042 0.840075 0.96 0.672
v 0.718693 0.402261 0.850423 0.840075 0.96 0.672
v 0.710132 0.402275 0.855598 0.840075 0.96 0.672
v 0.701448 0.402288 0.860565 0.840075 0.96 0.672
v 0.692647 0.402299 0.865321 0.840075 0.96 0.672
v 0.683733 0.402309 0.869862 0.840075 0.96 0.672
v 0.674713 0.402318 0.874187 0.840075 0.96 0.672
v 0.66559 0.402325 0.878293 0.840075 0.96 0.672
v 0.656371 0.402331 0.882177 0.840075 0.96 0.672
v 0.647061 0.402335 0.885837 0.840075 0.96 0.672
v 0.637665 0.402338 0.889271 0.840075 0.96 0.672
v 0.628189 0.40234 0.892477 0.840075 0.96 0.672
v 0.618638 0.40234 0.895453 0.840075 0.96 0.672
v 0.609018 0.402339 0.898197 0.840075 0.96 0.672
v 0.599335 0.402336 0.900708 0.840075 0.96 0.672
v 0.589594 0.402332 0.902985 0.840075 0.96 0.672
v 0.5798 0.402327 0.905025 0.840075 0.96 0.672
v 0.56996 0.40232 0.906829 0.840075 0.96 0.672
v 0.56008 0.402312 0.908393 0.840075 0.96 0.672
v 0.550164 0.402302 0.909719 0.840075 0.96 0.672
v 0.54022 0.402291 0.910805 0.840075 0.96 0.672
v 0.530252 0.402279 0.91165 0.840075 0.96 0.672
v 0.520266 0.402265 0.912254 0.840075 0.96 0.672
v 0.510269 0.40225 0.912617 0.840075 0.96 0.672
f 2 201 3
f 5 71 1
f 3 136 4
f 70 69 1
f 71 70 1
f 6 2 1
f 5 84 83
f 85 84 5
f 88 87 5
f 91 90 5
f 89 88 5
f 90 89 5
f 101 100 5
f 99 98 5
f 100 99 5
f 94 93 5
f 95 94 5
f 98 97 5
f 104 103 5
f 108 107 5
f 107 106 5
f 109 108 5
f 110 109 5
f 111 5 4
f 111 110 5
f 112 111 4
f 122 121 4
f 119 118 4
f 113 112 4
f 116 115 4
f 138 137 3
f 137 136 3
f 56 55 1
f 63 62 1
f 29 28 1
f 36 35 1
f 53 52 1
f 50 49 1
f 47 46 1
f 2 235 234
f 238 237 2
f 241 240 2
f 257 256 2
f 248 247 2
f 22 21 1
f 18 17 1
f 21 20 1
f 11 10 1
f 8 7 1
f 7 6 1
f 86 85 5
f 87 86 5
f 93 92 5
f 92 91 5
f 103 102 5
f 102 101 5
f 96 95 5
f 97 96 5
f 106 105 5
f 105 104 5
f 124 123 4
f 123 122 4
f 121 120 4
f 120 119 4
f 115 114 4
f 114 113 4
f 118 117 4
f 117 116 4
f 147 146 3
f 141 140 3
f 142 141 3
f 173 172 3
f 170 169 3
f 152 151 3
f 161 160 3
f 180 179 3
f 184 183 3
f 183 182 3
f 188 187 3
f 185 184 3
f 201 200 3
f 200 199 3
f 197 196 3
f 191 190 3
f 196 195 3
f 58 57 1
f 57 56 1
f 62 61 1
f 61 60 1
f 59 58 1
f 60 59 1
f 69 68 1
f 68 67 1
f 66 65 1
f 67 66 1
f 65 64 1
f 64 63 1
f 81 80 5
f 80 79 5
f 74 73 5
f 75 74 5
f 31 30 1
f 30 29 1
f 35 34 1
f 34 33 1
f 32 31 1
f 33 32 1
f 42 41 1
f 41 40 1
f 39 38 1
f 40 39 1
f 38 37 1
f 37 36 1
f 55 54 1
f 54 53 1
f 52 51 1
f 51 50 1
f 43 42 1
f 44 43 1
f 46 45 1
f 45 44 1
f 49 48 1
f 48 47 1
f 237 236 2
f 236 235 2
f 240 239 2
f 239 238 2
f 247 246 2
f 246 245 2
f 244 243 2
f 245 244 2
f 243 242 2
f 242 241 2
f 261 260 2
f 260 259 2
f 258 257 2
f 259 258 2
f 255 254 2
f 256 255 2
f 250 249 2
f 249 248 2
f 254 253 2
f 253 252 2
f 251 250 2
f 252 251 2
f 28 27 1
f 27 26 1
f 25 24 1
f 26 25 1
f 24 23 1
f 23 22 1
f 16 15 1
f 17 16 1
f 19 18 1
f 20 19 1
f 15 14 1
f 14 13 1
f 12 11 1
f 13 12 1
f 9 8 1
f 10 9 1
f 262 261 2
f 6 265 2
f 265 264 2
f 151 150 3
f 150 149 3
f 148 147 3
f 149 148 3
f 145 144 3
f 146 145 3
f 139 138 3
f 140 139 3
f 144 143 3
f 143 142 3
f 125 124 4
f 128 127 4
f 134 133 4
f 131 130 4
f 179 178 3
f 178 177 3
f 176 175 3
f 177 176 3
f 175 174 3
f 174 173 3
f 166 165 3
f 167 166 3
f 169 168 3
f 168 167 3
f 172 171 3
f 171 170 3
f 154 153 3
f 153 152 3
f 158 157 3
f 157 156 3
f 155 154 3
f 156 155 3
f 165 164 3
f 164 163 3
f 162 161 3
f 163 162 3
f 159 158 3
f 160 159 3
f 182 181 3
f 181 180 3
f 190 189 3
f 189 188 3
f 187 186 3
f 186 185 3
f 199 198 3
f 198 197 3
f 193 192 3
f 192 191 3
f 194 193 3
f 195 194 3
f 233 2 234
f 233 232 2
f 231 230 2
f 232 231 2
f 228 227 2
f 230 229 2
f 229 228 2
f 218 217 2
f 219 218 2
f 221 220 2
f 220 219 2
f 225 224 2
f 224 223 2
f 222 221 2
f 223 222 2
f 202 201 2
f 203 202 2
f 205 204 2
f 204 203 2
f 209 208 2
f 208 207 2
f 206 205 2
f 207 206 2
f 217 216 2
f 216 215 2
f 214 213 2
f 215 214 2
f 210 209 2
f 211 210 2
f 213 212 2
f 212 211 2
f 82 5 83
f 82 81 5
f 78 77 5
f 79 78 5
f 72 71 5
f 73 72 5
f 77 76 5
f 76 75 5
f 264 263 2
f 263 262 2
f 127 126 4
f 126 125 4
f 130 129 4
f 129 128 4
f 136 135 4
f 135 134 4
f 133 132 4
f 132 131 4
f 226 225 2
f 227 226 2
f 5 4 5
