# Created by Open3D 
# object name: face_00000
# number of vertices: 266
# number of triangles: 266
v 0.0102271 0.600202 0.995576 0.96 0.672 0.672
v 0.926259 0.597978 0.991487 0.96 0.672 0.672
v 1.00151 0.597794 0.991263 0.96 0.672 0.672
v 1.00206 0.599612 0.683356 0.96 0.672 0.672
v 1.00442 0.603607 0.00617159 0.96 0.672 0.672
v 0.00699321 0.606058 0.00572488 0.96 0.672 0.672
v 0.500794 0.599505 0.909722 0.96 0.672 0.672
v 0.510797 0.599481 0.909601 0.96 0.672 0.672
v 0.520795 0.599459 0.909238 0.96 0.672 0.672
v 0.53078 0.599438 0.908634 0.96 0.672 0.672
v 0.540748 0.599419 0.907789 0.96 0.672 0.672
v 0.550693 0.599401 0.906703 0.96 0.672 0.672
v 0.560608 0.599384 0.905378 0.96 0.672 0.672
v 0.570489 0.599369 0.903813 0.96 0.672 0.672
v 0.580329 0.599356 0.902009 0.96 0.672 0.672
v 0.590122 0.599344 0.899969 0.96 0.672 0.672
v 0.599863 0.599333 0.897693 0.96 0.672 0.672
v 0.609547 0.599324 0.895181 0.96 0.672 0.672
v 0.619167 0.599317 0.892437 0.96 0.672 0.672
v 0.628718 0.599311 0.889461 0.96 0.672 0.672
v 0.638194 0.599307 0.886255 0.96 0.672 0.672
v 0.64759 0.599304 0.882821 0.96 0.672 0.672
v 0.6569 0.599303 0.879161 0.96 0.672 0.672
v 0.666119 0.599303 0.875277 0.96 0.672 0.672
v 0.675241 0.599305 0.871171 0.96 0.672 0.672
v 0.684262 0.599308 0.866846 0.96 0.672 0.672
v 0.693175 0.599313 0.862305 0.96 0.672 0.672
v 0.701976 0.59932 0.857549 0.96 0.672 0.672
v 0.71066 0.599328 0.852582 0.96 0.672 0.672
v 0.719221 0.599337 0.847407 0.96 0.672 0.672
v 0.727655 0.599348 0.842026 0.96 0.672 0.672
v 0.735956 0.599361 0.836444 0.96 0.672 0.672
v 0.744119 0.599375 0.830662 0.96 0.672 0.672
v 0.752141 0.599391 0.824685 0.96 0.672 0.672
v 0.760016 0.599408 0.818515 0.96 0.672 0.672
v 0.767739 0.599426 0.812157 0.96 0.672 0.672
v 0.775307 0.599446 0.805615 0.96 0.672 0.672
v 0.782714 0.599468 0.798891 0.96 0.672 0.672
v 0.789957 0.599491 0.79199 0.96 0.672 0.672
v 0.797031 0.599515 0.784917 0.96 0.672 0.672
v 0.803932 0.599541 0.777674 0.96 0.672 0.672
v 0.810655 0.599568 0.770267 0.96 0.672 0.672
v 0.817198 0.599597 0.7627 0.96 0.672 0.672
v 0.823556 0.599627 0.754977 0.96 0.672 0.672
v 0.829726 0.599658 0.747102 0.96 0.672 0.672
v 0.835703 0.599691 0.739081 0.96 0.672 0.672
v 0.841485 0.599725 0.730917 0.96 0.672 0.672
v 0.847068 0.599761 0.722616 0.96 0.672 0.672
v 0.852449 0.599797 0.714183 0.96 0.672 0.672
v 0.857625 0.599835 0.705622 0.96 0.672 0.672
v 0.862592 0.599874 0.696939 0.96 0.672 0.672
v 0.867347 0.599914 0.688138 0.96 0.672 0.672
v 0.871889 0.599956 0.679224 0.96 0.672 0.672
v 0.876214 0.599999 0.670204 0.96 0.672 0.672
v 0.88032 0.600042 0.661082 0.96 0.672 0.672
v 0.884204 0.600087 0.651863 0.96 0.672 0.672
v 0.887864 0.600133 0.642553 0.96 0.672 0.672
v 0.891299 0.60018 0.633157 0.96 0.672 0.672
v 0.894505 0.600229 0.623681 0.96 0.672 0.672
v 0.897481 0.600278 0.614131 0.96 0.672 0.672
v 0.900226 0.600328 0.604511 0.96 0.672 0.672
v 0.902737 0.600379 0.594828 0.96 0.672 0.672
v 0.905014 0.600431 0.585086 0.96 0.672 0.672
v 0.907054 0.600484 0.575293 0.96 0.672 0.672
v 0.908858 0.600537 0.565453 0.96 0.672 0.672
v 0.910423 0.600592 0.555573 0.96 0.672 0.672
v 0.911749 0.600647 0.545658 0.96 0.672 0.672
v 0.912835 0.600703 0.535713 0.96 0.672 0.672
v 0.91368 0.60076 0.525745 0.96 0.672 0.672
v 0.914284 0.600818 0.51576 0.96 0.672 0.672
v 0.914647 0.600876 0.505763 0.96 0.672 0.672
v 0.914768 0.600935 0.49576 0.96 0.672 0.672
v 0.914647 0.600994 0.485757 0.96 0.672 0.672
v 0.914285 0.601054 0.47576 0.96 0.672 0.672
v 0.913681 0.601114 0.465775 0.96 0.672 0.672
v 0.912836 0.601175 0.455807 0.96 0.672 0.672
v 0.91175 0.601237 0.445863 0.96 0.672 0.672
v 0.910425 0.601299 0.435947 0.96 0.672 0.672
v 0.90886 0.601361 0.426067 0.96 0.672 0.672
v 0.907057 0.601423 0.416227 0.96 0.672 0.672
v 0.905016 0.601486 0.406434 0.96 0.672 0.672
v 0.90274 0.601549 0.396693 0.96 0.672 0.672
v 0.900229 0.601613 0.387009 0.96 0.672 0.672
v 0.897485 0.601676 0.37739 0.96 0.672 0.672
v 0.894509 0.60174 0.367839 0.96 0.672 0.672
v 0.891303 0.601804 0.358363 0.96 0.672 0.672
v 0.887869 0.601868 0.348967 0.96 0.672 0.672
v 0.884209 0.601932 0.339657 0.96 0.672 0.672
v 0.880325 0.601996 0.330439 0.96 0.672 0.672
v 0.876219 0.60206 0.321316 0.96 0.672 0.672
v 0.871895 0.602124 0.312296 0.96 0.672 0.672
v 0.867353 0.602187 0.303383 0.96 0.672 0.672
v 0.862598 0.602251 0.294582 0.96 0.672 0.672
v 0.857631 0.602315 0.285898 0.96 0.672 0.672
v 0.852456 0.602378 0.277338 0.96 0.672 0.672
v 0.847075 0.602441 0.268904 0.96 0.672 0.672
v 0.841492 0.602504 0.260603 0.96 0.672 0.672
v 0.835711 0.602566 0.25244 0.96 0.672 0.672
v 0.829733 0.602628 0.244418 0.96 0.672 0.672
v 0.823564 0.60269 0.236544 0.96 0.672 0.672
v 0.817206 0.602751 0.22882 0.96 0.672 0.672
v 0.810663 0.602812 0.221253 0.96 0.672 0.672
v 0.80394 0.602872 0.213846 0.96 0.672 0.672
v 0.797039 0.602932 0.206603 0.96 0.672 0.672
v 0.789966 0.602991 0.19953 0.96 0.672 0.672
v 0.782723 0.603049 0.192629 0.96 0.672 0.672
v 0.775316 0.603107 0.185906 0.96 0.672 0.672
v 0.767749 0.603165 0.179363 0.96 0.672 0.672
v 0.760025 0.603221 0.173005 0.96 0.672 0.672
v 0.752151 0.603277 0.166836 0.96 0.672 0.672
v 0.744129 0.603332 0.160858 0.96 0.672 0.672
v 0.735966 0.603386 0.155077 0.96 0.672 0.672
v 0.727665 0.603439 0.149494 0.96 0.672 0.672
v 0.719231 0.603492 0.144113 0.96 0.672 0.672
v 0.71067 0.603543 0.138938 0.96 0.672 0.672
v 0.701987 0.603594 0.133971 0.96 0.672 0.672
v 0.693186 0.603644 0.129216 0.96 0.672 0.672
v 0.684273 0.603693 0.124674 0.96 0.672 0.672
v 0.675252 0.60374 0.120349 0.96 0.672 0.672
v 0.66613 0.603787 0.116244 0.96 0.672 0.672
v 0.656911 0.603832 0.11236 0.96 0.672 0.672
v 0.647601 0.603877 0.1087 0.96 0.672 0.672
v 0.638205 0.60392 0.105266 0.96 0.672 0.672
v 0.628729 0.603963 0.10206 0.96 0.672 0.672
v 0.619178 0.604004 0.0990834 0.96 0.672 0.672
v 0.609558 0.604043 0.096339 0.96 0.672 0.672
v 0.599875 0.604082 0.0938278 0.96 0.672 0.672
v 0.590134 0.604119 0.0915513 0.96 0.672 0.672
v 0.58034 0.604155 0.0895109 0.96 0.672 0.672
v 0.570501 0.60419 0.0877077 0.96 0.672 0.672
v 0.56062 0.604224 0.0861428 0.96 0.672 0.672
v 0.550705 0.604256 0.0848171 0.96 0.672 0.672
v 0.54076 0.604287 0.0837314 0.96 0.672 0.672
v 0.530792 0.604316 0.0828862 0.96 0.672 0.672
v 0.520807 0.604344 0.0822822 0.96 0.672 0.672
v 0.510809 0.604371 0.0819197 0.96 0.672 0.672
v 0.500806 0.604396 0.0817988 0.96 0.672 0.672
v 0.490803 0.60442 0.0819197 0.96 0.672 0.672
v 0.480806 0.604443 0.0822822 0.96 0.672 0.672
v 0.470821 0.604463 0.0828862 0.96 0.672 0.672
v 0.460853 0.604483 0.0837314 0.96 0.672 0.672
v 0.450908 0.604501 0.0848171 0.96 0.672 0.672
v 0.440993 0.604517 0.0861428 0.96 0.672 0.672
v 0.431112 0.604532 0.0877077 0.96 0.672 0.672
v 0.421272 0.604546 0.0895109 0.96 0.672 0.672
v 0.411479 0.604558 0.0915513 0.96 0.672 0.672
v 0.401737 0.604568 0.0938278 0.96 0.672 0.672
v 0.392054 0.604577 0.096339 0.96 0.672 0.672
v 0.382434 0.604585 0.0990834 0.96 0.672 0.672
v 0.372883 0.604591 0.10206 0.96 0.672 0.672
v 0.363407 0.604595 0.105266 0.96 0.672 0.672
v 0.354011 0.604598 0.1087 0.96 0.672 0.672
v 0.344701 0.604599 0.11236 0.96 0.672 0.672
v 0.335482 0.604599 0.116244 0.96 0.672 0.672
v 0.32636 0.604597 0.120349 0.96 0.672 0.672
v 0.317339 0.604593 0.124674 0.96 0.672 0.672
v 0.308426 0.604588 0.129216 0.96 0.672 0.672
v 0.299624 0.604582 0.133971 0.96 0.672 0.672
v 0.290941 0.604574 0.138938 0.96 0.672 0.672
v 0.28238 0.604564 0.144113 0.96 0.672 0.672
v 0.273946 0.604553 0.149494 0.96 0.672 0.672
v 0.265645 0.604541 0.155077 0.96 0.672 0.672
v 0.257481 0.604527 0.160858 0.96 0.672 0.672
v 0.24946 0.604511 0.166836 0.96 0.672 0.672
v 0.241585 0.604494 0.173005 0.96 0.672 0.672
v 0.233861 0.604475 0.179363 0.96 0.672 0.672
v 0.226294 0.604455 0.185906 0.96 0.672 0.672
v 0.218886 0.604434 0.192629 0.96 0.672 0.672
v 0.211644 0.604411 0.19953 0.96 0.672 0.672
v 0.20457 0.604386 0.206603 0.96 0.672 0.672
v 0.197669 0.60436 0.213846 0.96 0.672 0.672
v 0.190945 0.604333 0.221253 0.96 0.672 0.672
v 0.184403 0.604304 0.22882 0.96 0.672 0.672
v 0.178044 0.604274 0.236544 0.96 0.672 0.672
v 0.171875 0.604243 0.244418 0.96 0.672 0.672
v 0.165897 0.60421 0.25244 0.96 0.672 0.672
v 0.160115 0.604176 0.260603 0.96 0.672 0.672
v 0.154532 0.604141 0.268904 0.96 0.672 0.672
v 0.149152 0.604104 0.277338 0.96 0.672 0.672
v 0.143976 0.604067 0.285898 0.96 0.672 0.672
v 0.139009 0.604027 0.294582 0.96 0.672 0.672
v 0.134253 0.603987 0.303383 0.96 0.672 0.672
v 0.129712 0.603946 0.312296 0.96 0.672 0.672
v 0.125387 0.603903 0.321316 0.96 0.672 0.672
v 0.121281 0.603859 0.330439 0.96 0.672 0.672
v 0.117397 0.603814 0.339657 0.96 0.672 0.672
v 0.113736 0.603768 0.348967 0.96 0.672 0.672
v 0.110302 0.603721 0.358363 0.96 0.672 0.672
v 0.107096 0.603673 0.367839 0.96 0.672 0.672
v 0.10412 0.603624 0.37739 0.96 0.672 0.672
v 0.101375 0.603574 0.387009 0.96 0.672 0.672
v 0.0988637 0.603523 0.396693 0.96 0.672 0.672
v 0.096587 0.603471 0.406434 0.96 0.672 0.672
v 0.0945464 0.603418 0.416227 0.96 0.672 0.672
v 0.092743 0.603364 0.426067 0.96 0.672 0.672
v 0.091178 0.60331 0.435947 0.96 0.672 0.672
v 0.0898521 0.603254 0.445863 0.96 0.672 0.672
v 0.0887662 0.603198 0.455807 0.96 0.672 0.672
v 0.0879209 0.603142 0.465775 0.96 0.672 0.672
v 0.0873168 0.603084 0.47576 0.96 0.672 0.672
v 0.0869541 0.603026 0.485757 0.96 0.672 0.672
v 0.0868331 0.602967 0.49576 0.96 0.672 0.672
v 0.0869538 0.602908 0.505763 0.96 0.672 0.672
v 0.0873162 0.602848 0.51576 0.96 0.672 0.672
v 0.0879201 0.602787 0.525745 0.96 0.672 0.672
v 0.0887651 0.602726 0.535713 0.96 0.672 0.672
v 0.0898506 0.602665 0.545658 0.96 0.672 0.672
v 0.0911762 0.602603 0.555573 0.96 0.672 0.672
v 0.092741 0.602541 0.565453 0.96 0.672 0.672
v 0.0945441 0.602478 0.575293 0.96 0.672 0.672
v 0.0965844 0.602415 0.585086 0.96 0.672 0.672
v 0.0988608 0.602352 0.594828 0.96 0.672 0.672
v 0.101372 0.602289 0.604511 0.96 0.672 0.672
v 0.104116 0.602225 0.614131 0.96 0.672 0.672
v 0.107092 0.602162 0.623681 0.96 0.672 0.672
v 0.110298 0.602098 0.633157 0.96 0.672 0.672
v 0.113732 0.602034 0.642553 0.96 0.672 0.672
v 0.117392 0.60197 0.651863 0.96 0.672 0.672
v 0.121276 0.601906 0.661082 0.96 0.672 0.672
v 0.125382 0.601842 0.670204 0.96 0.672 0.672
v 0.129706 0.601778 0.679224 0.96 0.672 0.672
v 0.134248 0.601714 0.688138 0.96 0.672 0.672
v 0.139003 0.601651 0.696939 0.96 0.672 0.672
v 0.14397 0.601587 0.705622 0.96 0.672 0.672
v 0.149145 0.601524 0.714183 0.96 0.672 0.672
v 0.154526 0.601461 0.722616 0.96 0.672 0.672
v 0.160109 0.601398 0.730917 0.96 0.672 0.672
v 0.16589 0.601336 0.739081 0.96 0.672 0.672
v 0.171868 0.601274 0.747102 0.96 0.672 0.672
v 0.178037 0.601212 0.754977 0.96 0.672 0.672
v 0.184395 0.601151 0.7627 0.96 0.672 0.672
v 0.190937 0.60109 0.770267 0.96 0.672 0.672
v 0.197661 0.60103 0.777674 0.96 0.672 0.672
v 0.204562 0.60097 0.784917 0.96 0.672 0.672
v 0.211635 0.600911 0.79199 0.96 0.672 0.672
v 0.218878 0.600852 0.798891 0.96 0.672 0.672
v 0.226285 0.600794 0.805615 0.96 0.672 0.672
v 0.233852 0.600737 0.812157 0.96 0.672 0.672
v 0.241576 0.60068 0.818515 0.96 0.672 0.672
v 0.24945 0.600625 0.824685 0.96 0.672 0.672
v 0.257472 0.60057 0.830662 0.96 0.672 0.672
v 0.265635 0.600516 0.836444 0.96 0.672 0.672
v 0.273936 0.600462 0.842026 0.96 0.672 0.672
v 0.282369 0.60041 0.847407 0.96 0.672 0.672
v 0.29093 0.600358 0.852582 0.96 0.672 0.672
v 0.299614 0.600307 0.857549 0.96 0.672 0.672
v 0.308415 0.600258 0.862305 0.96 0.672 0.672
v 0.317328 0.600209 0.866846 0.96 0.672 0.672
v 0.326349 0.600161 0.871171 0.96 0.672 0.672
v 0.335471 0.600115 0.875277 0.96 0.672 0.672
v 0.34469 0.600069 0.879161 0.96 0.672 0.672
v 0.354 0.600025 0.882821 0.96 0.672 0.672
v 0.363396 0.599981 0.886255 0.96 0.672 0.672
v 0.372872 0.599939 0.889461 0.96 0.672 0.672
v 0.382422 0.599898 0.892437 0.96 0.672 0.672
v 0.392042 0.599858 0.895181 0.96 0.672 0.672
v 0.401726 0.59982 0.897693 0.96 0.672 0.672
v 0.411467 0.599782 0.899969 0.96 0.672 0.672
v 0.42126 0.599746 0.902009 0.96 0.672 0.672
v 0.4311 0.599711 0.903813 0.96 0.672 0.672
v 0.440981 0.599678 0.905378 0.96 0.672 0.672
v 0.450896 0.599646 0.906703 0.96 0.672 0.672
v 0.460841 0.599615 0.907789 0.96 0.672 0.672
v 0.470809 0.599585 0.908634 0.96 0.672 0.672
v 0.480794 0.599557 0.909238 0.96 0.672 0.672
v 0.490791 0.599531 0.909601 0.96 0.672 0.672
f 137 5 6
f 137 136 5
f 2 7 266
f 2 266 1
f 4 2 3
f 1 202 6
f 78 4 5
f 79 78 5
f 227 226 1
f 231 230 1
f 230 229 1
f 234 233 1
f 232 231 1
f 233 232 1
f 244 243 1
f 242 241 1
f 243 242 1
f 237 236 1
f 241 240 1
f 240 239 1
f 264 263 1
f 262 261 1
f 263 262 1
f 257 256 1
f 258 257 1
f 259 258 1
f 247 246 1
f 248 247 1
f 251 250 1
f 254 253 1
f 252 251 1
f 253 252 1
f 136 135 5
f 133 132 5
f 128 127 5
f 130 129 5
f 129 128 5
f 114 113 5
f 117 116 5
f 123 122 5
f 122 121 5
f 92 91 5
f 95 94 5
f 102 101 5
f 101 100 5
f 98 97 5
f 113 112 5
f 109 108 5
f 110 109 5
f 105 104 5
f 106 105 5
f 91 90 5
f 86 85 5
f 80 79 5
f 83 82 5
f 229 228 1
f 228 227 1
f 236 235 1
f 235 234 1
f 246 245 1
f 245 244 1
f 239 238 1
f 238 237 1
f 266 265 1
f 265 264 1
f 261 260 1
f 260 259 1
f 249 248 1
f 250 249 1
f 256 255 1
f 255 254 1
f 138 137 6
f 139 138 6
f 142 141 6
f 148 147 6
f 145 144 6
f 159 158 6
f 154 153 6
f 149 148 6
f 150 149 6
f 151 150 6
f 180 179 6
f 177 176 6
f 172 171 6
f 176 175 6
f 175 174 6
f 160 159 6
f 163 162 6
f 169 168 6
f 166 165 6
f 183 182 6
f 184 183 6
f 187 186 6
f 192 191 6
f 188 187 6
f 189 188 6
f 202 201 6
f 201 200 6
f 198 197 6
f 193 192 6
f 194 193 6
f 197 196 6
f 226 225 1
f 221 220 1
f 215 214 1
f 218 217 1
f 203 202 1
f 206 205 1
f 212 211 1
f 209 208 1
f 134 133 5
f 135 134 5
f 131 130 5
f 132 131 5
f 126 125 5
f 127 126 5
f 116 115 5
f 115 114 5
f 119 118 5
f 118 117 5
f 125 124 5
f 124 123 5
f 120 119 5
f 121 120 5
f 94 93 5
f 93 92 5
f 97 96 5
f 96 95 5
f 100 99 5
f 99 98 5
f 111 110 5
f 112 111 5
f 103 102 5
f 104 103 5
f 108 107 5
f 107 106 5
f 89 88 5
f 90 89 5
f 88 87 5
f 87 86 5
f 82 81 5
f 81 80 5
f 85 84 5
f 84 83 5
f 45 44 2
f 43 42 2
f 44 43 2
f 38 37 2
f 42 41 2
f 41 40 2
f 28 27 2
f 32 31 2
f 31 30 2
f 37 36 2
f 36 35 2
f 35 34 2
f 2 8 7
f 9 8 2
f 12 11 2
f 17 16 2
f 13 12 2
f 14 13 2
f 25 24 2
f 23 22 2
f 24 23 2
f 18 17 2
f 22 21 2
f 21 20 2
f 140 139 6
f 141 140 6
f 146 145 6
f 147 146 6
f 143 142 6
f 144 143 6
f 157 156 6
f 158 157 6
f 156 155 6
f 155 154 6
f 153 152 6
f 152 151 6
f 182 181 6
f 181 180 6
f 179 178 6
f 178 177 6
f 174 173 6
f 173 172 6
f 162 161 6
f 161 160 6
f 165 164 6
f 164 163 6
f 171 170 6
f 170 169 6
f 168 167 6
f 167 166 6
f 185 184 6
f 186 185 6
f 190 189 6
f 191 190 6
f 200 199 6
f 199 198 6
f 195 194 6
f 196 195 6
f 224 223 1
f 225 224 1
f 223 222 1
f 222 221 1
f 217 216 1
f 216 215 1
f 220 219 1
f 219 218 1
f 205 204 1
f 204 203 1
f 208 207 1
f 207 206 1
f 214 213 1
f 213 212 1
f 211 210 1
f 210 209 1
f 64 63 4
f 46 4 47
f 46 2 4
f 46 45 2
f 40 39 2
f 39 38 2
f 30 29 2
f 29 28 2
f 33 32 2
f 34 33 2
f 10 9 2
f 11 10 2
f 15 14 2
f 16 15 2
f 27 26 2
f 26 25 2
f 20 19 2
f 19 18 2
f 4 48 47
f 49 48 4
f 51 50 4
f 50 49 4
f 55 54 4
f 54 53 4
f 52 51 4
f 53 52 4
f 63 62 4
f 62 61 4
f 60 59 4
f 61 60 4
f 56 55 4
f 57 56 4
f 59 58 4
f 58 57 4
f 78 77 4
f 77 76 4
f 75 74 4
f 76 75 4
f 71 70 4
f 72 71 4
f 74 73 4
f 73 72 4
f 66 65 4
f 65 64 4
f 70 69 4
f 69 68 4
f 67 66 4
f 68 67 4
