# Created by Open3D 
# object name: face_00004
# number of vertices: 261
# number of triangles: 266
v 0.00726519 0.994861 0.479404 0.672 0.96 0.911851
v 0.995589 0.990355 0.514728 0.672 0.96 0.911851
v 0.99542 0.840873 0.514185 0.672 0.96 0.911851
v 0.994477 0.00404648 0.511144 0.672 0.96 0.911851
v 0.00550273 0.0049491 0.475784 0.672 0.96 0.911851
v 0.00702408 0.859436 0.478909 0.672 0.96 0.911851
v 0.90542 0.501319 0.509746 0.672 0.96 0.911851
v 0.905297 0.511336 0.509778 0.672 0.96 0.911851
v 0.904927 0.521347 0.509801 0.672 0.96 0.911851
v 0.904311 0.531345 0.509815 0.672 0.96 0.911851
v 0.903448 0.541325 0.50982 0.672 0.96 0.911851
v 0.902341 0.551281 0.509816 0.672 0.96 0.911851
v 0.900988 0.561207 0.509803 0.672 0.96 0.911851
v 0.899392 0.571096 0.509782 0.672 0.96 0.911851
v 0.897552 0.580943 0.509751 0.672 0.96 0.911851
v 0.895471 0.590742 0.509712 0.672 0.96 0.911851
v 0.893149 0.600487 0.509664 0.672 0.96 0.911851
v 0.890587 0.610171 0.509607 0.672 0.96 0.911851
v 0.887788 0.619789 0.509542 0.672 0.96 0.911851
v 0.884754 0.629336 0.509467 0.672 0.96 0.911851
v 0.881485 0.638804 0.509385 0.672 0.96 0.911851
v 0.877983 0.648189 0.509293 0.672 0.96 0.911851
v 0.874252 0.657486 0.509193 0.672 0.96 0.911851
v 0.870293 0.666687 0.509085 0.672 0.96 0.911851
v 0.866109 0.675788 0.508968 0.672 0.96 0.911851
v 0.861702 0.684783 0.508842 0.672 0.96 0.911851
v 0.857075 0.693667 0.508709 0.672 0.96 0.911851
v 0.852231 0.702434 0.508567 0.672 0.96 0.911851
v 0.847172 0.711079 0.508417 0.672 0.96 0.911851
v 0.841902 0.719596 0.508259 0.672 0.96 0.911851
v 0.836423 0.727981 0.508094 0.672 0.96 0.911851
v 0.83074 0.736229 0.50792 0.672 0.96 0.911851
v 0.824856 0.744334 0.507739 0.672 0.96 0.911851
v 0.818774 0.752291 0.50755 0.672 0.96 0.911851
v 0.812498 0.760096 0.507354 0.672 0.96 0.911851
v 0.806031 0.767745 0.50715 0.672 0.96 0.911851
v 0.799379 0.775231 0.506939 0.672 0.96 0.911851
v 0.792544 0.782551 0.506721 0.672 0.96 0.911851
v 0.785531 0.7897 0.506496 0.672 0.96 0.911851
v 0.778344 0.796675 0.506264 0.672 0.96 0.911851
v 0.770987 0.80347 0.506025 0.672 0.96 0.911851
v 0.763465 0.810081 0.50578 0.672 0.96 0.911851
v 0.755783 0.816506 0.505528 0.672 0.96 0.911851
v 0.747945 0.822739 0.50527 0.672 0.96 0.911851
v 0.739956 0.828776 0.505006 0.672 0.96 0.911851
v 0.731821 0.834616 0.504737 0.672 0.96 0.911851
v 0.723545 0.840252 0.504461 0.672 0.96 0.911851
v 0.715132 0.845683 0.50418 0.672 0.96 0.911851
v 0.706588 0.850905 0.503893 0.672 0.96 0.911851
v 0.697918 0.855915 0.503601 0.672 0.96 0.911851
v 0.689128 0.86071 0.503304 0.672 0.96 0.911851
v 0.680222 0.865286 0.503002 0.672 0.96 0.911851
v 0.671206 0.869642 0.502695 0.672 0.96 0.911851
v 0.662086 0.873773 0.502384 0.672 0.96 0.911851
v 0.652867 0.877679 0.502068 0.672 0.96 0.911851
v 0.643554 0.881357 0.501748 0.672 0.96 0.911851
v 0.634154 0.884803 0.501425 0.672 0.96 0.911851
v 0.624672 0.888017 0.501097 0.672 0.96 0.911851
v 0.615113 0.890996 0.500766 0.672 0.96 0.911851
v 0.605484 0.893739 0.500432 0.672 0.96 0.911851
v 0.595791 0.896243 0.500094 0.672 0.96 0.911851
v 0.586039 0.898508 0.499753 0.672 0.96 0.911851
v 0.576234 0.900532 0.49941 0.672 0.96 0.911851
v 0.566382 0.902313 0.499064 0.672 0.96 0.911851
v 0.55649 0.903851 0.498716 0.672 0.96 0.911851
v 0.546562 0.905144 0.498366 0.672 0.96 0.911851
v 0.536606 0.906193 0.498013 0.672 0.96 0.911851
v 0.526627 0.906995 0.497659 0.672 0.96 0.911851
v 0.516631 0.907552 0.497304 0.672 0.96 0.911851
v 0.506625 0.907861 0.496947 0.672 0.96 0.911851
v 0.496614 0.907924 0.49659 0.672 0.96 0.911851
v 0.486605 0.907741 0.496231 0.672 0.96 0.911851
v 0.476603 0.90731 0.495872 0.672 0.96 0.911851
v 0.466615 0.906633 0.495512 0.672 0.96 0.911851
v 0.456647 0.90571 0.495153 0.672 0.96 0.911851
v 0.446704 0.904542 0.494793 0.672 0.96 0.911851
v 0.436794 0.903128 0.494433 0.672 0.96 0.911851
v 0.426921 0.901471 0.494074 0.672 0.96 0.911851
v 0.417092 0.899571 0.493716 0.672 0.96 0.911851
v 0.407312 0.897429 0.493359 0.672 0.96 0.911851
v 0.397589 0.895047 0.493002 0.672 0.96 0.911851
v 0.387927 0.892426 0.492648 0.672 0.96 0.911851
v 0.378333 0.889567 0.492294 0.672 0.96 0.911851
v 0.368812 0.886473 0.491943 0.672 0.96 0.911851
v 0.35937 0.883145 0.491593 0.672 0.96 0.911851
v 0.350012 0.879585 0.491246 0.672 0.96 0.911851
v 0.340746 0.875795 0.490901 0.672 0.96 0.911851
v 0.331575 0.871779 0.490558 0.672 0.96 0.911851
v 0.322507 0.867537 0.490219 0.672 0.96 0.911851
v 0.313545 0.863073 0.489882 0.672 0.96 0.911851
v 0.304696 0.858389 0.489549 0.672 0.96 0.911851
v 0.295966 0.853489 0.489219 0.672 0.96 0.911851
v 0.287358 0.848375 0.488893 0.672 0.96 0.911851
v 0.278879 0.84305 0.488571 0.672 0.96 0.911851
v 0.270534 0.837518 0.488253 0.672 0.96 0.911851
v 0.262327 0.831782 0.487939 0.672 0.96 0.911851
v 0.254265 0.825845 0.487629 0.672 0.96 0.911851
v 0.246351 0.819711 0.487324 0.672 0.96 0.911851
v 0.23859 0.813384 0.487024 0.672 0.96 0.911851
v 0.230988 0.806868 0.486728 0.672 0.96 0.911851
v 0.223548 0.800166 0.486438 0.672 0.96 0.911851
v 0.216276 0.793282 0.486154 0.672 0.96 0.911851
v 0.209175 0.786222 0.485874 0.672 0.96 0.911851
v 0.20225 0.778988 0.485601 0.672 0.96 0.911851
v 0.195506 0.771586 0.485333 0.672 0.96 0.911851
v 0.188946 0.76402 0.485071 0.672 0.96 0.911851
v 0.182574 0.756295 0.484816 0.672 0.96 0.911851
v 0.176395 0.748414 0.484566 0.672 0.96 0.911851
v 0.170411 0.740384 0.484323 0.672 0.96 0.911851
v 0.164627 0.732209 0.484087 0.672 0.96 0.911851
v 0.159046 0.723893 0.483858 0.672 0.96 0.911851
v 0.153671 0.715442 0.483635 0.672 0.96 0.911851
v 0.148506 0.706862 0.48342 0.672 0.96 0.911851
v 0.143554 0.698156 0.483211 0.672 0.96 0.911851
v 0.138818 0.689332 0.48301 0.672 0.96 0.911851
v 0.134301 0.680393 0.482817 0.672 0.96 0.911851
v 0.130005 0.671345 0.482631 0.672 0.96 0.911851
v 0.125933 0.662194 0.482452 0.672 0.96 0.911851
v 0.122088 0.652946 0.482281 0.672 0.96 0.911851
v 0.118471 0.643605 0.482119 0.672 0.96 0.911851
v 0.115086 0.634179 0.481964 0.672 0.96 0.911851
v 0.111934 0.624671 0.481817 0.672 0.96 0.911851
v 0.109017 0.615089 0.481678 0.672 0.96 0.911851
v 0.106336 0.605438 0.481547 0.672 0.96 0.911851
v 0.103895 0.595723 0.481425 0.672 0.96 0.911851
v 0.101693 0.585951 0.481311 0.672 0.96 0.911851
v 0.0997321 0.576128 0.481206 0.672 0.96 0.911851
v 0.0980139 0.56626 0.481109 0.672 0.96 0.911851
v 0.0965393 0.556352 0.481021 0.672 0.96 0.911851
v 0.095309 0.54641 0.480941 0.672 0.96 0.911851
v 0.0943239 0.536442 0.48087 0.672 0.96 0.911851
v 0.0935846 0.526452 0.480808 0.672 0.96 0.911851
v 0.0930915 0.516447 0.480754 0.672 0.96 0.911851
v 0.0928448 0.506433 0.480709 0.672 0.96 0.911851
v 0.0928448 0.496415 0.480673 0.672 0.96 0.911851
v 0.0930915 0.486401 0.480646 0.672 0.96 0.911851
v 0.0935846 0.476396 0.480628 0.672 0.96 0.911851
v 0.0943239 0.466405 0.480618 0.672 0.96 0.911851
v 0.095309 0.456437 0.480618 0.672 0.96 0.911851
v 0.0965393 0.446495 0.480626 0.672 0.96 0.911851
v 0.0980139 0.436587 0.480643 0.672 0.96 0.911851
v 0.0997321 0.426718 0.480669 0.672 0.96 0.911851
v 0.101693 0.416894 0.480704 0.672 0.96 0.911851
v 0.103895 0.407122 0.480748 0.672 0.96 0.911851
v 0.106336 0.397407 0.4808 0.672 0.96 0.911851
v 0.109017 0.387755 0.480861 0.672 0.96 0.911851
v 0.111934 0.378172 0.480931 0.672 0.96 0.911851
v 0.115086 0.368663 0.48101 0.672 0.96 0.911851
v 0.118471 0.359236 0.481097 0.672 0.96 0.911851
v 0.122088 0.349894 0.481193 0.672 0.96 0.911851
v 0.125933 0.340645 0.481297 0.672 0.96 0.911851
v 0.130005 0.331493 0.48141 0.672 0.96 0.911851
v 0.134301 0.322444 0.481531 0.672 0.96 0.911851
v 0.138818 0.313504 0.48166 0.672 0.96 0.911851
v 0.143554 0.304678 0.481798 0.672 0.96 0.911851
v 0.148506 0.295972 0.481943 0.672 0.96 0.911851
v 0.153671 0.28739 0.482097 0.672 0.96 0.911851
v 0.159046 0.278938 0.482259 0.672 0.96 0.911851
v 0.164627 0.270621 0.482429 0.672 0.96 0.911851
v 0.170411 0.262444 0.482606 0.672 0.96 0.911851
v 0.176395 0.254412 0.482791 0.672 0.96 0.911851
v 0.182574 0.24653 0.482984 0.672 0.96 0.911851
v 0.188946 0.238803 0.483184 0.672 0.96 0.911851
v 0.195506 0.231235 0.483391 0.672 0.96 0.911851
v 0.20225 0.223831 0.483606 0.672 0.96 0.911851
v 0.209175 0.216596 0.483828 0.672 0.96 0.911851
v 0.216276 0.209534 0.484056 0.672 0.96 0.911851
v 0.223548 0.202648 0.484291 0.672 0.96 0.911851
v 0.230988 0.195944 0.484533 0.672 0.96 0.911851
v 0.23859 0.189426 0.484782 0.672 0.96 0.911851
v 0.246351 0.183097 0.485037 0.672 0.96 0.911851
v 0.254265 0.176961 0.485297 0.672 0.96 0.911851
v 0.262327 0.171022 0.485564 0.672 0.96 0.911851
v 0.270534 0.165284 0.485837 0.672 0.96 0.911851
v 0.278879 0.15975 0.486116 0.672 0.96 0.911851
v 0.287358 0.154423 0.4864 0.672 0.96 0.911851
v 0.295966 0.149306 0.486689 0.672 0.96 0.911851
v 0.304696 0.144404 0.486984 0.672 0.96 0.911851
v 0.313545 0.139718 0.487283 0.672 0.96 0.911851
v 0.322507 0.135252 0.487588 0.672 0.96 0.911851
v 0.331575 0.131008 0.487897 0.672 0.96 0.911851
v 0.340746 0.126988 0.48821 0.672 0.96 0.911851
v 0.350012 0.123197 0.488528 0.672 0.96 0.911851
v 0.35937 0.119634 0.48885 0.672 0.96 0.911851
v 0.368812 0.116304 0.489175 0.672 0.96 0.911851
v 0.378333 0.113207 0.489505 0.672 0.96 0.911851
v 0.387927 0.110346 0.489838 0.672 0.96 0.911851
v 0.397589 0.107722 0.490174 0.672 0.96 0.911851
v 0.407312 0.105337 0.490513 0.672 0.96 0.911851
v 0.417092 0.103193 0.490855 0.672 0.96 0.911851
v 0.426921 0.101291 0.491199 0.672 0.96 0.911851
v 0.436794 0.0996309 0.491546 0.672 0.96 0.911851
v 0.446704 0.0982151 0.491896 0.672 0.96 0.911851
v 0.456647 0.0970441 0.492247 0.672 0.96 0.911851
v 0.466615 0.0961185 0.4926 0.672 0.96 0.911851
v 0.476603 0.095439 0.492955 0.672 0.96 0.911851
v 0.486605 0.0950059 0.493311 0.672 0.96 0.911851
v 0.496614 0.0948195 0.493668 0.672 0.96 0.911851
v 0.506625 0.0948799 0.494026 0.672 0.96 0.911851
v 0.516631 0.0951871 0.494385 0.672 0.96 0.911851
v 0.526627 0.0957409 0.494745 0.672 0.96 0.911851
v 0.536606 0.096541 0.495104 0.672 0.96 0.911851
v 0.546562 0.0975868 0.495464 0.672 0.96 0.911851
v 0.55649 0.0988777 0.495824 0.672 0.96 0.911851
v 0.566382 0.100413 0.496183 0.672 0.96 0.911851
v 0.576234 0.102192 0.496542 0.672 0.96 0.911851
v 0.586039 0.104213 0.496899 0.672 0.96 0.911851
v 0.595791 0.106475 0.497256 0.672 0.96 0.911851
v 0.605484 0.108977 0.497612 0.672 0.96 0.911851
v 0.615113 0.111717 0.497966 0.672 0.96 0.911851
v 0.624672 0.114694 0.498319 0.672 0.96 0.911851
v 0.634154 0.117905 0.498669 0.672 0.96 0.911851
v 0.643554 0.12135 0.499018 0.672 0.96 0.911851
v 0.652867 0.125024 0.499364 0.672 0.96 0.911851
v 0.662086 0.128928 0.499707 0.672 0.96 0.911851
v 0.671206 0.133057 0.500048 0.672 0.96 0.911851
v 0.680222 0.137411 0.500386 0.672 0.96 0.911851
v 0.689128 0.141985 0.500721 0.672 0.96 0.911851
v 0.697918 0.146777 0.501053 0.672 0.96 0.911851
v 0.706588 0.151785 0.501381 0.672 0.96 0.911851
v 0.715132 0.157004 0.501705 0.672 0.96 0.911851
v 0.723545 0.162433 0.502025 0.672 0.96 0.911851
v 0.731821 0.168068 0.502342 0.672 0.96 0.911851
v 0.739956 0.173905 0.502654 0.672 0.96 0.911851
v 0.747945 0.179941 0.502961 0.672 0.96 0.911851
v 0.755783 0.186172 0.503264 0.672 0.96 0.911851
v 0.763465 0.192594 0.503561 0.672 0.96 0.911851
v 0.770987 0.199204 0.503854 0.672 0.96 0.911851
v 0.778344 0.205997 0.504141 0.672 0.96 0.911851
v 0.785531 0.212969 0.504423 0.672 0.96 0.911851
v 0.792544 0.220117 0.5047 0.672 0.96 0.911851
v 0.799379 0.227435 0.504971 0.672 0.96 0.911851
v 0.806031 0.23492 0.505235 0.672 0.96 0.911851
v 0.812498 0.242566 0.505494 0.672 0.96 0.911851
v 0.818774 0.25037 0.505747 0.672 0.96 0.911851
v 0.824856 0.258326 0.505993 0.672 0.96 0.911851
v 0.83074 0.266429 0.506232 0.672 0.96 0.911851
v 0.836423 0.274675 0.506465 0.672 0.96 0.911851
v 0.841902 0.283059 0.506691 0.672 0.96 0.911851
v 0.847172 0.291575 0.50691 0.672 0.96 0.911851
v 0.852231 0.300219 0.507122 0.672 0.96 0.911851
v 0.857075 0.308985 0.507327 0.672 0.96 0.911851
v 0.861702 0.317867 0.507524 0.672 0.96 0.911851
v 0.866109 0.326861 0.507714 0.672 0.96 0.911851
v 0.870293 0.335961 0.507896 0.672 0.96 0.911851
v 0.874252 0.345161 0.508071 0.672 0.96 0.911851
v 0.877983 0.354456 0.508238 0.672 0.96 0.911851
v 0.881485 0.363841 0.508397 0.672 0.96 0.911851
v 0.884754 0.373309 0.508548 0.672 0.96 0.911851
v 0.887788 0.382854 0.50869 0.672 0.96 0.911851
v 0.890587 0.392472 0.508825 0.672 0.96 0.911851
v 0.893149 0.402155 0.508951 0.672 0.96 0.911851
v 0.895471 0.411899 0.509069 0.672 0.96 0.911851
v 0.897552 0.421697 0.509179 0.672 0.96 0.911851
v 0.899392 0.431544 0.50928 0.672 0.96 0.911851
v 0.900988 0.441433 0.509373 0.672 0.96 0.911851
v 0.902341 0.451358 0.509457 0.672 0.96 0.911851
v 0.903448 0.461314 0.509532 0.672 0.96 0.911851
v 0.904311 0.471294 0.509599 0.672 0.96 0.911851
v 0.904927 0.481292 0.509657 0.672 0.96 0.911851
v 0.905297 0.491303 0.509706 0.672 0.96 0.911851
f 1 71 2
f 139 138 5
f 138 137 5
f 136 6 5
f 137 136 5
f 6 136 135
f 143 142 5
f 142 141 5
f 140 139 5
f 141 140 5
f 152 151 5
f 148 147 5
f 149 148 5
f 144 143 5
f 145 144 5
f 147 146 5
f 146 145 5
f 54 53 2
f 80 79 1
f 69 68 2
f 68 67 2
f 129 128 6
f 122 121 6
f 83 82 1
f 81 80 1
f 82 81 1
f 150 149 5
f 151 150 5
f 251 250 4
f 254 253 4
f 233 232 4
f 248 247 4
f 239 238 4
f 235 234 4
f 234 233 4
f 238 237 4
f 52 51 2
f 53 52 2
f 49 48 2
f 72 71 1
f 73 72 1
f 75 74 1
f 74 73 1
f 71 70 2
f 70 69 2
f 17 16 3
f 18 17 3
f 14 13 3
f 13 12 3
f 258 257 4
f 257 256 4
f 9 8 3
f 34 33 3
f 110 109 6
f 102 101 6
f 101 100 6
f 103 102 6
f 104 103 6
f 105 104 6
f 98 97 1
f 97 96 1
f 96 95 1
f 132 131 6
f 133 132 6
f 131 130 6
f 130 129 6
f 124 123 6
f 123 122 6
f 128 127 6
f 127 126 6
f 125 124 6
f 126 125 6
f 253 252 4
f 252 251 4
f 4 231 230
f 232 231 4
f 247 246 4
f 241 240 4
f 240 239 4
f 236 235 4
f 237 236 4
f 46 45 2
f 40 39 3
f 51 50 2
f 50 49 2
f 59 58 2
f 60 59 2
f 62 61 2
f 61 60 2
f 65 64 2
f 76 75 1
f 77 76 1
f 79 78 1
f 78 77 1
f 23 22 3
f 15 14 3
f 16 15 3
f 19 3 20
f 19 18 3
f 12 11 3
f 256 255 4
f 255 254 4
f 7 261 3
f 8 7 3
f 259 258 4
f 36 35 3
f 35 34 3
f 39 38 3
f 111 110 6
f 112 111 6
f 6 108 107
f 109 108 6
f 121 120 6
f 120 119 6
f 115 114 6
f 90 89 1
f 91 90 1
f 93 92 1
f 92 91 1
f 85 84 1
f 84 83 1
f 86 85 1
f 87 86 1
f 89 88 1
f 88 87 1
f 106 6 107
f 106 105 6
f 94 93 1
f 95 94 1
f 226 225 4
f 250 249 4
f 249 248 4
f 242 241 4
f 41 40 3
f 41 3 2
f 42 41 2
f 45 44 2
f 66 65 2
f 67 66 2
f 24 23 3
f 25 24 3
f 27 26 3
f 26 25 3
f 3 21 20
f 22 21 3
f 10 9 3
f 11 10 3
f 261 260 3
f 3 260 4
f 260 259 4
f 37 36 3
f 38 37 3
f 114 113 6
f 113 112 6
f 118 117 6
f 119 118 6
f 117 116 6
f 116 115 6
f 99 98 1
f 6 99 1
f 100 99 6
f 229 4 230
f 229 228 4
f 228 227 4
f 227 226 4
f 219 218 4
f 220 219 4
f 245 244 4
f 246 245 4
f 244 243 4
f 243 242 4
f 195 194 5
f 180 179 5
f 185 184 5
f 177 176 5
f 175 174 5
f 176 175 5
f 58 57 2
f 57 56 2
f 55 54 2
f 56 55 2
f 48 47 2
f 47 46 2
f 43 42 2
f 44 43 2
f 63 62 2
f 64 63 2
f 33 32 3
f 32 31 3
f 31 30 3
f 30 29 3
f 28 27 3
f 29 28 3
f 207 206 4
f 221 220 4
f 222 221 4
f 223 222 4
f 218 217 4
f 217 216 4
f 213 212 4
f 214 213 4
f 216 215 4
f 215 214 4
f 197 196 5
f 196 195 5
f 186 185 5
f 187 186 5
f 182 181 5
f 181 180 5
f 183 182 5
f 184 183 5
f 205 204 4
f 206 205 4
f 212 211 4
f 208 207 4
f 209 208 4
f 225 224 4
f 224 223 4
f 198 197 5
f 4 198 5
f 199 198 4
f 204 203 4
f 203 202 4
f 190 189 5
f 210 209 4
f 211 210 4
f 202 201 4
f 188 187 5
f 189 188 5
f 194 193 5
f 193 192 5
f 191 190 5
f 192 191 5
f 134 6 135
f 134 133 6
f 158 157 5
f 161 160 5
f 153 152 5
f 154 153 5
f 171 170 5
f 174 173 5
f 164 163 5
f 165 164 5
f 179 178 5
f 178 177 5
f 200 199 4
f 201 200 4
f 160 159 5
f 159 158 5
f 163 162 5
f 162 161 5
f 169 168 5
f 170 169 5
f 172 171 5
f 173 172 5
f 155 154 5
f 168 167 5
f 157 156 5
f 156 155 5
f 166 165 5
f 167 166 5
f 3 2 6
f 2 1 6
f 4 3 5
f 4 5 5
f 4 3 4
