# Created by Open3D 
# object name: face_00002
# number of vertices: 133
# number of triangles: 134
v 0.995244 0.991049 0.301002 0.840075 0.96 0.672
v 0.33952 0.99395 0.302698 0.840075 0.96 0.672
v 0.00775833 0.994288 0.303551 0.840075 0.96 0.672
v 0.00597433 0.00174232 0.298936 0.840075 0.96 0.672
v 0.994131 0.000153839 0.296393 0.840075 0.96 0.672
v 0.701727 0.498452 0.299463 0.840075 0.96 0.672
v 0.70148 0.488381 0.299416 0.840075 0.96 0.672
v 0.700739 0.478334 0.299371 0.840075 0.96 0.672
v 0.699506 0.468335 0.299328 0.840075 0.96 0.672
v 0.697783 0.458409 0.299286 0.840075 0.96 0.672
v 0.695576 0.44858 0.299246 0.840075 0.96 0.672
v 0.692889 0.438871 0.299208 0.840075 0.96 0.672
v 0.689729 0.429305 0.299171 0.840075 0.96 0.672
v 0.686103 0.419906 0.299137 0.840075 0.96 0.672
v 0.682021 0.410696 0.299105 0.840075 0.96 0.672
v 0.677492 0.401697 0.299074 0.840075 0.96 0.672
v 0.672526 0.392932 0.299046 0.840075 0.96 0.672
v 0.667136 0.384421 0.299021 0.840075 0.96 0.672
v 0.661335 0.376184 0.298997 0.840075 0.96 0.672
v 0.655137 0.368242 0.298976 0.840075 0.96 0.672
v 0.648557 0.360614 0.298957 0.840075 0.96 0.672
v 0.641611 0.353318 0.298941 0.840075 0.96 0.672
v 0.634314 0.346371 0.298928 0.840075 0.96 0.672
v 0.626686 0.339791 0.298917 0.840075 0.96 0.672
v 0.618744 0.333593 0.298908 0.840075 0.96 0.672
v 0.610508 0.327792 0.298902 0.840075 0.96 0.672
v 0.601996 0.322402 0.298899 0.840075 0.96 0.672
v 0.593231 0.317437 0.298898 0.840075 0.96 0.672
v 0.584232 0.312907 0.2989 0.840075 0.96 0.672
v 0.575023 0.308825 0.298905 0.840075 0.96 0.672
v 0.565623 0.305199 0.298912 0.840075 0.96 0.672
v 0.556058 0.302039 0.298922 0.840075 0.96 0.672
v 0.546348 0.299352 0.298935 0.840075 0.96 0.672
v 0.536519 0.297144 0.29895 0.840075 0.96 0.672
v 0.526593 0.295422 0.298967 0.840075 0.96 0.672
v 0.516595 0.294188 0.298987 0.840075 0.96 0.672
v 0.506548 0.293447 0.299009 0.840075 0.96 0.672
v 0.496476 0.2932 0.299034 0.840075 0.96 0.672
v 0.486405 0.293447 0.299061 0.840075 0.96 0.672
v 0.476358 0.294188 0.29909 0.840075 0.96 0.672
v 0.46636 0.295421 0.299122 0.840075 0.96 0.672
v 0.456434 0.297143 0.299155 0.840075 0.96 0.672
v 0.446605 0.29935 0.299191 0.840075 0.96 0.672
v 0.436895 0.302037 0.299228 0.840075 0.96 0.672
v 0.42733 0.305197 0.299267 0.840075 0.96 0.672
v 0.41793 0.308823 0.299308 0.840075 0.96 0.672
v 0.40872 0.312905 0.299351 0.840075 0.96 0.672
v 0.399722 0.317434 0.299395 0.840075 0.96 0.672
v 0.390956 0.3224 0.299441 0.840075 0.96 0.672
v 0.382445 0.327789 0.299488 0.840075 0.96 0.672
v 0.374209 0.33359 0.299536 0.840075 0.96 0.672
v 0.366267 0.339788 0.299585 0.840075 0.96 0.672
v 0.358638 0.346368 0.299635 0.840075 0.96 0.672
v 0.351342 0.353314 0.299686 0.840075 0.96 0.672
v 0.344396 0.36061 0.299738 0.840075 0.96 0.672
v 0.337815 0.368239 0.29979 0.840075 0.96 0.672
v 0.331617 0.37618 0.299843 0.840075 0.96 0.672
v 0.325817 0.384417 0.299897 0.840075 0.96 0.672
v 0.320427 0.392928 0.29995 0.840075 0.96 0.672
v 0.315461 0.401693 0.300003 0.840075 0.96 0.672
v 0.310932 0.410692 0.300057 0.840075 0.96 0.672
v 0.306849 0.419901 0.30011 0.840075 0.96 0.672
v 0.303224 0.4293 0.300163 0.840075 0.96 0.672
v 0.300064 0.438866 0.300216 0.840075 0.96 0.672
v 0.297377 0.448575 0.300268 0.840075 0.96 0.672
v 0.295169 0.458405 0.30032 0.840075 0.96 0.672
v 0.293447 0.46833 0.30037 0.840075 0.96 0.672
v 0.292214 0.478329 0.30042 0.840075 0.96 0.672
v 0.291473 0.488376 0.300469 0.840075 0.96 0.672
v 0.291226 0.498447 0.300516 0.840075 0.96 0.672
v 0.291473 0.508518 0.300562 0.840075 0.96 0.672
v 0.292214 0.518565 0.300607 0.840075 0.96 0.672
v 0.293447 0.528563 0.30065 0.840075 0.96 0.672
v 0.295169 0.538489 0.300692 0.840075 0.96 0.672
v 0.297377 0.548318 0.300732 0.840075 0.96 0.672
v 0.300064 0.558028 0.300771 0.840075 0.96 0.672
v 0.303224 0.567593 0.300807 0.840075 0.96 0.672
v 0.306849 0.576992 0.300841 0.840075 0.96 0.672
v 0.310932 0.586202 0.300874 0.840075 0.96 0.672
v 0.315461 0.595201 0.300904 0.840075 0.96 0.672
v 0.320427 0.603966 0.300932 0.840075 0.96 0.672
v 0.325817 0.612478 0.300958 0.840075 0.96 0.672
v 0.331617 0.620714 0.300981 0.840075 0.96 0.672
v 0.337815 0.628656 0.301002 0.840075 0.96 0.672
v 0.344396 0.636284 0.301021 0.840075 0.96 0.672
v 0.351342 0.643581 0.301037 0.840075 0.96 0.672
v 0.358638 0.650527 0.301051 0.840075 0.96 0.672
v 0.366267 0.657107 0.301062 0.840075 0.96 0.672
v 0.374209 0.663305 0.30107 0.840075 0.96 0.672
v 0.382445 0.669106 0.301076 0.840075 0.96 0.672
v 0.390956 0.674496 0.301079 0.840075 0.96 0.672
v 0.399722 0.679462 0.30108 0.840075 0.96 0.672
v 0.40872 0.683991 0.301078 0.840075 0.96 0.672
v 0.41793 0.688074 0.301073 0.840075 0.96 0.672
v 0.42733 0.6917 0.301066 0.840075 0.96 0.672
v 0.436895 0.69486 0.301056 0.840075 0.96 0.672
v 0.446605 0.697547 0.301044 0.840075 0.96 0.672
v 0.456434 0.699754 0.301029 0.840075 0.96 0.672
v 0.46636 0.701477 0.301012 0.840075 0.96 0.672
v 0.476358 0.70271 0.300992 0.840075 0.96 0.672
v 0.486405 0.703451 0.300969 0.840075 0.96 0.672
v 0.496476 0.703698 0.300945 0.840075 0.96 0.672
v 0.506548 0.703451 0.300918 0.840075 0.96 0.672
v 0.516595 0.70271 0.300888 0.840075 0.96 0.672
v 0.526593 0.701477 0.300857 0.840075 0.96 0.672
v 0.536519 0.699755 0.300823 0.840075 0.96 0.672
v 0.546348 0.697548 0.300788 0.840075 0.96 0.672
v 0.556058 0.694861 0.300751 0.840075 0.96 0.672
v 0.565623 0.691701 0.300711 0.840075 0.96 0.672
v 0.575023 0.688076 0.30067 0.840075 0.96 0.672
v 0.584232 0.683993 0.300628 0.840075 0.96 0.672
v 0.593231 0.679464 0.300583 0.840075 0.96 0.672
v 0.601996 0.674499 0.300538 0.840075 0.96 0.672
v 0.610508 0.669109 0.300491 0.840075 0.96 0.672
v 0.618744 0.663308 0.300443 0.840075 0.96 0.672
v 0.626686 0.657111 0.300394 0.840075 0.96 0.672
v 0.634314 0.650531 0.300343 0.840075 0.96 0.672
v 0.641611 0.643584 0.300292 0.840075 0.96 0.672
v 0.648557 0.636288 0.30024 0.840075 0.96 0.672
v 0.655137 0.62866 0.300188 0.840075 0.96 0.672
v 0.661335 0.620718 0.300135 0.840075 0.96 0.672
v 0.667136 0.612482 0.300082 0.840075 0.96 0.672
v 0.672526 0.60397 0.300029 0.840075 0.96 0.672
v 0.677492 0.595205 0.299975 0.840075 0.96 0.672
v 0.682021 0.586207 0.299922 0.840075 0.96 0.672
v 0.686103 0.576997 0.299868 0.840075 0.96 0.672
v 0.689729 0.567598 0.299815 0.840075 0.96 0.672
v 0.692889 0.558032 0.299762 0.840075 0.96 0.672
v 0.695576 0.548323 0.29971 0.840075 0.96 0.672
v 0.697783 0.538494 0.299659 0.840075 0.96 0.672
v 0.699506 0.528568 0.299608 0.840075 0.96 0.672
v 0.700739 0.51857 0.299559 0.840075 0.96 0.672
v 0.70148 0.508523 0.29951 0.840075 0.96 0.672
f 38 5 4
f 2 86 3
f 5 6 1
f 109 2 1
f 3 70 4
f 15 14 5
f 18 17 5
f 24 23 5
f 21 20 5
f 133 132 1
f 6 133 1
f 112 111 1
f 72 71 3
f 71 70 3
f 83 82 3
f 84 83 3
f 86 85 3
f 85 84 3
f 27 26 5
f 32 31 5
f 38 37 5
f 35 34 5
f 17 16 5
f 16 15 5
f 20 19 5
f 19 18 5
f 26 25 5
f 25 24 5
f 23 22 5
f 22 21 5
f 123 122 1
f 127 126 1
f 126 125 1
f 132 131 1
f 128 127 1
f 129 128 1
f 120 119 1
f 118 117 1
f 119 118 1
f 113 112 1
f 114 113 1
f 115 114 1
f 110 109 1
f 111 110 1
f 107 106 2
f 80 79 3
f 78 77 3
f 79 78 3
f 73 72 3
f 74 73 3
f 77 76 3
f 29 28 5
f 28 27 5
f 30 29 5
f 31 30 5
f 36 35 5
f 37 36 5
f 33 32 5
f 34 33 5
f 62 61 4
f 59 58 4
f 51 50 4
f 54 53 4
f 39 38 4
f 42 41 4
f 48 47 4
f 45 44 4
f 125 124 1
f 124 123 1
f 130 129 1
f 131 130 1
f 14 13 5
f 13 12 5
f 11 10 5
f 12 11 5
f 7 6 5
f 8 7 5
f 10 9 5
f 9 8 5
f 122 121 1
f 121 120 1
f 117 116 1
f 116 115 1
f 2 103 102
f 104 103 2
f 106 105 2
f 105 104 2
f 109 108 2
f 108 107 2
f 82 81 3
f 81 80 3
f 75 74 3
f 76 75 3
f 63 62 4
f 64 63 4
f 66 65 4
f 65 64 4
f 70 69 4
f 69 68 4
f 67 66 4
f 68 67 4
f 101 2 102
f 101 100 2
f 99 98 2
f 100 99 2
f 95 94 2
f 96 95 2
f 98 97 2
f 97 96 2
f 87 86 2
f 88 87 2
f 90 89 2
f 89 88 2
f 94 93 2
f 93 92 2
f 91 90 2
f 92 91 2
f 60 59 4
f 61 60 4
f 57 56 4
f 58 57 4
f 53 52 4
f 52 51 4
f 56 55 4
f 55 54 4
f 41 40 4
f 40 39 4
f 44 43 4
f 43 42 4
f 50 49 4
f 49 48 4
f 47 46 4
f 46 45 4
f 2 3 2
