# Created by Open3D 
# object name: face_00006
# number of vertices: 8
# number of triangles: 12
v 0.995893 0.98974 0.706286 0.743776 0.672 0.96
v 0.995589 0.990355 0.514728 0.743776 0.672 0.96
v 0.995257 0.991025 0.306036 0.743776 0.672 0.96
v 0.994131 0.000153839 0.296393 0.743776 0.672 0.96
v 0.994477 0.00404648 0.511144 0.743776 0.672 0.96
v 0.994772 0.00736353 0.694141 0.743776 0.672 0.96
v 0.995562 0.699786 0.702701 0.743776 0.672 0.96
v 0.99542 0.840873 0.514185 0.743776 0.672 0.96
f 3 7 4
f 7 2 1
f 2 7 3
f 7 5 4
f 6 5 7
f 7 8 1
f 3 8 4
f 8 7 4
f 8 2 1
f 2 8 3
f 8 5 4
f 8 7 5
