# Created by Open3D 
# object name: face_00005
# number of vertices: 8
# number of triangles: 15
v 0.00774763 0.994303 0.300297 0.96 0.827814 0.672
v 0.00726519 0.994861 0.479404 0.96 0.827814 0.672
v 0.00667342 0.994163 0.698185 0.96 0.827814 0.672
v 0.0061532 0.698061 0.694523 0.96 0.827814 0.672
v 0.00494216 0.0087609 0.685998 0.96 0.827814 0.672
v 0.00550273 0.0049491 0.475784 0.96 0.827814 0.672
v 0.00597433 0.00174232 0.298936 0.96 0.827814 0.672
v 0.00702408 0.859436 0.478909 0.96 0.827814 0.672
f 4 1 7
f 6 4 7
f 4 6 5
f 2 4 3
f 2 1 4
f 8 4 3
f 4 8 7
f 8 1 7
f 2 8 3
f 1 8 2
f 5 4 7
f 4 8 6
f 6 8 7
f 5 6 6
f 5 4 5
