# Created by Open3D 
# object name: face_00007
# number of vertices: 261
# number of triangles: 263
v 0.00667342 0.994163 0.698185 0.684261 0.96 0.672
v 0.995893 0.98974 0.706286 0.684261 0.96 0.672
v 0.995562 0.699786 0.702701 0.684261 0.96 0.672
v 0.994772 0.00736353 0.694141 0.684261 0.96 0.672
v 0.00494216 0.0087609 0.685998 0.684261 0.96 0.672
v 0.0061532 0.698061 0.694523 0.684261 0.96 0.672
v 0.905643 0.499343 0.699484 0.684261 0.96 0.672
v 0.90552 0.509359 0.699606 0.684261 0.96 0.672
v 0.90515 0.519369 0.699727 0.684261 0.96 0.672
v 0.904533 0.529367 0.699845 0.684261 0.96 0.672
v 0.90367 0.539346 0.699962 0.684261 0.96 0.672
v 0.902562 0.549301 0.700075 0.684261 0.96 0.672
v 0.901209 0.559226 0.700187 0.684261 0.96 0.672
v 0.899611 0.569115 0.700296 0.684261 0.96 0.672
v 0.89777 0.578961 0.700402 0.684261 0.96 0.672
v 0.895688 0.588759 0.700506 0.684261 0.96 0.672
v 0.893364 0.598503 0.700607 0.684261 0.96 0.672
v 0.890802 0.608187 0.700706 0.684261 0.96 0.672
v 0.888001 0.617804 0.700802 0.684261 0.96 0.672
v 0.884964 0.62735 0.700894 0.684261 0.96 0.672
v 0.881693 0.636818 0.700984 0.684261 0.96 0.672
v 0.87819 0.646202 0.701071 0.684261 0.96 0.672
v 0.874457 0.655497 0.701156 0.684261 0.96 0.672
v 0.870495 0.664698 0.701237 0.684261 0.96 0.672
v 0.866309 0.673798 0.701314 0.684261 0.96 0.672
v 0.861899 0.682793 0.701389 0.684261 0.96 0.672
v 0.857269 0.691676 0.701461 0.684261 0.96 0.672
v 0.852422 0.700442 0.701529 0.684261 0.96 0.672
v 0.84736 0.709086 0.701594 0.684261 0.96 0.672
v 0.842086 0.717603 0.701656 0.684261 0.96 0.672
v 0.836605 0.725987 0.701714 0.684261 0.96 0.672
v 0.830918 0.734234 0.701769 0.684261 0.96 0.672
v 0.825031 0.742338 0.701821 0.684261 0.96 0.672
v 0.818945 0.750295 0.701869 0.684261 0.96 0.672
v 0.812665 0.758099 0.701914 0.684261 0.96 0.672
v 0.806194 0.765747 0.701955 0.684261 0.96 0.672
v 0.799538 0.773233 0.701992 0.684261 0.96 0.672
v 0.792699 0.780552 0.702026 0.684261 0.96 0.672
v 0.785681 0.787701 0.702057 0.684261 0.96 0.672
v 0.77849 0.794674 0.702084 0.684261 0.96 0.672
v 0.771129 0.801469 0.702107 0.684261 0.96 0.672
v 0.763603 0.80808 0.702126 0.684261 0.96 0.672
v 0.755916 0.814503 0.702142 0.684261 0.96 0.672
v 0.748073 0.820736 0.702155 0.684261 0.96 0.672
v 0.740079 0.826773 0.702163 0.684261 0.96 0.672
v 0.731939 0.832611 0.702169 0.684261 0.96 0.672
v 0.723658 0.838247 0.70217 0.684261 0.96 0.672
v 0.71524 0.843678 0.702168 0.684261 0.96 0.672
v 0.706691 0.848899 0.702162 0.684261 0.96 0.672
v 0.698016 0.853908 0.702152 0.684261 0.96 0.672
v 0.68922 0.858702 0.702139 0.684261 0.96 0.672
v 0.680309 0.863278 0.702122 0.684261 0.96 0.672
v 0.671288 0.867633 0.702101 0.684261 0.96 0.672
v 0.662162 0.871765 0.702077 0.684261 0.96 0.672
v 0.652937 0.87567 0.702049 0.684261 0.96 0.672
v 0.643619 0.879347 0.702018 0.684261 0.96 0.672
v 0.634213 0.882793 0.701983 0.684261 0.96 0.672
v 0.624725 0.886006 0.701944 0.684261 0.96 0.672
v 0.615161 0.888985 0.701902 0.684261 0.96 0.672
v 0.605526 0.891727 0.701857 0.684261 0.96 0.672
v 0.595827 0.894231 0.701808 0.684261 0.96 0.672
v 0.586069 0.896495 0.701755 0.684261 0.96 0.672
v 0.576258 0.898519 0.701699 0.684261 0.96 0.672
v 0.5664 0.9003 0.70164 0.684261 0.96 0.672
v 0.556502 0.901837 0.701577 0.684261 0.96 0.672
v 0.546568 0.90313 0.701511 0.684261 0.96 0.672
v 0.536606 0.904178 0.701442 0.684261 0.96 0.672
v 0.526621 0.90498 0.70137 0.684261 0.96 0.672
v 0.516619 0.905537 0.701294 0.684261 0.96 0.672
v 0.506607 0.905846 0.701216 0.684261 0.96 0.672
v 0.49659 0.905909 0.701134 0.684261 0.96 0.672
v 0.486575 0.905725 0.701049 0.684261 0.96 0.672
v 0.476567 0.905294 0.700961 0.684261 0.96 0.672
v 0.466573 0.904617 0.70087 0.684261 0.96 0.672
v 0.456598 0.903693 0.700777 0.684261 0.96 0.672
v 0.44665 0.902525 0.70068 0.684261 0.96 0.672
v 0.436733 0.901111 0.700581 0.684261 0.96 0.672
v 0.426854 0.899454 0.700479 0.684261 0.96 0.672
v 0.417019 0.897554 0.700375 0.684261 0.96 0.672
v 0.407234 0.895412 0.700267 0.684261 0.96 0.672
v 0.397505 0.89303 0.700158 0.684261 0.96 0.672
v 0.387837 0.890408 0.700046 0.684261 0.96 0.672
v 0.378237 0.88755 0.699931 0.684261 0.96 0.672
v 0.36871 0.884455 0.699814 0.684261 0.96 0.672
v 0.359262 0.881127 0.699695 0.684261 0.96 0.672
v 0.3499 0.877567 0.699574 0.684261 0.96 0.672
v 0.340627 0.873778 0.699451 0.684261 0.96 0.672
v 0.331451 0.869761 0.699326 0.684261 0.96 0.672
v 0.322377 0.86552 0.699199 0.684261 0.96 0.672
v 0.31341 0.861056 0.69907 0.684261 0.96 0.672
v 0.304556 0.856372 0.698939 0.684261 0.96 0.672
v 0.29582 0.851472 0.698806 0.684261 0.96 0.672
v 0.287207 0.846358 0.698672 0.684261 0.96 0.672
v 0.278723 0.841033 0.698536 0.684261 0.96 0.672
v 0.270373 0.835501 0.698399 0.684261 0.96 0.672
v 0.262162 0.829765 0.69826 0.684261 0.96 0.672
v 0.254094 0.823829 0.698121 0.684261 0.96 0.672
v 0.246175 0.817695 0.69798 0.684261 0.96 0.672
v 0.23841 0.811368 0.697837 0.684261 0.96 0.672
v 0.230803 0.804852 0.697694 0.684261 0.96 0.672
v 0.223359 0.79815 0.69755 0.684261 0.96 0.672
v 0.216082 0.791267 0.697405 0.684261 0.96 0.672
v 0.208977 0.784207 0.697259 0.684261 0.96 0.672
v 0.202048 0.776974 0.697113 0.684261 0.96 0.672
v 0.1953 0.769572 0.696966 0.684261 0.96 0.672
v 0.188736 0.762006 0.696818 0.684261 0.96 0.672
v 0.18236 0.754281 0.69667 0.684261 0.96 0.672
v 0.176177 0.746401 0.696522 0.684261 0.96 0.672
v 0.170189 0.738371 0.696373 0.684261 0.96 0.672
v 0.164402 0.730196 0.696225 0.684261 0.96 0.672
v 0.158817 0.721881 0.696076 0.684261 0.96 0.672
v 0.15344 0.713431 0.695927 0.684261 0.96 0.672
v 0.148272 0.704851 0.695778 0.684261 0.96 0.672
v 0.143317 0.696146 0.69563 0.684261 0.96 0.672
v 0.138577 0.687322 0.695482 0.684261 0.96 0.672
v 0.134057 0.678383 0.695334 0.684261 0.96 0.672
v 0.129759 0.669336 0.695187 0.684261 0.96 0.672
v 0.125684 0.660186 0.695041 0.684261 0.96 0.672
v 0.121837 0.650938 0.694895 0.684261 0.96 0.672
v 0.118218 0.641598 0.694749 0.684261 0.96 0.672
v 0.114831 0.632172 0.694605 0.684261 0.96 0.672
v 0.111677 0.622665 0.694462 0.684261 0.96 0.672
v 0.108758 0.613083 0.694319 0.684261 0.96 0.672
v 0.106076 0.603433 0.694178 0.684261 0.96 0.672
v 0.103633 0.593719 0.694038 0.684261 0.96 0.672
v 0.10143 0.583948 0.693899 0.684261 0.96 0.672
v 0.0994677 0.574125 0.693761 0.684261 0.96 0.672
v 0.0977485 0.564257 0.693625 0.684261 0.96 0.672
v 0.096273 0.55435 0.693491 0.684261 0.96 0.672
v 0.095042 0.544409 0.693358 0.684261 0.96 0.672
v 0.0940563 0.534441 0.693226 0.684261 0.96 0.672
v 0.0933165 0.524452 0.693097 0.684261 0.96 0.672
v 0.0928231 0.514448 0.692969 0.684261 0.96 0.672
v 0.0925763 0.504434 0.692844 0.684261 0.96 0.672
v 0.0925763 0.494417 0.69272 0.684261 0.96 0.672
v 0.0928231 0.484404 0.692598 0.684261 0.96 0.672
v 0.0933165 0.474399 0.692479 0.684261 0.96 0.672
v 0.0940563 0.46441 0.692361 0.684261 0.96 0.672
v 0.095042 0.454442 0.692246 0.684261 0.96 0.672
v 0.096273 0.444501 0.692134 0.684261 0.96 0.672
v 0.0977485 0.434593 0.692023 0.684261 0.96 0.672
v 0.0994677 0.424725 0.691916 0.684261 0.96 0.672
v 0.10143 0.414902 0.691811 0.684261 0.96 0.672
v 0.103633 0.405131 0.691708 0.684261 0.96 0.672
v 0.106076 0.395416 0.691608 0.684261 0.96 0.672
v 0.108758 0.385765 0.691511 0.684261 0.96 0.672
v 0.111677 0.376183 0.691417 0.684261 0.96 0.672
v 0.114831 0.366675 0.691325 0.684261 0.96 0.672
v 0.118218 0.357248 0.691237 0.684261 0.96 0.672
v 0.121837 0.347908 0.691151 0.684261 0.96 0.672
v 0.125684 0.338659 0.691069 0.684261 0.96 0.672
v 0.129759 0.329508 0.690989 0.684261 0.96 0.672
v 0.134057 0.32046 0.690913 0.684261 0.96 0.672
v 0.138577 0.311521 0.69084 0.684261 0.96 0.672
v 0.143317 0.302695 0.69077 0.684261 0.96 0.672
v 0.148272 0.293989 0.690703 0.684261 0.96 0.672
v 0.15344 0.285408 0.69064 0.684261 0.96 0.672
v 0.158817 0.276957 0.69058 0.684261 0.96 0.672
v 0.164402 0.268641 0.690523 0.684261 0.96 0.672
v 0.170189 0.260465 0.69047 0.684261 0.96 0.672
v 0.176177 0.252433 0.69042 0.684261 0.96 0.672
v 0.18236 0.244552 0.690373 0.684261 0.96 0.672
v 0.188736 0.236826 0.690331 0.684261 0.96 0.672
v 0.1953 0.229259 0.690291 0.684261 0.96 0.672
v 0.202048 0.221856 0.690255 0.684261 0.96 0.672
v 0.208977 0.214621 0.690223 0.684261 0.96 0.672
v 0.216082 0.207559 0.690194 0.684261 0.96 0.672
v 0.223359 0.200675 0.690169 0.684261 0.96 0.672
v 0.230803 0.193971 0.690148 0.684261 0.96 0.672
v 0.23841 0.187454 0.69013 0.684261 0.96 0.672
v 0.246175 0.181125 0.690116 0.684261 0.96 0.672
v 0.254094 0.17499 0.690106 0.684261 0.96 0.672
v 0.262162 0.169052 0.690099 0.684261 0.96 0.672
v 0.270373 0.163314 0.690095 0.684261 0.96 0.672
v 0.278723 0.15778 0.690096 0.684261 0.96 0.672
v 0.287207 0.152454 0.6901 0.684261 0.96 0.672
v 0.29582 0.147338 0.690108 0.684261 0.96 0.672
v 0.304556 0.142436 0.690119 0.684261 0.96 0.672
v 0.31341 0.137751 0.690135 0.684261 0.96 0.672
v 0.322377 0.133285 0.690153 0.684261 0.96 0.672
v 0.331451 0.129042 0.690176 0.684261 0.96 0.672
v 0.340627 0.125023 0.690202 0.684261 0.96 0.672
v 0.3499 0.121232 0.690231 0.684261 0.96 0.672
v 0.359262 0.11767 0.690264 0.684261 0.96 0.672
v 0.36871 0.11434 0.690301 0.684261 0.96 0.672
v 0.378237 0.111244 0.690341 0.684261 0.96 0.672
v 0.387837 0.108383 0.690385 0.684261 0.96 0.672
v 0.397505 0.10576 0.690433 0.684261 0.96 0.672
v 0.407234 0.103375 0.690483 0.684261 0.96 0.672
v 0.417019 0.101232 0.690538 0.684261 0.96 0.672
v 0.426854 0.0993294 0.690595 0.684261 0.96 0.672
v 0.436733 0.0976701 0.690656 0.684261 0.96 0.672
v 0.44665 0.0962547 0.69072 0.684261 0.96 0.672
v 0.456598 0.095084 0.690788 0.684261 0.96 0.672
v 0.466573 0.0941588 0.690859 0.684261 0.96 0.672
v 0.476567 0.0934795 0.690933 0.684261 0.96 0.672
v 0.486575 0.0930467 0.69101 0.684261 0.96 0.672
v 0.49659 0.0928606 0.69109 0.684261 0.96 0.672
v 0.506607 0.0929213 0.691173 0.684261 0.96 0.672
v 0.516619 0.0932288 0.69126 0.684261 0.96 0.672
v 0.526621 0.0937828 0.691349 0.684261 0.96 0.672
v 0.536606 0.094583 0.691441 0.684261 0.96 0.672
v 0.546568 0.095629 0.691536 0.684261 0.96 0.672
v 0.556502 0.0969202 0.691634 0.684261 0.96 0.672
v 0.5664 0.0984556 0.691735 0.684261 0.96 0.672
v 0.576258 0.100235 0.691838 0.684261 0.96 0.672
v 0.586069 0.102256 0.691944 0.684261 0.96 0.672
v 0.595827 0.104518 0.692052 0.684261 0.96 0.672
v 0.605526 0.10702 0.692163 0.684261 0.96 0.672
v 0.615161 0.10976 0.692276 0.684261 0.96 0.672
v 0.624725 0.112737 0.692392 0.684261 0.96 0.672
v 0.634213 0.115948 0.69251 0.684261 0.96 0.672
v 0.643619 0.119393 0.69263 0.684261 0.96 0.672
v 0.652937 0.123068 0.692752 0.684261 0.96 0.672
v 0.662162 0.126971 0.692876 0.684261 0.96 0.672
v 0.671288 0.131101 0.693003 0.684261 0.96 0.672
v 0.680309 0.135454 0.693131 0.684261 0.96 0.672
v 0.68922 0.140028 0.693261 0.684261 0.96 0.672
v 0.698016 0.14482 0.693393 0.684261 0.96 0.672
v 0.706691 0.149827 0.693526 0.684261 0.96 0.672
v 0.71524 0.155047 0.693661 0.684261 0.96 0.672
v 0.723658 0.160476 0.693797 0.684261 0.96 0.672
v 0.731939 0.16611 0.693935 0.684261 0.96 0.672
v 0.740079 0.171947 0.694074 0.684261 0.96 0.672
v 0.748073 0.177983 0.694215 0.684261 0.96 0.672
v 0.755916 0.184213 0.694356 0.684261 0.96 0.672
v 0.763603 0.190635 0.694499 0.684261 0.96 0.672
v 0.771129 0.197245 0.694643 0.684261 0.96 0.672
v 0.77849 0.204038 0.694787 0.684261 0.96 0.672
v 0.785681 0.21101 0.694933 0.684261 0.96 0.672
v 0.792699 0.218157 0.695079 0.684261 0.96 0.672
v 0.799538 0.225475 0.695226 0.684261 0.96 0.672
v 0.806194 0.232959 0.695373 0.684261 0.96 0.672
v 0.812665 0.240605 0.695521 0.684261 0.96 0.672
v 0.818945 0.248409 0.695669 0.684261 0.96 0.672
v 0.825031 0.256364 0.695818 0.684261 0.96 0.672
v 0.830918 0.264467 0.695966 0.684261 0.96 0.672
v 0.836605 0.272713 0.696115 0.684261 0.96 0.672
v 0.842086 0.281096 0.696264 0.684261 0.96 0.672
v 0.84736 0.289612 0.696412 0.684261 0.96 0.672
v 0.852422 0.298255 0.696561 0.684261 0.96 0.672
v 0.857269 0.30702 0.696709 0.684261 0.96 0.672
v 0.861899 0.315902 0.696857 0.684261 0.96 0.672
v 0.866309 0.324896 0.697004 0.684261 0.96 0.672
v 0.870495 0.333995 0.697151 0.684261 0.96 0.672
v 0.874457 0.343195 0.697298 0.684261 0.96 0.672
v 0.87819 0.35249 0.697443 0.684261 0.96 0.672
v 0.881693 0.361873 0.697588 0.684261 0.96 0.672
v 0.884964 0.371341 0.697732 0.684261 0.96 0.672
v 0.888001 0.380886 0.697875 0.684261 0.96 0.672
v 0.890802 0.390503 0.698017 0.684261 0.96 0.672
v 0.893364 0.400186 0.698158 0.684261 0.96 0.672
v 0.895688 0.409929 0.698297 0.684261 0.96 0.672
v 0.89777 0.419726 0.698435 0.684261 0.96 0.672
v 0.899611 0.429572 0.698572 0.684261 0.96 0.672
v 0.901209 0.439461 0.698707 0.684261 0.96 0.672
v 0.902562 0.449385 0.698841 0.684261 0.96 0.672
v 0.90367 0.45934 0.698973 0.684261 0.96 0.672
v 0.904533 0.46932 0.699104 0.684261 0.96 0.672
v 0.90515 0.479317 0.699232 0.684261 0.96 0.672
v 0.90552 0.489327 0.699359 0.684261 0.96 0.672
f 1 71 2
f 6 108 1
f 70 69 2
f 71 70 2
f 4 198 5
f 108 107 1
f 107 106 1
f 105 104 1
f 106 105 1
f 100 99 1
f 101 100 1
f 102 101 1
f 91 90 1
f 92 91 1
f 94 93 1
f 93 92 1
f 97 96 1
f 95 94 1
f 96 95 1
f 72 71 1
f 73 72 1
f 74 73 1
f 81 80 1
f 77 76 1
f 78 77 1
f 90 89 1
f 86 85 1
f 87 86 1
f 82 81 1
f 83 82 1
f 85 84 1
f 84 83 1
f 55 54 2
f 34 3 2
f 3 256 4
f 104 103 1
f 103 102 1
f 99 98 1
f 98 97 1
f 76 75 1
f 75 74 1
f 79 78 1
f 80 79 1
f 88 87 1
f 89 88 1
f 69 68 2
f 68 67 2
f 66 65 2
f 67 66 2
f 62 61 2
f 63 62 2
f 65 64 2
f 64 63 2
f 57 56 2
f 56 55 2
f 61 60 2
f 60 59 2
f 58 57 2
f 59 58 2
f 39 38 2
f 40 39 2
f 42 41 2
f 41 40 2
f 46 45 2
f 45 44 2
f 43 42 2
f 44 43 2
f 54 53 2
f 53 52 2
f 51 50 2
f 52 51 2
f 47 46 2
f 48 47 2
f 50 49 2
f 49 48 2
f 3 8 7
f 255 254 4
f 256 255 4
f 153 152 5
f 148 147 5
f 142 141 5
f 145 144 5
f 10 9 3
f 9 8 3
f 14 13 3
f 13 12 3
f 11 10 3
f 12 11 3
f 22 21 3
f 21 20 3
f 19 18 3
f 20 19 3
f 15 14 3
f 16 15 3
f 18 17 3
f 17 16 3
f 31 30 3
f 32 31 3
f 34 33 3
f 33 32 3
f 38 37 2
f 37 36 2
f 35 34 2
f 36 35 2
f 23 22 3
f 24 23 3
f 26 25 3
f 25 24 3
f 30 29 3
f 29 28 3
f 27 26 3
f 28 27 3
f 247 246 4
f 248 247 4
f 250 249 4
f 249 248 4
f 254 253 4
f 253 252 4
f 251 250 4
f 252 251 4
f 260 259 3
f 259 258 3
f 231 230 4
f 232 231 4
f 234 233 4
f 233 232 4
f 238 237 4
f 237 236 4
f 235 234 4
f 236 235 4
f 246 245 4
f 245 244 4
f 243 242 4
f 244 243 4
f 239 238 4
f 240 239 4
f 242 241 4
f 241 240 4
f 199 198 4
f 200 199 4
f 202 201 4
f 201 200 4
f 206 205 4
f 205 204 4
f 203 202 4
f 204 203 4
f 214 213 4
f 213 212 4
f 211 210 4
f 212 211 4
f 207 206 4
f 208 207 4
f 210 209 4
f 209 208 4
f 230 229 4
f 229 228 4
f 227 226 4
f 228 227 4
f 223 222 4
f 224 223 4
f 226 225 4
f 225 224 4
f 215 214 4
f 216 215 4
f 218 217 4
f 217 216 4
f 222 221 4
f 221 220 4
f 219 218 4
f 220 219 4
f 198 197 5
f 193 192 5
f 187 186 5
f 190 189 5
f 176 175 5
f 179 178 5
f 184 183 5
f 182 181 5
f 183 182 5
f 154 153 5
f 158 157 5
f 157 156 5
f 164 163 5
f 159 158 5
f 175 174 5
f 174 173 5
f 173 172 5
f 167 166 5
f 168 167 5
f 151 150 5
f 152 151 5
f 150 149 5
f 149 148 5
f 144 143 5
f 143 142 5
f 147 146 5
f 146 145 5
f 261 3 7
f 261 260 3
f 257 256 3
f 258 257 3
f 196 195 5
f 197 196 5
f 195 194 5
f 194 193 5
f 189 188 5
f 188 187 5
f 192 191 5
f 191 190 5
f 178 177 5
f 177 176 5
f 181 180 5
f 180 179 5
f 186 185 5
f 185 184 5
f 156 155 5
f 155 154 5
f 162 161 5
f 163 162 5
f 161 160 5
f 160 159 5
f 171 170 5
f 172 171 5
f 165 164 5
f 166 165 5
f 170 169 5
f 169 168 5
f 6 109 108
f 110 109 6
f 112 111 6
f 111 110 6
f 116 115 6
f 115 114 6
f 113 112 6
f 114 113 6
f 125 124 6
f 124 123 6
f 122 121 6
f 123 122 6
f 119 118 6
f 121 120 6
f 120 119 6
f 140 139 6
f 140 6 5
f 141 140 5
f 138 137 6
f 139 138 6
f 134 133 6
f 135 134 6
f 137 136 6
f 136 135 6
f 126 125 6
f 127 126 6
f 129 128 6
f 128 127 6
f 133 132 6
f 132 131 6
f 130 129 6
f 131 130 6
f 117 116 6
f 118 117 6
f 3 1 6
f 1 3 2
