# Created by Open3D 
# object name: face_00008
# number of vertices: 10
# number of triangles: 9
v 0.980664 0.0429698 0.0847591 0.96 0.672 0.768298
v 0.980895 0.0452941 0.212535 0.96 0.672 0.768298
v 0.981377 0.0501488 0.479414 0.96 0.672 0.768298
v 0.9818 0.0544078 0.713542 0.96 0.672 0.768298
v 0.982257 0.0590118 0.966642 0.96 0.672 0.768298
v 0.989359 0.944484 0.967767 0.96 0.672 0.768298
v 0.988943 0.943898 0.719968 0.96 0.672 0.768298
v 0.988541 0.943333 0.480774 0.96 0.672 0.768298
v 0.988087 0.942694 0.210694 0.96 0.672 0.768298
v 0.987877 0.942398 0.0854118 0.96 0.672 0.768298
f 5 7 6
f 4 7 5
f 7 4 8
f 4 3 8
f 3 9 8
f 2 9 3
f 9 2 10
f 10 2 1
f 5 3 4
