# Created by Open3D 
# object name: face_00002
# number of vertices: 10
# number of triangles: 9
v 0.0151486 0.0504582 0.00220489 0.840075 0.96 0.672
v 0.177384 0.0491999 0.0160765 0.840075 0.96 0.672
v 0.361948 0.0477685 0.0318572 0.840075 0.96 0.672
v 0.598327 0.0459351 0.0520682 0.840075 0.96 0.672
v 0.980664 0.0429698 0.0847591 0.840075 0.96 0.672
v 0.987877 0.942398 0.0854118 0.840075 0.96 0.672
v 0.589798 0.944068 0.0513749 0.840075 0.96 0.672
v 0.355954 0.94505 0.0313806 0.840075 0.96 0.672
v 0.170203 0.945829 0.0154983 0.840075 0.96 0.672
v 0.0217259 0.946452 0.0028031 0.840075 0.96 0.672
f 5 4 6
f 4 7 6
f 4 3 7
f 3 8 7
f 2 8 3
f 9 8 2
f 9 2 1
f 10 9 1
f 8 9 7
