# Created by Open3D 
# object name: face_00001
# number of vertices: 19
# number of triangles: 44
v 0.180995 0.0527565 0.213259 0.672 0.756037 0.96
v 0.18573 0.0574191 0.471764 0.672 0.756037 0.96
v 0.460192 0.0549112 0.474403 0.672 0.756037 0.96
v 0.510773 0.0585887 0.702252 0.672 0.756037 0.96
v 0.70564 0.056859 0.706923 0.672 0.756037 0.96
v 0.752794 0.061659 0.994665 0.672 0.756037 0.96
v 0.982257 0.0590118 0.966642 0.672 0.756037 0.96
v 0.9818 0.0544078 0.713542 0.672 0.756037 0.96
v 0.981377 0.0501488 0.479414 0.672 0.756037 0.96
v 0.980895 0.0452941 0.212535 0.672 0.756037 0.96
v 0.980664 0.0429698 0.0847591 0.672 0.756037 0.96
v 0.598327 0.0459351 0.0520682 0.672 0.756037 0.96
v 0.361948 0.0477685 0.0318572 0.672 0.756037 0.96
v 0.177384 0.0491999 0.0160765 0.672 0.756037 0.96
v 0.0151486 0.0504582 0.00220489 0.672 0.756037 0.96
v 0.0178671 0.0542783 0.213407 0.672 0.756037 0.96
v 0.402174 0.0506931 0.213059 0.672 0.756037 0.96
v 0.624676 0.0486173 0.212858 0.672 0.756037 0.96
v 0.667863 0.0530136 0.476399 0.672 0.756037 0.96
f 3 2 1
f 4 3 1
f 5 4 1
f 6 5 1
f 7 6 1
f 8 7 1
f 9 8 1
f 10 9 1
f 11 10 1
f 12 11 1
f 13 12 1
f 14 13 1
f 15 14 1
f 16 15 1
f 1 16 1
f 8 7 6
f 5 8 6
f 2 17 3
f 1 17 2
f 18 12 1
f 17 18 1
f 13 17 1
f 19 3 1
f 5 19 1
f 18 10 1
f 14 16 15
f 1 16 14
f 19 4 3
f 19 5 4
f 8 5 1
f 19 9 1
f 18 19 1
f 17 18 3
f 18 19 3
f 17 3 1
f 4 5 6
f 5 9 8
f 9 5 19
f 4 19 8
f 19 9 8
f 18 11 10
f 18 12 11
f 8 5 7
f 8 5 8
