# Created by Open3D 
# object name: face_00007
# number of vertices: 10
# number of triangles: 8
v 0.980895 0.0452941 0.212535 0.684261 0.96 0.672
v 0.624676 0.0486173 0.212858 0.684261 0.96 0.672
v 0.402174 0.0506931 0.213059 0.684261 0.96 0.672
v 0.180995 0.0527565 0.213259 0.684261 0.96 0.672
v 0.0178671 0.0542783 0.213407 0.684261 0.96 0.672
v 0.0243889 0.946935 0.211576 0.684261 0.96 0.672
v 0.173816 0.946277 0.211439 0.684261 0.96 0.672
v 0.395898 0.9453 0.211236 0.684261 0.96 0.672
v 0.615984 0.944332 0.211035 0.684261 0.96 0.672
v 0.988087 0.942694 0.210694 0.684261 0.96 0.672
f 2 1 10
f 4 7 5
f 7 6 5
f 9 2 10
f 2 9 3
f 9 8 3
f 8 4 3
f 4 8 7
