# Created by Open3D 
# object name: face_00006
# number of vertices: 18
# number of triangles: 30
v 0.178639 0.946876 0.472982 0.743776 0.672 0.96
v 0.173816 0.946277 0.211439 0.743776 0.672 0.96
v 0.0243889 0.946935 0.211576 0.743776 0.672 0.96
v 0.0217259 0.946452 0.0028031 0.743776 0.672 0.96
v 0.170203 0.945829 0.0154983 0.743776 0.672 0.96
v 0.355954 0.94505 0.0313806 0.743776 0.672 0.96
v 0.988943 0.943898 0.719968 0.743776 0.672 0.96
v 0.989359 0.944484 0.967767 0.743776 0.672 0.96
v 0.744994 0.945629 0.997607 0.743776 0.672 0.96
v 0.698313 0.94516 0.712992 0.743776 0.672 0.96
v 0.659707 0.944772 0.477611 0.743776 0.672 0.96
v 0.395898 0.9453 0.211236 0.743776 0.672 0.96
v 0.615984 0.944332 0.211035 0.743776 0.672 0.96
v 0.589798 0.944068 0.0513749 0.743776 0.672 0.96
v 0.987877 0.942398 0.0854118 0.743776 0.672 0.96
v 0.988087 0.942694 0.210694 0.743776 0.672 0.96
v 0.988541 0.943333 0.480774 0.743776 0.672 0.96
v 0.506312 0.945993 0.708384 0.743776 0.672 0.96
f 3 5 4
f 8 7 9
f 7 10 9
f 5 2 6
f 2 5 3
f 11 12 1
f 12 2 1
f 2 12 6
f 12 11 13
f 12 14 6
f 14 12 13
f 13 15 14
f 13 16 15
f 8 10 9
f 17 10 8
f 16 13 11
f 17 16 11
f 10 7 17
f 13 17 16
f 10 17 13
f 17 8 16
f 13 16 13
f 13 13 18
f 13 18 10
f 13 10 7
f 13 7 17
f 13 10 11
f 13 11 17
f 10 17 11
f 7 10 8
