# Created by Open3D 
# object name: face_00005
# number of vertices: 10
# number of triangles: 9
v 0.752794 0.061659 0.994665 0.96 0.827814 0.672
v 0.70564 0.056859 0.706923 0.96 0.827814 0.672
v 0.667863 0.0530136 0.476399 0.96 0.827814 0.672
v 0.624676 0.0486173 0.212858 0.96 0.827814 0.672
v 0.598327 0.0459351 0.0520682 0.96 0.827814 0.672
v 0.589798 0.944068 0.0513749 0.96 0.827814 0.672
v 0.615984 0.944332 0.211035 0.96 0.827814 0.672
v 0.659707 0.944772 0.477611 0.96 0.827814 0.672
v 0.698313 0.94516 0.712992 0.96 0.827814 0.672
v 0.744994 0.945629 0.997607 0.96 0.827814 0.672
f 5 4 6
f 4 7 6
f 7 4 3
f 8 7 3
f 2 8 3
f 2 9 8
f 9 2 1
f 9 1 10
f 3 1 2
