# Created by Open3D 
# object name: face_00005
# number of vertices: 10
# number of triangles: 15
v 0.769054 0.00167574 0.156431 0.96 0.827814 0.672
v 0.772566 0.0101392 0.370806 0.96 0.827814 0.672
v 0.772193 0.232783 0.371998 0.96 0.827814 0.672
v 0.771277 0.778135 0.374917 0.96 0.827814 0.672
v 0.775002 0.782056 0.601711 0.96 0.827814 0.672
v 0.774848 0.993664 0.615075 0.96 0.827814 0.672
v 0.770914 0.994545 0.376076 0.96 0.827814 0.672
v 0.767355 0.995336 0.159889 0.96 0.827814 0.672
v 0.767732 0.774403 0.15912 0.96 0.827814 0.672
v 0.768623 0.253325 0.157307 0.96 0.827814 0.672
f 10 3 1
f 10 4 3
f 3 2 1
f 7 4 8
f 5 7 6
f 7 5 4
f 4 9 8
f 9 4 10
f 4 7 6
f 4 8 6
f 9 3 4
f 4 3 4
f 7 4 9
f 7 6 6
f 7 4 7
