# Created by Open3D 
# object name: face_00004
# number of vertices: 111
# number of triangles: 117
v 0.226249 0.995887 0.15733 0.672 0.96 0.911851
v 0.225404 0.773729 0.156551 0.672 0.96 0.911851
v 0.223757 0.340589 0.155032 0.672 0.96 0.911851
v 0.222459 -0.000606855 0.153835 0.672 0.96 0.911851
v 0.769054 0.00167574 0.156431 0.672 0.96 0.911851
v 0.768623 0.253325 0.157307 0.672 0.96 0.911851
v 0.767732 0.774403 0.15912 0.672 0.96 0.911851
v 0.767355 0.995336 0.159889 0.672 0.96 0.911851
v 0.65796 0.438786 0.15743 0.672 0.96 0.911851
v 0.657655 0.428788 0.157393 0.672 0.96 0.911851
v 0.656741 0.418827 0.157354 0.672 0.96 0.911851
v 0.655222 0.40894 0.157313 0.672 0.96 0.911851
v 0.653102 0.399164 0.157268 0.672 0.96 0.911851
v 0.650391 0.389536 0.157222 0.672 0.96 0.911851
v 0.647097 0.380091 0.157173 0.672 0.96 0.911851
v 0.643234 0.370864 0.157123 0.672 0.96 0.911851
v 0.638816 0.36189 0.157071 0.672 0.96 0.911851
v 0.633858 0.353202 0.157017 0.672 0.96 0.911851
v 0.628381 0.344832 0.156962 0.672 0.96 0.911851
v 0.622403 0.336812 0.156906 0.672 0.96 0.911851
v 0.615947 0.329171 0.156848 0.672 0.96 0.911851
v 0.609038 0.321939 0.15679 0.672 0.96 0.911851
v 0.6017 0.31514 0.156732 0.672 0.96 0.911851
v 0.593962 0.308802 0.156673 0.672 0.96 0.911851
v 0.585851 0.302947 0.156614 0.672 0.96 0.911851
v 0.577399 0.297598 0.156556 0.672 0.96 0.911851
v 0.568637 0.292774 0.156497 0.672 0.96 0.911851
v 0.559596 0.288493 0.15644 0.672 0.96 0.911851
v 0.550312 0.284771 0.156383 0.672 0.96 0.911851
v 0.540817 0.281622 0.156327 0.672 0.96 0.911851
v 0.531149 0.279058 0.156272 0.672 0.96 0.911851
v 0.521342 0.277088 0.156219 0.672 0.96 0.911851
v 0.511433 0.275719 0.156167 0.672 0.96 0.911851
v 0.501459 0.274958 0.156117 0.672 0.96 0.911851
v 0.491458 0.274805 0.156069 0.672 0.96 0.911851
v 0.481465 0.275263 0.156024 0.672 0.96 0.911851
v 0.471519 0.276329 0.15598 0.672 0.96 0.911851
v 0.461657 0.277999 0.155939 0.672 0.96 0.911851
v 0.451915 0.280268 0.155901 0.672 0.96 0.911851
v 0.442329 0.283126 0.155866 0.672 0.96 0.911851
v 0.432935 0.286563 0.155833 0.672 0.96 0.911851
v 0.423768 0.290567 0.155804 0.672 0.96 0.911851
v 0.414863 0.295122 0.155778 0.672 0.96 0.911851
v 0.406251 0.300211 0.155755 0.672 0.96 0.911851
v 0.397966 0.305816 0.155735 0.672 0.96 0.911851
v 0.390038 0.311916 0.155719 0.672 0.96 0.911851
v 0.382497 0.318487 0.155706 0.672 0.96 0.911851
v 0.37537 0.325506 0.155697 0.672 0.96 0.911851
v 0.368684 0.332947 0.155691 0.672 0.96 0.911851
v 0.362465 0.340781 0.155689 0.672 0.96 0.911851
v 0.356734 0.34898 0.15569 0.672 0.96 0.911851
v 0.351514 0.357513 0.155695 0.672 0.96 0.911851
v 0.346824 0.366348 0.155704 0.672 0.96 0.911851
v 0.342681 0.375453 0.155716 0.672 0.96 0.911851
v 0.339101 0.384793 0.155732 0.672 0.96 0.911851
v 0.336098 0.394334 0.155751 0.672 0.96 0.911851
v 0.333681 0.404041 0.155773 0.672 0.96 0.911851
v 0.331861 0.413877 0.155799 0.672 0.96 0.911851
v 0.330643 0.423805 0.155828 0.672 0.96 0.911851
v 0.330033 0.43379 0.15586 0.672 0.96 0.911851
v 0.330033 0.443793 0.155895 0.672 0.96 0.911851
v 0.330643 0.453777 0.155932 0.672 0.96 0.911851
v 0.331861 0.463705 0.155973 0.672 0.96 0.911851
v 0.333681 0.473541 0.156016 0.672 0.96 0.911851
v 0.336098 0.483248 0.156061 0.672 0.96 0.911851
v 0.339101 0.492789 0.156109 0.672 0.96 0.911851
v 0.342681 0.502129 0.156158 0.672 0.96 0.911851
v 0.346824 0.511234 0.15621 0.672 0.96 0.911851
v 0.351514 0.520069 0.156263 0.672 0.96 0.911851
v 0.356734 0.528602 0.156317 0.672 0.96 0.911851
v 0.362465 0.5368 0.156373 0.672 0.96 0.911851
v 0.368684 0.544634 0.15643 0.672 0.96 0.911851
v 0.37537 0.552075 0.156487 0.672 0.96 0.911851
v 0.382497 0.559094 0.156545 0.672 0.96 0.911851
v 0.390038 0.565665 0.156604 0.672 0.96 0.911851
v 0.397966 0.571764 0.156663 0.672 0.96 0.911851
v 0.406251 0.577369 0.156722 0.672 0.96 0.911851
v 0.414863 0.582458 0.15678 0.672 0.96 0.911851
v 0.423768 0.587013 0.156838 0.672 0.96 0.911851
v 0.432935 0.591016 0.156896 0.672 0.96 0.911851
v 0.442329 0.594453 0.156952 0.672 0.96 0.911851
v 0.451915 0.597311 0.157007 0.672 0.96 0.911851
v 0.461657 0.599579 0.157061 0.672 0.96 0.911851
v 0.471519 0.601249 0.157114 0.672 0.96 0.911851
v 0.481465 0.602315 0.157165 0.672 0.96 0.911851
v 0.491458 0.602772 0.157214 0.672 0.96 0.911851
v 0.501459 0.602619 0.15726 0.672 0.96 0.911851
v 0.511433 0.601857 0.157305 0.672 0.96 0.911851
v 0.521342 0.600488 0.157347 0.672 0.96 0.911851
v 0.531149 0.598518 0.157387 0.672 0.96 0.911851
v 0.540817 0.595953 0.157423 0.672 0.96 0.911851
v 0.550312 0.592804 0.157457 0.672 0.96 0.911851
v 0.559596 0.589082 0.157488 0.672 0.96 0.911851
v 0.568637 0.584801 0.157516 0.672 0.96 0.911851
v 0.577399 0.579976 0.157541 0.672 0.96 0.911851
v 0.585851 0.574627 0.157562 0.672 0.96 0.911851
v 0.593962 0.568772 0.15758 0.672 0.96 0.911851
v 0.6017 0.562433 0.157595 0.672 0.96 0.911851
v 0.609038 0.555635 0.157606 0.672 0.96 0.911851
v 0.615947 0.548402 0.157613 0.672 0.96 0.911851
v 0.622403 0.540761 0.157617 0.672 0.96 0.911851
v 0.628381 0.53274 0.157617 0.672 0.96 0.911851
v 0.633858 0.524371 0.157614 0.672 0.96 0.911851
v 0.638816 0.515682 0.157607 0.672 0.96 0.911851
v 0.643234 0.506708 0.157597 0.672 0.96 0.911851
v 0.647097 0.497481 0.157583 0.672 0.96 0.911851
v 0.650391 0.488036 0.157566 0.672 0.96 0.911851
v 0.653102 0.478408 0.157545 0.672 0.96 0.911851
v 0.655222 0.468632 0.157521 0.672 0.96 0.911851
v 0.656741 0.458745 0.157494 0.672 0.96 0.911851
v 0.657655 0.448784 0.157463 0.672 0.96 0.911851
f 8 86 1
f 35 5 4
f 86 2 1
f 2 65 3
f 3 46 4
f 67 66 2
f 66 65 2
f 28 6 5
f 54 53 3
f 50 49 3
f 51 50 3
f 47 46 3
f 45 44 4
f 46 45 4
f 36 35 4
f 37 36 4
f 39 38 4
f 38 37 4
f 42 41 4
f 40 39 4
f 41 40 4
f 89 88 7
f 92 91 7
f 93 92 7
f 108 107 7
f 6 110 7
f 102 101 7
f 103 102 7
f 52 51 3
f 53 52 3
f 49 48 3
f 48 47 3
f 44 43 4
f 43 42 4
f 55 54 3
f 58 57 3
f 65 64 3
f 64 63 3
f 61 60 3
f 85 2 86
f 82 81 2
f 83 82 2
f 77 76 2
f 81 80 2
f 80 79 2
f 68 67 2
f 69 68 2
f 71 70 2
f 70 69 2
f 76 75 2
f 75 74 2
f 72 71 2
f 88 87 7
f 7 87 8
f 87 86 8
f 90 89 7
f 91 90 7
f 99 98 7
f 98 97 7
f 96 95 7
f 97 96 7
f 95 94 7
f 94 93 7
f 106 105 7
f 107 106 7
f 109 108 7
f 110 109 7
f 111 6 9
f 111 110 6
f 100 99 7
f 101 100 7
f 105 104 7
f 104 103 7
f 6 10 9
f 22 21 6
f 17 16 6
f 25 24 6
f 26 25 6
f 29 28 5
f 57 56 3
f 56 55 3
f 60 59 3
f 59 58 3
f 63 62 3
f 62 61 3
f 84 83 2
f 85 84 2
f 79 78 2
f 78 77 2
f 74 73 2
f 73 72 2
f 12 11 6
f 11 10 6
f 16 15 6
f 15 14 6
f 13 12 6
f 14 13 6
f 20 19 6
f 21 20 6
f 19 18 6
f 18 17 6
f 23 22 6
f 24 23 6
f 28 27 6
f 27 26 6
f 35 34 5
f 34 33 5
f 32 31 5
f 33 32 5
f 31 30 5
f 30 29 5
f 7 86 2
f 87 86 7
f 6 5 4
f 3 6 4
f 1 7 2
f 1 8 7
