# Created by Open3D 
# object name: face_00007
# number of vertices: 266
# number of triangles: 354
v 0.7776 0.993669 0.615029 0.684261 0.96 0.672
v 0.77281 0.993714 0.603942 0.684261 0.96 0.672
v 0.774077 0.993749 0.593979 0.684261 0.96 0.672
v 0.77498 0.993785 0.583976 0.684261 0.96 0.672
v 0.775516 0.993821 0.573947 0.684261 0.96 0.672
v 0.775686 0.993857 0.563905 0.684261 0.96 0.672
v 0.775489 0.993894 0.553863 0.684261 0.96 0.672
v 0.774926 0.993931 0.543836 0.684261 0.96 0.672
v 0.773997 0.993968 0.533836 0.684261 0.96 0.672
v 0.772703 0.994006 0.523876 0.684261 0.96 0.672
v 0.771046 0.994043 0.51397 0.684261 0.96 0.672
v 0.769028 0.994081 0.504131 0.684261 0.96 0.672
v 0.766653 0.994119 0.494373 0.684261 0.96 0.672
v 0.763922 0.994157 0.484708 0.684261 0.96 0.672
v 0.760841 0.994195 0.475149 0.684261 0.96 0.672
v 0.757412 0.994233 0.465708 0.684261 0.96 0.672
v 0.753641 0.99427 0.4564 0.684261 0.96 0.672
v 0.749533 0.994308 0.447235 0.684261 0.96 0.672
v 0.745092 0.994345 0.438227 0.684261 0.96 0.672
v 0.740326 0.994382 0.429386 0.684261 0.96 0.672
v 0.73524 0.994419 0.420726 0.684261 0.96 0.672
v 0.729841 0.994455 0.412257 0.684261 0.96 0.672
v 0.724136 0.994491 0.403991 0.684261 0.96 0.672
v 0.718133 0.994526 0.395939 0.684261 0.96 0.672
v 0.71184 0.994561 0.388112 0.684261 0.96 0.672
v 0.705265 0.994595 0.380519 0.684261 0.96 0.672
v 0.698418 0.994628 0.373172 0.684261 0.96 0.672
v 0.691307 0.994661 0.36608 0.684261 0.96 0.672
v 0.683941 0.994694 0.359252 0.684261 0.96 0.672
v 0.676331 0.994725 0.352698 0.684261 0.96 0.672
v 0.668487 0.994756 0.346426 0.684261 0.96 0.672
v 0.660418 0.994786 0.340445 0.684261 0.96 0.672
v 0.652137 0.994815 0.334762 0.684261 0.96 0.672
v 0.643654 0.994843 0.329386 0.684261 0.96 0.672
v 0.63498 0.99487 0.324323 0.684261 0.96 0.672
v 0.626127 0.994896 0.31958 0.684261 0.96 0.672
v 0.617106 0.994921 0.315164 0.684261 0.96 0.672
v 0.607931 0.994945 0.31108 0.684261 0.96 0.672
v 0.598612 0.994968 0.307334 0.684261 0.96 0.672
v 0.589163 0.99499 0.30393 0.684261 0.96 0.672
v 0.579595 0.995011 0.300875 0.684261 0.96 0.672
v 0.569923 0.99503 0.29817 0.684261 0.96 0.672
v 0.560158 0.995048 0.295821 0.684261 0.96 0.672
v 0.550314 0.995065 0.29383 0.684261 0.96 0.672
v 0.540404 0.995081 0.292199 0.684261 0.96 0.672
v 0.53044 0.995096 0.290932 0.684261 0.96 0.672
v 0.520437 0.995109 0.29003 0.684261 0.96 0.672
v 0.510408 0.995121 0.289493 0.684261 0.96 0.672
v 0.500366 0.995132 0.289323 0.684261 0.96 0.672
v 0.490325 0.995141 0.28952 0.684261 0.96 0.672
v 0.480297 0.995149 0.290084 0.684261 0.96 0.672
v 0.470297 0.995156 0.291013 0.684261 0.96 0.672
v 0.460337 0.995161 0.292307 0.684261 0.96 0.672
v 0.450431 0.995165 0.293964 0.684261 0.96 0.672
v 0.440592 0.995167 0.295981 0.684261 0.96 0.672
v 0.430834 0.995169 0.298357 0.684261 0.96 0.672
v 0.421168 0.995168 0.301087 0.684261 0.96 0.672
v 0.411609 0.995167 0.304169 0.684261 0.96 0.672
v 0.402169 0.995164 0.307597 0.684261 0.96 0.672
v 0.39286 0.995159 0.311368 0.684261 0.96 0.672
v 0.383696 0.995154 0.315477 0.684261 0.96 0.672
v 0.374687 0.995146 0.319917 0.684261 0.96 0.672
v 0.365847 0.995138 0.324684 0.684261 0.96 0.672
v 0.357186 0.995128 0.32977 0.684261 0.96 0.672
v 0.348718 0.995117 0.335169 0.684261 0.96 0.672
v 0.340452 0.995104 0.340874 0.684261 0.96 0.672
v 0.332399 0.995091 0.346877 0.684261 0.96 0.672
v 0.324572 0.995076 0.35317 0.684261 0.96 0.672
v 0.316979 0.995059 0.359744 0.684261 0.96 0.672
v 0.309632 0.995042 0.366592 0.684261 0.96 0.672
v 0.30254 0.995023 0.373703 0.684261 0.96 0.672
v 0.295712 0.995003 0.381069 0.684261 0.96 0.672
v 0.289158 0.994982 0.388679 0.684261 0.96 0.672
v 0.282886 0.99496 0.396523 0.684261 0.96 0.672
v 0.276904 0.994936 0.404591 0.684261 0.96 0.672
v 0.271222 0.994912 0.412872 0.684261 0.96 0.672
v 0.265845 0.994886 0.421356 0.684261 0.96 0.672
v 0.260782 0.99486 0.43003 0.684261 0.96 0.672
v 0.256039 0.994832 0.438883 0.684261 0.96 0.672
v 0.251623 0.994804 0.447903 0.684261 0.96 0.672
v 0.247539 0.994775 0.457079 0.684261 0.96 0.672
v 0.243793 0.994744 0.466397 0.684261 0.96 0.672
v 0.24039 0.994713 0.475846 0.684261 0.96 0.672
v 0.237334 0.994682 0.485414 0.684261 0.96 0.672
v 0.234629 0.994649 0.495086 0.684261 0.96 0.672
v 0.23228 0.994616 0.504851 0.684261 0.96 0.672
v 0.230289 0.994582 0.514695 0.684261 0.96 0.672
v 0.228658 0.994548 0.524605 0.684261 0.96 0.672
v 0.227391 0.994513 0.534569 0.684261 0.96 0.672
v 0.226488 0.994477 0.544571 0.684261 0.96 0.672
v 0.225952 0.994441 0.5546 0.684261 0.96 0.672
v 0.225782 0.994405 0.564642 0.684261 0.96 0.672
v 0.225979 0.994368 0.574684 0.684261 0.96 0.672
v 0.226542 0.994331 0.584712 0.684261 0.96 0.672
v 0.227471 0.994294 0.594712 0.684261 0.96 0.672
v 0.228765 0.994256 0.604672 0.684261 0.96 0.672
v 0.230422 0.994219 0.614577 0.684261 0.96 0.672
v 0.23244 0.994181 0.624416 0.684261 0.96 0.672
v 0.234815 0.994143 0.634175 0.684261 0.96 0.672
v 0.237545 0.994105 0.64384 0.684261 0.96 0.672
v 0.240627 0.994067 0.653399 0.684261 0.96 0.672
v 0.244056 0.994029 0.662839 0.684261 0.96 0.672
v 0.247827 0.993992 0.672147 0.684261 0.96 0.672
v 0.251935 0.993954 0.681312 0.684261 0.96 0.672
v 0.256375 0.993917 0.690321 0.684261 0.96 0.672
v 0.261142 0.99388 0.699161 0.684261 0.96 0.672
v 0.266228 0.993843 0.707821 0.684261 0.96 0.672
v 0.271627 0.993807 0.71629 0.684261 0.96 0.672
v 0.277332 0.993771 0.724556 0.684261 0.96 0.672
v 0.283335 0.993736 0.732608 0.684261 0.96 0.672
v 0.289628 0.993701 0.740436 0.684261 0.96 0.672
v 0.296203 0.993667 0.748028 0.684261 0.96 0.672
v 0.30305 0.993633 0.755375 0.684261 0.96 0.672
v 0.310161 0.993601 0.762467 0.684261 0.96 0.672
v 0.317527 0.993568 0.769295 0.684261 0.96 0.672
v 0.325137 0.993537 0.775849 0.684261 0.96 0.672
v 0.332981 0.993506 0.782121 0.684261 0.96 0.672
v 0.34105 0.993476 0.788103 0.684261 0.96 0.672
v 0.349331 0.993447 0.793785 0.684261 0.96 0.672
v 0.357814 0.993419 0.799162 0.684261 0.96 0.672
v 0.366488 0.993392 0.804225 0.684261 0.96 0.672
v 0.375341 0.993366 0.808967 0.684261 0.96 0.672
v 0.384362 0.993341 0.813384 0.684261 0.96 0.672
v 0.393537 0.993317 0.817468 0.684261 0.96 0.672
v 0.402856 0.993294 0.821214 0.684261 0.96 0.672
v 0.412305 0.993272 0.824617 0.684261 0.96 0.672
v 0.421873 0.993251 0.827673 0.684261 0.96 0.672
v 0.431545 0.993232 0.830377 0.684261 0.96 0.672
v 0.44131 0.993214 0.832726 0.684261 0.96 0.672
v 0.451154 0.993196 0.834718 0.684261 0.96 0.672
v 0.461064 0.993181 0.836348 0.684261 0.96 0.672
v 0.471028 0.993166 0.837615 0.684261 0.96 0.672
v 0.48103 0.993153 0.838518 0.684261 0.96 0.672
v 0.49106 0.993141 0.839054 0.684261 0.96 0.672
v 0.501102 0.99313 0.839224 0.684261 0.96 0.672
v 0.511143 0.993121 0.839027 0.684261 0.96 0.672
v 0.521171 0.993113 0.838464 0.684261 0.96 0.672
v 0.531171 0.993106 0.837534 0.684261 0.96 0.672
v 0.541131 0.993101 0.836241 0.684261 0.96 0.672
v 0.551037 0.993097 0.834584 0.684261 0.96 0.672
v 0.560876 0.993094 0.832566 0.684261 0.96 0.672
v 0.570634 0.993093 0.830191 0.684261 0.96 0.672
v 0.5803 0.993094 0.82746 0.684261 0.96 0.672
v 0.589859 0.993095 0.824379 0.684261 0.96 0.672
v 0.599299 0.993098 0.82095 0.684261 0.96 0.672
v 0.608608 0.993103 0.817179 0.684261 0.96 0.672
v 0.617772 0.993108 0.813071 0.684261 0.96 0.672
v 0.626781 0.993116 0.80863 0.684261 0.96 0.672
v 0.635621 0.993124 0.803864 0.684261 0.96 0.672
v 0.644282 0.993134 0.798778 0.684261 0.96 0.672
v 0.65275 0.993145 0.793378 0.684261 0.96 0.672
v 0.661016 0.993158 0.787674 0.684261 0.96 0.672
v 0.669069 0.993171 0.781671 0.684261 0.96 0.672
v 0.676896 0.993186 0.775378 0.684261 0.96 0.672
v 0.684489 0.993203 0.768803 0.684261 0.96 0.672
v 0.691836 0.99322 0.761956 0.684261 0.96 0.672
v 0.698928 0.993239 0.754844 0.684261 0.96 0.672
v 0.705756 0.993259 0.747479 0.684261 0.96 0.672
v 0.71231 0.99328 0.739869 0.684261 0.96 0.672
v 0.718582 0.993302 0.732024 0.684261 0.96 0.672
v 0.724564 0.993326 0.723956 0.684261 0.96 0.672
v 0.730246 0.99335 0.715675 0.684261 0.96 0.672
v 0.735623 0.993376 0.707192 0.684261 0.96 0.672
v 0.740686 0.993402 0.698518 0.684261 0.96 0.672
v 0.745429 0.99343 0.689665 0.684261 0.96 0.672
v 0.749845 0.993458 0.680644 0.684261 0.96 0.672
v 0.753929 0.993487 0.671469 0.684261 0.96 0.672
v 0.757675 0.993518 0.66215 0.684261 0.96 0.672
v 0.761078 0.993549 0.652701 0.684261 0.96 0.672
v 0.764134 0.99358 0.643134 0.684261 0.96 0.672
v 0.766839 0.993613 0.633461 0.684261 0.96 0.672
v 0.769188 0.993646 0.623696 0.684261 0.96 0.672
v 0.497421 0.993613 0.707477 0.684261 0.96 0.672
v 0.50745 0.993604 0.707115 0.684261 0.96 0.672
v 0.517427 0.993598 0.70603 0.684261 0.96 0.672
v 0.5273 0.993595 0.704228 0.684261 0.96 0.672
v 0.537016 0.993595 0.701718 0.684261 0.96 0.672
v 0.546526 0.993597 0.698513 0.684261 0.96 0.672
v 0.555781 0.993602 0.694631 0.684261 0.96 0.672
v 0.564731 0.993609 0.690091 0.684261 0.96 0.672
v 0.57333 0.993619 0.684918 0.684261 0.96 0.672
v 0.581533 0.993632 0.679137 0.684261 0.96 0.672
v 0.589298 0.993647 0.672779 0.684261 0.96 0.672
v 0.596583 0.993665 0.665878 0.684261 0.96 0.672
v 0.603352 0.993685 0.658469 0.684261 0.96 0.672
v 0.609569 0.993708 0.65059 0.684261 0.96 0.672
v 0.615201 0.993733 0.642284 0.684261 0.96 0.672
v 0.620218 0.993759 0.633593 0.684261 0.96 0.672
v 0.624596 0.993788 0.624563 0.684261 0.96 0.672
v 0.62831 0.993818 0.61524 0.684261 0.96 0.672
v 0.631343 0.99385 0.605674 0.684261 0.96 0.672
v 0.633677 0.993883 0.595913 0.684261 0.96 0.672
v 0.6353 0.993917 0.58601 0.684261 0.96 0.672
v 0.636205 0.993953 0.576015 0.684261 0.96 0.672
v 0.636386 0.993989 0.565982 0.684261 0.96 0.672
v 0.635843 0.994026 0.555961 0.684261 0.96 0.672
v 0.634578 0.994063 0.546005 0.684261 0.96 0.672
v 0.632598 0.994101 0.536167 0.684261 0.96 0.672
v 0.629913 0.994139 0.526498 0.684261 0.96 0.672
v 0.626538 0.994177 0.517047 0.684261 0.96 0.672
v 0.622489 0.994214 0.507864 0.684261 0.96 0.672
v 0.617788 0.994251 0.498998 0.684261 0.96 0.672
v 0.61246 0.994288 0.490494 0.684261 0.96 0.672
v 0.606532 0.994323 0.482396 0.684261 0.96 0.672
v 0.600035 0.994357 0.474748 0.684261 0.96 0.672
v 0.593004 0.99439 0.467588 0.684261 0.96 0.672
v 0.585473 0.994422 0.460954 0.684261 0.96 0.672
v 0.577484 0.994452 0.454881 0.684261 0.96 0.672
v 0.569078 0.994481 0.4494 0.684261 0.96 0.672
v 0.560297 0.994507 0.44454 0.684261 0.96 0.672
v 0.551189 0.994532 0.440326 0.684261 0.96 0.672
v 0.541801 0.994554 0.43678 0.684261 0.96 0.672
v 0.532182 0.994574 0.433921 0.684261 0.96 0.672
v 0.522381 0.994592 0.431764 0.684261 0.96 0.672
v 0.51245 0.994607 0.43032 0.684261 0.96 0.672
v 0.50244 0.994619 0.429595 0.684261 0.96 0.672
v 0.492405 0.994629 0.429595 0.684261 0.96 0.672
v 0.482395 0.994637 0.43032 0.684261 0.96 0.672
v 0.472464 0.994641 0.431764 0.684261 0.96 0.672
v 0.462663 0.994643 0.433921 0.684261 0.96 0.672
v 0.453044 0.994643 0.43678 0.684261 0.96 0.672
v 0.443655 0.994639 0.440326 0.684261 0.96 0.672
v 0.434547 0.994633 0.44454 0.684261 0.96 0.672
v 0.425767 0.994624 0.4494 0.684261 0.96 0.672
v 0.417361 0.994613 0.454881 0.684261 0.96 0.672
v 0.409371 0.994598 0.460954 0.684261 0.96 0.672
v 0.401841 0.994582 0.467588 0.684261 0.96 0.672
v 0.394809 0.994563 0.474748 0.684261 0.96 0.672
v 0.388312 0.994541 0.482396 0.684261 0.96 0.672
v 0.382384 0.994518 0.490494 0.684261 0.96 0.672
v 0.377056 0.994492 0.498998 0.684261 0.96 0.672
v 0.372355 0.994465 0.507864 0.684261 0.96 0.672
v 0.368307 0.994435 0.517047 0.684261 0.96 0.672
v 0.364931 0.994404 0.526498 0.684261 0.96 0.672
v 0.362246 0.994372 0.536167 0.684261 0.96 0.672
v 0.360266 0.994338 0.546005 0.684261 0.96 0.672
v 0.359001 0.994303 0.555961 0.684261 0.96 0.672
v 0.358458 0.994267 0.565982 0.684261 0.96 0.672
v 0.358639 0.994231 0.576015 0.684261 0.96 0.672
v 0.359544 0.994193 0.58601 0.684261 0.96 0.672
v 0.361167 0.994156 0.595913 0.684261 0.96 0.672
v 0.363501 0.994118 0.605674 0.684261 0.96 0.672
v 0.366533 0.99408 0.61524 0.684261 0.96 0.672
v 0.370248 0.994042 0.624563 0.684261 0.96 0.672
v 0.374625 0.994005 0.633593 0.684261 0.96 0.672
v 0.379643 0.993968 0.642284 0.684261 0.96 0.672
v 0.385275 0.993932 0.65059 0.684261 0.96 0.672
v 0.391491 0.993898 0.658469 0.684261 0.96 0.672
v 0.39826 0.993864 0.665878 0.684261 0.96 0.672
v 0.405546 0.993831 0.672779 0.684261 0.96 0.672
v 0.41331 0.993801 0.679137 0.684261 0.96 0.672
v 0.421514 0.993771 0.684918 0.684261 0.96 0.672
v 0.430113 0.993744 0.690091 0.684261 0.96 0.672
v 0.439062 0.993718 0.694631 0.684261 0.96 0.672
v 0.448317 0.993695 0.698513 0.684261 0.96 0.672
v 0.457827 0.993674 0.701718 0.684261 0.96 0.672
v 0.467543 0.993655 0.704228 0.684261 0.96 0.672
v 0.477416 0.993638 0.70603 0.684261 0.96 0.672
v 0.487393 0.993625 0.707115 0.684261 0.96 0.672
v 0.770914 0.994545 0.376076 0.684261 0.96 0.672
v 0.230818 0.995114 0.368491 0.684261 0.96 0.672
v 0.234107 0.993982 0.678602 0.684261 0.96 0.672
v 0.380629 0.993265 0.835323 0.684261 0.96 0.672
v 0.663536 0.993082 0.80777 0.684261 0.96 0.672
v 0.226249 0.995887 0.15733 0.684261 0.96 0.672
v 0.767355 0.995336 0.159889 0.684261 0.96 0.672
f 58 59 221
f 106 245 105
f 208 207 31
f 15 16 200
f 199 198 13
f 199 15 200
f 193 192 172
f 216 48 49
f 57 58 221
f 227 70 71
f 70 227 69
f 75 229 74
f 229 73 74
f 252 118 119
f 120 252 119
f 232 80 81
f 80 232 79
f 85 234 84
f 234 83 84
f 95 239 94
f 239 93 94
f 247 109 110
f 109 247 108
f 103 243 102
f 243 101 102
f 106 107 245
f 33 209 208
f 209 33 34
f 16 17 200
f 14 199 13
f 199 14 15
f 7 196 195
f 8 196 7
f 6 7 195
f 2 193 172
f 2 172 1
f 169 170 191
f 171 192 191
f 170 171 191
f 192 171 172
f 190 189 167
f 190 169 191
f 146 179 145
f 179 146 147
f 180 179 147
f 47 48 216
f 45 214 44
f 44 214 43
f 219 53 54
f 219 54 55
f 69 226 68
f 227 226 69
f 226 67 68
f 228 227 71
f 72 228 71
f 229 228 73
f 228 72 73
f 123 254 122
f 254 123 124
f 253 252 120
f 121 253 120
f 253 121 122
f 254 253 122
f 231 78 79
f 232 231 79
f 231 77 78
f 83 233 82
f 234 233 83
f 233 81 82
f 233 232 81
f 93 238 92
f 239 238 93
f 238 91 92
f 111 248 110
f 248 247 110
f 248 111 112
f 247 246 108
f 246 107 108
f 107 246 245
f 104 244 103
f 244 243 103
f 245 244 105
f 244 104 105
f 242 100 101
f 243 242 101
f 100 242 99
f 207 30 31
f 29 30 207
f 26 205 25
f 29 206 28
f 206 29 207
f 205 204 25
f 35 209 34
f 32 208 31
f 32 33 208
f 153 154 183
f 197 11 198
f 11 197 10
f 5 6 195
f 194 5 195
f 5 194 4
f 3 194 193
f 2 3 193
f 194 3 4
f 154 155 183
f 155 184 183
f 184 155 156
f 185 157 158
f 184 157 185
f 157 184 156
f 187 161 162
f 186 161 187
f 161 186 160
f 168 190 167
f 190 168 169
f 188 165 189
f 165 188 164
f 180 148 149
f 148 180 147
f 181 180 149
f 215 47 216
f 47 215 46
f 215 45 46
f 215 214 45
f 53 218 52
f 219 218 53
f 218 51 52
f 56 220 55
f 220 219 55
f 220 57 221
f 57 220 56
f 67 225 66
f 226 225 67
f 225 65 66
f 125 255 124
f 255 254 124
f 255 125 126
f 230 75 76
f 230 229 75
f 77 230 76
f 231 230 77
f 237 90 91
f 238 237 91
f 90 237 89
f 249 112 113
f 249 248 112
f 114 249 113
f 241 98 99
f 242 241 99
f 98 241 97
f 26 27 205
f 27 206 205
f 206 27 28
f 204 24 25
f 203 21 22
f 35 210 209
f 211 210 37
f 211 39 212
f 39 40 212
f 40 41 212
f 41 213 212
f 213 41 42
f 214 213 43
f 213 42 43
f 198 12 13
f 11 12 198
f 197 9 10
f 9 197 196
f 9 196 8
f 159 186 185
f 159 185 158
f 186 159 160
f 163 188 187
f 163 187 162
f 188 163 164
f 189 166 167
f 165 166 189
f 150 181 149
f 181 150 151
f 182 153 183
f 153 182 152
f 152 182 151
f 182 181 151
f 217 216 49
f 50 217 49
f 51 217 50
f 218 217 51
f 224 64 65
f 225 224 65
f 64 224 63
f 256 126 127
f 256 255 126
f 128 256 127
f 236 88 89
f 237 236 89
f 88 236 87
f 250 114 115
f 250 249 114
f 250 115 116
f 240 96 97
f 241 240 97
f 240 95 96
f 240 239 95
f 203 23 204
f 23 24 204
f 23 203 22
f 202 20 21
f 203 202 21
f 20 202 19
f 210 36 37
f 36 210 35
f 38 211 37
f 38 39 211
f 223 62 63
f 224 223 63
f 62 223 61
f 129 257 128
f 257 256 128
f 257 129 130
f 235 86 87
f 236 235 87
f 235 85 86
f 235 234 85
f 117 251 116
f 251 250 116
f 252 251 118
f 251 117 118
f 17 201 200
f 201 17 18
f 201 18 19
f 202 201 19
f 222 59 60
f 59 222 221
f 61 222 60
f 223 222 61
f 131 258 130
f 258 257 130
f 132 258 131
f 259 132 133
f 259 258 132
f 134 259 133
f 173 134 135
f 173 259 134
f 136 174 135
f 174 173 135
f 174 136 137
f 175 137 138
f 175 174 137
f 139 175 138
f 176 139 140
f 176 175 139
f 141 176 140
f 177 141 142
f 177 176 141
f 177 142 143
f 144 178 143
f 178 177 143
f 179 178 145
f 178 144 145
f 216 260 261
f 264 174 263
f 262 236 261
f 199 1 260
f 217 216 261
f 220 219 261
f 226 225 261
f 223 222 261
f 229 228 261
f 232 231 261
f 235 234 261
f 236 235 261
f 1 187 264
f 192 191 1
f 249 262 263
f 250 249 263
f 219 218 261
f 218 217 261
f 222 221 261
f 221 220 261
f 228 227 261
f 227 226 261
f 225 224 261
f 224 223 261
f 231 230 261
f 230 229 261
f 234 233 261
f 233 232 261
f 239 262 240
f 239 238 262
f 237 236 262
f 238 237 262
f 214 213 260
f 213 212 260
f 206 205 260
f 207 206 260
f 210 209 260
f 205 204 260
f 202 201 260
f 1 195 194
f 196 195 1
f 199 198 1
f 193 1 194
f 193 192 1
f 216 215 260
f 215 214 260
f 211 210 260
f 212 211 260
f 208 207 260
f 209 208 260
f 203 202 260
f 204 203 260
f 200 199 260
f 201 200 260
f 197 196 1
f 198 197 1
f 191 190 1
f 190 189 1
f 188 187 1
f 189 188 1
f 174 173 263
f 256 255 263
f 251 250 263
f 252 251 263
f 253 252 263
f 175 174 264
f 180 179 264
f 185 184 264
f 259 258 263
f 173 259 263
f 258 257 263
f 257 256 263
f 255 254 263
f 254 253 263
f 262 241 240
f 242 241 262
f 244 243 262
f 243 242 262
f 249 248 262
f 248 247 262
f 245 244 262
f 177 176 264
f 176 175 264
f 178 177 264
f 179 178 264
f 187 186 264
f 186 185 264
f 181 180 264
f 182 181 264
f 184 183 264
f 183 182 264
f 247 246 262
f 246 245 262
f 261 266 265
f 266 261 260
