# Created by Open3D 
# object name: face_00006
# number of vertices: 111
# number of triangles: 128
v 0.227022 0.00766048 0.363128 0.743776 0.672 0.96
v 0.228224 0.32036 0.364826 0.743776 0.672 0.96
v 0.229981 0.777375 0.367308 0.743776 0.672 0.96
v 0.230818 0.995114 0.368491 0.743776 0.672 0.96
v 0.770914 0.994545 0.376076 0.743776 0.672 0.96
v 0.771277 0.778135 0.374917 0.743776 0.672 0.96
v 0.772193 0.232783 0.371998 0.743776 0.672 0.96
v 0.772566 0.0101392 0.370806 0.743776 0.672 0.96
v 0.652857 0.441846 0.371445 0.743776 0.672 0.96
v 0.652552 0.451845 0.371495 0.743776 0.672 0.96
v 0.651638 0.461806 0.371535 0.743776 0.672 0.96
v 0.650118 0.471692 0.371567 0.743776 0.672 0.96
v 0.647999 0.481468 0.37159 0.743776 0.672 0.96
v 0.645288 0.491097 0.371604 0.743776 0.672 0.96
v 0.641995 0.500542 0.371608 0.743776 0.672 0.96
v 0.638132 0.509769 0.371604 0.743776 0.672 0.96
v 0.633714 0.518743 0.37159 0.743776 0.672 0.96
v 0.628757 0.527432 0.371567 0.743776 0.672 0.96
v 0.62328 0.535802 0.371535 0.743776 0.672 0.96
v 0.617302 0.543822 0.371494 0.743776 0.672 0.96
v 0.610847 0.551464 0.371444 0.743776 0.672 0.96
v 0.603938 0.558697 0.371386 0.743776 0.672 0.96
v 0.596602 0.565496 0.37132 0.743776 0.672 0.96
v 0.588864 0.571835 0.371245 0.743776 0.672 0.96
v 0.580754 0.57769 0.371163 0.743776 0.672 0.96
v 0.572303 0.58304 0.371073 0.743776 0.672 0.96
v 0.563541 0.587865 0.370976 0.743776 0.672 0.96
v 0.554501 0.592147 0.370872 0.743776 0.672 0.96
v 0.545217 0.59587 0.370761 0.743776 0.672 0.96
v 0.535724 0.599019 0.370645 0.743776 0.672 0.96
v 0.526056 0.601585 0.370523 0.743776 0.672 0.96
v 0.51625 0.603555 0.370396 0.743776 0.672 0.96
v 0.506342 0.604925 0.370264 0.743776 0.672 0.96
v 0.49637 0.605688 0.370128 0.743776 0.672 0.96
v 0.486369 0.605841 0.369988 0.743776 0.672 0.96
v 0.476377 0.605384 0.369845 0.743776 0.672 0.96
v 0.466432 0.604319 0.3697 0.743776 0.672 0.96
v 0.456571 0.60265 0.369552 0.743776 0.672 0.96
v 0.446829 0.600382 0.369403 0.743776 0.672 0.96
v 0.437244 0.597525 0.369253 0.743776 0.672 0.96
v 0.427851 0.594088 0.369103 0.743776 0.672 0.96
v 0.418685 0.590086 0.368952 0.743776 0.672 0.96
v 0.40978 0.585532 0.368803 0.743776 0.672 0.96
v 0.40117 0.580443 0.368655 0.743776 0.672 0.96
v 0.392885 0.574839 0.368508 0.743776 0.672 0.96
v 0.384958 0.56874 0.368364 0.743776 0.672 0.96
v 0.377417 0.562169 0.368223 0.743776 0.672 0.96
v 0.370291 0.555151 0.368085 0.743776 0.672 0.96
v 0.363606 0.547711 0.367951 0.743776 0.672 0.96
v 0.357387 0.539878 0.367821 0.743776 0.672 0.96
v 0.351657 0.531679 0.367697 0.743776 0.672 0.96
v 0.346437 0.523147 0.367578 0.743776 0.672 0.96
v 0.341748 0.514312 0.367464 0.743776 0.672 0.96
v 0.337605 0.505208 0.367357 0.743776 0.672 0.96
v 0.334026 0.495868 0.367257 0.743776 0.672 0.96
v 0.331022 0.486327 0.367163 0.743776 0.672 0.96
v 0.328606 0.476621 0.367077 0.743776 0.672 0.96
v 0.326786 0.466785 0.366998 0.743776 0.672 0.96
v 0.325568 0.456857 0.366928 0.743776 0.672 0.96
v 0.324959 0.446873 0.366866 0.743776 0.672 0.96
v 0.324959 0.43687 0.366812 0.743776 0.672 0.96
v 0.325568 0.426885 0.366767 0.743776 0.672 0.96
v 0.326786 0.416957 0.36673 0.743776 0.672 0.96
v 0.328606 0.407121 0.366703 0.743776 0.672 0.96
v 0.331022 0.397414 0.366685 0.743776 0.672 0.96
v 0.334026 0.387873 0.366676 0.743776 0.672 0.96
v 0.337605 0.378532 0.366676 0.743776 0.672 0.96
v 0.341748 0.369428 0.366685 0.743776 0.672 0.96
v 0.346437 0.360592 0.366703 0.743776 0.672 0.96
v 0.351657 0.352059 0.366731 0.743776 0.672 0.96
v 0.357387 0.34386 0.366767 0.743776 0.672 0.96
v 0.363606 0.336025 0.366813 0.743776 0.672 0.96
v 0.370291 0.328584 0.366866 0.743776 0.672 0.96
v 0.377417 0.321565 0.366929 0.743776 0.672 0.96
v 0.384958 0.314993 0.366999 0.743776 0.672 0.96
v 0.392885 0.308893 0.367078 0.743776 0.672 0.96
v 0.40117 0.303288 0.367164 0.743776 0.672 0.96
v 0.40978 0.298198 0.367258 0.743776 0.672 0.96
v 0.418685 0.293642 0.367358 0.743776 0.672 0.96
v 0.427851 0.289638 0.367466 0.743776 0.672 0.96
v 0.437244 0.2862 0.367579 0.743776 0.672 0.96
v 0.446829 0.283342 0.367698 0.743776 0.672 0.96
v 0.456571 0.281073 0.367823 0.743776 0.672 0.96
v 0.466432 0.279402 0.367953 0.743776 0.672 0.96
v 0.476377 0.278335 0.368087 0.743776 0.672 0.96
v 0.486369 0.277877 0.368225 0.743776 0.672 0.96
v 0.49637 0.278029 0.368366 0.743776 0.672 0.96
v 0.506342 0.27879 0.36851 0.743776 0.672 0.96
v 0.51625 0.280158 0.368657 0.743776 0.672 0.96
v 0.526056 0.282127 0.368805 0.743776 0.672 0.96
v 0.535724 0.284691 0.368955 0.743776 0.672 0.96
v 0.545217 0.287839 0.369105 0.743776 0.672 0.96
v 0.554501 0.291561 0.369255 0.743776 0.672 0.96
v 0.563541 0.295841 0.369405 0.743776 0.672 0.96
v 0.572303 0.300664 0.369554 0.743776 0.672 0.96
v 0.580754 0.306013 0.369702 0.743776 0.672 0.96
v 0.588864 0.311867 0.369847 0.743776 0.672 0.96
v 0.596602 0.318205 0.36999 0.743776 0.672 0.96
v 0.603938 0.325003 0.37013 0.743776 0.672 0.96
v 0.610847 0.332235 0.370266 0.743776 0.672 0.96
v 0.617302 0.339876 0.370397 0.743776 0.672 0.96
v 0.62328 0.347895 0.370524 0.743776 0.672 0.96
v 0.628757 0.356265 0.370646 0.743776 0.672 0.96
v 0.633714 0.364952 0.370763 0.743776 0.672 0.96
v 0.638132 0.373926 0.370873 0.743776 0.672 0.96
v 0.641995 0.383152 0.370977 0.743776 0.672 0.96
v 0.645288 0.392597 0.371074 0.743776 0.672 0.96
v 0.647999 0.402225 0.371164 0.743776 0.672 0.96
v 0.650118 0.412001 0.371246 0.743776 0.672 0.96
v 0.651638 0.421887 0.371321 0.743776 0.672 0.96
v 0.652552 0.431848 0.371387 0.743776 0.672 0.96
f 8 87 1
f 57 3 2
f 78 77 1
f 57 56 3
f 76 2 1
f 77 76 1
f 11 7 6
f 7 93 8
f 55 54 3
f 56 55 3
f 3 35 4
f 87 86 1
f 86 85 1
f 84 83 1
f 85 84 1
f 79 78 1
f 83 82 1
f 82 81 1
f 31 6 32
f 27 26 6
f 21 20 6
f 24 23 6
f 18 17 6
f 17 16 6
f 14 13 6
f 11 10 7
f 64 63 2
f 60 59 2
f 61 60 2
f 41 40 3
f 40 39 3
f 37 36 3
f 36 35 3
f 34 5 4
f 35 34 4
f 34 6 5
f 54 53 3
f 50 49 3
f 51 50 3
f 44 43 3
f 47 46 3
f 81 80 1
f 80 79 1
f 71 70 2
f 74 73 2
f 30 29 6
f 31 30 6
f 29 28 6
f 28 27 6
f 23 22 6
f 22 21 6
f 26 25 6
f 25 24 6
f 20 19 6
f 19 18 6
f 15 14 6
f 16 15 6
f 12 11 6
f 13 12 6
f 7 9 111
f 10 9 7
f 97 96 7
f 94 93 7
f 88 87 8
f 91 90 8
f 110 7 111
f 108 107 7
f 102 101 7
f 105 104 7
f 70 69 2
f 69 68 2
f 67 66 2
f 68 67 2
f 66 65 2
f 65 64 2
f 58 57 2
f 59 58 2
f 63 62 2
f 62 61 2
f 43 42 3
f 42 41 3
f 38 37 3
f 39 38 3
f 6 33 32
f 34 33 6
f 52 51 3
f 53 52 3
f 46 45 3
f 45 44 3
f 49 48 3
f 48 47 3
f 73 72 2
f 72 71 2
f 76 75 2
f 75 74 2
f 99 98 7
f 98 97 7
f 96 95 7
f 95 94 7
f 90 89 8
f 89 88 8
f 93 92 8
f 92 91 8
f 109 108 7
f 110 109 7
f 106 105 7
f 107 106 7
f 100 99 7
f 101 100 7
f 103 102 7
f 104 103 7
f 3 34 6
f 35 34 3
f 89 88 7
f 88 87 7
f 90 89 7
f 91 90 7
f 92 91 7
f 93 92 7
f 78 77 2
f 81 80 2
f 80 79 2
f 79 78 2
f 77 76 2
f 8 7 1
f 7 2 1
f 6 4 3
f 5 4 6
