# Created by Open3D 
# object name: face_00009
# number of vertices: 267
# number of triangles: 354
v 0.775002 0.782056 0.601711 0.672 0.852335 0.96
v 0.771476 0.782219 0.611359 0.672 0.852335 0.96
v 0.769552 0.782387 0.621214 0.672 0.852335 0.96
v 0.767269 0.782553 0.630994 0.672 0.852335 0.96
v 0.76463 0.782718 0.640683 0.672 0.852335 0.96
v 0.761639 0.78288 0.650269 0.672 0.852335 0.96
v 0.7583 0.783039 0.65974 0.672 0.852335 0.96
v 0.754617 0.783196 0.669083 0.672 0.852335 0.96
v 0.750595 0.783351 0.678285 0.672 0.852335 0.96
v 0.74624 0.783502 0.687333 0.672 0.852335 0.96
v 0.741557 0.78365 0.696217 0.672 0.852335 0.96
v 0.736553 0.783795 0.704924 0.672 0.852335 0.96
v 0.731234 0.783935 0.713442 0.672 0.852335 0.96
v 0.725608 0.784073 0.721761 0.672 0.852335 0.96
v 0.719681 0.784206 0.729868 0.672 0.852335 0.96
v 0.713462 0.784335 0.737754 0.672 0.852335 0.96
v 0.70696 0.784459 0.745407 0.672 0.852335 0.96
v 0.700182 0.78458 0.752818 0.672 0.852335 0.96
v 0.693138 0.784695 0.759976 0.672 0.852335 0.96
v 0.685837 0.784806 0.766872 0.672 0.852335 0.96
v 0.67829 0.784911 0.773497 0.672 0.852335 0.96
v 0.670505 0.785012 0.779843 0.672 0.852335 0.96
v 0.662493 0.785107 0.785899 0.672 0.852335 0.96
v 0.654266 0.785197 0.791659 0.672 0.852335 0.96
v 0.645834 0.785282 0.797115 0.672 0.852335 0.96
v 0.637208 0.78536 0.802259 0.672 0.852335 0.96
v 0.628401 0.785434 0.807085 0.672 0.852335 0.96
v 0.619422 0.785501 0.811586 0.672 0.852335 0.96
v 0.610286 0.785562 0.815756 0.672 0.852335 0.96
v 0.601003 0.785618 0.819589 0.672 0.852335 0.96
v 0.591586 0.785667 0.823081 0.672 0.852335 0.96
v 0.582048 0.78571 0.826227 0.672 0.852335 0.96
v 0.572401 0.785747 0.829023 0.672 0.852335 0.96
v 0.562659 0.785778 0.831464 0.672 0.852335 0.96
v 0.552834 0.785803 0.833548 0.672 0.852335 0.96
v 0.54294 0.785821 0.835272 0.672 0.852335 0.96
v 0.532989 0.785833 0.836633 0.672 0.852335 0.96
v 0.522995 0.785839 0.83763 0.672 0.852335 0.96
v 0.512972 0.785838 0.838262 0.672 0.852335 0.96
v 0.502932 0.785831 0.838527 0.672 0.852335 0.96
v 0.492889 0.785817 0.838425 0.672 0.852335 0.96
v 0.482856 0.785798 0.837957 0.672 0.852335 0.96
v 0.472847 0.785772 0.837122 0.672 0.852335 0.96
v 0.462876 0.785739 0.835923 0.672 0.852335 0.96
v 0.452955 0.785701 0.83436 0.672 0.852335 0.96
v 0.443097 0.785656 0.832436 0.672 0.852335 0.96
v 0.433317 0.785605 0.830154 0.672 0.852335 0.96
v 0.423626 0.785549 0.827515 0.672 0.852335 0.96
v 0.414038 0.785486 0.824525 0.672 0.852335 0.96
v 0.404566 0.785417 0.821186 0.672 0.852335 0.96
v 0.395222 0.785343 0.817504 0.672 0.852335 0.96
v 0.386019 0.785263 0.813483 0.672 0.852335 0.96
v 0.376969 0.785177 0.809129 0.672 0.852335 0.96
v 0.368084 0.785086 0.804447 0.672 0.852335 0.96
v 0.359376 0.784989 0.799444 0.672 0.852335 0.96
v 0.350857 0.784887 0.794126 0.672 0.852335 0.96
v 0.342537 0.784781 0.788501 0.672 0.852335 0.96
v 0.334428 0.784669 0.782575 0.672 0.852335 0.96
v 0.326542 0.784552 0.776357 0.672 0.852335 0.96
v 0.318888 0.784431 0.769856 0.672 0.852335 0.96
v 0.311476 0.784305 0.763079 0.672 0.852335 0.96
v 0.304317 0.784175 0.756037 0.672 0.852335 0.96
v 0.297419 0.784041 0.748737 0.672 0.852335 0.96
v 0.290794 0.783903 0.741191 0.672 0.852335 0.96
v 0.284448 0.783761 0.733407 0.672 0.852335 0.96
v 0.27839 0.783616 0.725397 0.672 0.852335 0.96
v 0.27263 0.783467 0.717171 0.672 0.852335 0.96
v 0.267173 0.783315 0.70874 0.672 0.852335 0.96
v 0.262029 0.78316 0.700116 0.672 0.852335 0.96
v 0.257202 0.783003 0.69131 0.672 0.852335 0.96
v 0.252701 0.782842 0.682333 0.672 0.852335 0.96
v 0.24853 0.78268 0.673198 0.672 0.852335 0.96
v 0.244696 0.782515 0.663916 0.672 0.852335 0.96
v 0.241204 0.782348 0.654501 0.672 0.852335 0.96
v 0.238058 0.78218 0.644964 0.672 0.852335 0.96
v 0.235262 0.78201 0.635319 0.672 0.852335 0.96
v 0.232821 0.781839 0.625579 0.672 0.852335 0.96
v 0.230737 0.781667 0.615755 0.672 0.852335 0.96
v 0.229013 0.781494 0.605862 0.672 0.852335 0.96
v 0.227651 0.781321 0.595913 0.672 0.852335 0.96
v 0.226654 0.781147 0.585921 0.672 0.852335 0.96
v 0.226023 0.780973 0.575898 0.672 0.852335 0.96
v 0.225758 0.780799 0.56586 0.672 0.852335 0.96
v 0.22586 0.780626 0.555818 0.672 0.852335 0.96
v 0.226329 0.780453 0.545787 0.672 0.852335 0.96
v 0.227163 0.780281 0.53578 0.672 0.852335 0.96
v 0.228363 0.780111 0.52581 0.672 0.852335 0.96
v 0.229926 0.779941 0.51589 0.672 0.852335 0.96
v 0.231851 0.779773 0.506034 0.672 0.852335 0.96
v 0.234134 0.779607 0.496255 0.672 0.852335 0.96
v 0.236773 0.779442 0.486566 0.672 0.852335 0.96
v 0.239764 0.77928 0.47698 0.672 0.852335 0.96
v 0.243103 0.779121 0.467509 0.672 0.852335 0.96
v 0.246786 0.778964 0.458166 0.672 0.852335 0.96
v 0.250808 0.778809 0.448964 0.672 0.852335 0.96
v 0.255163 0.778658 0.439916 0.672 0.852335 0.96
v 0.259845 0.77851 0.431032 0.672 0.852335 0.96
v 0.26485 0.778365 0.422325 0.672 0.852335 0.96
v 0.270168 0.778224 0.413807 0.672 0.852335 0.96
v 0.275795 0.778087 0.405488 0.672 0.852335 0.96
v 0.281721 0.777954 0.397381 0.672 0.852335 0.96
v 0.28794 0.777825 0.389495 0.672 0.852335 0.96
v 0.294443 0.777701 0.381842 0.672 0.852335 0.96
v 0.301221 0.77758 0.374431 0.672 0.852335 0.96
v 0.308265 0.777465 0.367273 0.672 0.852335 0.96
v 0.315565 0.777354 0.360376 0.672 0.852335 0.96
v 0.323113 0.777249 0.353751 0.672 0.852335 0.96
v 0.330898 0.777148 0.347406 0.672 0.852335 0.96
v 0.338909 0.777053 0.34135 0.672 0.852335 0.96
v 0.347136 0.776963 0.33559 0.672 0.852335 0.96
v 0.355568 0.776878 0.330134 0.672 0.852335 0.96
v 0.364194 0.7768 0.32499 0.672 0.852335 0.96
v 0.373002 0.776726 0.320164 0.672 0.852335 0.96
v 0.38198 0.776659 0.315663 0.672 0.852335 0.96
v 0.391117 0.776598 0.311493 0.672 0.852335 0.96
v 0.4004 0.776542 0.30766 0.672 0.852335 0.96
v 0.409817 0.776493 0.304168 0.672 0.852335 0.96
v 0.419355 0.77645 0.301022 0.672 0.852335 0.96
v 0.429001 0.776413 0.298226 0.672 0.852335 0.96
v 0.438743 0.776382 0.295785 0.672 0.852335 0.96
v 0.448568 0.776357 0.293701 0.672 0.852335 0.96
v 0.458463 0.776339 0.291977 0.672 0.852335 0.96
v 0.468413 0.776327 0.290616 0.672 0.852335 0.96
v 0.478407 0.776321 0.289618 0.672 0.852335 0.96
v 0.488431 0.776322 0.288987 0.672 0.852335 0.96
v 0.498471 0.776329 0.288722 0.672 0.852335 0.96
v 0.508514 0.776342 0.288824 0.672 0.852335 0.96
v 0.518546 0.776362 0.289292 0.672 0.852335 0.96
v 0.528555 0.776388 0.290127 0.672 0.852335 0.96
v 0.538527 0.776421 0.291326 0.672 0.852335 0.96
v 0.548448 0.776459 0.292889 0.672 0.852335 0.96
v 0.558305 0.776504 0.294813 0.672 0.852335 0.96
v 0.568086 0.776555 0.297095 0.672 0.852335 0.96
v 0.577776 0.776611 0.299734 0.672 0.852335 0.96
v 0.587364 0.776674 0.302724 0.672 0.852335 0.96
v 0.596836 0.776743 0.306062 0.672 0.852335 0.96
v 0.60618 0.776817 0.309745 0.672 0.852335 0.96
v 0.615383 0.776897 0.313766 0.672 0.852335 0.96
v 0.624434 0.776983 0.31812 0.672 0.852335 0.96
v 0.633319 0.777074 0.322802 0.672 0.852335 0.96
v 0.642027 0.777171 0.327805 0.672 0.852335 0.96
v 0.650546 0.777273 0.333123 0.672 0.852335 0.96
v 0.658866 0.777379 0.338748 0.672 0.852335 0.96
v 0.666974 0.777491 0.344674 0.672 0.852335 0.96
v 0.674861 0.777608 0.350891 0.672 0.852335 0.96
v 0.682515 0.777729 0.357393 0.672 0.852335 0.96
v 0.689927 0.777855 0.36417 0.672 0.852335 0.96
v 0.697086 0.777985 0.371212 0.672 0.852335 0.96
v 0.703983 0.778119 0.378512 0.672 0.852335 0.96
v 0.710609 0.778257 0.386058 0.672 0.852335 0.96
v 0.716955 0.778399 0.393842 0.672 0.852335 0.96
v 0.723012 0.778544 0.401852 0.672 0.852335 0.96
v 0.728773 0.778693 0.410078 0.672 0.852335 0.96
v 0.734229 0.778845 0.418508 0.672 0.852335 0.96
v 0.739374 0.779 0.427133 0.672 0.852335 0.96
v 0.7442 0.779157 0.435939 0.672 0.852335 0.96
v 0.748702 0.779318 0.444916 0.672 0.852335 0.96
v 0.752872 0.77948 0.454051 0.672 0.852335 0.96
v 0.756706 0.779645 0.463333 0.672 0.852335 0.96
v 0.760199 0.779812 0.472748 0.672 0.852335 0.96
v 0.763345 0.77998 0.482285 0.672 0.852335 0.96
v 0.76614 0.78015 0.49193 0.672 0.852335 0.96
v 0.768582 0.780321 0.50167 0.672 0.852335 0.96
v 0.770666 0.780493 0.511494 0.672 0.852335 0.96
v 0.77239 0.780666 0.521387 0.672 0.852335 0.96
v 0.773751 0.780839 0.531336 0.672 0.852335 0.96
v 0.774748 0.781013 0.541328 0.672 0.852335 0.96
v 0.77538 0.781187 0.55135 0.672 0.852335 0.96
v 0.775645 0.781361 0.561389 0.672 0.852335 0.96
v 0.775543 0.781534 0.57143 0.672 0.852335 0.96
v 0.775074 0.781707 0.581461 0.672 0.852335 0.96
v 0.774239 0.781879 0.591469 0.672 0.852335 0.96
v 0.496759 0.783559 0.7074 0.672 0.852335 0.96
v 0.48673 0.783541 0.707038 0.672 0.852335 0.96
v 0.476753 0.783511 0.705953 0.672 0.852335 0.96
v 0.466881 0.783468 0.704151 0.672 0.852335 0.96
v 0.457164 0.783413 0.701642 0.672 0.852335 0.96
v 0.447654 0.783347 0.698438 0.672 0.852335 0.96
v 0.4384 0.783269 0.694556 0.672 0.852335 0.96
v 0.42945 0.78318 0.690017 0.672 0.852335 0.96
v 0.420851 0.783081 0.684844 0.672 0.852335 0.96
v 0.412648 0.782972 0.679064 0.672 0.852335 0.96
v 0.404884 0.782853 0.672707 0.672 0.852335 0.96
v 0.397598 0.782725 0.665807 0.672 0.852335 0.96
v 0.390829 0.782589 0.658399 0.672 0.852335 0.96
v 0.384613 0.782446 0.650521 0.672 0.852335 0.96
v 0.378981 0.782296 0.642216 0.672 0.852335 0.96
v 0.373964 0.78214 0.633527 0.672 0.852335 0.96
v 0.369586 0.781979 0.624498 0.672 0.852335 0.96
v 0.365872 0.781814 0.615176 0.672 0.852335 0.96
v 0.36284 0.781645 0.605611 0.672 0.852335 0.96
v 0.360506 0.781474 0.595852 0.672 0.852335 0.96
v 0.358883 0.781301 0.58595 0.672 0.852335 0.96
v 0.357978 0.781127 0.575957 0.672 0.852335 0.96
v 0.357797 0.780954 0.565925 0.672 0.852335 0.96
v 0.358341 0.780781 0.555906 0.672 0.852335 0.96
v 0.359606 0.780611 0.545952 0.672 0.852335 0.96
v 0.361586 0.780443 0.536115 0.672 0.852335 0.96
v 0.364271 0.780279 0.526446 0.672 0.852335 0.96
v 0.367647 0.78012 0.516997 0.672 0.852335 0.96
v 0.371696 0.779966 0.507816 0.672 0.852335 0.96
v 0.376397 0.779819 0.498951 0.672 0.852335 0.96
v 0.381725 0.779678 0.490448 0.672 0.852335 0.96
v 0.387653 0.779545 0.482351 0.672 0.852335 0.96
v 0.394151 0.77942 0.474704 0.672 0.852335 0.96
v 0.401182 0.779305 0.467545 0.672 0.852335 0.96
v 0.408713 0.779199 0.460912 0.672 0.852335 0.96
v 0.416702 0.779103 0.45484 0.672 0.852335 0.96
v 0.425109 0.779019 0.44936 0.672 0.852335 0.96
v 0.433889 0.778945 0.4445 0.672 0.852335 0.96
v 0.442997 0.778883 0.440287 0.672 0.852335 0.96
v 0.452386 0.778832 0.436742 0.672 0.852335 0.96
v 0.462005 0.778794 0.433883 0.672 0.852335 0.96
v 0.471806 0.778768 0.431726 0.672 0.852335 0.96
v 0.481737 0.778755 0.430282 0.672 0.852335 0.96
v 0.491747 0.778754 0.429558 0.672 0.852335 0.96
v 0.501782 0.778766 0.429558 0.672 0.852335 0.96
v 0.511792 0.77879 0.430282 0.672 0.852335 0.96
v 0.521723 0.778826 0.431726 0.672 0.852335 0.96
v 0.531523 0.778875 0.433883 0.672 0.852335 0.96
v 0.541143 0.778935 0.436742 0.672 0.852335 0.96
v 0.550531 0.779007 0.440287 0.672 0.852335 0.96
v 0.559639 0.779091 0.4445 0.672 0.852335 0.96
v 0.568419 0.779185 0.44936 0.672 0.852335 0.96
v 0.576826 0.779289 0.45484 0.672 0.852335 0.96
v 0.584815 0.779404 0.460912 0.672 0.852335 0.96
v 0.592345 0.779527 0.467545 0.672 0.852335 0.96
v 0.599377 0.779659 0.474704 0.672 0.852335 0.96
v 0.605873 0.779798 0.482351 0.672 0.852335 0.96
v 0.611801 0.779945 0.490448 0.672 0.852335 0.96
v 0.617129 0.780098 0.498951 0.672 0.852335 0.96
v 0.62183 0.780257 0.507816 0.672 0.852335 0.96
v 0.625878 0.78042 0.516997 0.672 0.852335 0.96
v 0.629254 0.780587 0.526446 0.672 0.852335 0.96
v 0.631938 0.780757 0.536115 0.672 0.852335 0.96
v 0.633918 0.780929 0.545952 0.672 0.852335 0.96
v 0.635183 0.781103 0.555906 0.672 0.852335 0.96
v 0.635726 0.781277 0.565925 0.672 0.852335 0.96
v 0.635544 0.78145 0.575957 0.672 0.852335 0.96
v 0.63464 0.781621 0.58595 0.672 0.852335 0.96
v 0.633016 0.78179 0.595852 0.672 0.852335 0.96
v 0.630682 0.781956 0.605611 0.672 0.852335 0.96
v 0.627649 0.782118 0.615176 0.672 0.852335 0.96
v 0.623935 0.782275 0.624498 0.672 0.852335 0.96
v 0.619557 0.782425 0.633527 0.672 0.852335 0.96
v 0.614539 0.78257 0.642216 0.672 0.852335 0.96
v 0.608907 0.782707 0.650521 0.672 0.852335 0.96
v 0.60269 0.782835 0.658399 0.672 0.852335 0.96
v 0.595921 0.782956 0.665807 0.672 0.852335 0.96
v 0.588636 0.783066 0.672707 0.672 0.852335 0.96
v 0.580871 0.783167 0.679064 0.672 0.852335 0.96
v 0.572667 0.783257 0.684844 0.672 0.852335 0.96
v 0.564068 0.783337 0.690017 0.672 0.852335 0.96
v 0.555118 0.783405 0.694556 0.672 0.852335 0.96
v 0.545864 0.783461 0.698438 0.672 0.852335 0.96
v 0.536354 0.783505 0.701642 0.672 0.852335 0.96
v 0.526637 0.783537 0.704151 0.672 0.852335 0.96
v 0.516765 0.783557 0.705953 0.672 0.852335 0.96
v 0.506788 0.783564 0.707038 0.672 0.852335 0.96
v 0.229981 0.777375 0.367308 0.672 0.852335 0.96
v 0.771277 0.778135 0.374917 0.672 0.852335 0.96
v 0.787843 0.781696 0.579978 0.672 0.852335 0.96
v 0.644202 0.785728 0.823095 0.672 0.852335 0.96
v 0.394211 0.785724 0.839675 0.672 0.852335 0.96
v 0.232463 0.782545 0.666474 0.672 0.852335 0.96
v 0.225404 0.773729 0.156551 0.672 0.852335 0.96
v 0.767732 0.774403 0.15912 0.672 0.852335 0.96
f 2 172 1
f 226 144 145
f 146 226 145
f 121 214 120
f 122 214 121
f 41 173 40
f 173 41 42
f 243 7 8
f 7 243 6
f 213 119 120
f 214 213 120
f 213 118 119
f 215 122 123
f 215 214 122
f 124 215 123
f 43 174 42
f 174 173 42
f 44 174 43
f 9 244 8
f 244 243 8
f 244 9 10
f 6 242 5
f 243 242 6
f 242 4 5
f 118 212 117
f 213 212 118
f 212 116 117
f 216 124 125
f 216 215 124
f 216 125 126
f 175 44 45
f 175 174 44
f 46 175 45
f 245 10 11
f 245 244 10
f 12 245 11
f 241 3 4
f 242 241 4
f 3 241 2
f 116 211 115
f 212 211 116
f 211 114 115
f 127 217 126
f 217 216 126
f 128 217 127
f 47 176 46
f 176 175 46
f 13 246 12
f 246 245 12
f 246 13 14
f 240 172 2
f 241 240 2
f 114 210 113
f 211 210 114
f 113 210 112
f 218 128 129
f 218 217 128
f 130 218 129
f 177 47 48
f 177 176 47
f 49 177 48
f 15 247 14
f 247 246 14
f 247 15 16
f 239 171 172
f 240 239 172
f 171 239 170
f 209 111 112
f 210 209 112
f 209 110 111
f 219 130 131
f 219 218 130
f 219 131 132
f 178 49 50
f 178 177 49
f 51 178 50
f 17 248 16
f 248 247 16
f 18 248 17
f 170 238 169
f 239 238 170
f 238 168 169
f 110 208 109
f 209 208 110
f 208 108 109
f 133 220 132
f 220 219 132
f 220 133 134
f 52 179 51
f 179 178 51
f 179 52 53
f 249 18 19
f 249 248 18
f 20 249 19
f 168 237 167
f 238 237 168
f 167 237 166
f 108 207 107
f 208 207 108
f 107 207 106
f 135 221 134
f 221 220 134
f 136 221 135
f 54 180 53
f 180 179 53
f 55 180 54
f 250 20 21
f 250 249 20
f 250 21 22
f 236 165 166
f 237 236 166
f 236 164 165
f 206 105 106
f 207 206 106
f 105 206 104
f 222 136 137
f 222 221 136
f 138 222 137
f 181 55 56
f 181 180 55
f 57 181 56
f 23 251 22
f 251 250 22
f 24 251 23
f 164 235 163
f 236 235 164
f 235 162 163
f 205 103 104
f 206 205 104
f 205 102 103
f 223 138 139
f 223 222 138
f 223 139 140
f 182 57 58
f 182 181 57
f 59 182 58
f 252 24 25
f 252 251 24
f 26 252 25
f 162 234 161
f 235 234 162
f 234 160 161
f 102 204 101
f 205 204 102
f 204 100 101
f 141 224 140
f 224 223 140
f 224 141 142
f 60 183 59
f 183 182 59
f 183 60 61
f 253 26 27
f 253 252 26
f 28 253 27
f 233 159 160
f 234 233 160
f 159 233 158
f 100 203 99
f 204 203 100
f 203 98 99
f 143 225 142
f 225 224 142
f 144 225 143
f 226 225 144
f 62 184 61
f 184 183 61
f 184 62 63
f 29 254 28
f 254 253 28
f 254 29 30
f 232 157 158
f 233 232 158
f 232 156 157
f 202 96 97
f 98 202 97
f 203 202 98
f 31 255 30
f 255 254 30
f 255 31 32
f 156 231 155
f 232 231 156
f 231 154 155
f 96 201 95
f 202 201 96
f 95 201 94
f 256 32 33
f 256 255 32
f 34 256 33
f 154 230 153
f 231 230 154
f 230 152 153
f 200 93 94
f 201 200 94
f 93 200 92
f 257 34 35
f 257 256 34
f 36 257 35
f 152 229 151
f 230 229 152
f 151 229 150
f 199 91 92
f 200 199 92
f 91 199 90
f 37 258 36
f 258 257 36
f 258 37 38
f 228 149 150
f 229 228 150
f 228 148 149
f 90 198 89
f 199 198 90
f 198 88 89
f 39 259 38
f 259 258 38
f 259 39 40
f 173 259 40
f 148 227 147
f 228 227 148
f 227 146 147
f 227 226 146
f 88 197 87
f 198 197 88
f 87 197 86
f 196 85 86
f 197 196 86
f 85 196 84
f 84 195 83
f 196 195 84
f 195 82 83
f 82 194 81
f 195 194 82
f 194 80 81
f 80 193 79
f 194 193 80
f 79 193 78
f 192 77 78
f 193 192 78
f 77 192 76
f 76 191 75
f 192 191 76
f 191 74 75
f 190 73 74
f 191 190 74
f 73 190 72
f 189 71 72
f 190 189 72
f 71 188 70
f 189 188 71
f 70 188 69
f 187 68 69
f 188 187 69
f 68 187 67
f 67 186 66
f 187 186 67
f 186 65 66
f 65 185 64
f 186 185 65
f 64 185 63
f 185 184 63
f 261 217 260
f 259 263 264
f 265 184 264
f 191 265 192
f 191 190 265
f 197 265 260
f 198 197 260
f 173 259 264
f 246 262 263
f 217 216 260
f 205 204 260
f 208 207 260
f 204 203 260
f 201 200 260
f 175 174 264
f 174 173 264
f 188 187 265
f 185 184 265
f 215 214 260
f 216 215 260
f 211 210 260
f 212 211 260
f 214 213 260
f 213 212 260
f 207 206 260
f 206 205 260
f 210 209 260
f 209 208 260
f 202 201 260
f 203 202 260
f 199 198 260
f 200 199 260
f 265 193 192
f 194 193 265
f 195 194 265
f 262 233 261
f 190 189 265
f 189 188 265
f 187 186 265
f 186 185 265
f 176 175 264
f 177 176 264
f 179 178 264
f 178 177 264
f 184 183 264
f 180 179 264
f 181 180 264
f 197 196 265
f 196 195 265
f 257 256 263
f 249 248 263
f 252 251 263
f 232 231 261
f 233 232 261
f 182 181 264
f 183 182 264
f 259 258 263
f 258 257 263
f 253 252 263
f 254 253 263
f 256 255 263
f 255 254 263
f 247 246 263
f 248 247 263
f 250 249 263
f 251 250 263
f 220 219 261
f 225 224 261
f 218 217 261
f 219 218 261
f 224 223 261
f 223 222 261
f 221 220 261
f 222 221 261
f 231 230 261
f 230 229 261
f 228 227 261
f 229 228 261
f 227 226 261
f 226 225 261
f 246 245 262
f 243 242 262
f 234 233 262
f 244 243 262
f 245 244 262
f 241 240 262
f 242 241 262
f 236 235 262
f 235 234 262
f 240 239 262
f 239 238 262
f 237 236 262
f 238 237 262
f 267 260 266
f 260 267 261
