# Created by Open3D 
# object name: face_00000
# number of vertices: 10
# number of triangles: 9
v 0.222459 -0.000606855 0.153835 0.96 0.672 0.672
v 0.227022 0.00766048 0.363128 0.96 0.672 0.672
v 0.228224 0.32036 0.364826 0.96 0.672 0.672
v 0.229981 0.777375 0.367308 0.96 0.672 0.672
v 0.236476 0.78253 0.666387 0.96 0.672 0.672
v 0.237526 0.993969 0.678528 0.96 0.672 0.672
v 0.230818 0.995114 0.368491 0.96 0.672 0.672
v 0.226249 0.995887 0.15733 0.96 0.672 0.672
v 0.225404 0.773729 0.156551 0.96 0.672 0.672
v 0.223757 0.340589 0.155032 0.96 0.672 0.672
f 2 3 1
f 3 10 1
f 4 10 3
f 4 7 8
f 7 5 6
f 5 7 4
f 9 4 8
f 4 9 10
f 4 7 9
