# Created by Open3D 
# object name: face_00006
# number of vertices: 49
# number of triangles: 47
v 0.987897 0.792685 0.544424 0.743776 0.672 0.96
v 0.985383 0.201068 0.545771 0.743776 0.672 0.96
v 0.00511572 0.201937 0.562632 0.743776 0.672 0.96
v 0.00895514 0.797203 0.561255 0.743776 0.672 0.96
v 0.987897 0.792685 0.544424 0.743776 0.672 0.96
v 0.814527 0.500355 0.548051 0.743776 0.672 0.96
v 0.813792 0.510399 0.548041 0.743776 0.672 0.96
v 0.811602 0.52023 0.548057 0.743776 0.672 0.96
v 0.808005 0.529637 0.548098 0.743776 0.672 0.96
v 0.803076 0.53842 0.548164 0.743776 0.672 0.96
v 0.796922 0.546391 0.548252 0.743776 0.672 0.96
v 0.789673 0.553382 0.548361 0.743776 0.672 0.96
v 0.781483 0.559242 0.548489 0.743776 0.672 0.96
v 0.772527 0.563848 0.548633 0.743776 0.672 0.96
v 0.762997 0.5671 0.54879 0.743776 0.672 0.96
v 0.753094 0.568929 0.548956 0.743776 0.672 0.96
v 0.743031 0.569298 0.549129 0.743776 0.672 0.96
v 0.733022 0.568197 0.549303 0.743776 0.672 0.96
v 0.723279 0.56565 0.549476 0.743776 0.672 0.96
v 0.714012 0.561711 0.549645 0.743776 0.672 0.96
v 0.705416 0.556465 0.549804 0.743776 0.672 0.96
v 0.697676 0.550023 0.549951 0.743776 0.672 0.96
v 0.690956 0.542522 0.550083 0.743776 0.672 0.96
v 0.6854 0.534123 0.550198 0.743776 0.672 0.96
v 0.681125 0.525004 0.550291 0.743776 0.672 0.96
v 0.678224 0.51536 0.550362 0.743776 0.672 0.96
v 0.676758 0.505396 0.550409 0.743776 0.672 0.96
v 0.676758 0.495324 0.550432 0.743776 0.672 0.96
v 0.678224 0.48536 0.550428 0.743776 0.672 0.96
v 0.681125 0.475716 0.5504 0.743776 0.672 0.96
v 0.6854 0.466597 0.550346 0.743776 0.672 0.96
v 0.690956 0.458197 0.550269 0.743776 0.672 0.96
v 0.697676 0.450696 0.55017 0.743776 0.672 0.96
v 0.705416 0.444253 0.550051 0.743776 0.672 0.96
v 0.714012 0.439006 0.549915 0.743776 0.672 0.96
v 0.723279 0.435067 0.549764 0.743776 0.672 0.96
v 0.733022 0.432519 0.549602 0.743776 0.672 0.96
v 0.743031 0.431417 0.549432 0.743776 0.672 0.96
v 0.753094 0.431785 0.549258 0.743776 0.672 0.96
v 0.762997 0.433614 0.549084 0.743776 0.672 0.96
v 0.772527 0.436865 0.548913 0.743776 0.672 0.96
v 0.781483 0.44147 0.548749 0.743776 0.672 0.96
v 0.789673 0.44733 0.548595 0.743776 0.672 0.96
v 0.796922 0.45432 0.548455 0.743776 0.672 0.96
v 0.803076 0.462291 0.548331 0.743776 0.672 0.96
v 0.808005 0.471073 0.548227 0.743776 0.672 0.96
v 0.811602 0.48048 0.548145 0.743776 0.672 0.96
v 0.813792 0.49031 0.548085 0.743776 0.672 0.96
v 0.814527 0.500355 0.548051 0.743776 0.672 0.96
f 28 4 3
f 4 19 1
f 20 19 4
f 49 2 1
f 28 27 4
f 27 26 4
f 25 24 4
f 26 25 4
f 21 20 4
f 22 21 4
f 24 23 4
f 23 22 4
f 19 18 1
f 16 15 1
f 9 8 1
f 2 35 3
f 17 16 1
f 18 17 1
f 14 13 1
f 15 14 1
f 7 49 1
f 8 7 1
f 13 12 1
f 12 11 1
f 10 9 1
f 11 10 1
f 49 48 2
f 48 47 2
f 45 44 2
f 40 39 2
f 44 43 2
f 43 42 2
f 29 28 3
f 30 29 3
f 33 32 3
f 34 33 3
f 35 34 3
f 47 46 2
f 46 45 2
f 42 41 2
f 41 40 2
f 31 30 3
f 32 31 3
f 39 38 2
f 38 37 2
f 36 35 2
f 37 36 2
