# Created by Open3D 
# object name: face_00001
# number of vertices: 92
# number of triangles: 91
v 0.998701 0.20261 0.45206 0.672 0.756037 0.96
v 1.00085 0.791307 0.453193 0.672 0.756037 0.96
v 0.00840529 0.795661 0.454635 0.672 0.756037 0.96
v 0.00457482 0.203752 0.453498 0.672 0.756037 0.96
v 0.998701 0.20261 0.45206 0.672 0.756037 0.96
v 0.813434 0.501023 0.452904 0.672 0.756037 0.96
v 0.812699 0.490979 0.452885 0.672 0.756037 0.96
v 0.810509 0.481148 0.452869 0.672 0.756037 0.96
v 0.806911 0.471742 0.452857 0.672 0.756037 0.96
v 0.801982 0.462959 0.452847 0.672 0.756037 0.96
v 0.795826 0.454987 0.45284 0.672 0.756037 0.96
v 0.788576 0.447997 0.452837 0.672 0.756037 0.96
v 0.780385 0.442137 0.452838 0.672 0.756037 0.96
v 0.771428 0.437532 0.452842 0.672 0.756037 0.96
v 0.761896 0.43428 0.452849 0.672 0.756037 0.96
v 0.751992 0.432451 0.45286 0.672 0.756037 0.96
v 0.741928 0.432083 0.452874 0.672 0.756037 0.96
v 0.731917 0.433184 0.45289 0.672 0.756037 0.96
v 0.722173 0.435732 0.452909 0.672 0.756037 0.96
v 0.712904 0.439671 0.45293 0.672 0.756037 0.96
v 0.704307 0.444917 0.452953 0.672 0.756037 0.96
v 0.696566 0.45136 0.452977 0.672 0.756037 0.96
v 0.689845 0.45886 0.453001 0.672 0.756037 0.96
v 0.684288 0.46726 0.453025 0.672 0.756037 0.96
v 0.680013 0.476379 0.453049 0.672 0.756037 0.96
v 0.677111 0.486023 0.453072 0.672 0.756037 0.96
v 0.675645 0.495987 0.453093 0.672 0.756037 0.96
v 0.675645 0.506059 0.453112 0.672 0.756037 0.96
v 0.677111 0.516023 0.453129 0.672 0.756037 0.96
v 0.680013 0.525667 0.453144 0.672 0.756037 0.96
v 0.684288 0.534786 0.453155 0.672 0.756037 0.96
v 0.689845 0.543186 0.453163 0.672 0.756037 0.96
v 0.696566 0.550686 0.453168 0.672 0.756037 0.96
v 0.704307 0.557129 0.453169 0.672 0.756037 0.96
v 0.712904 0.562375 0.453167 0.672 0.756037 0.96
v 0.722173 0.566314 0.453161 0.672 0.756037 0.96
v 0.731917 0.568862 0.453152 0.672 0.756037 0.96
v 0.741928 0.569963 0.45314 0.672 0.756037 0.96
v 0.751992 0.569596 0.453125 0.672 0.756037 0.96
v 0.761896 0.567766 0.453107 0.672 0.756037 0.96
v 0.771428 0.564514 0.453087 0.672 0.756037 0.96
v 0.780385 0.559909 0.453065 0.672 0.756037 0.96
v 0.788576 0.554049 0.453042 0.672 0.756037 0.96
v 0.795826 0.547059 0.453018 0.672 0.756037 0.96
v 0.801982 0.539088 0.452994 0.672 0.756037 0.96
v 0.806911 0.530305 0.45297 0.672 0.756037 0.96
v 0.810509 0.520898 0.452946 0.672 0.756037 0.96
v 0.812699 0.511068 0.452924 0.672 0.756037 0.96
v 0.813434 0.501023 0.452904 0.672 0.756037 0.96
v 0.32419 0.502911 0.453614 0.672 0.756037 0.96
v 0.323433 0.492815 0.453595 0.672 0.756037 0.96
v 0.32118 0.482944 0.45358 0.672 0.756037 0.96
v 0.317481 0.47352 0.453567 0.672 0.756037 0.96
v 0.312419 0.464752 0.453557 0.672 0.756037 0.96
v 0.306107 0.456836 0.453551 0.672 0.756037 0.96
v 0.298685 0.44995 0.453548 0.672 0.756037 0.96
v 0.29032 0.444246 0.45355 0.672 0.756037 0.96
v 0.281198 0.439853 0.453554 0.672 0.756037 0.96
v 0.271524 0.436869 0.453562 0.672 0.756037 0.96
v 0.261512 0.43536 0.453574 0.672 0.756037 0.96
v 0.251388 0.43536 0.453589 0.672 0.756037 0.96
v 0.241376 0.436869 0.453606 0.672 0.756037 0.96
v 0.231702 0.439853 0.453626 0.672 0.756037 0.96
v 0.22258 0.444246 0.453647 0.672 0.756037 0.96
v 0.214215 0.449949 0.45367 0.672 0.756037 0.96
v 0.206793 0.456836 0.453694 0.672 0.756037 0.96
v 0.200481 0.464751 0.453719 0.672 0.756037 0.96
v 0.195418 0.473519 0.453743 0.672 0.756037 0.96
v 0.19172 0.482944 0.453767 0.672 0.756037 0.96
v 0.189467 0.492814 0.453789 0.672 0.756037 0.96
v 0.18871 0.50291 0.453809 0.672 0.756037 0.96
v 0.189467 0.513006 0.453828 0.672 0.756037 0.96
v 0.19172 0.522877 0.453844 0.672 0.756037 0.96
v 0.195418 0.532302 0.453857 0.672 0.756037 0.96
v 0.200481 0.54107 0.453866 0.672 0.756037 0.96
v 0.206793 0.548985 0.453872 0.672 0.756037 0.96
v 0.214215 0.555872 0.453875 0.672 0.756037 0.96
v 0.22258 0.561575 0.453874 0.672 0.756037 0.96
v 0.231702 0.565968 0.453869 0.672 0.756037 0.96
v 0.241376 0.568952 0.453861 0.672 0.756037 0.96
v 0.251388 0.570461 0.453849 0.672 0.756037 0.96
v 0.261512 0.570461 0.453835 0.672 0.756037 0.96
v 0.271524 0.568952 0.453817 0.672 0.756037 0.96
v 0.281198 0.565968 0.453798 0.672 0.756037 0.96
v 0.29032 0.561575 0.453776 0.672 0.756037 0.96
v 0.298685 0.555872 0.453753 0.672 0.756037 0.96
v 0.306107 0.548985 0.453729 0.672 0.756037 0.96
v 0.312419 0.54107 0.453704 0.672 0.756037 0.96
v 0.317481 0.532302 0.45368 0.672 0.756037 0.96
v 0.32118 0.522877 0.453657 0.672 0.756037 0.96
v 0.323433 0.513007 0.453634 0.672 0.756037 0.96
v 0.32419 0.502911 0.453614 0.672 0.756037 0.96
f 3 71 4
f 5 6 2
f 72 71 3
f 77 76 3
f 78 77 3
f 51 50 27
f 50 28 27
f 36 3 2
f 36 84 3
f 84 36 35
f 43 42 2
f 71 70 4
f 67 66 4
f 68 67 4
f 62 61 4
f 63 62 4
f 64 63 4
f 74 73 3
f 73 72 3
f 75 74 3
f 76 75 3
f 84 83 3
f 83 82 3
f 81 80 3
f 82 81 3
f 80 79 3
f 79 78 3
f 91 28 50
f 30 89 31
f 89 30 90
f 86 33 87
f 38 37 2
f 37 36 2
f 42 41 2
f 41 40 2
f 39 38 2
f 40 39 2
f 6 48 2
f 48 47 2
f 46 45 2
f 47 46 2
f 45 44 2
f 44 43 2
f 7 6 5
f 8 7 5
f 11 10 5
f 14 13 5
f 12 11 5
f 13 12 5
f 17 16 5
f 18 17 5
f 69 68 4
f 70 69 4
f 66 65 4
f 65 64 4
f 29 91 90
f 30 29 90
f 91 29 28
f 89 88 31
f 85 84 35
f 86 34 33
f 85 34 86
f 34 85 35
f 9 8 5
f 10 9 5
f 16 15 5
f 15 14 5
f 59 58 4
f 57 56 21
f 58 19 4
f 19 5 4
f 19 18 5
f 26 25 52
f 51 26 52
f 26 51 27
f 53 25 24
f 54 53 24
f 25 53 52
f 56 22 21
f 88 32 31
f 32 88 87
f 33 32 87
f 61 60 4
f 60 59 4
f 57 20 58
f 20 19 58
f 20 57 21
f 23 54 24
f 55 22 56
f 55 23 22
f 23 55 54
