# Created by Open3D 
# object name: face_00003
# number of vertices: 10
# number of triangles: 12
v 0.592953 0.267152 0.386926 0.96 0.672 0.924112
v 0.702726 0.365604 0.386673 0.96 0.672 0.924112
v 0.294254 0.373825 0.384845 0.96 0.672 0.924112
v 0.414577 0.26214 0.386191 0.96 0.672 0.924112
v 0.994165 0.626985 0.386001 0.96 0.672 0.924112
v 0.992845 0.729217 0.38524 0.96 0.672 0.924112
v 0.00395496 0.735026 0.380918 0.96 0.672 0.924112
v 0.00519245 0.642135 0.38161 0.96 0.672 0.924112
v 0.0086903 0.379572 0.383567 0.96 0.672 0.924112
v 0.997617 0.359669 0.387993 0.96 0.672 0.924112
f 3 1 4
f 2 1 3
f 6 5 2
f 7 6 2
f 8 7 2
f 9 8 2
f 3 9 2
f 2 3 2
f 3 8 2
f 6 3 8
f 2 3 6
f 2 5 10
