# Created by Open3D 
# object name: face_00008
# number of vertices: 10
# number of triangles: 23
v 0.698204 0.366403 0.611067 0.96 0.672 0.768298
v 0.587449 0.267079 0.611706 0.96 0.672 0.768298
v 0.412994 0.262177 0.611323 0.96 0.672 0.768298
v 0.291894 0.374583 0.609997 0.96 0.672 0.768298
v 0.00710042 0.380316 0.609247 0.96 0.672 0.768298
v 0.00361525 0.642166 0.60684 0.96 0.672 0.768298
v 0.00236891 0.735807 0.605979 0.96 0.672 0.768298
v 0.996062 0.729964 0.608467 0.96 0.672 0.768298
v 0.997296 0.634626 0.609343 0.96 0.672 0.768298
v 1.00085 0.360311 0.611865 0.96 0.672 0.768298
f 3 2 1
f 4 3 1
f 5 4 1
f 6 5 1
f 7 6 1
f 8 7 1
f 9 8 1
f 10 9 1
f 1 10 1
f 2 1 9
f 3 2 9
f 4 3 9
f 5 4 9
f 6 5 9
f 7 6 9
f 8 7 9
f 9 8 9
f 4 8 7
f 1 8 4
f 6 4 7
f 4 1 9
f 6 4 9
f 1 4 1
