# Created by Open3D 
# object name: face_00007
# number of vertices: 8
# number of triangles: 6
v 0.997617 0.359669 0.387993 0.684261 0.96 0.672
v 1.00085 0.360311 0.611865 0.684261 0.96 0.672
v 0.698204 0.366403 0.611067 0.684261 0.96 0.672
v 0.291894 0.374583 0.609997 0.684261 0.96 0.672
v 0.00710042 0.380316 0.609247 0.684261 0.96 0.672
v 0.0086903 0.379572 0.383567 0.684261 0.96 0.672
v 0.294254 0.373825 0.384845 0.684261 0.96 0.672
v 0.702726 0.365604 0.386673 0.684261 0.96 0.672
f 5 4 6
f 1 3 2
f 1 8 3
f 7 4 3
f 8 7 3
f 4 7 6
