# Created by Open3D 
# object name: lines
# number of vertices: 1008
# number of triangles: 1920
v 0.997296 0.634626 0.609343 0 0 1
v 0.994165 0.626985 0.386001 0 0 1
v 1.0023 0.634625 0.609273 0 0 1
v 1.00083 0.638158 0.609173 0 0 1
v 0.997295 0.639623 0.609172 0 0 1
v 0.99376 0.63816 0.609272 0 0 1
v 0.992296 0.634627 0.609413 0 0 1
v 0.993761 0.631093 0.609514 0 0 1
v 0.997297 0.629629 0.609514 0 0 1
v 1.00083 0.631091 0.609415 0 0 1
v 1.00151 0.632715 0.553438 0 0 1
v 1.00005 0.636248 0.553337 0 0 1
v 0.996512 0.637713 0.553337 0 0 1
v 0.992977 0.63625 0.553437 0 0 1
v 0.991514 0.632717 0.553578 0 0 1
v 0.992979 0.629183 0.553678 0 0 1
v 0.996514 0.627719 0.553679 0 0 1
v 1.00005 0.629181 0.553579 0 0 1
v 1.00073 0.630804 0.497602 0 0 1
v 0.999265 0.634338 0.497502 0 0 1
v 0.995729 0.635803 0.497501 0 0 1
v 0.992194 0.63434 0.497601 0 0 1
v 0.990731 0.630807 0.497742 0 0 1
v 0.992196 0.627273 0.497843 0 0 1
v 0.995732 0.625809 0.497843 0 0 1
v 0.999266 0.627271 0.497744 0 0 1
v 0.999947 0.628894 0.441767 0 0 1
v 0.998482 0.632428 0.441666 0 0 1
v 0.994946 0.633893 0.441666 0 0 1
v 0.991412 0.63243 0.441765 0 0 1
v 0.989948 0.628897 0.441907 0 0 1
v 0.991413 0.625363 0.442007 0 0 1
v 0.994949 0.623898 0.442008 0 0 1
v 0.998484 0.625361 0.441908 0 0 1
v 0.999165 0.626984 0.385931 0 0 1
v 0.997699 0.630518 0.385831 0 0 1
v 0.994164 0.631983 0.38583 0 0 1
v 0.990629 0.63052 0.38593 0 0 1
v 0.989165 0.626987 0.386071 0 0 1
v 0.990631 0.623453 0.386172 0 0 1
v 0.994166 0.621988 0.386172 0 0 1
v 0.997701 0.623451 0.386073 0 0 1
v 0.994165 0.626985 0.386001 0 0 1
v 0.592953 0.267152 0.386926 0 0 1
v 0.996389 0.624496 0.382279 0 0 1
v 0.993977 0.627182 0.381009 0 0 1
v 0.991675 0.629753 0.382663 0 0 1
v 0.990832 0.630703 0.386273 0 0 1
v 0.991941 0.629475 0.389724 0 0 1
v 0.994353 0.626789 0.390994 0 0 1
v 0.996655 0.624218 0.38934 0 0 1
v 0.997498 0.623268 0.38573 0 0 1
v 0.896086 0.534538 0.38251 0 0 1
v 0.893674 0.537224 0.38124 0 0 1
v 0.891372 0.539794 0.382894 0 0 1
v 0.890529 0.540744 0.386504 0 0 1
v 0.891638 0.539517 0.389955 0 0 1
v 0.89405 0.536831 0.391225 0 0 1
v 0.896352 0.53426 0.389571 0 0 1
v 0.897195 0.53331 0.385961 0 0 1
v 0.795783 0.444579 0.382741 0 0 1
v 0.793371 0.447265 0.381471 0 0 1
v 0.791069 0.449836 0.383125 0 0 1
v 0.790226 0.450786 0.386735 0 0 1
v 0.791335 0.449558 0.390186 0 0 1
v 0.793747 0.446872 0.391456 0 0 1
v 0.796048 0.444302 0.389802 0 0 1
v 0.796892 0.443352 0.386192 0 0 1
v 0.69548 0.354621 0.382973 0 0 1
v 0.693068 0.357307 0.381702 0 0 1
v 0.690766 0.359878 0.383356 0 0 1
v 0.689923 0.360828 0.386966 0 0 1
v 0.691032 0.3596 0.390417 0 0 1
v 0.693444 0.356914 0.391687 0 0 1
v 0.695745 0.354343 0.390033 0 0 1
v 0.696589 0.353393 0.386423 0 0 1
v 0.595177 0.264663 0.383204 0 0 1
v 0.592765 0.267349 0.381933 0 0 1
v 0.590463 0.269919 0.383588 0 0 1
v 0.58962 0.270869 0.387197 0 0 1
v 0.590729 0.269642 0.390648 0 0 1
v 0.593141 0.266956 0.391919 0 0 1
v 0.595442 0.264385 0.390264 0 0 1
v 0.596286 0.263435 0.386655 0 0 1
v 0.592953 0.267152 0.386926 0 0 1
v 0.587449 0.267079 0.611706 0 0 1
v 0.587956 0.267019 0.386804 0 0 1
v 0.589325 0.270592 0.386838 0 0 1
v 0.59282 0.27215 0.386924 0 0 1
v 0.596392 0.270781 0.387011 0 0 1
v 0.59795 0.267286 0.387048 0 0 1
v 0.59658 0.263712 0.387014 0 0 1
v 0.593086 0.262154 0.386928 0 0 1
v 0.589514 0.263524 0.386841 0 0 1
v 0.58658 0.267 0.442999 0 0 1
v 0.587949 0.270574 0.443033 0 0 1
v 0.591443 0.272132 0.443119 0 0 1
v 0.595016 0.270762 0.443206 0 0 1
v 0.596574 0.267267 0.443243 0 0 1
v 0.595204 0.263694 0.443209 0 0 1
v 0.59171 0.262136 0.443123 0 0 1
v 0.588138 0.263505 0.443036 0 0 1
v 0.585204 0.266982 0.499194 0 0 1
v 0.586573 0.270555 0.499228 0 0 1
v 0.590067 0.272114 0.499314 0 0 1
v 0.59364 0.270744 0.499401 0 0 1
v 0.595198 0.267249 0.499438 0 0 1
v 0.593828 0.263676 0.499404 0 0 1
v 0.590334 0.262117 0.499318 0 0 1
v 0.586762 0.263487 0.499231 0 0 1
v 0.583828 0.266964 0.555389 0 0 1
v 0.585197 0.270537 0.555423 0 0 1
v 0.588691 0.272095 0.555509 0 0 1
v 0.592264 0.270726 0.555596 0 0 1
v 0.593821 0.26723 0.555633 0 0 1
v 0.592452 0.263657 0.555599 0 0 1
v 0.588958 0.262099 0.555513 0 0 1
v 0.585386 0.263468 0.555426 0 0 1
v 0.582452 0.266945 0.611584 0 0 1
v 0.583821 0.270519 0.611618 0 0 1
v 0.587315 0.272077 0.611704 0 0 1
v 0.590888 0.270707 0.611791 0 0 1
v 0.592445 0.267212 0.611828 0 0 1
v 0.591076 0.263639 0.611794 0 0 1
v 0.587582 0.26208 0.611708 0 0 1
v 0.58401 0.26345 0.611621 0 0 1
v 0.698204 0.366403 0.611067 0 0 1
v 0.702726 0.365604 0.386673 0 0 1
v 0.703203 0.366403 0.611168 0 0 1
v 0.701739 0.369939 0.611126 0 0 1
v 0.698204 0.371403 0.61105 0 0 1
v 0.694669 0.369939 0.610984 0 0 1
v 0.693205 0.366403 0.610967 0 0 1
v 0.694669 0.362868 0.611009 0 0 1
v 0.698204 0.361403 0.611085 0 0 1
v 0.701739 0.362868 0.611151 0 0 1
v 0.704334 0.366204 0.55507 0 0 1
v 0.70287 0.369739 0.555028 0 0 1
v 0.699335 0.371203 0.554951 0 0 1
v 0.6958 0.369739 0.554885 0 0 1
v 0.694336 0.366203 0.554868 0 0 1
v 0.6958 0.362668 0.55491 0 0 1
v 0.699335 0.361203 0.554987 0 0 1
v 0.702869 0.362668 0.555053 0 0 1
v 0.705464 0.366004 0.498971 0 0 1
v 0.704 0.369539 0.498929 0 0 1
v 0.700465 0.371004 0.498852 0 0 1
v 0.696931 0.369539 0.498786 0 0 1
v 0.695466 0.366004 0.49877 0 0 1
v 0.69693 0.362468 0.498812 0 0 1
v 0.700465 0.361004 0.498888 0 0 1
v 0.704 0.362468 0.498954 0 0 1
v 0.706595 0.365804 0.442872 0 0 1
v 0.705131 0.36934 0.44283 0 0 1
v 0.701596 0.370804 0.442754 0 0 1
v 0.698061 0.369339 0.442688 0 0 1
v 0.696597 0.365804 0.442671 0 0 1
v 0.698061 0.362268 0.442713 0 0 1
v 0.701596 0.360804 0.442789 0 0 1
v 0.70513 0.362269 0.442855 0 0 1
v 0.707725 0.365604 0.386774 0 0 1
v 0.706261 0.36914 0.386732 0 0 1
v 0.702727 0.370604 0.386655 0 0 1
v 0.699192 0.36914 0.386589 0 0 1
v 0.697727 0.365604 0.386572 0 0 1
v 0.699191 0.362069 0.386614 0 0 1
v 0.702726 0.360604 0.386691 0 0 1
v 0.706261 0.362069 0.386757 0 0 1
v 0.587449 0.267079 0.611706 0 0 1
v 0.997296 0.634626 0.609343 0 0 1
v 0.589689 0.264604 0.615428 0 0 1
v 0.587283 0.267295 0.616698 0 0 1
v 0.584974 0.26986 0.615044 0 0 1
v 0.584115 0.270795 0.611434 0 0 1
v 0.585208 0.269553 0.607984 0 0 1
v 0.587614 0.266862 0.606713 0 0 1
v 0.589923 0.264298 0.608368 0 0 1
v 0.590783 0.263363 0.611978 0 0 1
v 0.692151 0.356491 0.614838 0 0 1
v 0.689745 0.359182 0.616108 0 0 1
v 0.687436 0.361746 0.614453 0 0 1
v 0.686576 0.362682 0.610844 0 0 1
v 0.68767 0.36144 0.607393 0 0 1
v 0.690076 0.358749 0.606123 0 0 1
v 0.692385 0.356185 0.607777 0 0 1
v 0.693245 0.355249 0.611387 0 0 1
v 0.794613 0.448378 0.614247 0 0 1
v 0.792207 0.451069 0.615517 0 0 1
v 0.789898 0.453633 0.613863 0 0 1
v 0.789038 0.454568 0.610253 0 0 1
v 0.790132 0.453327 0.606802 0 0 1
v 0.792538 0.450636 0.605532 0 0 1
v 0.794847 0.448071 0.607186 0 0 1
v 0.795706 0.447136 0.610796 0 0 1
v 0.897075 0.540264 0.613656 0 0 1
v 0.894669 0.542956 0.614927 0 0 1
v 0.892359 0.54552 0.613272 0 0 1
v 0.8915 0.546455 0.609662 0 0 1
v 0.892593 0.545214 0.606212 0 0 1
v 0.894999 0.542522 0.604941 0 0 1
v 0.897309 0.539958 0.606596 0 0 1
v 0.898168 0.539023 0.610206 0 0 1
v 0.999536 0.632151 0.613066 0 0 1
v 0.99713 0.634842 0.614336 0 0 1
v 0.994821 0.637407 0.612682 0 0 1
v 0.993962 0.638342 0.609072 0 0 1
v 0.995055 0.6371 0.605621 0 0 1
v 0.997461 0.634409 0.604351 0 0 1
v 0.99977 0.631845 0.606005 0 0 1
v 1.00063 0.63091 0.609615 0 0 1
v 0.992845 0.729217 0.38524 0 0 1
v 0.997617 0.359669 0.387993 0 0 1
v 0.997844 0.729282 0.385304 0 0 1
v 0.996426 0.729237 0.38175 0 0 1
v 0.99291 0.72918 0.38024 0 0 1
v 0.989356 0.729145 0.381659 0 0 1
v 0.987846 0.729152 0.385175 0 0 1
v 0.989264 0.729197 0.388729 0 0 1
v 0.99278 0.729253 0.390239 0 0 1
v 0.996334 0.729289 0.38882 0 0 1
v 0.999037 0.636895 0.385993 0 0 1
v 0.997619 0.63685 0.382438 0 0 1
v 0.994103 0.636794 0.380929 0 0 1
v 0.990549 0.636758 0.382347 0 0 1
v 0.989039 0.636765 0.385863 0 0 1
v 0.990457 0.63681 0.389417 0 0 1
v 0.993973 0.636866 0.390927 0 0 1
v 0.997527 0.636902 0.389509 0 0 1
v 1.00023 0.544508 0.386681 0 0 1
v 0.998812 0.544463 0.383127 0 0 1
v 0.995296 0.544407 0.381617 0 0 1
v 0.991742 0.544371 0.383035 0 0 1
v 0.990232 0.544378 0.386552 0 0 1
v 0.99165 0.544423 0.390106 0 0 1
v 0.995166 0.54448 0.391616 0 0 1
v 0.99872 0.544515 0.390197 0 0 1
v 1.00142 0.452121 0.387369 0 0 1
v 1 0.452076 0.383815 0 0 1
v 0.996489 0.45202 0.382305 0 0 1
v 0.992935 0.451984 0.383724 0 0 1
v 0.991425 0.451991 0.38724 0 0 1
v 0.992843 0.452036 0.390794 0 0 1
v 0.996359 0.452093 0.392304 0 0 1
v 0.999913 0.452128 0.390885 0 0 1
v 1.00262 0.359734 0.388057 0 0 1
v 1.0012 0.35969 0.384503 0 0 1
v 0.997682 0.359633 0.382993 0 0 1
v 0.994128 0.359598 0.384412 0 0 1
v 0.992618 0.359604 0.387928 0 0 1
v 0.994036 0.359649 0.391482 0 0 1
v 0.997552 0.359706 0.392992 0 0 1
v 1.00111 0.359741 0.391574 0 0 1
v 0.996062 0.729964 0.608467 0 0 1
v 0.992845 0.729217 0.38524 0 0 1
v 1.00106 0.729964 0.608395 0 0 1
v 0.999597 0.733499 0.608404 0 0 1
v 0.996062 0.734964 0.60845 0 0 1
v 0.992527 0.733499 0.608506 0 0 1
v 0.991063 0.729964 0.608539 0 0 1
v 0.992527 0.726428 0.60853 0 0 1
v 0.996062 0.724964 0.608484 0 0 1
v 0.999597 0.726428 0.608428 0 0 1
v 1.00026 0.729777 0.552588 0 0 1
v 0.998793 0.733312 0.552597 0 0 1
v 0.995258 0.734777 0.552643 0 0 1
v 0.991723 0.733313 0.552699 0 0 1
v 0.990258 0.729777 0.552732 0 0 1
v 0.991723 0.726242 0.552723 0 0 1
v 0.995258 0.724777 0.552677 0 0 1
v 0.998793 0.726241 0.552621 0 0 1
v 0.999453 0.72959 0.496781 0 0 1
v 0.997989 0.733126 0.496791 0 0 1
v 0.994453 0.73459 0.496837 0 0 1
v 0.990918 0.733126 0.496892 0 0 1
v 0.989454 0.72959 0.496925 0 0 1
v 0.990918 0.726055 0.496916 0 0 1
v 0.994454 0.72459 0.49687 0 0 1
v 0.997989 0.726055 0.496814 0 0 1
v 0.998649 0.729403 0.440974 0 0 1
v 0.997184 0.732939 0.440984 0 0 1
v 0.993649 0.734404 0.44103 0 0 1
v 0.990114 0.732939 0.441086 0 0 1
v 0.98865 0.729404 0.441119 0 0 1
v 0.990114 0.725868 0.441109 0 0 1
v 0.993649 0.724404 0.441063 0 0 1
v 0.997184 0.725868 0.441007 0 0 1
v 0.997844 0.729217 0.385168 0 0 1
v 0.99638 0.732752 0.385177 0 0 1
v 0.992845 0.734217 0.385223 0 0 1
v 0.98931 0.732752 0.385279 0 0 1
v 0.987845 0.729217 0.385312 0 0 1
v 0.98931 0.725681 0.385302 0 0 1
v 0.992845 0.724217 0.385256 0 0 1
v 0.99638 0.725681 0.385201 0 0 1
v 1.00085 0.360311 0.611865 0 0 1
v 0.997617 0.359669 0.387993 0 0 1
v 1.00584 0.360311 0.611793 0 0 1
v 1.00438 0.363846 0.611804 0 0 1
v 1.00084 0.365311 0.61185 0 0 1
v 0.99731 0.363846 0.611906 0 0 1
v 0.995846 0.360311 0.611937 0 0 1
v 0.99731 0.356775 0.611926 0 0 1
v 1.00085 0.355311 0.611879 0 0 1
v 1.00438 0.356775 0.611824 0 0 1
v 1.00504 0.36015 0.555825 0 0 1
v 1.00357 0.363686 0.555836 0 0 1
v 1.00004 0.36515 0.555882 0 0 1
v 0.996503 0.363686 0.555938 0 0 1
v 0.995039 0.36015 0.555969 0 0 1
v 0.996503 0.356615 0.555958 0 0 1
v 1.00004 0.35515 0.555911 0 0 1
v 1.00357 0.356615 0.555856 0 0 1
v 1.00423 0.35999 0.499857 0 0 1
v 1.00277 0.363525 0.499868 0 0 1
v 0.999231 0.36499 0.499914 0 0 1
v 0.995696 0.363526 0.49997 0 0 1
v 0.994232 0.35999 0.500001 0 0 1
v 0.995696 0.356455 0.49999 0 0 1
v 0.999231 0.35499 0.499943 0 0 1
v 1.00277 0.356454 0.499888 0 0 1
v 1.00342 0.35983 0.443889 0 0 1
v 1.00196 0.363365 0.4439 0 0 1
v 0.998424 0.36483 0.443946 0 0 1
v 0.994889 0.363365 0.444002 0 0 1
v 0.993425 0.35983 0.444033 0 0 1
v 0.994889 0.356294 0.444022 0 0 1
v 0.998424 0.35483 0.443975 0 0 1
v 1.00196 0.356294 0.44392 0 0 1
v 1.00262 0.359669 0.387921 0 0 1
v 1.00115 0.363205 0.387932 0 0 1
v 0.997617 0.364669 0.387978 0 0 1
v 0.994082 0.363205 0.388034 0 0 1
v 0.992617 0.359669 0.388065 0 0 1
v 0.994082 0.356134 0.388054 0 0 1
v 0.997617 0.354669 0.388007 0 0 1
v 1.00115 0.356134 0.387952 0 0 1
v 1.00085 0.360311 0.611865 0 0 1
v 0.996062 0.729964 0.608467 0 0 1
v 1.00584 0.360375 0.6118 0 0 1
v 1.00443 0.360389 0.615354 0 0 1
v 1.00091 0.360357 0.616864 0 0 1
v 0.997355 0.360298 0.615446 0 0 1
v 0.995846 0.360247 0.611929 0 0 1
v 0.997265 0.360232 0.608375 0 0 1
v 1.00078 0.360264 0.606865 0 0 1
v 1.00433 0.360323 0.608284 0 0 1
v 1.00465 0.452788 0.610951 0 0 1
v 1.00323 0.452802 0.614505 0 0 1
v 0.999713 0.452771 0.616015 0 0 1
v 0.99616 0.452712 0.614596 0 0 1
v 0.99465 0.45266 0.61108 0 0 1
v 0.996069 0.452646 0.607526 0 0 1
v 0.999585 0.452677 0.606016 0 0 1
v 1.00314 0.452736 0.607434 0 0 1
v 1.00345 0.545201 0.610101 0 0 1
v 1.00203 0.545216 0.613655 0 0 1
v 0.998518 0.545184 0.615165 0 0 1
v 0.994964 0.545125 0.613747 0 0 1
v 0.993454 0.545073 0.610231 0 0 1
v 0.994873 0.545059 0.606677 0 0 1
v 0.99839 0.54509 0.605167 0 0 1
v 1.00194 0.545149 0.606585 0 0 1
v 1.00226 0.637615 0.609252 0 0 1
v 1.00084 0.637629 0.612806 0 0 1
v 0.997322 0.637597 0.614316 0 0 1
v 0.993768 0.637538 0.612897 0 0 1
v 0.992259 0.637486 0.609381 0 0 1
v 0.993678 0.637472 0.605827 0 0 1
v 0.997194 0.637504 0.604317 0 0 1
v 1.00075 0.637563 0.605736 0 0 1
v 1.00106 0.730028 0.608402 0 0 1
v 0.999642 0.730042 0.611956 0 0 1
v 0.996126 0.73001 0.613466 0 0 1
v 0.992573 0.729951 0.612048 0 0 1
v 0.991063 0.7299 0.608532 0 0 1
v 0.992482 0.729885 0.604978 0 0 1
v 0.995998 0.729917 0.603468 0 0 1
v 0.999552 0.729976 0.604886 0 0 1
v 0.0086903 0.379572 0.383567 0 0 1
v 0.00395496 0.735026 0.380918 0 0 1
v 0.0136894 0.379638 0.3835 0 0 1
v 0.012272 0.379646 0.387055 0 0 1
v 0.00875641 0.37961 0.388566 0 0 1
v 0.00520213 0.379552 0.387149 0 0 1
v 0.00369119 0.379506 0.383634 0 0 1
v 0.00510865 0.379498 0.380079 0 0 1
v 0.0086242 0.379534 0.378567 0 0 1
v 0.0121785 0.379592 0.379985 0 0 1
v 0.0125056 0.468501 0.382838 0 0 1
v 0.0110881 0.468509 0.386393 0 0 1
v 0.00757257 0.468473 0.387904 0 0 1
v 0.0040183 0.468416 0.386487 0 0 1
v 0.00250735 0.468369 0.382971 0 0 1
v 0.00392482 0.468362 0.379417 0 0 1
v 0.00744037 0.468397 0.377905 0 0 1
v 0.0109946 0.468455 0.379322 0 0 1
v 0.0113218 0.557365 0.382176 0 0 1
v 0.00990429 0.557372 0.385731 0 0 1
v 0.00638873 0.557337 0.387242 0 0 1
v 0.00283446 0.557279 0.385825 0 0 1
v 0.00132351 0.557233 0.382309 0 0 1
v 0.00274098 0.557225 0.378754 0 0 1
v 0.00625653 0.557261 0.377243 0 0 1
v 0.0098108 0.557319 0.37866 0 0 1
v 0.0101379 0.646228 0.381514 0 0 1
v 0.00872045 0.646236 0.385068 0 0 1
v 0.0052049 0.6462 0.38658 0 0 1
v 0.00165063 0.646142 0.385163 0 0 1
v 0.000139678 0.646096 0.381647 0 0 1
v 0.00155715 0.646088 0.378092 0 0 1
v 0.0050727 0.646124 0.376581 0 0 1
v 0.00862697 0.646182 0.377998 0 0 1
v 0.00895408 0.735092 0.380852 0 0 1
v 0.00753661 0.735099 0.384406 0 0 1
v 0.00402106 0.735064 0.385918 0 0 1
v 0.000466791 0.735006 0.3845 0 0 1
v -0.00104416 0.73496 0.380985 0 0 1
v 0.000373309 0.734952 0.37743 0 0 1
v 0.00388886 0.734987 0.375919 0 0 1
v 0.00744313 0.735045 0.377336 0 0 1
v 0.00395496 0.735026 0.380918 0 0 1
v 0.00236891 0.735807 0.605979 0 0 1
v 0.000908064 0.73899 0.380883 0 0 1
v 0.00460362 0.739983 0.380906 0 0 1
v 0.0079192 0.738073 0.380936 0 0 1
v 0.00891258 0.734377 0.380955 0 0 1
v 0.00700186 0.731061 0.380953 0 0 1
v 0.0033063 0.730068 0.380931 0 0 1
v -9.27562e-06 0.731979 0.380901 0 0 1
v -0.00100266 0.735674 0.380881 0 0 1
v 0.000511551 0.739185 0.437148 0 0 1
v 0.00420711 0.740179 0.437171 0 0 1
v 0.00752269 0.738268 0.437201 0 0 1
v 0.00851607 0.734572 0.437221 0 0 1
v 0.00660535 0.731257 0.437219 0 0 1
v 0.00290979 0.730263 0.437196 0 0 1
v -0.000405789 0.732174 0.437166 0 0 1
v -0.00139917 0.735869 0.437146 0 0 1
v 0.000115038 0.739381 0.493413 0 0 1
v 0.00381059 0.740374 0.493436 0 0 1
v 0.00712617 0.738463 0.493466 0 0 1
v 0.00811956 0.734768 0.493486 0 0 1
v 0.00620883 0.731452 0.493484 0 0 1
v 0.00251328 0.730459 0.493461 0 0 1
v -0.000802302 0.732369 0.493431 0 0 1
v -0.00179569 0.736065 0.493411 0 0 1
v -0.000281475 0.739576 0.549679 0 0 1
v 0.00341408 0.740569 0.549701 0 0 1
v 0.00672966 0.738659 0.549731 0 0 1
v 0.00772304 0.734963 0.549751 0 0 1
v 0.00581232 0.731647 0.549749 0 0 1
v 0.00211677 0.730654 0.549727 0 0 1
v -0.00119881 0.732565 0.549697 0 0 1
v -0.0021922 0.73626 0.549677 0 0 1
v -0.000677988 0.739771 0.605944 0 0 1
v 0.00301757 0.740765 0.605966 0 0 1
v 0.00633315 0.738854 0.605996 0 0 1
v 0.00732653 0.735158 0.606016 0 0 1
v 0.00541581 0.731843 0.606014 0 0 1
v 0.00172025 0.730849 0.605992 0 0 1
v -0.00159533 0.73276 0.605962 0 0 1
v -0.00258871 0.736456 0.605942 0 0 1
v 0.00361525 0.642166 0.60684 0 0 1
v 0.00519245 0.642135 0.38161 0 0 1
v 0.00861513 0.642166 0.606875 0 0 1
v 0.0071507 0.645702 0.606864 0 0 1
v 0.00361525 0.647166 0.606839 0 0 1
v 7.9803e-05 0.645702 0.606815 0 0 1
v -0.00138463 0.642166 0.606805 0 0 1
v 7.97996e-05 0.638631 0.606816 0 0 1
v 0.00361525 0.637166 0.606841 0 0 1
v 0.00715069 0.638631 0.606865 0 0 1
v 0.00900943 0.642158 0.550568 0 0 1
v 0.007545 0.645694 0.550557 0 0 1
v 0.00400955 0.647158 0.550532 0 0 1
v 0.000474103 0.645694 0.550507 0 0 1
v -0.000990329 0.642158 0.550498 0 0 1
v 0.0004741 0.638623 0.550508 0 0 1
v 0.00400955 0.637158 0.550533 0 0 1
v 0.00754499 0.638623 0.550558 0 0 1
v 0.00940373 0.642151 0.49426 0 0 1
v 0.0079393 0.645686 0.494249 0 0 1
v 0.00440385 0.64715 0.494224 0 0 1
v 0.000868403 0.645686 0.4942 0 0 1
v -0.000596029 0.64215 0.49419 0 0 1
v 0.0008684 0.638615 0.494201 0 0 1
v 0.00440385 0.63715 0.494226 0 0 1
v 0.00793929 0.638615 0.49425 0 0 1
v 0.00979803 0.642143 0.437953 0 0 1
v 0.0083336 0.645678 0.437942 0 0 1
v 0.00479815 0.647143 0.437917 0 0 1
v 0.0012627 0.645678 0.437892 0 0 1
v -0.000201728 0.642143 0.437883 0 0 1
v 0.0012627 0.638607 0.437893 0 0 1
v 0.00479815 0.637143 0.437918 0 0 1
v 0.00833359 0.638607 0.437943 0 0 1
v 0.0101923 0.642135 0.381645 0 0 1
v 0.0087279 0.64567 0.381635 0 0 1
v 0.00519245 0.647135 0.38161 0 0 1
v 0.001657 0.64567 0.381585 0 0 1
v 0.000192572 0.642135 0.381575 0 0 1
v 0.001657 0.638599 0.381586 0 0 1
v 0.00519245 0.637135 0.381611 0 0 1
v 0.00872789 0.638599 0.381636 0 0 1
v 0.0086903 0.379572 0.383567 0 0 1
v 0.00710042 0.380316 0.609247 0 0 1
v 0.0054872 0.383411 0.383532 0 0 1
v 0.00914004 0.384552 0.383554 0 0 1
v 0.0125294 0.382775 0.383583 0 0 1
v 0.0136699 0.379122 0.383603 0 0 1
v 0.0118934 0.375733 0.383602 0 0 1
v 0.00824057 0.374592 0.38358 0 0 1
v 0.00485118 0.376369 0.38355 0 0 1
v 0.0037107 0.380022 0.38353 0 0 1
v 0.00508973 0.383597 0.439952 0 0 1
v 0.00874256 0.384738 0.439974 0 0 1
v 0.012132 0.382961 0.440003 0 0 1
v 0.0132724 0.379308 0.440023 0 0 1
v 0.0114959 0.375919 0.440022 0 0 1
v 0.0078431 0.374778 0.44 0 0 1
v 0.00445371 0.376555 0.43997 0 0 1
v 0.00331322 0.380208 0.43995 0 0 1
v 0.00469225 0.383783 0.496372 0 0 1
v 0.00834509 0.384924 0.496394 0 0 1
v 0.0117345 0.383147 0.496423 0 0 1
v 0.012875 0.379494 0.496443 0 0 1
v 0.0110985 0.376105 0.496442 0 0 1
v 0.00744563 0.374964 0.49642 0 0 1
v 0.00405624 0.376741 0.49639 0 0 1
v 0.00291575 0.380394 0.49637 0 0 1
v 0.00429478 0.383969 0.552792 0 0 1
v 0.00794762 0.38511 0.552814 0 0 1
v 0.011337 0.383333 0.552843 0 0 1
v 0.0124775 0.37968 0.552863 0 0 1
v 0.010701 0.376291 0.552862 0 0 1
v 0.00704816 0.37515 0.55284 0 0 1
v 0.00365877 0.376927 0.55281 0 0 1
v 0.00251828 0.38058 0.55279 0 0 1
v 0.00389731 0.384155 0.609212 0 0 1
v 0.00755015 0.385296 0.609234 0 0 1
v 0.0109395 0.383519 0.609263 0 0 1
v 0.01208 0.379866 0.609283 0 0 1
v 0.0103035 0.376477 0.609282 0 0 1
v 0.00665069 0.375336 0.60926 0 0 1
v 0.00326129 0.377113 0.60923 0 0 1
v 0.00212081 0.380766 0.60921 0 0 1
v 0.00236891 0.735807 0.605979 0 0 1
v 0.00710042 0.380316 0.609247 0 0 1
v 0.00736802 0.735874 0.606046 0 0 1
v 0.00595129 0.735823 0.602491 0 0 1
v 0.00243606 0.735762 0.60098 0 0 1
v -0.00111851 0.735728 0.602397 0 0 1
v -0.0026302 0.73574 0.605913 0 0 1
v -0.00121347 0.735791 0.609467 0 0 1
v 0.00230176 0.735852 0.610978 0 0 1
v 0.00585633 0.735886 0.609561 0 0 1
v 0.00855089 0.647001 0.606863 0 0 1
v 0.00713417 0.64695 0.603308 0 0 1
v 0.00361893 0.646889 0.601797 0 0 1
v 6.43656e-05 0.646855 0.603214 0 0 1
v -0.00144732 0.646867 0.60673 0 0 1
v -3.0597e-05 0.646919 0.610284 0 0 1
v 0.00348464 0.646979 0.611795 0 0 1
v 0.00703921 0.647014 0.610378 0 0 1
v 0.00973377 0.558129 0.60768 0 0 1
v 0.00831705 0.558077 0.604125 0 0 1
v 0.00480181 0.558016 0.602614 0 0 1
v 0.00124724 0.557982 0.604031 0 0 1
v -0.000264443 0.557994 0.607546 0 0 1
v 0.00115228 0.558046 0.611101 0 0 1
v 0.00466751 0.558107 0.612612 0 0 1
v 0.00822208 0.558141 0.611195 0 0 1
v 0.0109166 0.469256 0.608497 0 0 1
v 0.00949992 0.469204 0.604942 0 0 1
v 0.00598469 0.469144 0.603431 0 0 1
v 0.00243012 0.469109 0.604848 0 0 1
v 0.000918434 0.469122 0.608363 0 0 1
v 0.00233516 0.469173 0.611918 0 0 1
v 0.00585039 0.469234 0.613429 0 0 1
v 0.00940496 0.469268 0.612012 0 0 1
v 0.0120995 0.380383 0.609313 0 0 1
v 0.0106828 0.380332 0.605759 0 0 1
v 0.00716757 0.380271 0.604248 0 0 1
v 0.003613 0.380237 0.605665 0 0 1
v 0.00210131 0.380249 0.60918 0 0 1
v 0.00351803 0.3803 0.612735 0 0 1
v 0.00703327 0.380361 0.614246 0 0 1
v 0.0105878 0.380395 0.612829 0 0 1
v 0.414577 0.26214 0.386191 0 0 1
v 0.592953 0.267152 0.386926 0 0 1
v 0.41456 0.261999 0.391189 0 0 1
v 0.414466 0.265573 0.389825 0 0 1
v 0.414436 0.267136 0.386332 0 0 1
v 0.414489 0.265772 0.382757 0 0 1
v 0.414594 0.262281 0.381193 0 0 1
v 0.414689 0.258707 0.382558 0 0 1
v 0.414718 0.257144 0.386051 0 0 1
v 0.414665 0.258507 0.389626 0 0 1
v 0.459154 0.263252 0.391373 0 0 1
v 0.45906 0.266826 0.390008 0 0 1
v 0.45903 0.268389 0.386515 0 0 1
v 0.459083 0.267025 0.38294 0 0 1
v 0.459188 0.263534 0.381377 0 0 1
v 0.459282 0.25996 0.382742 0 0 1
v 0.459312 0.258397 0.386235 0 0 1
v 0.459259 0.25976 0.38981 0 0 1
v 0.503748 0.264505 0.391557 0 0 1
v 0.503654 0.268079 0.390192 0 0 1
v 0.503624 0.269642 0.386699 0 0 1
v 0.503677 0.268278 0.383124 0 0 1
v 0.503782 0.264787 0.381561 0 0 1
v 0.503876 0.261213 0.382925 0 0 1
v 0.503906 0.25965 0.386418 0 0 1
v 0.503853 0.261013 0.389993 0 0 1
v 0.548342 0.265758 0.39174 0 0 1
v 0.548248 0.269332 0.390376 0 0 1
v 0.548218 0.270895 0.386883 0 0 1
v 0.548271 0.269531 0.383308 0 0 1
v 0.548376 0.26604 0.381744 0 0 1
v 0.54847 0.262466 0.383109 0 0 1
v 0.5485 0.260903 0.386602 0 0 1
v 0.548447 0.262267 0.390177 0 0 1
v 0.592936 0.267011 0.391924 0 0 1
v 0.592842 0.270585 0.390559 0 0 1
v 0.592812 0.272148 0.387066 0 0 1
v 0.592865 0.270785 0.383491 0 0 1
v 0.59297 0.267293 0.381928 0 0 1
v 0.593064 0.263719 0.383293 0 0 1
v 0.593094 0.262156 0.386786 0 0 1
v 0.593041 0.26352 0.390361 0 0 1
v 0.992845 0.729217 0.38524 0 0 1
v 0.00395496 0.735026 0.380918 0 0 1
v 0.992867 0.729246 0.38024 0 0 1
v 0.992881 0.732773 0.381725 0 0 1
v 0.992874 0.734217 0.385269 0 0 1
v 0.99285 0.732732 0.388796 0 0 1
v 0.992823 0.729188 0.39024 0 0 1
v 0.992809 0.725661 0.388754 0 0 1
v 0.992816 0.724217 0.38521 0 0 1
v 0.99284 0.725702 0.381683 0 0 1
v 0.745644 0.730698 0.379159 0 0 1
v 0.745659 0.734225 0.380645 0 0 1
v 0.745652 0.735669 0.384189 0 0 1
v 0.745627 0.734184 0.387715 0 0 1
v 0.7456 0.73064 0.389159 0 0 1
v 0.745586 0.727113 0.387674 0 0 1
v 0.745593 0.725669 0.38413 0 0 1
v 0.745617 0.727154 0.380603 0 0 1
v 0.498422 0.73215 0.378079 0 0 1
v 0.498436 0.735677 0.379564 0 0 1
v 0.498429 0.737121 0.383108 0 0 1
v 0.498405 0.735636 0.386635 0 0 1
v 0.498378 0.732092 0.388079 0 0 1
v 0.498364 0.728565 0.386594 0 0 1
v 0.498371 0.727121 0.38305 0 0 1
v 0.498395 0.728607 0.379523 0 0 1
v 0.251199 0.733603 0.376999 0 0 1
v 0.251214 0.73713 0.378484 0 0 1
v 0.251207 0.738573 0.382028 0 0 1
v 0.251183 0.737088 0.385555 0 0 1
v 0.251155 0.733544 0.386998 0 0 1
v 0.251141 0.730017 0.385513 0 0 1
v 0.251148 0.728574 0.381969 0 0 1
v 0.251172 0.730059 0.378442 0 0 1
v 0.00397698 0.735055 0.375918 0 0 1
v 0.00399121 0.738582 0.377403 0 0 1
v 0.0039842 0.740025 0.380948 0 0 1
v 0.00396007 0.73854 0.384474 0 0 1
v 0.00393294 0.734996 0.385918 0 0 1
v 0.00391871 0.73147 0.384433 0 0 1
v 0.00392572 0.730026 0.380889 0 0 1
v 0.00394986 0.731511 0.377362 0 0 1
v 0.00519245 0.642135 0.38161 0 0 1
v 0.414577 0.26214 0.386191 0 0 1
v 0.00748452 0.644648 0.385275 0 0 1
v 0.00859052 0.645798 0.381796 0 0 1
v 0.00770597 0.644802 0.378209 0 0 1
v 0.00534904 0.642243 0.376614 0 0 1
v 0.00290037 0.639621 0.377946 0 0 1
v 0.00179438 0.638472 0.381424 0 0 1
v 0.00267892 0.639468 0.385012 0 0 1
v 0.00503586 0.642026 0.386607 0 0 1
v 0.109831 0.54965 0.38642 0 0 1
v 0.110937 0.550799 0.382942 0 0 1
v 0.110052 0.549803 0.379354 0 0 1
v 0.107695 0.547245 0.377759 0 0 1
v 0.105247 0.544623 0.379091 0 0 1
v 0.104141 0.543473 0.38257 0 0 1
v 0.105025 0.544469 0.386157 0 0 1
v 0.107382 0.547028 0.387752 0 0 1
v 0.212177 0.454651 0.387565 0 0 1
v 0.213283 0.4558 0.384087 0 0 1
v 0.212398 0.454804 0.380499 0 0 1
v 0.210041 0.452246 0.378904 0 0 1
v 0.207593 0.449624 0.380236 0 0 1
v 0.206487 0.448474 0.383715 0 0 1
v 0.207371 0.44947 0.387302 0 0 1
v 0.209728 0.452029 0.388897 0 0 1
v 0.314523 0.359652 0.388711 0 0 1
v 0.315629 0.360802 0.385232 0 0 1
v 0.314744 0.359805 0.381645 0 0 1
v 0.312388 0.357247 0.38005 0 0 1
v 0.309939 0.354625 0.381382 0 0 1
v 0.308833 0.353475 0.38486 0 0 1
v 0.309717 0.354472 0.388448 0 0 1
v 0.312074 0.35703 0.390042 0 0 1
v 0.416869 0.264653 0.389856 0 0 1
v 0.417975 0.265803 0.386377 0 0 1
v 0.417091 0.264807 0.38279 0 0 1
v 0.414734 0.262248 0.381195 0 0 1
v 0.412285 0.259626 0.382527 0 0 1
v 0.411179 0.258477 0.386005 0 0 1
v 0.412064 0.259473 0.389593 0 0 1
v 0.41442 0.262031 0.391188 0 0 1
v 0.997617 0.359669 0.387993 0 0 1
v 0.0086903 0.379572 0.383567 0 0 1
v 0.997641 0.359769 0.382994 0 0 1
v 0.997705 0.363274 0.384529 0 0 1
v 0.997717 0.364667 0.388093 0 0 1
v 0.997671 0.363133 0.391599 0 0 1
v 0.997593 0.359569 0.392992 0 0 1
v 0.997529 0.356064 0.391456 0 0 1
v 0.997517 0.354671 0.387892 0 0 1
v 0.997563 0.356206 0.384387 0 0 1
v 0.75041 0.364745 0.381887 0 0 1
v 0.750473 0.36825 0.383423 0 0 1
v 0.750485 0.369643 0.386987 0 0 1
v 0.750439 0.368108 0.390492 0 0 1
v 0.750361 0.364545 0.391885 0 0 1
v 0.750297 0.36104 0.39035 0 0 1
v 0.750285 0.359647 0.386786 0 0 1
v 0.750332 0.361182 0.38328 0 0 1
v 0.503178 0.369721 0.380781 0 0 1
v 0.503242 0.373226 0.382316 0 0 1
v 0.503254 0.374619 0.38588 0 0 1
v 0.503207 0.373084 0.389386 0 0 1
v 0.503129 0.36952 0.390779 0 0 1
v 0.503066 0.366016 0.389243 0 0 1
v 0.503054 0.364623 0.385679 0 0 1
v 0.5031 0.366157 0.382174 0 0 1
v 0.255946 0.374696 0.379674 0 0 1
v 0.25601 0.378201 0.38121 0 0 1
v 0.256022 0.379594 0.384774 0 0 1
v 0.255976 0.37806 0.388279 0 0 1
v 0.255898 0.374496 0.389672 0 0 1
v 0.255834 0.370991 0.388137 0 0 1
v 0.255822 0.369598 0.384573 0 0 1
v 0.255868 0.371133 0.381067 0 0 1
v 0.00871469 0.379672 0.378568 0 0 1
v 0.00877836 0.383177 0.380103 0 0 1
v 0.00879044 0.38457 0.383668 0 0 1
v 0.00874387 0.383035 0.387173 0 0 1
v 0.00866592 0.379472 0.388566 0 0 1
v 0.00860225 0.375967 0.387031 0 0 1
v 0.00859017 0.374574 0.383466 0 0 1
v 0.00863674 0.376109 0.379961 0 0 1
v 0.414577 0.26214 0.386191 0 0 1
v 0.412994 0.262177 0.611323 0 0 1
v 0.409583 0.262372 0.386156 0 0 1
v 0.41121 0.265836 0.386167 0 0 1
v 0.41481 0.267134 0.386192 0 0 1
v 0.418273 0.265507 0.386217 0 0 1
v 0.419572 0.261907 0.386226 0 0 1
v 0.417944 0.258443 0.386216 0 0 1
v 0.414344 0.257145 0.386191 0 0 1
v 0.410881 0.258773 0.386166 0 0 1
v 0.409187 0.262382 0.442439 0 0 1
v 0.410814 0.265845 0.44245 0 0 1
v 0.414414 0.267143 0.442475 0 0 1
v 0.417878 0.265516 0.4425 0 0 1
v 0.419176 0.261916 0.44251 0 0 1
v 0.417548 0.258453 0.442499 0 0 1
v 0.413949 0.257154 0.442474 0 0 1
v 0.410485 0.258782 0.442449 0 0 1
v 0.408791 0.262391 0.498722 0 0 1
v 0.410419 0.265854 0.498733 0 0 1
v 0.414019 0.267153 0.498758 0 0 1
v 0.417482 0.265525 0.498783 0 0 1
v 0.41878 0.261925 0.498793 0 0 1
v 0.417153 0.258462 0.498782 0 0 1
v 0.413553 0.257163 0.498757 0 0 1
v 0.41009 0.258791 0.498732 0 0 1
v 0.408396 0.2624 0.555005 0 0 1
v 0.410023 0.265864 0.555016 0 0 1
v 0.413623 0.267162 0.555041 0 0 1
v 0.417086 0.265534 0.555066 0 0 1
v 0.418385 0.261934 0.555076 0 0 1
v 0.416757 0.258471 0.555065 0 0 1
v 0.413157 0.257173 0.55504 0 0 1
v 0.409694 0.2588 0.555015 0 0 1
v 0.408 0.262409 0.611288 0 0 1
v 0.409628 0.265873 0.611299 0 0 1
v 0.413227 0.267171 0.611324 0 0 1
v 0.416691 0.265544 0.611349 0 0 1
v 0.417989 0.261944 0.611359 0 0 1
v 0.416361 0.25848 0.611348 0 0 1
v 0.412762 0.257182 0.611323 0 0 1
v 0.409298 0.258809 0.611298 0 0 1
v 0.412994 0.262177 0.611323 0 0 1
v 0.587449 0.267079 0.611706 0 0 1
v 0.412987 0.262036 0.616321 0 0 1
v 0.41289 0.26561 0.614957 0 0 1
v 0.412854 0.267173 0.611464 0 0 1
v 0.4129 0.265809 0.607889 0 0 1
v 0.413002 0.262317 0.606325 0 0 1
v 0.413099 0.258743 0.60769 0 0 1
v 0.413135 0.25718 0.611183 0 0 1
v 0.413089 0.258544 0.614758 0 0 1
v 0.456601 0.263261 0.616417 0 0 1
v 0.456504 0.266835 0.615052 0 0 1
v 0.456467 0.268398 0.611559 0 0 1
v 0.456514 0.267034 0.607984 0 0 1
v 0.456615 0.263543 0.606421 0 0 1
v 0.456712 0.259969 0.607786 0 0 1
v 0.456749 0.258406 0.611279 0 0 1
v 0.456703 0.25977 0.614854 0 0 1
v 0.500215 0.264487 0.616513 0 0 1
v 0.500117 0.268061 0.615148 0 0 1
v 0.500081 0.269624 0.611655 0 0 1
v 0.500127 0.26826 0.60808 0 0 1
v 0.500229 0.264768 0.606517 0 0 1
v 0.500326 0.261194 0.607881 0 0 1
v 0.500362 0.259632 0.611374 0 0 1
v 0.500316 0.260995 0.614949 0 0 1
v 0.543828 0.265712 0.616608 0 0 1
v 0.543731 0.269286 0.615244 0 0 1
v 0.543694 0.270849 0.611751 0 0 1
v 0.543741 0.269485 0.608175 0 0 1
v 0.543842 0.265994 0.606612 0 0 1
v 0.54394 0.26242 0.607977 0 0 1
v 0.543976 0.260857 0.61147 0 0 1
v 0.54393 0.262221 0.615045 0 0 1
v 0.587442 0.266938 0.616704 0 0 1
v 0.587344 0.270512 0.615339 0 0 1
v 0.587308 0.272075 0.611846 0 0 1
v 0.587354 0.270711 0.608271 0 0 1
v 0.587456 0.267219 0.606708 0 0 1
v 0.587553 0.263645 0.608072 0 0 1
v 0.587589 0.262083 0.611565 0 0 1
v 0.587543 0.263446 0.615141 0 0 1
v 0.996062 0.729964 0.608467 0 0 1
v 0.00236891 0.735807 0.605979 0 0 1
v 0.996075 0.729993 0.603467 0 0 1
v 0.996092 0.73352 0.604952 0 0 1
v 0.996092 0.734964 0.608496 0 0 1
v 0.996074 0.733478 0.612023 0 0 1
v 0.99605 0.729934 0.613467 0 0 1
v 0.996032 0.726408 0.611982 0 0 1
v 0.996033 0.724964 0.608438 0 0 1
v 0.99605 0.726449 0.604911 0 0 1
v 0.747652 0.731454 0.602845 0 0 1
v 0.747669 0.734981 0.60433 0 0 1
v 0.747668 0.736424 0.607874 0 0 1
v 0.747651 0.734939 0.611401 0 0 1
v 0.747626 0.731395 0.612845 0 0 1
v 0.747609 0.727868 0.61136 0 0 1
v 0.74761 0.726425 0.607816 0 0 1
v 0.747627 0.72791 0.604289 0 0 1
v 0.499228 0.732915 0.602223 0 0 1
v 0.499245 0.736441 0.603708 0 0 1
v 0.499245 0.737885 0.607253 0 0 1
v 0.499227 0.7364 0.610779 0 0 1
v 0.499203 0.732856 0.612223 0 0 1
v 0.499186 0.729329 0.610738 0 0 1
v 0.499186 0.727885 0.607194 0 0 1
v 0.499204 0.729371 0.603667 0 0 1
v 0.250805 0.734375 0.601601 0 0 1
v 0.250822 0.737902 0.603086 0 0 1
v 0.250822 0.739346 0.606631 0 0 1
v 0.250804 0.737861 0.610157 0 0 1
v 0.25078 0.734317 0.611601 0 0 1
v 0.250763 0.73079 0.610116 0 0 1
v 0.250763 0.729346 0.606572 0 0 1
v 0.25078 0.730831 0.603045 0 0 1
v 0.0023816 0.735836 0.600979 0 0 1
v 0.00239862 0.739363 0.602464 0 0 1
v 0.00239824 0.740807 0.606009 0 0 1
v 0.00238067 0.739322 0.609535 0 0 1
v 0.00235622 0.735778 0.610979 0 0 1
v 0.0023392 0.732251 0.609494 0 0 1
v 0.00233958 0.730807 0.60595 0 0 1
v 0.00235715 0.732292 0.602423 0 0 1
v 0.294254 0.373825 0.384845 0 0 1
v 0.291894 0.374583 0.609997 0 0 1
v 0.29019 0.376736 0.384793 0 0 1
v 0.293439 0.378758 0.38482 0 0 1
v 0.297166 0.37789 0.384862 0 0 1
v 0.299187 0.37464 0.384894 0 0 1
v 0.298318 0.370913 0.384897 0 0 1
v 0.295069 0.368892 0.38487 0 0 1
v 0.291342 0.36976 0.384828 0 0 1
v 0.289321 0.373009 0.384796 0 0 1
v 0.2896 0.376926 0.441081 0 0 1
v 0.292849 0.378947 0.441108 0 0 1
v 0.296576 0.378079 0.44115 0 0 1
v 0.298597 0.37483 0.441182 0 0 1
v 0.297729 0.371103 0.441185 0 0 1
v 0.294479 0.369081 0.441158 0 0 1
v 0.290752 0.36995 0.441116 0 0 1
v 0.288731 0.373199 0.441084 0 0 1
v 0.28901 0.377115 0.497369 0 0 1
v 0.292259 0.379137 0.497396 0 0 1
v 0.295986 0.378269 0.497438 0 0 1
v 0.298007 0.375019 0.49747 0 0 1
v 0.297139 0.371292 0.497473 0 0 1
v 0.293889 0.369271 0.497446 0 0 1
v 0.290163 0.370139 0.497404 0 0 1
v 0.288141 0.373388 0.497372 0 0 1
v 0.28842 0.377305 0.553657 0 0 1
v 0.291669 0.379326 0.553684 0 0 1
v 0.295396 0.378458 0.553726 0 0 1
v 0.297417 0.375209 0.553758 0 0 1
v 0.296549 0.371482 0.553761 0 0 1
v 0.2933 0.36946 0.553734 0 0 1
v 0.289573 0.370328 0.553692 0 0 1
v 0.287551 0.373578 0.55366 0 0 1
v 0.28783 0.377494 0.609945 0 0 1
v 0.291079 0.379516 0.609972 0 0 1
v 0.294806 0.378648 0.610014 0 0 1
v 0.296827 0.375398 0.610046 0 0 1
v 0.295959 0.371671 0.61005 0 0 1
v 0.29271 0.36965 0.610022 0 0 1
v 0.288983 0.370518 0.60998 0 0 1
v 0.286962 0.373767 0.609948 0 0 1
v 0.00361525 0.642166 0.60684 0 0 1
v 0.412994 0.262177 0.611323 0 0 1
v 0.00590779 0.644679 0.610504 0 0 1
v 0.00701334 0.645829 0.607026 0 0 1
v 0.00612834 0.644833 0.603438 0 0 1
v 0.0037712 0.642275 0.601844 0 0 1
v 0.00132271 0.639653 0.603175 0 0 1
v 0.000217155 0.638503 0.606654 0 0 1
v 0.00110216 0.639499 0.610241 0 0 1
v 0.0034593 0.642057 0.611836 0 0 1
v 0.108253 0.549682 0.611625 0 0 1
v 0.109358 0.550832 0.608147 0 0 1
v 0.108473 0.549836 0.604559 0 0 1
v 0.106116 0.547278 0.602964 0 0 1
v 0.103668 0.544656 0.604296 0 0 1
v 0.102562 0.543506 0.607775 0 0 1
v 0.103447 0.544501 0.611362 0 0 1
v 0.105804 0.54706 0.612957 0 0 1
v 0.210597 0.454684 0.612746 0 0 1
v 0.211703 0.455834 0.609268 0 0 1
v 0.210818 0.454839 0.60568 0 0 1
v 0.208461 0.45228 0.604085 0 0 1
v 0.206012 0.449658 0.605417 0 0 1
v 0.204907 0.448508 0.608896 0 0 1
v 0.205792 0.449504 0.612483 0 0 1
v 0.208149 0.452062 0.614078 0 0 1
v 0.312942 0.359687 0.613867 0 0 1
v 0.314048 0.360837 0.610389 0 0 1
v 0.313163 0.359841 0.606801 0 0 1
v 0.310806 0.357283 0.605206 0 0 1
v 0.308357 0.354661 0.606538 0 0 1
v 0.307252 0.353511 0.610017 0 0 1
v 0.308137 0.354507 0.613604 0 0 1
v 0.310494 0.357065 0.615199 0 0 1
v 0.415287 0.26469 0.614988 0 0 1
v 0.416393 0.26584 0.611509 0 0 1
v 0.415508 0.264844 0.607922 0 0 1
v 0.41315 0.262286 0.606327 0 0 1
v 0.410702 0.259663 0.607659 0 0 1
v 0.409596 0.258513 0.611137 0 0 1
v 0.410481 0.259509 0.614725 0 0 1
v 0.412839 0.262067 0.61632 0 0 1
v 1.00085 0.360311 0.611865 0 0 1
v 0.00710042 0.380316 0.609247 0 0 1
v 1.00086 0.360411 0.606866 0 0 1
v 1.00093 0.363916 0.608401 0 0 1
v 1.00095 0.365309 0.611965 0 0 1
v 1.00091 0.363774 0.615471 0 0 1
v 1.00083 0.36021 0.616864 0 0 1
v 1.00076 0.356706 0.615328 0 0 1
v 1.00074 0.355313 0.611764 0 0 1
v 1.00078 0.356848 0.608259 0 0 1
v 0.752424 0.365412 0.606211 0 0 1
v 0.752491 0.368917 0.607747 0 0 1
v 0.752509 0.37031 0.611311 0 0 1
v 0.752469 0.368775 0.614816 0 0 1
v 0.752394 0.365212 0.616209 0 0 1
v 0.752327 0.361707 0.614674 0 0 1
v 0.752309 0.360314 0.61111 0 0 1
v 0.752349 0.361849 0.607604 0 0 1
v 0.503988 0.370414 0.605557 0 0 1
v 0.504054 0.373918 0.607092 0 0 1
v 0.504073 0.375311 0.610656 0 0 1
v 0.504033 0.373776 0.614162 0 0 1
v 0.503958 0.370213 0.615555 0 0 1
v 0.503891 0.366708 0.614019 0 0 1
v 0.503872 0.365315 0.610455 0 0 1
v 0.503912 0.36685 0.60695 0 0 1
v 0.255552 0.375415 0.604902 0 0 1
v 0.255618 0.37892 0.606438 0 0 1
v 0.255637 0.380313 0.610002 0 0 1
v 0.255597 0.378778 0.613507 0 0 1
v 0.255521 0.375214 0.6149 0 0 1
v 0.255455 0.37171 0.613365 0 0 1
v 0.255436 0.370317 0.609801 0 0 1
v 0.255476 0.371852 0.606295 0 0 1
v 0.00711561 0.380416 0.604248 0 0 1
v 0.00718212 0.383921 0.605783 0 0 1
v 0.00720077 0.385314 0.609348 0 0 1
v 0.00716064 0.383779 0.612853 0 0 1
v 0.00708523 0.380216 0.614246 0 0 1
v 0.00701872 0.376711 0.612711 0 0 1
v 0.00700007 0.375318 0.609146 0 0 1
v 0.0070402 0.376853 0.605641 0 0 1
f 1 3 4
f 2 36 35
f 1 4 5
f 2 37 36
f 1 5 6
f 2 38 37
f 1 6 7
f 2 39 38
f 1 7 8
f 2 40 39
f 1 8 9
f 2 41 40
f 1 9 10
f 2 42 41
f 1 10 3
f 2 35 42
f 11 4 3
f 11 12 4
f 12 5 4
f 12 13 5
f 13 6 5
f 13 14 6
f 14 7 6
f 14 15 7
f 15 8 7
f 15 16 8
f 16 9 8
f 16 17 9
f 17 10 9
f 17 18 10
f 18 3 10
f 18 11 3
f 19 12 11
f 19 20 12
f 20 13 12
f 20 21 13
f 21 14 13
f 21 22 14
f 22 15 14
f 22 23 15
f 23 16 15
f 23 24 16
f 24 17 16
f 24 25 17
f 25 18 17
f 25 26 18
f 26 11 18
f 26 19 11
f 27 20 19
f 27 28 20
f 28 21 20
f 28 29 21
f 29 22 21
f 29 30 22
f 30 23 22
f 30 31 23
f 31 24 23
f 31 32 24
f 32 25 24
f 32 33 25
f 33 26 25
f 33 34 26
f 34 19 26
f 34 27 19
f 35 28 27
f 35 36 28
f 36 29 28
f 36 37 29
f 37 30 29
f 37 38 30
f 38 31 30
f 38 39 31
f 39 32 31
f 39 40 32
f 40 33 32
f 40 41 33
f 41 34 33
f 41 42 34
f 42 27 34
f 42 35 27
f 43 45 46
f 44 78 77
f 43 46 47
f 44 79 78
f 43 47 48
f 44 80 79
f 43 48 49
f 44 81 80
f 43 49 50
f 44 82 81
f 43 50 51
f 44 83 82
f 43 51 52
f 44 84 83
f 43 52 45
f 44 77 84
f 53 46 45
f 53 54 46
f 54 47 46
f 54 55 47
f 55 48 47
f 55 56 48
f 56 49 48
f 56 57 49
f 57 50 49
f 57 58 50
f 58 51 50
f 58 59 51
f 59 52 51
f 59 60 52
f 60 45 52
f 60 53 45
f 61 54 53
f 61 62 54
f 62 55 54
f 62 63 55
f 63 56 55
f 63 64 56
f 64 57 56
f 64 65 57
f 65 58 57
f 65 66 58
f 66 59 58
f 66 67 59
f 67 60 59
f 67 68 60
f 68 53 60
f 68 61 53
f 69 62 61
f 69 70 62
f 70 63 62
f 70 71 63
f 71 64 63
f 71 72 64
f 72 65 64
f 72 73 65
f 73 66 65
f 73 74 66
f 74 67 66
f 74 75 67
f 75 68 67
f 75 76 68
f 76 61 68
f 76 69 61
f 77 70 69
f 77 78 70
f 78 71 70
f 78 79 71
f 79 72 71
f 79 80 72
f 80 73 72
f 80 81 73
f 81 74 73
f 81 82 74
f 82 75 74
f 82 83 75
f 83 76 75
f 83 84 76
f 84 69 76
f 84 77 69
f 85 87 88
f 86 120 119
f 85 88 89
f 86 121 120
f 85 89 90
f 86 122 121
f 85 90 91
f 86 123 122
f 85 91 92
f 86 124 123
f 85 92 93
f 86 125 124
f 85 93 94
f 86 126 125
f 85 94 87
f 86 119 126
f 95 88 87
f 95 96 88
f 96 89 88
f 96 97 89
f 97 90 89
f 97 98 90
f 98 91 90
f 98 99 91
f 99 92 91
f 99 100 92
f 100 93 92
f 100 101 93
f 101 94 93
f 101 102 94
f 102 87 94
f 102 95 87
f 103 96 95
f 103 104 96
f 104 97 96
f 104 105 97
f 105 98 97
f 105 106 98
f 106 99 98
f 106 107 99
f 107 100 99
f 107 108 100
f 108 101 100
f 108 109 101
f 109 102 101
f 109 110 102
f 110 95 102
f 110 103 95
f 111 104 103
f 111 112 104
f 112 105 104
f 112 113 105
f 113 106 105
f 113 114 106
f 114 107 106
f 114 115 107
f 115 108 107
f 115 116 108
f 116 109 108
f 116 117 109
f 117 110 109
f 117 118 110
f 118 103 110
f 118 111 103
f 119 112 111
f 119 120 112
f 120 113 112
f 120 121 113
f 121 114 113
f 121 122 114
f 122 115 114
f 122 123 115
f 123 116 115
f 123 124 116
f 124 117 116
f 124 125 117
f 125 118 117
f 125 126 118
f 126 111 118
f 126 119 111
f 127 129 130
f 128 162 161
f 127 130 131
f 128 163 162
f 127 131 132
f 128 164 163
f 127 132 133
f 128 165 164
f 127 133 134
f 128 166 165
f 127 134 135
f 128 167 166
f 127 135 136
f 128 168 167
f 127 136 129
f 128 161 168
f 137 130 129
f 137 138 130
f 138 131 130
f 138 139 131
f 139 132 131
f 139 140 132
f 140 133 132
f 140 141 133
f 141 134 133
f 141 142 134
f 142 135 134
f 142 143 135
f 143 136 135
f 143 144 136
f 144 129 136
f 144 137 129
f 145 138 137
f 145 146 138
f 146 139 138
f 146 147 139
f 147 140 139
f 147 148 140
f 148 141 140
f 148 149 141
f 149 142 141
f 149 150 142
f 150 143 142
f 150 151 143
f 151 144 143
f 151 152 144
f 152 137 144
f 152 145 137
f 153 146 145
f 153 154 146
f 154 147 146
f 154 155 147
f 155 148 147
f 155 156 148
f 156 149 148
f 156 157 149
f 157 150 149
f 157 158 150
f 158 151 150
f 158 159 151
f 159 152 151
f 159 160 152
f 160 145 152
f 160 153 145
f 161 154 153
f 161 162 154
f 162 155 154
f 162 163 155
f 163 156 155
f 163 164 156
f 164 157 156
f 164 165 157
f 165 158 157
f 165 166 158
f 166 159 158
f 166 167 159
f 167 160 159
f 167 168 160
f 168 153 160
f 168 161 153
f 169 171 172
f 170 204 203
f 169 172 173
f 170 205 204
f 169 173 174
f 170 206 205
f 169 174 175
f 170 207 206
f 169 175 176
f 170 208 207
f 169 176 177
f 170 209 208
f 169 177 178
f 170 210 209
f 169 178 171
f 170 203 210
f 179 172 171
f 179 180 172
f 180 173 172
f 180 181 173
f 181 174 173
f 181 182 174
f 182 175 174
f 182 183 175
f 183 176 175
f 183 184 176
f 184 177 176
f 184 185 177
f 185 178 177
f 185 186 178
f 186 171 178
f 186 179 171
f 187 180 179
f 187 188 180
f 188 181 180
f 188 189 181
f 189 182 181
f 189 190 182
f 190 183 182
f 190 191 183
f 191 184 183
f 191 192 184
f 192 185 184
f 192 193 185
f 193 186 185
f 193 194 186
f 194 179 186
f 194 187 179
f 195 188 187
f 195 196 188
f 196 189 188
f 196 197 189
f 197 190 189
f 197 198 190
f 198 191 190
f 198 199 191
f 199 192 191
f 199 200 192
f 200 193 192
f 200 201 193
f 201 194 193
f 201 202 194
f 202 187 194
f 202 195 187
f 203 196 195
f 203 204 196
f 204 197 196
f 204 205 197
f 205 198 197
f 205 206 198
f 206 199 198
f 206 207 199
f 207 200 199
f 207 208 200
f 208 201 200
f 208 209 201
f 209 202 201
f 209 210 202
f 210 195 202
f 210 203 195
f 211 213 214
f 212 246 245
f 211 214 215
f 212 247 246
f 211 215 216
f 212 248 247
f 211 216 217
f 212 249 248
f 211 217 218
f 212 250 249
f 211 218 219
f 212 251 250
f 211 219 220
f 212 252 251
f 211 220 213
f 212 245 252
f 221 214 213
f 221 222 214
f 222 215 214
f 222 223 215
f 223 216 215
f 223 224 216
f 224 217 216
f 224 225 217
f 225 218 217
f 225 226 218
f 226 219 218
f 226 227 219
f 227 220 219
f 227 228 220
f 228 213 220
f 228 221 213
f 229 222 221
f 229 230 222
f 230 223 222
f 230 231 223
f 231 224 223
f 231 232 224
f 232 225 224
f 232 233 225
f 233 226 225
f 233 234 226
f 234 227 226
f 234 235 227
f 235 228 227
f 235 236 228
f 236 221 228
f 236 229 221
f 237 230 229
f 237 238 230
f 238 231 230
f 238 239 231
f 239 232 231
f 239 240 232
f 240 233 232
f 240 241 233
f 241 234 233
f 241 242 234
f 242 235 234
f 242 243 235
f 243 236 235
f 243 244 236
f 244 229 236
f 244 237 229
f 245 238 237
f 245 246 238
f 246 239 238
f 246 247 239
f 247 240 239
f 247 248 240
f 248 241 240
f 248 249 241
f 249 242 241
f 249 250 242
f 250 243 242
f 250 251 243
f 251 244 243
f 251 252 244
f 252 237 244
f 252 245 237
f 253 255 256
f 254 288 287
f 253 256 257
f 254 289 288
f 253 257 258
f 254 290 289
f 253 258 259
f 254 291 290
f 253 259 260
f 254 292 291
f 253 260 261
f 254 293 292
f 253 261 262
f 254 294 293
f 253 262 255
f 254 287 294
f 263 256 255
f 263 264 256
f 264 257 256
f 264 265 257
f 265 258 257
f 265 266 258
f 266 259 258
f 266 267 259
f 267 260 259
f 267 268 260
f 268 261 260
f 268 269 261
f 269 262 261
f 269 270 262
f 270 255 262
f 270 263 255
f 271 264 263
f 271 272 264
f 272 265 264
f 272 273 265
f 273 266 265
f 273 274 266
f 274 267 266
f 274 275 267
f 275 268 267
f 275 276 268
f 276 269 268
f 276 277 269
f 277 270 269
f 277 278 270
f 278 263 270
f 278 271 263
f 279 272 271
f 279 280 272
f 280 273 272
f 280 281 273
f 281 274 273
f 281 282 274
f 282 275 274
f 282 283 275
f 283 276 275
f 283 284 276
f 284 277 276
f 284 285 277
f 285 278 277
f 285 286 278
f 286 271 278
f 286 279 271
f 287 280 279
f 287 288 280
f 288 281 280
f 288 289 281
f 289 282 281
f 289 290 282
f 290 283 282
f 290 291 283
f 291 284 283
f 291 292 284
f 292 285 284
f 292 293 285
f 293 286 285
f 293 294 286
f 294 279 286
f 294 287 279
f 295 297 298
f 296 330 329
f 295 298 299
f 296 331 330
f 295 299 300
f 296 332 331
f 295 300 301
f 296 333 332
f 295 301 302
f 296 334 333
f 295 302 303
f 296 335 334
f 295 303 304
f 296 336 335
f 295 304 297
f 296 329 336
f 305 298 297
f 305 306 298
f 306 299 298
f 306 307 299
f 307 300 299
f 307 308 300
f 308 301 300
f 308 309 301
f 309 302 301
f 309 310 302
f 310 303 302
f 310 311 303
f 311 304 303
f 311 312 304
f 312 297 304
f 312 305 297
f 313 306 305
f 313 314 306
f 314 307 306
f 314 315 307
f 315 308 307
f 315 316 308
f 316 309 308
f 316 317 309
f 317 310 309
f 317 318 310
f 318 311 310
f 318 319 311
f 319 312 311
f 319 320 312
f 320 305 312
f 320 313 305
f 321 314 313
f 321 322 314
f 322 315 314
f 322 323 315
f 323 316 315
f 323 324 316
f 324 317 316
f 324 325 317
f 325 318 317
f 325 326 318
f 326 319 318
f 326 327 319
f 327 320 319
f 327 328 320
f 328 313 320
f 328 321 313
f 329 322 321
f 329 330 322
f 330 323 322
f 330 331 323
f 331 324 323
f 331 332 324
f 332 325 324
f 332 333 325
f 333 326 325
f 333 334 326
f 334 327 326
f 334 335 327
f 335 328 327
f 335 336 328
f 336 321 328
f 336 329 321
f 337 339 340
f 338 372 371
f 337 340 341
f 338 373 372
f 337 341 342
f 338 374 373
f 337 342 343
f 338 375 374
f 337 343 344
f 338 376 375
f 337 344 345
f 338 377 376
f 337 345 346
f 338 378 377
f 337 346 339
f 338 371 378
f 347 340 339
f 347 348 340
f 348 341 340
f 348 349 341
f 349 342 341
f 349 350 342
f 350 343 342
f 350 351 343
f 351 344 343
f 351 352 344
f 352 345 344
f 352 353 345
f 353 346 345
f 353 354 346
f 354 339 346
f 354 347 339
f 355 348 347
f 355 356 348
f 356 349 348
f 356 357 349
f 357 350 349
f 357 358 350
f 358 351 350
f 358 359 351
f 359 352 351
f 359 360 352
f 360 353 352
f 360 361 353
f 361 354 353
f 361 362 354
f 362 347 354
f 362 355 347
f 363 356 355
f 363 364 356
f 364 357 356
f 364 365 357
f 365 358 357
f 365 366 358
f 366 359 358
f 366 367 359
f 367 360 359
f 367 368 360
f 368 361 360
f 368 369 361
f 369 362 361
f 369 370 362
f 370 355 362
f 370 363 355
f 371 364 363
f 371 372 364
f 372 365 364
f 372 373 365
f 373 366 365
f 373 374 366
f 374 367 366
f 374 375 367
f 375 368 367
f 375 376 368
f 376 369 368
f 376 377 369
f 377 370 369
f 377 378 370
f 378 363 370
f 378 371 363
f 379 381 382
f 380 414 413
f 379 382 383
f 380 415 414
f 379 383 384
f 380 416 415
f 379 384 385
f 380 417 416
f 379 385 386
f 380 418 417
f 379 386 387
f 380 419 418
f 379 387 388
f 380 420 419
f 379 388 381
f 380 413 420
f 389 382 381
f 389 390 382
f 390 383 382
f 390 391 383
f 391 384 383
f 391 392 384
f 392 385 384
f 392 393 385
f 393 386 385
f 393 394 386
f 394 387 386
f 394 395 387
f 395 388 387
f 395 396 388
f 396 381 388
f 396 389 381
f 397 390 389
f 397 398 390
f 398 391 390
f 398 399 391
f 399 392 391
f 399 400 392
f 400 393 392
f 400 401 393
f 401 394 393
f 401 402 394
f 402 395 394
f 402 403 395
f 403 396 395
f 403 404 396
f 404 389 396
f 404 397 389
f 405 398 397
f 405 406 398
f 406 399 398
f 406 407 399
f 407 400 399
f 407 408 400
f 408 401 400
f 408 409 401
f 409 402 401
f 409 410 402
f 410 403 402
f 410 411 403
f 411 404 403
f 411 412 404
f 412 397 404
f 412 405 397
f 413 406 405
f 413 414 406
f 414 407 406
f 414 415 407
f 415 408 407
f 415 416 408
f 416 409 408
f 416 417 409
f 417 410 409
f 417 418 410
f 418 411 410
f 418 419 411
f 419 412 411
f 419 420 412
f 420 405 412
f 420 413 405
f 421 423 424
f 422 456 455
f 421 424 425
f 422 457 456
f 421 425 426
f 422 458 457
f 421 426 427
f 422 459 458
f 421 427 428
f 422 460 459
f 421 428 429
f 422 461 460
f 421 429 430
f 422 462 461
f 421 430 423
f 422 455 462
f 431 424 423
f 431 432 424
f 432 425 424
f 432 433 425
f 433 426 425
f 433 434 426
f 434 427 426
f 434 435 427
f 435 428 427
f 435 436 428
f 436 429 428
f 436 437 429
f 437 430 429
f 437 438 430
f 438 423 430
f 438 431 423
f 439 432 431
f 439 440 432
f 440 433 432
f 440 441 433
f 441 434 433
f 441 442 434
f 442 435 434
f 442 443 435
f 443 436 435
f 443 444 436
f 444 437 436
f 444 445 437
f 445 438 437
f 445 446 438
f 446 431 438
f 446 439 431
f 447 440 439
f 447 448 440
f 448 441 440
f 448 449 441
f 449 442 441
f 449 450 442
f 450 443 442
f 450 451 443
f 451 444 443
f 451 452 444
f 452 445 444
f 452 453 445
f 453 446 445
f 453 454 446
f 454 439 446
f 454 447 439
f 455 448 447
f 455 456 448
f 456 449 448
f 456 457 449
f 457 450 449
f 457 458 450
f 458 451 450
f 458 459 451
f 459 452 451
f 459 460 452
f 460 453 452
f 460 461 453
f 461 454 453
f 461 462 454
f 462 447 454
f 462 455 447
f 463 465 466
f 464 498 497
f 463 466 467
f 464 499 498
f 463 467 468
f 464 500 499
f 463 468 469
f 464 501 500
f 463 469 470
f 464 502 501
f 463 470 471
f 464 503 502
f 463 471 472
f 464 504 503
f 463 472 465
f 464 497 504
f 473 466 465
f 473 474 466
f 474 467 466
f 474 475 467
f 475 468 467
f 475 476 468
f 476 469 468
f 476 477 469
f 477 470 469
f 477 478 470
f 478 471 470
f 478 479 471
f 479 472 471
f 479 480 472
f 480 465 472
f 480 473 465
f 481 474 473
f 481 482 474
f 482 475 474
f 482 483 475
f 483 476 475
f 483 484 476
f 484 477 476
f 484 485 477
f 485 478 477
f 485 486 478
f 486 479 478
f 486 487 479
f 487 480 479
f 487 488 480
f 488 473 480
f 488 481 473
f 489 482 481
f 489 490 482
f 490 483 482
f 490 491 483
f 491 484 483
f 491 492 484
f 492 485 484
f 492 493 485
f 493 486 485
f 493 494 486
f 494 487 486
f 494 495 487
f 495 488 487
f 495 496 488
f 496 481 488
f 496 489 481
f 497 490 489
f 497 498 490
f 498 491 490
f 498 499 491
f 499 492 491
f 499 500 492
f 500 493 492
f 500 501 493
f 501 494 493
f 501 502 494
f 502 495 494
f 502 503 495
f 503 496 495
f 503 504 496
f 504 489 496
f 504 497 489
f 505 507 508
f 506 540 539
f 505 508 509
f 506 541 540
f 505 509 510
f 506 542 541
f 505 510 511
f 506 543 542
f 505 511 512
f 506 544 543
f 505 512 513
f 506 545 544
f 505 513 514
f 506 546 545
f 505 514 507
f 506 539 546
f 515 508 507
f 515 516 508
f 516 509 508
f 516 517 509
f 517 510 509
f 517 518 510
f 518 511 510
f 518 519 511
f 519 512 511
f 519 520 512
f 520 513 512
f 520 521 513
f 521 514 513
f 521 522 514
f 522 507 514
f 522 515 507
f 523 516 515
f 523 524 516
f 524 517 516
f 524 525 517
f 525 518 517
f 525 526 518
f 526 519 518
f 526 527 519
f 527 520 519
f 527 528 520
f 528 521 520
f 528 529 521
f 529 522 521
f 529 530 522
f 530 515 522
f 530 523 515
f 531 524 523
f 531 532 524
f 532 525 524
f 532 533 525
f 533 526 525
f 533 534 526
f 534 527 526
f 534 535 527
f 535 528 527
f 535 536 528
f 536 529 528
f 536 537 529
f 537 530 529
f 537 538 530
f 538 523 530
f 538 531 523
f 539 532 531
f 539 540 532
f 540 533 532
f 540 541 533
f 541 534 533
f 541 542 534
f 542 535 534
f 542 543 535
f 543 536 535
f 543 544 536
f 544 537 536
f 544 545 537
f 545 538 537
f 545 546 538
f 546 531 538
f 546 539 531
f 547 549 550
f 548 582 581
f 547 550 551
f 548 583 582
f 547 551 552
f 548 584 583
f 547 552 553
f 548 585 584
f 547 553 554
f 548 586 585
f 547 554 555
f 548 587 586
f 547 555 556
f 548 588 587
f 547 556 549
f 548 581 588
f 557 550 549
f 557 558 550
f 558 551 550
f 558 559 551
f 559 552 551
f 559 560 552
f 560 553 552
f 560 561 553
f 561 554 553
f 561 562 554
f 562 555 554
f 562 563 555
f 563 556 555
f 563 564 556
f 564 549 556
f 564 557 549
f 565 558 557
f 565 566 558
f 566 559 558
f 566 567 559
f 567 560 559
f 567 568 560
f 568 561 560
f 568 569 561
f 569 562 561
f 569 570 562
f 570 563 562
f 570 571 563
f 571 564 563
f 571 572 564
f 572 557 564
f 572 565 557
f 573 566 565
f 573 574 566
f 574 567 566
f 574 575 567
f 575 568 567
f 575 576 568
f 576 569 568
f 576 577 569
f 577 570 569
f 577 578 570
f 578 571 570
f 578 579 571
f 579 572 571
f 579 580 572
f 580 565 572
f 580 573 565
f 581 574 573
f 581 582 574
f 582 575 574
f 582 583 575
f 583 576 575
f 583 584 576
f 584 577 576
f 584 585 577
f 585 578 577
f 585 586 578
f 586 579 578
f 586 587 579
f 587 580 579
f 587 588 580
f 588 573 580
f 588 581 573
f 589 591 592
f 590 624 623
f 589 592 593
f 590 625 624
f 589 593 594
f 590 626 625
f 589 594 595
f 590 627 626
f 589 595 596
f 590 628 627
f 589 596 597
f 590 629 628
f 589 597 598
f 590 630 629
f 589 598 591
f 590 623 630
f 599 592 591
f 599 600 592
f 600 593 592
f 600 601 593
f 601 594 593
f 601 602 594
f 602 595 594
f 602 603 595
f 603 596 595
f 603 604 596
f 604 597 596
f 604 605 597
f 605 598 597
f 605 606 598
f 606 591 598
f 606 599 591
f 607 600 599
f 607 608 600
f 608 601 600
f 608 609 601
f 609 602 601
f 609 610 602
f 610 603 602
f 610 611 603
f 611 604 603
f 611 612 604
f 612 605 604
f 612 613 605
f 613 606 605
f 613 614 606
f 614 599 606
f 614 607 599
f 615 608 607
f 615 616 608
f 616 609 608
f 616 617 609
f 617 610 609
f 617 618 610
f 618 611 610
f 618 619 611
f 619 612 611
f 619 620 612
f 620 613 612
f 620 621 613
f 621 614 613
f 621 622 614
f 622 607 614
f 622 615 607
f 623 616 615
f 623 624 616
f 624 617 616
f 624 625 617
f 625 618 617
f 625 626 618
f 626 619 618
f 626 627 619
f 627 620 619
f 627 628 620
f 628 621 620
f 628 629 621
f 629 622 621
f 629 630 622
f 630 615 622
f 630 623 615
f 631 633 634
f 632 666 665
f 631 634 635
f 632 667 666
f 631 635 636
f 632 668 667
f 631 636 637
f 632 669 668
f 631 637 638
f 632 670 669
f 631 638 639
f 632 671 670
f 631 639 640
f 632 672 671
f 631 640 633
f 632 665 672
f 641 634 633
f 641 642 634
f 642 635 634
f 642 643 635
f 643 636 635
f 643 644 636
f 644 637 636
f 644 645 637
f 645 638 637
f 645 646 638
f 646 639 638
f 646 647 639
f 647 640 639
f 647 648 640
f 648 633 640
f 648 641 633
f 649 642 641
f 649 650 642
f 650 643 642
f 650 651 643
f 651 644 643
f 651 652 644
f 652 645 644
f 652 653 645
f 653 646 645
f 653 654 646
f 654 647 646
f 654 655 647
f 655 648 647
f 655 656 648
f 656 641 648
f 656 649 641
f 657 650 649
f 657 658 650
f 658 651 650
f 658 659 651
f 659 652 651
f 659 660 652
f 660 653 652
f 660 661 653
f 661 654 653
f 661 662 654
f 662 655 654
f 662 663 655
f 663 656 655
f 663 664 656
f 664 649 656
f 664 657 649
f 665 658 657
f 665 666 658
f 666 659 658
f 666 667 659
f 667 660 659
f 667 668 660
f 668 661 660
f 668 669 661
f 669 662 661
f 669 670 662
f 670 663 662
f 670 671 663
f 671 664 663
f 671 672 664
f 672 657 664
f 672 665 657
f 673 675 676
f 674 708 707
f 673 676 677
f 674 709 708
f 673 677 678
f 674 710 709
f 673 678 679
f 674 711 710
f 673 679 680
f 674 712 711
f 673 680 681
f 674 713 712
f 673 681 682
f 674 714 713
f 673 682 675
f 674 707 714
f 683 676 675
f 683 684 676
f 684 677 676
f 684 685 677
f 685 678 677
f 685 686 678
f 686 679 678
f 686 687 679
f 687 680 679
f 687 688 680
f 688 681 680
f 688 689 681
f 689 682 681
f 689 690 682
f 690 675 682
f 690 683 675
f 691 684 683
f 691 692 684
f 692 685 684
f 692 693 685
f 693 686 685
f 693 694 686
f 694 687 686
f 694 695 687
f 695 688 687
f 695 696 688
f 696 689 688
f 696 697 689
f 697 690 689
f 697 698 690
f 698 683 690
f 698 691 683
f 699 692 691
f 699 700 692
f 700 693 692
f 700 701 693
f 701 694 693
f 701 702 694
f 702 695 694
f 702 703 695
f 703 696 695
f 703 704 696
f 704 697 696
f 704 705 697
f 705 698 697
f 705 706 698
f 706 691 698
f 706 699 691
f 707 700 699
f 707 708 700
f 708 701 700
f 708 709 701
f 709 702 701
f 709 710 702
f 710 703 702
f 710 711 703
f 711 704 703
f 711 712 704
f 712 705 704
f 712 713 705
f 713 706 705
f 713 714 706
f 714 699 706
f 714 707 699
f 715 717 718
f 716 750 749
f 715 718 719
f 716 751 750
f 715 719 720
f 716 752 751
f 715 720 721
f 716 753 752
f 715 721 722
f 716 754 753
f 715 722 723
f 716 755 754
f 715 723 724
f 716 756 755
f 715 724 717
f 716 749 756
f 725 718 717
f 725 726 718
f 726 719 718
f 726 727 719
f 727 720 719
f 727 728 720
f 728 721 720
f 728 729 721
f 729 722 721
f 729 730 722
f 730 723 722
f 730 731 723
f 731 724 723
f 731 732 724
f 732 717 724
f 732 725 717
f 733 726 725
f 733 734 726
f 734 727 726
f 734 735 727
f 735 728 727
f 735 736 728
f 736 729 728
f 736 737 729
f 737 730 729
f 737 738 730
f 738 731 730
f 738 739 731
f 739 732 731
f 739 740 732
f 740 725 732
f 740 733 725
f 741 734 733
f 741 742 734
f 742 735 734
f 742 743 735
f 743 736 735
f 743 744 736
f 744 737 736
f 744 745 737
f 745 738 737
f 745 746 738
f 746 739 738
f 746 747 739
f 747 740 739
f 747 748 740
f 748 733 740
f 748 741 733
f 749 742 741
f 749 750 742
f 750 743 742
f 750 751 743
f 751 744 743
f 751 752 744
f 752 745 744
f 752 753 745
f 753 746 745
f 753 754 746
f 754 747 746
f 754 755 747
f 755 748 747
f 755 756 748
f 756 741 748
f 756 749 741
f 757 759 760
f 758 792 791
f 757 760 761
f 758 793 792
f 757 761 762
f 758 794 793
f 757 762 763
f 758 795 794
f 757 763 764
f 758 796 795
f 757 764 765
f 758 797 796
f 757 765 766
f 758 798 797
f 757 766 759
f 758 791 798
f 767 760 759
f 767 768 760
f 768 761 760
f 768 769 761
f 769 762 761
f 769 770 762
f 770 763 762
f 770 771 763
f 771 764 763
f 771 772 764
f 772 765 764
f 772 773 765
f 773 766 765
f 773 774 766
f 774 759 766
f 774 767 759
f 775 768 767
f 775 776 768
f 776 769 768
f 776 777 769
f 777 770 769
f 777 778 770
f 778 771 770
f 778 779 771
f 779 772 771
f 779 780 772
f 780 773 772
f 780 781 773
f 781 774 773
f 781 782 774
f 782 767 774
f 782 775 767
f 783 776 775
f 783 784 776
f 784 777 776
f 784 785 777
f 785 778 777
f 785 786 778
f 786 779 778
f 786 787 779
f 787 780 779
f 787 788 780
f 788 781 780
f 788 789 781
f 789 782 781
f 789 790 782
f 790 775 782
f 790 783 775
f 791 784 783
f 791 792 784
f 792 785 784
f 792 793 785
f 793 786 785
f 793 794 786
f 794 787 786
f 794 795 787
f 795 788 787
f 795 796 788
f 796 789 788
f 796 797 789
f 797 790 789
f 797 798 790
f 798 783 790
f 798 791 783
f 799 801 802
f 800 834 833
f 799 802 803
f 800 835 834
f 799 803 804
f 800 836 835
f 799 804 805
f 800 837 836
f 799 805 806
f 800 838 837
f 799 806 807
f 800 839 838
f 799 807 808
f 800 840 839
f 799 808 801
f 800 833 840
f 809 802 801
f 809 810 802
f 810 803 802
f 810 811 803
f 811 804 803
f 811 812 804
f 812 805 804
f 812 813 805
f 813 806 805
f 813 814 806
f 814 807 806
f 814 815 807
f 815 808 807
f 815 816 808
f 816 801 808
f 816 809 801
f 817 810 809
f 817 818 810
f 818 811 810
f 818 819 811
f 819 812 811
f 819 820 812
f 820 813 812
f 820 821 813
f 821 814 813
f 821 822 814
f 822 815 814
f 822 823 815
f 823 816 815
f 823 824 816
f 824 809 816
f 824 817 809
f 825 818 817
f 825 826 818
f 826 819 818
f 826 827 819
f 827 820 819
f 827 828 820
f 828 821 820
f 828 829 821
f 829 822 821
f 829 830 822
f 830 823 822
f 830 831 823
f 831 824 823
f 831 832 824
f 832 817 824
f 832 825 817
f 833 826 825
f 833 834 826
f 834 827 826
f 834 835 827
f 835 828 827
f 835 836 828
f 836 829 828
f 836 837 829
f 837 830 829
f 837 838 830
f 838 831 830
f 838 839 831
f 839 832 831
f 839 840 832
f 840 825 832
f 840 833 825
f 841 843 844
f 842 876 875
f 841 844 845
f 842 877 876
f 841 845 846
f 842 878 877
f 841 846 847
f 842 879 878
f 841 847 848
f 842 880 879
f 841 848 849
f 842 881 880
f 841 849 850
f 842 882 881
f 841 850 843
f 842 875 882
f 851 844 843
f 851 852 844
f 852 845 844
f 852 853 845
f 853 846 845
f 853 854 846
f 854 847 846
f 854 855 847
f 855 848 847
f 855 856 848
f 856 849 848
f 856 857 849
f 857 850 849
f 857 858 850
f 858 843 850
f 858 851 843
f 859 852 851
f 859 860 852
f 860 853 852
f 860 861 853
f 861 854 853
f 861 862 854
f 862 855 854
f 862 863 855
f 863 856 855
f 863 864 856
f 864 857 856
f 864 865 857
f 865 858 857
f 865 866 858
f 866 851 858
f 866 859 851
f 867 860 859
f 867 868 860
f 868 861 860
f 868 869 861
f 869 862 861
f 869 870 862
f 870 863 862
f 870 871 863
f 871 864 863
f 871 872 864
f 872 865 864
f 872 873 865
f 873 866 865
f 873 874 866
f 874 859 866
f 874 867 859
f 875 868 867
f 875 876 868
f 876 869 868
f 876 877 869
f 877 870 869
f 877 878 870
f 878 871 870
f 878 879 871
f 879 872 871
f 879 880 872
f 880 873 872
f 880 881 873
f 881 874 873
f 881 882 874
f 882 867 874
f 882 875 867
f 883 885 886
f 884 918 917
f 883 886 887
f 884 919 918
f 883 887 888
f 884 920 919
f 883 888 889
f 884 921 920
f 883 889 890
f 884 922 921
f 883 890 891
f 884 923 922
f 883 891 892
f 884 924 923
f 883 892 885
f 884 917 924
f 893 886 885
f 893 894 886
f 894 887 886
f 894 895 887
f 895 888 887
f 895 896 888
f 896 889 888
f 896 897 889
f 897 890 889
f 897 898 890
f 898 891 890
f 898 899 891
f 899 892 891
f 899 900 892
f 900 885 892
f 900 893 885
f 901 894 893
f 901 902 894
f 902 895 894
f 902 903 895
f 903 896 895
f 903 904 896
f 904 897 896
f 904 905 897
f 905 898 897
f 905 906 898
f 906 899 898
f 906 907 899
f 907 900 899
f 907 908 900
f 908 893 900
f 908 901 893
f 909 902 901
f 909 910 902
f 910 903 902
f 910 911 903
f 911 904 903
f 911 912 904
f 912 905 904
f 912 913 905
f 913 906 905
f 913 914 906
f 914 907 906
f 914 915 907
f 915 908 907
f 915 916 908
f 916 901 908
f 916 909 901
f 917 910 909
f 917 918 910
f 918 911 910
f 918 919 911
f 919 912 911
f 919 920 912
f 920 913 912
f 920 921 913
f 921 914 913
f 921 922 914
f 922 915 914
f 922 923 915
f 923 916 915
f 923 924 916
f 924 909 916
f 924 917 909
f 925 927 928
f 926 960 959
f 925 928 929
f 926 961 960
f 925 929 930
f 926 962 961
f 925 930 931
f 926 963 962
f 925 931 932
f 926 964 963
f 925 932 933
f 926 965 964
f 925 933 934
f 926 966 965
f 925 934 927
f 926 959 966
f 935 928 927
f 935 936 928
f 936 929 928
f 936 937 929
f 937 930 929
f 937 938 930
f 938 931 930
f 938 939 931
f 939 932 931
f 939 940 932
f 940 933 932
f 940 941 933
f 941 934 933
f 941 942 934
f 942 927 934
f 942 935 927
f 943 936 935
f 943 944 936
f 944 937 936
f 944 945 937
f 945 938 937
f 945 946 938
f 946 939 938
f 946 947 939
f 947 940 939
f 947 948 940
f 948 941 940
f 948 949 941
f 949 942 941
f 949 950 942
f 950 935 942
f 950 943 935
f 951 944 943
f 951 952 944
f 952 945 944
f 952 953 945
f 953 946 945
f 953 954 946
f 954 947 946
f 954 955 947
f 955 948 947
f 955 956 948
f 956 949 948
f 956 957 949
f 957 950 949
f 957 958 950
f 958 943 950
f 958 951 943
f 959 952 951
f 959 960 952
f 960 953 952
f 960 961 953
f 961 954 953
f 961 962 954
f 962 955 954
f 962 963 955
f 963 956 955
f 963 964 956
f 964 957 956
f 964 965 957
f 965 958 957
f 965 966 958
f 966 951 958
f 966 959 951
f 967 969 970
f 968 1002 1001
f 967 970 971
f 968 1003 1002
f 967 971 972
f 968 1004 1003
f 967 972 973
f 968 1005 1004
f 967 973 974
f 968 1006 1005
f 967 974 975
f 968 1007 1006
f 967 975 976
f 968 1008 1007
f 967 976 969
f 968 1001 1008
f 977 970 969
f 977 978 970
f 978 971 970
f 978 979 971
f 979 972 971
f 979 980 972
f 980 973 972
f 980 981 973
f 981 974 973
f 981 982 974
f 982 975 974
f 982 983 975
f 983 976 975
f 983 984 976
f 984 969 976
f 984 977 969
f 985 978 977
f 985 986 978
f 986 979 978
f 986 987 979
f 987 980 979
f 987 988 980
f 988 981 980
f 988 989 981
f 989 982 981
f 989 990 982
f 990 983 982
f 990 991 983
f 991 984 983
f 991 992 984
f 992 977 984
f 992 985 977
f 993 986 985
f 993 994 986
f 994 987 986
f 994 995 987
f 995 988 987
f 995 996 988
f 996 989 988
f 996 997 989
f 997 990 989
f 997 998 990
f 998 991 990
f 998 999 991
f 999 992 991
f 999 1000 992
f 1000 985 992
f 1000 993 985
f 1001 994 993
f 1001 1002 994
f 1002 995 994
f 1002 1003 995
f 1003 996 995
f 1003 1004 996
f 1004 997 996
f 1004 1005 997
f 1005 998 997
f 1005 1006 998
f 1006 999 998
f 1006 1007 999
f 1007 1000 999
f 1007 1008 1000
f 1008 993 1000
f 1008 1001 993
