# Created by Open3D 
# object name: face_00003
# number of vertices: 561
# number of triangles: 559
v 0.992242 0.498329 0.438007 0.96 0.672 0.924112
v 0.992141 0.488318 0.43807 0.96 0.672 0.924112
v 0.991835 0.47831 0.43813 0.96 0.672 0.924112
v 0.991327 0.468312 0.438186 0.96 0.672 0.924112
v 0.990615 0.458325 0.438238 0.96 0.672 0.924112
v 0.9897 0.448355 0.438286 0.96 0.672 0.924112
v 0.988583 0.438406 0.43833 0.96 0.672 0.924112
v 0.987264 0.428482 0.43837 0.96 0.672 0.924112
v 0.985743 0.418586 0.438407 0.96 0.672 0.924112
v 0.984022 0.408723 0.438439 0.96 0.672 0.924112
v 0.9821 0.398897 0.438467 0.96 0.672 0.924112
v 0.979979 0.389113 0.438492 0.96 0.672 0.924112
v 0.977659 0.379373 0.438512 0.96 0.672 0.924112
v 0.975142 0.369683 0.438529 0.96 0.672 0.924112
v 0.972429 0.360046 0.438541 0.96 0.672 0.924112
v 0.96952 0.350466 0.438549 0.96 0.672 0.924112
v 0.966417 0.340947 0.438554 0.96 0.672 0.924112
v 0.963121 0.331493 0.438554 0.96 0.672 0.924112
v 0.959634 0.322108 0.43855 0.96 0.672 0.924112
v 0.955956 0.312796 0.438543 0.96 0.672 0.924112
v 0.95209 0.303561 0.438531 0.96 0.672 0.924112
v 0.948038 0.294406 0.438515 0.96 0.672 0.924112
v 0.943799 0.285335 0.438495 0.96 0.672 0.924112
v 0.939378 0.276353 0.438472 0.96 0.672 0.924112
v 0.934774 0.267462 0.438444 0.96 0.672 0.924112
v 0.929991 0.258666 0.438412 0.96 0.672 0.924112
v 0.92503 0.24997 0.438376 0.96 0.672 0.924112
v 0.919894 0.241376 0.438337 0.96 0.672 0.924112
v 0.914583 0.232889 0.438293 0.96 0.672 0.924112
v 0.909101 0.224511 0.438246 0.96 0.672 0.924112
v 0.903451 0.216247 0.438194 0.96 0.672 0.924112
v 0.897633 0.208099 0.438139 0.96 0.672 0.924112
v 0.891651 0.200071 0.43808 0.96 0.672 0.924112
v 0.885506 0.192166 0.438017 0.96 0.672 0.924112
v 0.879203 0.184388 0.43795 0.96 0.672 0.924112
v 0.872743 0.17674 0.43788 0.96 0.672 0.924112
v 0.866128 0.169224 0.437805 0.96 0.672 0.924112
v 0.859362 0.161845 0.437727 0.96 0.672 0.924112
v 0.852448 0.154605 0.437646 0.96 0.672 0.924112
v 0.845387 0.147506 0.437561 0.96 0.672 0.924112
v 0.838184 0.140553 0.437472 0.96 0.672 0.924112
v 0.830841 0.133748 0.437379 0.96 0.672 0.924112
v 0.823362 0.127094 0.437283 0.96 0.672 0.924112
v 0.815748 0.120592 0.437184 0.96 0.672 0.924112
v 0.808004 0.114248 0.437081 0.96 0.672 0.924112
v 0.800133 0.108061 0.436974 0.96 0.672 0.924112
v 0.792137 0.102037 0.436864 0.96 0.672 0.924112
v 0.784021 0.0961756 0.436751 0.96 0.672 0.924112
v 0.775787 0.0904809 0.436635 0.96 0.672 0.924112
v 0.76744 0.0849548 0.436515 0.96 0.672 0.924112
v 0.758981 0.0795995 0.436393 0.96 0.672 0.924112
v 0.750416 0.0744174 0.436267 0.96 0.672 0.924112
v 0.741747 0.0694105 0.436138 0.96 0.672 0.924112
v 0.732978 0.0645809 0.436006 0.96 0.672 0.924112
v 0.724112 0.0599306 0.435871 0.96 0.672 0.924112
v 0.715154 0.0554616 0.435733 0.96 0.672 0.924112
v 0.706107 0.0511756 0.435592 0.96 0.672 0.924112
v 0.696975 0.0470745 0.435449 0.96 0.672 0.924112
v 0.687761 0.0431599 0.435302 0.96 0.672 0.924112
v 0.67847 0.0394335 0.435153 0.96 0.672 0.924112
v 0.669104 0.0358968 0.435002 0.96 0.672 0.924112
v 0.659669 0.0325513 0.434848 0.96 0.672 0.924112
v 0.650168 0.0293983 0.434691 0.96 0.672 0.924112
v 0.640605 0.0264392 0.434532 0.96 0.672 0.924112
v 0.630983 0.0236752 0.434371 0.96 0.672 0.924112
v 0.621308 0.0211074 0.434207 0.96 0.672 0.924112
v 0.611582 0.0187369 0.434041 0.96 0.672 0.924112
v 0.60181 0.0165646 0.433873 0.96 0.672 0.924112
v 0.591996 0.0145915 0.433703 0.96 0.672 0.924112
v 0.582144 0.0128184 0.433531 0.96 0.672 0.924112
v 0.572258 0.011246 0.433356 0.96 0.672 0.924112
v 0.562342 0.00987495 0.43318 0.96 0.672 0.924112
v 0.5524 0.00870584 0.433003 0.96 0.672 0.924112
v 0.542436 0.00773914 0.432823 0.96 0.672 0.924112
v 0.532455 0.00697524 0.432642 0.96 0.672 0.924112
v 0.522461 0.00641448 0.432459 0.96 0.672 0.924112
v 0.512457 0.00605708 0.432275 0.96 0.672 0.924112
v 0.502448 0.00590318 0.432089 0.96 0.672 0.924112
v 0.492438 0.00595285 0.431902 0.96 0.672 0.924112
v 0.482431 0.00620608 0.431714 0.96 0.672 0.924112
v 0.472431 0.00666275 0.431524 0.96 0.672 0.924112
v 0.462443 0.00732267 0.431334 0.96 0.672 0.924112
v 0.45247 0.00818558 0.431142 0.96 0.672 0.924112
v 0.442517 0.00925112 0.430949 0.96 0.672 0.924112
v 0.432587 0.0105188 0.430756 0.96 0.672 0.924112
v 0.422686 0.0119882 0.430561 0.96 0.672 0.924112
v 0.412816 0.0136587 0.430366 0.96 0.672 0.924112
v 0.402983 0.0155295 0.430171 0.96 0.672 0.924112
v 0.393189 0.0175999 0.429975 0.96 0.672 0.924112
v 0.38344 0.019869 0.429778 0.96 0.672 0.924112
v 0.373739 0.0223359 0.429581 0.96 0.672 0.924112
v 0.364089 0.0249996 0.429383 0.96 0.672 0.924112
v 0.354497 0.027859 0.429186 0.96 0.672 0.924112
v 0.344964 0.0309129 0.428988 0.96 0.672 0.924112
v 0.335495 0.03416 0.42879 0.96 0.672 0.924112
v 0.326095 0.037599 0.428592 0.96 0.672 0.924112
v 0.316766 0.0412284 0.428395 0.96 0.672 0.924112
v 0.307513 0.0450469 0.428197 0.96 0.672 0.924112
v 0.298339 0.0490527 0.428 0.96 0.672 0.924112
v 0.289249 0.0532442 0.427803 0.96 0.672 0.924112
v 0.280246 0.0576197 0.427606 0.96 0.672 0.924112
v 0.271334 0.0621775 0.42741 0.96 0.672 0.924112
v 0.262516 0.0669155 0.427215 0.96 0.672 0.924112
v 0.253797 0.0718319 0.42702 0.96 0.672 0.924112
v 0.245179 0.0769246 0.426826 0.96 0.672 0.924112
v 0.236667 0.0821914 0.426633 0.96 0.672 0.924112
v 0.228263 0.0876304 0.42644 0.96 0.672 0.924112
v 0.219972 0.0932391 0.426249 0.96 0.672 0.924112
v 0.211796 0.0990152 0.426059 0.96 0.672 0.924112
v 0.20374 0.104956 0.42587 0.96 0.672 0.924112
v 0.195806 0.11106 0.425682 0.96 0.672 0.924112
v 0.187998 0.117324 0.425495 0.96 0.672 0.924112
v 0.180319 0.123746 0.42531 0.96 0.672 0.924112
v 0.172772 0.130322 0.425126 0.96 0.672 0.924112
v 0.16536 0.13705 0.424944 0.96 0.672 0.924112
v 0.158087 0.143928 0.424763 0.96 0.672 0.924112
v 0.150955 0.150952 0.424584 0.96 0.672 0.924112
v 0.143967 0.15812 0.424407 0.96 0.672 0.924112
v 0.137127 0.165429 0.424232 0.96 0.672 0.924112
v 0.130436 0.172875 0.424058 0.96 0.672 0.924112
v 0.123898 0.180456 0.423887 0.96 0.672 0.924112
v 0.117516 0.188168 0.423717 0.96 0.672 0.924112
v 0.111292 0.196008 0.42355 0.96 0.672 0.924112
v 0.105228 0.203973 0.423385 0.96 0.672 0.924112
v 0.0993282 0.21206 0.423222 0.96 0.672 0.924112
v 0.0935936 0.220265 0.423061 0.96 0.672 0.924112
v 0.0880269 0.228586 0.422903 0.96 0.672 0.924112
v 0.0826306 0.237017 0.422747 0.96 0.672 0.924112
v 0.0774068 0.245557 0.422594 0.96 0.672 0.924112
v 0.0723577 0.254201 0.422443 0.96 0.672 0.924112
v 0.0674854 0.262946 0.422295 0.96 0.672 0.924112
v 0.0627919 0.271789 0.42215 0.96 0.672 0.924112
v 0.0582792 0.280725 0.422007 0.96 0.672 0.924112
v 0.053949 0.289751 0.421867 0.96 0.672 0.924112
v 0.0498033 0.298863 0.42173 0.96 0.672 0.924112
v 0.0458437 0.308058 0.421596 0.96 0.672 0.924112
v 0.0420718 0.317331 0.421466 0.96 0.672 0.924112
v 0.0384892 0.326679 0.421338 0.96 0.672 0.924112
v 0.0350974 0.336098 0.421213 0.96 0.672 0.924112
v 0.0318978 0.345584 0.421091 0.96 0.672 0.924112
v 0.0288918 0.355133 0.420973 0.96 0.672 0.924112
v 0.0260805 0.364742 0.420857 0.96 0.672 0.924112
v 0.0234651 0.374406 0.420745 0.96 0.672 0.924112
v 0.0210467 0.38412 0.420637 0.96 0.672 0.924112
v 0.0188263 0.393882 0.420531 0.96 0.672 0.924112
v 0.0168048 0.403688 0.42043 0.96 0.672 0.924112
v 0.0149831 0.413532 0.420331 0.96 0.672 0.924112
v 0.0133619 0.423411 0.420237 0.96 0.672 0.924112
v 0.0119419 0.433321 0.420145 0.96 0.672 0.924112
v 0.0107237 0.443259 0.420058 0.96 0.672 0.924112
v 0.0097077 0.453218 0.419973 0.96 0.672 0.924112
v 0.00889442 0.463197 0.419893 0.96 0.672 0.924112
v 0.00828416 0.47319 0.419816 0.96 0.672 0.924112
v 0.00787718 0.483193 0.419743 0.96 0.672 0.924112
v 0.00767365 0.493203 0.419674 0.96 0.672 0.924112
v 0.00767365 0.503215 0.419609 0.96 0.672 0.924112
v 0.00787718 0.513224 0.419547 0.96 0.672 0.924112
v 0.00828416 0.523228 0.419489 0.96 0.672 0.924112
v 0.00889442 0.533221 0.419435 0.96 0.672 0.924112
v 0.0097077 0.543199 0.419385 0.96 0.672 0.924112
v 0.0107237 0.55316 0.419339 0.96 0.672 0.924112
v 0.0119419 0.563097 0.419297 0.96 0.672 0.924112
v 0.0133619 0.573008 0.419259 0.96 0.672 0.924112
v 0.0149831 0.582887 0.419224 0.96 0.672 0.924112
v 0.0168048 0.592732 0.419194 0.96 0.672 0.924112
v 0.0188263 0.602538 0.419167 0.96 0.672 0.924112
v 0.0210467 0.6123 0.419145 0.96 0.672 0.924112
v 0.0234651 0.622016 0.419127 0.96 0.672 0.924112
v 0.0260805 0.63168 0.419112 0.96 0.672 0.924112
v 0.0288918 0.641289 0.419102 0.96 0.672 0.924112
v 0.0318978 0.650839 0.419096 0.96 0.672 0.924112
v 0.0350974 0.660326 0.419093 0.96 0.672 0.924112
v 0.0384892 0.669746 0.419095 0.96 0.672 0.924112
v 0.0420718 0.679095 0.419101 0.96 0.672 0.924112
v 0.0458437 0.688369 0.41911 0.96 0.672 0.924112
v 0.0498033 0.697565 0.419124 0.96 0.672 0.924112
v 0.053949 0.706678 0.419142 0.96 0.672 0.924112
v 0.0582792 0.715705 0.419164 0.96 0.672 0.924112
v 0.0627919 0.724642 0.419189 0.96 0.672 0.924112
v 0.0674854 0.733486 0.419219 0.96 0.672 0.924112
v 0.0723577 0.742232 0.419253 0.96 0.672 0.924112
v 0.0774068 0.750877 0.419291 0.96 0.672 0.924112
v 0.0826306 0.759418 0.419332 0.96 0.672 0.924112
v 0.0880269 0.767851 0.419378 0.96 0.672 0.924112
v 0.0935936 0.776173 0.419427 0.96 0.672 0.924112
v 0.0993282 0.78438 0.41948 0.96 0.672 0.924112
v 0.105228 0.792468 0.419538 0.96 0.672 0.924112
v 0.111292 0.800435 0.419599 0.96 0.672 0.924112
v 0.117516 0.808276 0.419663 0.96 0.672 0.924112
v 0.123898 0.81599 0.419732 0.96 0.672 0.924112
v 0.130436 0.823572 0.419804 0.96 0.672 0.924112
v 0.137127 0.83102 0.419881 0.96 0.672 0.924112
v 0.143967 0.83833 0.41996 0.96 0.672 0.924112
v 0.150955 0.8455 0.420044 0.96 0.672 0.924112
v 0.158087 0.852526 0.420131 0.96 0.672 0.924112
v 0.16536 0.859405 0.420222 0.96 0.672 0.924112
v 0.172772 0.866136 0.420316 0.96 0.672 0.924112
v 0.180319 0.872714 0.420414 0.96 0.672 0.924112
v 0.187998 0.879137 0.420515 0.96 0.672 0.924112
v 0.195806 0.885403 0.42062 0.96 0.672 0.924112
v 0.20374 0.891509 0.420728 0.96 0.672 0.924112
v 0.211796 0.897452 0.420839 0.96 0.672 0.924112
v 0.219972 0.90323 0.420954 0.96 0.672 0.924112
v 0.228263 0.908841 0.421072 0.96 0.672 0.924112
v 0.236667 0.914282 0.421193 0.96 0.672 0.924112
v 0.245179 0.919551 0.421317 0.96 0.672 0.924112
v 0.253797 0.924646 0.421445 0.96 0.672 0.924112
v 0.262516 0.929564 0.421575 0.96 0.672 0.924112
v 0.271334 0.934304 0.421709 0.96 0.672 0.924112
v 0.280246 0.938864 0.421845 0.96 0.672 0.924112
v 0.289249 0.943242 0.421985 0.96 0.672 0.924112
v 0.298339 0.947436 0.422127 0.96 0.672 0.924112
v 0.307513 0.951444 0.422272 0.96 0.672 0.924112
v 0.316766 0.955264 0.422419 0.96 0.672 0.924112
v 0.326095 0.958896 0.42257 0.96 0.672 0.924112
v 0.335495 0.962337 0.422722 0.96 0.672 0.924112
v 0.344964 0.965587 0.422878 0.96 0.672 0.924112
v 0.354497 0.968643 0.423036 0.96 0.672 0.924112
v 0.364089 0.971505 0.423196 0.96 0.672 0.924112
v 0.373739 0.974171 0.423359 0.96 0.672 0.924112
v 0.38344 0.97664 0.423523 0.96 0.672 0.924112
v 0.393189 0.978912 0.42369 0.96 0.672 0.924112
v 0.402983 0.980984 0.423859 0.96 0.672 0.924112
v 0.412816 0.982858 0.424031 0.96 0.672 0.924112
v 0.422686 0.98453 0.424204 0.96 0.672 0.924112
v 0.432587 0.986002 0.424379 0.96 0.672 0.924112
v 0.442517 0.987272 0.424556 0.96 0.672 0.924112
v 0.45247 0.98834 0.424735 0.96 0.672 0.924112
v 0.462443 0.989206 0.424915 0.96 0.672 0.924112
v 0.472431 0.989868 0.425097 0.96 0.672 0.924112
v 0.482431 0.990327 0.42528 0.96 0.672 0.924112
v 0.492438 0.990583 0.425465 0.96 0.672 0.924112
v 0.502448 0.990635 0.425652 0.96 0.672 0.924112
v 0.512457 0.990483 0.425839 0.96 0.672 0.924112
v 0.522461 0.990128 0.426028 0.96 0.672 0.924112
v 0.532455 0.98957 0.426219 0.96 0.672 0.924112
v 0.542436 0.988809 0.42641 0.96 0.672 0.924112
v 0.5524 0.987844 0.426602 0.96 0.672 0.924112
v 0.562342 0.986678 0.426795 0.96 0.672 0.924112
v 0.572258 0.985309 0.426989 0.96 0.672 0.924112
v 0.582144 0.983739 0.427183 0.96 0.672 0.924112
v 0.591996 0.981968 0.427379 0.96 0.672 0.924112
v 0.60181 0.979998 0.427575 0.96 0.672 0.924112
v 0.611582 0.977828 0.427771 0.96 0.672 0.924112
v 0.621308 0.97546 0.427968 0.96 0.672 0.924112
v 0.630983 0.972894 0.428165 0.96 0.672 0.924112
v 0.640605 0.970133 0.428363 0.96 0.672 0.924112
v 0.650168 0.967176 0.428561 0.96 0.672 0.924112
v 0.659669 0.964025 0.428759 0.96 0.672 0.924112
v 0.669104 0.960682 0.428956 0.96 0.672 0.924112
v 0.67847 0.957147 0.429154 0.96 0.672 0.924112
v 0.687761 0.953423 0.429352 0.96 0.672 0.924112
v 0.696975 0.949511 0.429549 0.96 0.672 0.924112
v 0.706107 0.945412 0.429746 0.96 0.672 0.924112
v 0.715154 0.941128 0.429943 0.96 0.672 0.924112
v 0.724112 0.936662 0.430139 0.96 0.672 0.924112
v 0.732978 0.932013 0.430335 0.96 0.672 0.924112
v 0.741747 0.927186 0.43053 0.96 0.672 0.924112
v 0.750416 0.922181 0.430725 0.96 0.672 0.924112
v 0.758981 0.917001 0.430918 0.96 0.672 0.924112
v 0.76744 0.911648 0.431111 0.96 0.672 0.924112
v 0.775787 0.906124 0.431303 0.96 0.672 0.924112
v 0.784021 0.900431 0.431494 0.96 0.672 0.924112
v 0.792137 0.894572 0.431684 0.96 0.672 0.924112
v 0.800133 0.888549 0.431872 0.96 0.672 0.924112
v 0.808004 0.882365 0.432059 0.96 0.672 0.924112
v 0.815748 0.876022 0.432245 0.96 0.672 0.924112
v 0.823362 0.869523 0.43243 0.96 0.672 0.924112
v 0.830841 0.86287 0.432613 0.96 0.672 0.924112
v 0.838184 0.856067 0.432794 0.96 0.672 0.924112
v 0.845387 0.849115 0.432974 0.96 0.672 0.924112
v 0.852448 0.842019 0.433152 0.96 0.672 0.924112
v 0.859362 0.83478 0.433328 0.96 0.672 0.924112
v 0.866128 0.827403 0.433503 0.96 0.672 0.924112
v 0.872743 0.819889 0.433675 0.96 0.672 0.924112
v 0.879203 0.812242 0.433846 0.96 0.672 0.924112
v 0.885506 0.804465 0.434014 0.96 0.672 0.924112
v 0.891651 0.796562 0.434181 0.96 0.672 0.924112
v 0.897633 0.788536 0.434345 0.96 0.672 0.924112
v 0.903451 0.780389 0.434506 0.96 0.672 0.924112
v 0.909101 0.772126 0.434666 0.96 0.672 0.924112
v 0.914583 0.76375 0.434823 0.96 0.672 0.924112
v 0.919894 0.755264 0.434977 0.96 0.672 0.924112
v 0.92503 0.746671 0.435129 0.96 0.672 0.924112
v 0.929991 0.737976 0.435279 0.96 0.672 0.924112
v 0.934774 0.729182 0.435425 0.96 0.672 0.924112
v 0.939378 0.720292 0.435569 0.96 0.672 0.924112
v 0.943799 0.711311 0.435711 0.96 0.672 0.924112
v 0.948038 0.702241 0.435849 0.96 0.672 0.924112
v 0.95209 0.693087 0.435984 0.96 0.672 0.924112
v 0.955956 0.683853 0.436117 0.96 0.672 0.924112
v 0.959634 0.674542 0.436246 0.96 0.672 0.924112
v 0.963121 0.665157 0.436373 0.96 0.672 0.924112
v 0.966417 0.655704 0.436496 0.96 0.672 0.924112
v 0.96952 0.646186 0.436616 0.96 0.672 0.924112
v 0.972429 0.636607 0.436733 0.96 0.672 0.924112
v 0.975142 0.62697 0.436847 0.96 0.672 0.924112
v 0.977659 0.617281 0.436957 0.96 0.672 0.924112
v 0.979979 0.607542 0.437064 0.96 0.672 0.924112
v 0.9821 0.597758 0.437167 0.96 0.672 0.924112
v 0.984022 0.587932 0.437267 0.96 0.672 0.924112
v 0.985743 0.57807 0.437364 0.96 0.672 0.924112
v 0.987264 0.568175 0.437457 0.96 0.672 0.924112
v 0.988583 0.558251 0.437547 0.96 0.672 0.924112
v 0.9897 0.548302 0.437632 0.96 0.672 0.924112
v 0.990615 0.538332 0.437715 0.96 0.672 0.924112
v 0.991327 0.528346 0.437793 0.96 0.672 0.924112
v 0.991835 0.518347 0.437868 0.96 0.672 0.924112
v 0.992141 0.50834 0.437939 0.96 0.672 0.924112
v 0.992242 0.498329 0.438007 0.96 0.672 0.924112
v 0.899772 0.500939 0.436265 0.96 0.672 0.924112
v 0.899646 0.490911 0.436328 0.96 0.672 0.924112
v 0.899268 0.48089 0.436386 0.96 0.672 0.924112
v 0.898638 0.470881 0.43644 0.96 0.672 0.924112
v 0.897757 0.460891 0.436489 0.96 0.672 0.924112
v 0.896626 0.450926 0.436533 0.96 0.672 0.924112
v 0.895244 0.440992 0.436572 0.96 0.672 0.924112
v 0.893613 0.431097 0.436606 0.96 0.672 0.924112
v 0.891734 0.421246 0.436636 0.96 0.672 0.924112
v 0.889608 0.411444 0.43666 0.96 0.672 0.924112
v 0.887237 0.4017 0.436679 0.96 0.672 0.924112
v 0.884621 0.392018 0.436694 0.96 0.672 0.924112
v 0.881763 0.382405 0.436704 0.96 0.672 0.924112
v 0.878665 0.372866 0.436708 0.96 0.672 0.924112
v 0.875328 0.363409 0.436708 0.96 0.672 0.924112
v 0.871754 0.354038 0.436702 0.96 0.672 0.924112
v 0.867946 0.34476 0.436692 0.96 0.672 0.924112
v 0.863906 0.335581 0.436676 0.96 0.672 0.924112
v 0.859636 0.326506 0.436656 0.96 0.672 0.924112
v 0.85514 0.317542 0.436631 0.96 0.672 0.924112
v 0.85042 0.308693 0.436601 0.96 0.672 0.924112
v 0.84548 0.299965 0.436566 0.96 0.672 0.924112
v 0.840321 0.291365 0.436526 0.96 0.672 0.924112
v 0.834948 0.282896 0.436481 0.96 0.672 0.924112
v 0.829364 0.274566 0.436431 0.96 0.672 0.924112
v 0.823573 0.266378 0.436377 0.96 0.672 0.924112
v 0.817578 0.258339 0.436317 0.96 0.672 0.924112
v 0.811382 0.250453 0.436253 0.96 0.672 0.924112
v 0.80499 0.242724 0.436185 0.96 0.672 0.924112
v 0.798407 0.235159 0.436111 0.96 0.672 0.924112
v 0.791635 0.227762 0.436033 0.96 0.672 0.924112
v 0.78468 0.220538 0.435951 0.96 0.672 0.924112
v 0.777545 0.21349 0.435864 0.96 0.672 0.924112
v 0.770235 0.206624 0.435772 0.96 0.672 0.924112
v 0.762755 0.199944 0.435676 0.96 0.672 0.924112
v 0.75511 0.193454 0.435576 0.96 0.672 0.924112
v 0.747304 0.187158 0.435472 0.96 0.672 0.924112
v 0.739343 0.18106 0.435363 0.96 0.672 0.924112
v 0.731231 0.175164 0.43525 0.96 0.672 0.924112
v 0.722973 0.169474 0.435133 0.96 0.672 0.924112
v 0.714575 0.163993 0.435013 0.96 0.672 0.924112
v 0.706042 0.158725 0.434888 0.96 0.672 0.924112
v 0.697379 0.153674 0.434759 0.96 0.672 0.924112
v 0.688592 0.148841 0.434627 0.96 0.672 0.924112
v 0.679686 0.144231 0.434491 0.96 0.672 0.924112
v 0.670668 0.139846 0.434351 0.96 0.672 0.924112
v 0.661542 0.135689 0.434208 0.96 0.672 0.924112
v 0.652314 0.131763 0.434062 0.96 0.672 0.924112
v 0.642991 0.12807 0.433912 0.96 0.672 0.924112
v 0.633578 0.124613 0.433759 0.96 0.672 0.924112
v 0.624082 0.121393 0.433603 0.96 0.672 0.924112
v 0.614507 0.118413 0.433444 0.96 0.672 0.924112
v 0.60486 0.115674 0.433282 0.96 0.672 0.924112
v 0.595148 0.113179 0.433117 0.96 0.672 0.924112
v 0.585376 0.110929 0.432949 0.96 0.672 0.924112
v 0.575551 0.108925 0.432779 0.96 0.672 0.924112
v 0.565679 0.107168 0.432607 0.96 0.672 0.924112
v 0.555765 0.10566 0.432432 0.96 0.672 0.924112
v 0.545817 0.104402 0.432254 0.96 0.672 0.924112
v 0.53584 0.103394 0.432075 0.96 0.672 0.924112
v 0.525842 0.102638 0.431893 0.96 0.672 0.924112
v 0.515827 0.102133 0.43171 0.96 0.672 0.924112
v 0.505803 0.101879 0.431524 0.96 0.672 0.924112
v 0.495776 0.101878 0.431337 0.96 0.672 0.924112
v 0.485751 0.102129 0.431149 0.96 0.672 0.924112
v 0.475737 0.102632 0.430959 0.96 0.672 0.924112
v 0.465738 0.103386 0.430767 0.96 0.672 0.924112
v 0.455761 0.104391 0.430574 0.96 0.672 0.924112
v 0.445813 0.105647 0.430381 0.96 0.672 0.924112
v 0.4359 0.107152 0.430186 0.96 0.672 0.924112
v 0.426027 0.108906 0.42999 0.96 0.672 0.924112
v 0.416202 0.110908 0.429794 0.96 0.672 0.924112
v 0.40643 0.113156 0.429597 0.96 0.672 0.924112
v 0.396718 0.115649 0.429399 0.96 0.672 0.924112
v 0.387071 0.118385 0.429202 0.96 0.672 0.924112
v 0.377497 0.121363 0.429004 0.96 0.672 0.924112
v 0.368 0.12458 0.428805 0.96 0.672 0.924112
v 0.358587 0.128036 0.428607 0.96 0.672 0.924112
v 0.349264 0.131726 0.428409 0.96 0.672 0.924112
v 0.340037 0.13565 0.428211 0.96 0.672 0.924112
v 0.330911 0.139805 0.428014 0.96 0.672 0.924112
v 0.321892 0.144187 0.427817 0.96 0.672 0.924112
v 0.312987 0.148795 0.427621 0.96 0.672 0.924112
v 0.3042 0.153626 0.427425 0.96 0.672 0.924112
v 0.295537 0.158675 0.427231 0.96 0.672 0.924112
v 0.287004 0.163941 0.427037 0.96 0.672 0.924112
v 0.278606 0.16942 0.426845 0.96 0.672 0.924112
v 0.270348 0.175108 0.426653 0.96 0.672 0.924112
v 0.262236 0.181002 0.426464 0.96 0.672 0.924112
v 0.254274 0.187098 0.426275 0.96 0.672 0.924112
v 0.246468 0.193392 0.426088 0.96 0.672 0.924112
v 0.238823 0.19988 0.425903 0.96 0.672 0.924112
v 0.231343 0.206558 0.42572 0.96 0.672 0.924112
v 0.224034 0.213422 0.425539 0.96 0.672 0.924112
v 0.216899 0.220468 0.42536 0.96 0.672 0.924112
v 0.209943 0.227691 0.425183 0.96 0.672 0.924112
v 0.203172 0.235087 0.425008 0.96 0.672 0.924112
v 0.196588 0.24265 0.424836 0.96 0.672 0.924112
v 0.190196 0.250377 0.424666 0.96 0.672 0.924112
v 0.184001 0.258262 0.424499 0.96 0.672 0.924112
v 0.178006 0.2663 0.424335 0.96 0.672 0.924112
v 0.172214 0.274486 0.424173 0.96 0.672 0.924112
v 0.16663 0.282815 0.424015 0.96 0.672 0.924112
v 0.161257 0.291282 0.423859 0.96 0.672 0.924112
v 0.156099 0.299881 0.423707 0.96 0.672 0.924112
v 0.151158 0.308608 0.423557 0.96 0.672 0.924112
v 0.146438 0.317455 0.423412 0.96 0.672 0.924112
v 0.141942 0.326419 0.423269 0.96 0.672 0.924112
v 0.137673 0.335493 0.42313 0.96 0.672 0.924112
v 0.133633 0.344671 0.422995 0.96 0.672 0.924112
v 0.129825 0.353948 0.422863 0.96 0.672 0.924112
v 0.126251 0.363318 0.422735 0.96 0.672 0.924112
v 0.122913 0.372774 0.422611 0.96 0.672 0.924112
v 0.119815 0.382312 0.422491 0.96 0.672 0.924112
v 0.116957 0.391924 0.422375 0.96 0.672 0.924112
v 0.114341 0.401606 0.422263 0.96 0.672 0.924112
v 0.11197 0.41135 0.422155 0.96 0.672 0.924112
v 0.109844 0.42115 0.422051 0.96 0.672 0.924112
v 0.107965 0.431001 0.421952 0.96 0.672 0.924112
v 0.106334 0.440896 0.421856 0.96 0.672 0.924112
v 0.104953 0.450829 0.421766 0.96 0.672 0.924112
v 0.103821 0.460794 0.42168 0.96 0.672 0.924112
v 0.10294 0.470784 0.421598 0.96 0.672 0.924112
v 0.102311 0.480793 0.421521 0.96 0.672 0.924112
v 0.101933 0.490814 0.421448 0.96 0.672 0.924112
v 0.101807 0.500842 0.42138 0.96 0.672 0.924112
v 0.101933 0.51087 0.421317 0.96 0.672 0.924112
v 0.102311 0.520892 0.421258 0.96 0.672 0.924112
v 0.10294 0.530901 0.421205 0.96 0.672 0.924112
v 0.103821 0.540891 0.421156 0.96 0.672 0.924112
v 0.104953 0.550856 0.421112 0.96 0.672 0.924112
v 0.106334 0.560789 0.421073 0.96 0.672 0.924112
v 0.107965 0.570685 0.421038 0.96 0.672 0.924112
v 0.109844 0.580536 0.421009 0.96 0.672 0.924112
v 0.11197 0.590337 0.420985 0.96 0.672 0.924112
v 0.114341 0.600082 0.420965 0.96 0.672 0.924112
v 0.116957 0.609764 0.420951 0.96 0.672 0.924112
v 0.119815 0.619377 0.420941 0.96 0.672 0.924112
v 0.122913 0.628915 0.420937 0.96 0.672 0.924112
v 0.126251 0.638373 0.420937 0.96 0.672 0.924112
v 0.129825 0.647743 0.420942 0.96 0.672 0.924112
v 0.133633 0.657021 0.420953 0.96 0.672 0.924112
v 0.137673 0.6662 0.420968 0.96 0.672 0.924112
v 0.141942 0.675275 0.420989 0.96 0.672 0.924112
v 0.146438 0.68424 0.421014 0.96 0.672 0.924112
v 0.151158 0.693089 0.421044 0.96 0.672 0.924112
v 0.156099 0.701816 0.421079 0.96 0.672 0.924112
v 0.161257 0.710417 0.421119 0.96 0.672 0.924112
v 0.16663 0.718885 0.421164 0.96 0.672 0.924112
v 0.172214 0.727216 0.421214 0.96 0.672 0.924112
v 0.178006 0.735403 0.421268 0.96 0.672 0.924112
v 0.184001 0.743443 0.421327 0.96 0.672 0.924112
v 0.190196 0.751329 0.421391 0.96 0.672 0.924112
v 0.196588 0.759057 0.42146 0.96 0.672 0.924112
v 0.203172 0.766622 0.421534 0.96 0.672 0.924112
v 0.209943 0.774019 0.421612 0.96 0.672 0.924112
v 0.216899 0.781244 0.421694 0.96 0.672 0.924112
v 0.224034 0.788292 0.421781 0.96 0.672 0.924112
v 0.231343 0.795158 0.421873 0.96 0.672 0.924112
v 0.238823 0.801838 0.421968 0.96 0.672 0.924112
v 0.246468 0.808328 0.422069 0.96 0.672 0.924112
v 0.254274 0.814624 0.422173 0.96 0.672 0.924112
v 0.262236 0.820722 0.422282 0.96 0.672 0.924112
v 0.270348 0.826618 0.422394 0.96 0.672 0.924112
v 0.278606 0.832308 0.422511 0.96 0.672 0.924112
v 0.287004 0.837788 0.422632 0.96 0.672 0.924112
v 0.295537 0.843056 0.422757 0.96 0.672 0.924112
v 0.3042 0.848108 0.422885 0.96 0.672 0.924112
v 0.312987 0.85294 0.423018 0.96 0.672 0.924112
v 0.321892 0.857551 0.423154 0.96 0.672 0.924112
v 0.330911 0.861935 0.423293 0.96 0.672 0.924112
v 0.340037 0.866092 0.423436 0.96 0.672 0.924112
v 0.349264 0.870018 0.423583 0.96 0.672 0.924112
v 0.358587 0.873711 0.423733 0.96 0.672 0.924112
v 0.368 0.877169 0.423886 0.96 0.672 0.924112
v 0.377497 0.880389 0.424042 0.96 0.672 0.924112
v 0.387071 0.883369 0.424201 0.96 0.672 0.924112
v 0.396718 0.886107 0.424363 0.96 0.672 0.924112
v 0.40643 0.888603 0.424528 0.96 0.672 0.924112
v 0.416202 0.890853 0.424695 0.96 0.672 0.924112
v 0.426027 0.892857 0.424865 0.96 0.672 0.924112
v 0.4359 0.894613 0.425038 0.96 0.672 0.924112
v 0.445813 0.896121 0.425213 0.96 0.672 0.924112
v 0.455761 0.897379 0.425391 0.96 0.672 0.924112
v 0.465738 0.898387 0.42557 0.96 0.672 0.924112
v 0.475737 0.899144 0.425752 0.96 0.672 0.924112
v 0.485751 0.899649 0.425935 0.96 0.672 0.924112
v 0.495776 0.899902 0.42612 0.96 0.672 0.924112
v 0.505803 0.899903 0.426307 0.96 0.672 0.924112
v 0.515827 0.899653 0.426496 0.96 0.672 0.924112
v 0.525842 0.89915 0.426686 0.96 0.672 0.924112
v 0.53584 0.898396 0.426878 0.96 0.672 0.924112
v 0.545817 0.89739 0.42707 0.96 0.672 0.924112
v 0.555765 0.896135 0.427264 0.96 0.672 0.924112
v 0.565679 0.894629 0.427459 0.96 0.672 0.924112
v 0.575551 0.892875 0.427655 0.96 0.672 0.924112
v 0.585376 0.890874 0.427851 0.96 0.672 0.924112
v 0.595148 0.888626 0.428048 0.96 0.672 0.924112
v 0.60486 0.886133 0.428245 0.96 0.672 0.924112
v 0.614507 0.883397 0.428443 0.96 0.672 0.924112
v 0.624082 0.880419 0.428641 0.96 0.672 0.924112
v 0.633578 0.877201 0.428839 0.96 0.672 0.924112
v 0.642991 0.873746 0.429038 0.96 0.672 0.924112
v 0.652314 0.870055 0.429236 0.96 0.672 0.924112
v 0.661542 0.866131 0.429433 0.96 0.672 0.924112
v 0.670668 0.861977 0.429631 0.96 0.672 0.924112
v 0.679686 0.857594 0.429828 0.96 0.672 0.924112
v 0.688592 0.852986 0.430024 0.96 0.672 0.924112
v 0.697379 0.848156 0.430219 0.96 0.672 0.924112
v 0.706042 0.843106 0.430414 0.96 0.672 0.924112
v 0.714575 0.83784 0.430608 0.96 0.672 0.924112
v 0.722973 0.832362 0.4308 0.96 0.672 0.924112
v 0.731231 0.826674 0.430991 0.96 0.672 0.924112
v 0.739343 0.82078 0.431181 0.96 0.672 0.924112
v 0.747304 0.814684 0.431369 0.96 0.672 0.924112
v 0.75511 0.80839 0.431556 0.96 0.672 0.924112
v 0.762755 0.801902 0.431741 0.96 0.672 0.924112
v 0.770235 0.795223 0.431924 0.96 0.672 0.924112
v 0.777545 0.788359 0.432106 0.96 0.672 0.924112
v 0.78468 0.781313 0.432285 0.96 0.672 0.924112
v 0.791635 0.77409 0.432462 0.96 0.672 0.924112
v 0.798407 0.766695 0.432636 0.96 0.672 0.924112
v 0.80499 0.759131 0.432809 0.96 0.672 0.924112
v 0.811382 0.751405 0.432978 0.96 0.672 0.924112
v 0.817578 0.74352 0.433146 0.96 0.672 0.924112
v 0.823573 0.735482 0.43331 0.96 0.672 0.924112
v 0.829364 0.727296 0.433471 0.96 0.672 0.924112
v 0.834948 0.718967 0.43363 0.96 0.672 0.924112
v 0.840321 0.7105 0.433786 0.96 0.672 0.924112
v 0.84548 0.7019 0.433938 0.96 0.672 0.924112
v 0.85042 0.693174 0.434087 0.96 0.672 0.924112
v 0.85514 0.684326 0.434233 0.96 0.672 0.924112
v 0.859636 0.675363 0.434376 0.96 0.672 0.924112
v 0.863906 0.666289 0.434515 0.96 0.672 0.924112
v 0.867946 0.657111 0.43465 0.96 0.672 0.924112
v 0.871754 0.647834 0.434782 0.96 0.672 0.924112
v 0.875328 0.638464 0.43491 0.96 0.672 0.924112
v 0.878665 0.629007 0.435034 0.96 0.672 0.924112
v 0.881763 0.61947 0.435154 0.96 0.672 0.924112
v 0.884621 0.609857 0.43527 0.96 0.672 0.924112
v 0.887237 0.600176 0.435382 0.96 0.672 0.924112
v 0.889608 0.590432 0.43549 0.96 0.672 0.924112
v 0.891734 0.580631 0.435594 0.96 0.672 0.924112
v 0.893613 0.570781 0.435693 0.96 0.672 0.924112
v 0.895244 0.560885 0.435788 0.96 0.672 0.924112
v 0.896626 0.550952 0.435879 0.96 0.672 0.924112
v 0.897757 0.540988 0.435965 0.96 0.672 0.924112
v 0.898638 0.530998 0.436047 0.96 0.672 0.924112
v 0.899268 0.520989 0.436124 0.96 0.672 0.924112
v 0.899646 0.510967 0.436197 0.96 0.672 0.924112
v 0.899772 0.500939 0.436265 0.96 0.672 0.924112
f 386 93 94
f 403 114 115
f 520 259 260
f 114 402 113
f 403 402 114
f 259 519 258
f 520 519 259
f 519 257 258
f 521 260 261
f 521 520 260
f 113 401 112
f 402 401 113
f 257 518 256
f 519 518 257
f 262 522 261
f 522 521 261
f 400 111 112
f 401 400 112
f 111 400 110
f 517 255 256
f 518 517 256
f 523 262 263
f 523 522 262
f 523 263 264
f 399 109 110
f 400 399 110
f 255 516 254
f 517 516 255
f 265 524 264
f 524 523 264
f 109 398 108
f 399 398 109
f 515 253 254
f 516 515 254
f 253 515 252
f 525 265 266
f 525 524 265
f 108 397 107
f 398 397 108
f 514 251 252
f 515 514 252
f 267 526 266
f 526 525 266
f 396 106 107
f 397 396 107
f 251 513 250
f 514 513 251
f 527 267 268
f 527 526 267
f 106 395 105
f 396 395 106
f 105 395 104
f 512 249 250
f 513 512 250
f 269 528 268
f 528 527 268
f 528 269 270
f 394 103 104
f 395 394 104
f 249 511 248
f 512 511 249
f 529 270 271
f 529 528 270
f 103 393 102
f 394 393 103
f 510 247 248
f 511 510 248
f 247 510 246
f 272 530 271
f 530 529 271
f 392 101 102
f 393 392 102
f 509 245 246
f 510 509 246
f 531 272 273
f 531 530 272
f 101 391 100
f 392 391 101
f 100 391 99
f 245 508 244
f 509 508 245
f 274 532 273
f 532 531 273
f 532 274 275
f 390 98 99
f 391 390 99
f 244 507 243
f 508 507 244
f 276 533 275
f 533 532 275
f 98 389 97
f 390 389 98
f 506 242 243
f 507 506 243
f 242 506 241
f 277 534 276
f 534 533 276
f 388 96 97
f 389 388 97
f 505 240 241
f 506 505 241
f 535 277 278
f 535 534 277
f 387 95 96
f 388 387 96
f 95 387 94
f 387 386 94
f 240 504 239
f 505 504 240
f 279 536 278
f 536 535 278
f 536 279 280
f 239 503 238
f 504 503 239
f 281 537 280
f 537 536 280
f 502 237 238
f 503 502 238
f 282 538 281
f 538 537 281
f 501 236 237
f 502 501 237
f 236 501 235
f 539 282 283
f 539 538 282
f 500 234 235
f 501 500 235
f 284 540 283
f 540 539 283
f 234 499 233
f 500 499 234
f 541 284 285
f 541 540 284
f 286 541 285
f 498 232 233
f 499 498 233
f 542 286 287
f 542 541 286
f 497 231 232
f 498 497 232
f 231 497 230
f 288 543 287
f 543 542 287
f 496 229 230
f 497 496 230
f 544 288 289
f 544 543 288
f 229 495 228
f 496 495 229
f 545 289 290
f 545 544 289
f 291 545 290
f 494 227 228
f 495 494 228
f 546 291 292
f 546 545 291
f 493 226 227
f 494 493 227
f 226 493 225
f 293 547 292
f 547 546 292
f 492 224 225
f 493 492 225
f 294 548 293
f 548 547 293
f 224 491 223
f 492 491 224
f 549 294 295
f 549 548 294
f 296 549 295
f 490 222 223
f 491 490 223
f 550 296 297
f 550 549 296
f 222 489 221
f 490 489 222
f 298 551 297
f 551 550 297
f 488 220 221
f 489 488 221
f 220 488 219
f 552 298 299
f 552 551 298
f 219 487 218
f 488 487 219
f 553 299 300
f 553 552 299
f 486 217 218
f 487 486 218
f 301 554 300
f 554 553 300
f 554 301 302
f 217 485 216
f 486 485 217
f 303 555 302
f 555 554 302
f 216 484 215
f 485 484 216
f 484 214 215
f 304 556 303
f 556 555 303
f 214 483 213
f 484 483 214
f 557 304 305
f 557 556 304
f 482 212 213
f 483 482 213
f 306 558 305
f 558 557 305
f 307 558 306
f 212 481 211
f 482 481 212
f 559 307 308
f 559 558 307
f 211 480 210
f 481 480 211
f 480 209 210
f 309 560 308
f 560 559 308
f 209 479 208
f 480 479 209
f 311 309 1
f 311 560 309
f 478 207 208
f 479 478 208
f 2 312 1
f 312 311 1
f 312 2 3
f 477 206 207
f 478 477 207
f 4 313 3
f 313 312 3
f 206 476 205
f 477 476 206
f 314 4 5
f 314 313 4
f 475 204 205
f 476 475 205
f 204 475 203
f 315 5 6
f 315 314 5
f 474 202 203
f 475 474 203
f 7 316 6
f 316 315 6
f 202 473 201
f 474 473 202
f 317 7 8
f 317 316 7
f 9 317 8
f 472 200 201
f 473 472 201
f 10 318 9
f 318 317 9
f 471 199 200
f 472 471 200
f 199 471 198
f 319 10 11
f 319 318 10
f 470 197 198
f 471 470 198
f 12 320 11
f 320 319 11
f 197 469 196
f 470 469 197
f 13 321 12
f 321 320 12
f 321 13 14
f 468 195 196
f 469 468 196
f 15 322 14
f 322 321 14
f 195 467 194
f 468 467 195
f 467 193 194
f 323 15 16
f 323 322 15
f 193 466 192
f 467 466 193
f 17 324 16
f 324 323 16
f 465 191 192
f 466 465 192
f 325 17 18
f 325 324 17
f 19 325 18
f 191 464 190
f 465 464 191
f 326 19 20
f 326 325 19
f 190 463 189
f 464 463 190
f 21 327 20
f 327 326 20
f 462 188 189
f 463 462 189
f 462 187 188
f 328 21 22
f 328 327 21
f 187 461 186
f 462 461 187
f 23 329 22
f 329 328 22
f 329 23 24
f 460 185 186
f 461 460 186
f 330 24 25
f 330 329 24
f 185 459 184
f 460 459 185
f 26 331 25
f 331 330 25
f 458 183 184
f 459 458 184
f 183 458 182
f 332 26 27
f 332 331 26
f 457 181 182
f 458 457 182
f 28 333 27
f 333 332 27
f 29 333 28
f 456 180 181
f 457 456 181
f 334 29 30
f 334 333 29
f 180 455 179
f 456 455 180
f 31 335 30
f 335 334 30
f 454 178 179
f 455 454 179
f 178 454 177
f 336 31 32
f 336 335 31
f 453 176 177
f 454 453 177
f 33 337 32
f 337 336 32
f 176 452 175
f 453 452 176
f 338 33 34
f 338 337 33
f 35 338 34
f 451 174 175
f 452 451 175
f 36 339 35
f 339 338 35
f 450 173 174
f 451 450 174
f 173 450 172
f 340 36 37
f 340 339 36
f 449 171 172
f 450 449 172
f 38 341 37
f 341 340 37
f 171 448 170
f 449 448 171
f 342 38 39
f 342 341 38
f 40 342 39
f 447 169 170
f 448 447 170
f 343 40 41
f 343 342 40
f 169 446 168
f 447 446 169
f 42 344 41
f 344 343 41
f 445 167 168
f 446 445 168
f 167 445 166
f 345 42 43
f 345 344 42
f 444 165 166
f 445 444 166
f 346 43 44
f 346 345 43
f 45 346 44
f 443 164 165
f 444 443 165
f 347 45 46
f 347 346 45
f 164 442 163
f 443 442 164
f 47 348 46
f 348 347 46
f 441 162 163
f 442 441 163
f 162 441 161
f 48 349 47
f 349 348 47
f 440 160 161
f 441 440 161
f 350 48 49
f 350 349 48
f 50 350 49
f 160 439 159
f 440 439 160
f 351 50 51
f 351 350 50
f 438 158 159
f 439 438 159
f 52 352 51
f 352 351 51
f 158 437 157
f 438 437 158
f 157 437 156
f 353 52 53
f 353 352 52
f 436 155 156
f 437 436 156
f 54 354 53
f 354 353 53
f 354 54 55
f 155 435 154
f 436 435 155
f 56 355 55
f 355 354 55
f 434 153 154
f 435 434 154
f 57 356 56
f 356 355 56
f 153 433 152
f 434 433 153
f 152 433 151
f 357 57 58
f 357 356 57
f 432 150 151
f 433 432 151
f 59 358 58
f 358 357 58
f 358 59 60
f 150 431 149
f 432 431 150
f 359 60 61
f 359 358 60
f 149 430 148
f 431 430 149
f 62 360 61
f 360 359 61
f 429 147 148
f 430 429 148
f 147 429 146
f 361 62 63
f 361 360 62
f 428 145 146
f 429 428 146
f 64 362 63
f 362 361 63
f 427 144 145
f 428 427 145
f 65 363 64
f 363 362 64
f 363 65 66
f 144 426 143
f 427 426 144
f 67 364 66
f 364 363 66
f 425 142 143
f 426 425 143
f 365 67 68
f 365 364 67
f 142 424 141
f 425 424 142
f 424 140 141
f 69 366 68
f 366 365 68
f 423 139 140
f 424 423 140
f 367 69 70
f 367 366 69
f 71 367 70
f 139 422 138
f 423 422 139
f 72 368 71
f 368 367 71
f 421 137 138
f 422 421 138
f 369 72 73
f 369 368 72
f 137 420 136
f 421 420 137
f 420 135 136
f 74 370 73
f 370 369 73
f 419 134 135
f 420 419 135
f 75 371 74
f 371 370 74
f 371 75 76
f 134 418 133
f 419 418 134
f 77 372 76
f 372 371 76
f 417 132 133
f 418 417 133
f 373 77 78
f 373 372 77
f 132 416 131
f 417 416 132
f 416 130 131
f 79 374 78
f 374 373 78
f 130 415 129
f 416 415 130
f 375 79 80
f 375 374 79
f 81 375 80
f 414 128 129
f 415 414 129
f 376 81 82
f 376 375 81
f 413 127 128
f 414 413 128
f 377 82 83
f 377 376 82
f 127 412 126
f 413 412 127
f 412 125 126
f 84 378 83
f 378 377 83
f 125 411 124
f 412 411 125
f 379 84 85
f 379 378 84
f 379 85 86
f 410 123 124
f 411 410 124
f 87 380 86
f 380 379 86
f 123 409 122
f 410 409 123
f 381 87 88
f 381 380 87
f 408 121 122
f 409 408 122
f 408 120 121
f 89 382 88
f 382 381 88
f 120 407 119
f 408 407 120
f 383 89 90
f 383 382 89
f 91 383 90
f 406 118 119
f 407 406 119
f 384 91 92
f 384 383 91
f 118 405 117
f 406 405 118
f 385 384 92
f 93 385 92
f 386 385 93
f 404 116 117
f 405 404 117
f 116 404 115
f 404 403 115
