# Created by Open3D 
# object name: face_00002
# number of vertices: 310
# number of triangles: 307
v 0.993152 0.499394 0.285935 0.840075 0.96 0.672
v 0.99305 0.489382 0.285969 0.840075 0.96 0.672
v 0.992745 0.479375 0.286003 0.840075 0.96 0.672
v 0.992236 0.469376 0.28604 0.840075 0.96 0.672
v 0.991524 0.45939 0.286078 0.840075 0.96 0.672
v 0.990609 0.44942 0.286117 0.840075 0.96 0.672
v 0.989492 0.439471 0.286158 0.840075 0.96 0.672
v 0.988173 0.429546 0.286201 0.840075 0.96 0.672
v 0.986652 0.41965 0.286245 0.840075 0.96 0.672
v 0.98493 0.409788 0.28629 0.840075 0.96 0.672
v 0.983008 0.399962 0.286337 0.840075 0.96 0.672
v 0.980887 0.390178 0.286386 0.840075 0.96 0.672
v 0.978567 0.380438 0.286436 0.840075 0.96 0.672
v 0.976049 0.370748 0.286487 0.840075 0.96 0.672
v 0.973335 0.361111 0.28654 0.840075 0.96 0.672
v 0.970426 0.351532 0.286594 0.840075 0.96 0.672
v 0.967323 0.342013 0.286649 0.840075 0.96 0.672
v 0.964026 0.33256 0.286705 0.840075 0.96 0.672
v 0.960539 0.323175 0.286763 0.840075 0.96 0.672
v 0.956861 0.313863 0.286823 0.840075 0.96 0.672
v 0.952994 0.304628 0.286883 0.840075 0.96 0.672
v 0.948941 0.295474 0.286945 0.840075 0.96 0.672
v 0.944702 0.286404 0.287007 0.840075 0.96 0.672
v 0.94028 0.277422 0.287071 0.840075 0.96 0.672
v 0.935676 0.268531 0.287137 0.840075 0.96 0.672
v 0.930892 0.259737 0.287203 0.840075 0.96 0.672
v 0.92593 0.251041 0.28727 0.840075 0.96 0.672
v 0.920793 0.242448 0.287338 0.840075 0.96 0.672
v 0.915482 0.233961 0.287408 0.840075 0.96 0.672
v 0.909999 0.225584 0.287478 0.840075 0.96 0.672
v 0.904347 0.21732 0.28755 0.840075 0.96 0.672
v 0.898529 0.209173 0.287622 0.840075 0.96 0.672
v 0.892546 0.201146 0.287695 0.840075 0.96 0.672
v 0.886401 0.193242 0.287769 0.840075 0.96 0.672
v 0.880096 0.185465 0.287844 0.840075 0.96 0.672
v 0.873635 0.177817 0.28792 0.840075 0.96 0.672
v 0.867019 0.170302 0.287996 0.840075 0.96 0.672
v 0.860253 0.162924 0.288074 0.840075 0.96 0.672
v 0.853337 0.155685 0.288152 0.840075 0.96 0.672
v 0.846276 0.148587 0.28823 0.840075 0.96 0.672
v 0.839072 0.141635 0.28831 0.840075 0.96 0.672
v 0.831728 0.134831 0.28839 0.840075 0.96 0.672
v 0.824247 0.128177 0.28847 0.840075 0.96 0.672
v 0.816632 0.121677 0.288551 0.840075 0.96 0.672
v 0.808887 0.115333 0.288633 0.840075 0.96 0.672
v 0.801015 0.109148 0.288715 0.840075 0.96 0.672
v 0.793018 0.103125 0.288798 0.840075 0.96 0.672
v 0.784901 0.0972648 0.288881 0.840075 0.96 0.672
v 0.776666 0.0915712 0.288964 0.840075 0.96 0.672
v 0.768317 0.0860462 0.289048 0.840075 0.96 0.672
v 0.759857 0.0806921 0.289132 0.840075 0.96 0.672
v 0.75129 0.0755111 0.289216 0.840075 0.96 0.672
v 0.74262 0.0705054 0.289301 0.840075 0.96 0.672
v 0.73385 0.0656771 0.289386 0.840075 0.96 0.672
v 0.724983 0.061028 0.289471 0.840075 0.96 0.672
v 0.716024 0.0565602 0.289556 0.840075 0.96 0.672
v 0.706976 0.0522755 0.289641 0.840075 0.96 0.672
v 0.697842 0.0481757 0.289727 0.840075 0.96 0.672
v 0.688627 0.0442624 0.289812 0.840075 0.96 0.672
v 0.679334 0.0405373 0.289897 0.840075 0.96 0.672
v 0.669968 0.037002 0.289983 0.840075 0.96 0.672
v 0.660531 0.0336578 0.290068 0.840075 0.96 0.672
v 0.651029 0.0305062 0.290153 0.840075 0.96 0.672
v 0.641464 0.0275484 0.290238 0.840075 0.96 0.672
v 0.631841 0.0247858 0.290323 0.840075 0.96 0.672
v 0.622164 0.0222193 0.290408 0.840075 0.96 0.672
v 0.612437 0.0198502 0.290492 0.840075 0.96 0.672
v 0.602664 0.0176794 0.290576 0.840075 0.96 0.672
v 0.592848 0.0157077 0.29066 0.840075 0.96 0.672
v 0.582995 0.013936 0.290744 0.840075 0.96 0.672
v 0.573107 0.012365 0.290827 0.840075 0.96 0.672
v 0.56319 0.0109954 0.290909 0.840075 0.96 0.672
v 0.553246 0.00982775 0.290992 0.840075 0.96 0.672
v 0.543281 0.0088625 0.291073 0.840075 0.96 0.672
v 0.533299 0.00810007 0.291155 0.840075 0.96 0.672
v 0.523303 0.00754077 0.291235 0.840075 0.96 0.672
v 0.513298 0.00718484 0.291315 0.840075 0.96 0.672
v 0.503287 0.00703241 0.291395 0.840075 0.96 0.672
v 0.493276 0.00708356 0.291474 0.840075 0.96 0.672
v 0.483267 0.00733827 0.291552 0.840075 0.96 0.672
v 0.473266 0.00779642 0.291629 0.840075 0.96 0.672
v 0.463277 0.00845783 0.291706 0.840075 0.96 0.672
v 0.453302 0.00932222 0.291782 0.840075 0.96 0.672
v 0.443348 0.0103892 0.291857 0.840075 0.96 0.672
v 0.433417 0.0116585 0.291931 0.840075 0.96 0.672
v 0.423514 0.0131293 0.292004 0.840075 0.96 0.672
v 0.413643 0.0148012 0.292077 0.840075 0.96 0.672
v 0.403808 0.0166735 0.292148 0.840075 0.96 0.672
v 0.394013 0.0187454 0.292219 0.840075 0.96 0.672
v 0.384262 0.021016 0.292288 0.840075 0.96 0.672
v 0.37456 0.0234844 0.292357 0.840075 0.96 0.672
v 0.364909 0.0261496 0.292425 0.840075 0.96 0.672
v 0.355315 0.0290104 0.292491 0.840075 0.96 0.672
v 0.345781 0.0320657 0.292556 0.840075 0.96 0.672
v 0.336311 0.0353143 0.29262 0.840075 0.96 0.672
v 0.326909 0.0387547 0.292683 0.840075 0.96 0.672
v 0.317579 0.0423856 0.292745 0.840075 0.96 0.672
v 0.308324 0.0462055 0.292806 0.840075 0.96 0.672
v 0.299149 0.0502127 0.292865 0.840075 0.96 0.672
v 0.290058 0.0544056 0.292924 0.840075 0.96 0.672
v 0.281054 0.0587826 0.29298 0.840075 0.96 0.672
v 0.27214 0.0633417 0.293036 0.840075 0.96 0.672
v 0.263321 0.0680811 0.29309 0.840075 0.96 0.672
v 0.254601 0.0729988 0.293143 0.840075 0.96 0.672
v 0.245982 0.0780929 0.293195 0.840075 0.96 0.672
v 0.237468 0.0833611 0.293245 0.840075 0.96 0.672
v 0.229063 0.0888014 0.293293 0.840075 0.96 0.672
v 0.220771 0.0944114 0.293341 0.840075 0.96 0.672
v 0.212594 0.100189 0.293386 0.840075 0.96 0.672
v 0.204537 0.106131 0.293431 0.840075 0.96 0.672
v 0.196602 0.112236 0.293473 0.840075 0.96 0.672
v 0.188793 0.118502 0.293515 0.840075 0.96 0.672
v 0.181112 0.124924 0.293555 0.840075 0.96 0.672
v 0.173564 0.131502 0.293593 0.840075 0.96 0.672
v 0.166152 0.138232 0.29363 0.840075 0.96 0.672
v 0.158877 0.14511 0.293665 0.840075 0.96 0.672
v 0.151744 0.152136 0.293698 0.840075 0.96 0.672
v 0.144756 0.159305 0.29373 0.840075 0.96 0.672
v 0.137914 0.166615 0.29376 0.840075 0.96 0.672
v 0.131222 0.174062 0.293789 0.840075 0.96 0.672
v 0.124684 0.181644 0.293816 0.840075 0.96 0.672
v 0.118301 0.189357 0.293841 0.840075 0.96 0.672
v 0.112076 0.197198 0.293865 0.840075 0.96 0.672
v 0.106011 0.205164 0.293887 0.840075 0.96 0.672
v 0.10011 0.213252 0.293908 0.840075 0.96 0.672
v 0.0943746 0.221458 0.293926 0.840075 0.96 0.672
v 0.0888072 0.22978 0.293943 0.840075 0.96 0.672
v 0.0834101 0.238212 0.293958 0.840075 0.96 0.672
v 0.0781855 0.246753 0.293972 0.840075 0.96 0.672
v 0.0731357 0.255398 0.293984 0.840075 0.96 0.672
v 0.0682627 0.264144 0.293994 0.840075 0.96 0.672
v 0.0635686 0.272987 0.294002 0.840075 0.96 0.672
v 0.0590552 0.281924 0.294009 0.840075 0.96 0.672
v 0.0547244 0.290951 0.294014 0.840075 0.96 0.672
v 0.0505781 0.300064 0.294017 0.840075 0.96 0.672
v 0.0466179 0.309259 0.294019 0.840075 0.96 0.672
v 0.0428455 0.318533 0.294018 0.840075 0.96 0.672
v 0.0392624 0.327882 0.294016 0.840075 0.96 0.672
v 0.0358701 0.337302 0.294013 0.840075 0.96 0.672
v 0.0326701 0.346788 0.294007 0.840075 0.96 0.672
v 0.0296636 0.356338 0.294 0.840075 0.96 0.672
v 0.0268518 0.365947 0.293991 0.840075 0.96 0.672
v 0.0242361 0.375611 0.29398 0.840075 0.96 0.672
v 0.0218174 0.385327 0.293968 0.840075 0.96 0.672
v 0.0195967 0.395089 0.293954 0.840075 0.96 0.672
v 0.0175749 0.404895 0.293938 0.840075 0.96 0.672
v 0.0157529 0.41474 0.29392 0.840075 0.96 0.672
v 0.0141315 0.424619 0.293901 0.840075 0.96 0.672
v 0.0127113 0.43453 0.29388 0.840075 0.96 0.672
v 0.0114929 0.444467 0.293858 0.840075 0.96 0.672
v 0.0104767 0.454428 0.293834 0.840075 0.96 0.672
v 0.00966334 0.464406 0.293808 0.840075 0.96 0.672
v 0.009053 0.4744 0.29378 0.840075 0.96 0.672
v 0.00864596 0.484403 0.293751 0.840075 0.96 0.672
v 0.0084424 0.494413 0.29372 0.840075 0.96 0.672
v 0.0084424 0.504425 0.293688 0.840075 0.96 0.672
v 0.00864596 0.514435 0.293654 0.840075 0.96 0.672
v 0.009053 0.524438 0.293618 0.840075 0.96 0.672
v 0.00966334 0.534431 0.293581 0.840075 0.96 0.672
v 0.0104767 0.54441 0.293542 0.840075 0.96 0.672
v 0.0114929 0.55437 0.293502 0.840075 0.96 0.672
v 0.0127113 0.564308 0.29346 0.840075 0.96 0.672
v 0.0141315 0.574218 0.293417 0.840075 0.96 0.672
v 0.0157529 0.584098 0.293372 0.840075 0.96 0.672
v 0.0175749 0.593942 0.293326 0.840075 0.96 0.672
v 0.0195967 0.603748 0.293278 0.840075 0.96 0.672
v 0.0218174 0.61351 0.293229 0.840075 0.96 0.672
v 0.0242361 0.623226 0.293178 0.840075 0.96 0.672
v 0.0268518 0.63289 0.293126 0.840075 0.96 0.672
v 0.0296636 0.642498 0.293073 0.840075 0.96 0.672
v 0.0326701 0.652048 0.293018 0.840075 0.96 0.672
v 0.0358701 0.661535 0.292962 0.840075 0.96 0.672
v 0.0392624 0.670954 0.292905 0.840075 0.96 0.672
v 0.0428455 0.680303 0.292847 0.840075 0.96 0.672
v 0.0466179 0.689577 0.292787 0.840075 0.96 0.672
v 0.0505781 0.698772 0.292726 0.840075 0.96 0.672
v 0.0547244 0.707885 0.292664 0.840075 0.96 0.672
v 0.0590552 0.716911 0.2926 0.840075 0.96 0.672
v 0.0635686 0.725848 0.292536 0.840075 0.96 0.672
v 0.0682627 0.734691 0.29247 0.840075 0.96 0.672
v 0.0731357 0.743436 0.292403 0.840075 0.96 0.672
v 0.0781855 0.752081 0.292335 0.840075 0.96 0.672
v 0.0834101 0.760622 0.292266 0.840075 0.96 0.672
v 0.0888072 0.769054 0.292196 0.840075 0.96 0.672
v 0.0943746 0.777375 0.292126 0.840075 0.96 0.672
v 0.10011 0.785581 0.292054 0.840075 0.96 0.672
v 0.106011 0.793668 0.291981 0.840075 0.96 0.672
v 0.112076 0.801634 0.291907 0.840075 0.96 0.672
v 0.118301 0.809475 0.291833 0.840075 0.96 0.672
v 0.124684 0.817188 0.291758 0.840075 0.96 0.672
v 0.131222 0.82477 0.291681 0.840075 0.96 0.672
v 0.137914 0.832217 0.291605 0.840075 0.96 0.672
v 0.144756 0.839526 0.291527 0.840075 0.96 0.672
v 0.151744 0.846694 0.291448 0.840075 0.96 0.672
v 0.158877 0.85372 0.291369 0.840075 0.96 0.672
v 0.166152 0.860598 0.29129 0.840075 0.96 0.672
v 0.173564 0.867327 0.29121 0.840075 0.96 0.672
v 0.181112 0.873905 0.291129 0.840075 0.96 0.672
v 0.188793 0.880327 0.291047 0.840075 0.96 0.672
v 0.196602 0.886592 0.290965 0.840075 0.96 0.672
v 0.204537 0.892696 0.290883 0.840075 0.96 0.672
v 0.212594 0.898638 0.2908 0.840075 0.96 0.672
v 0.220771 0.904415 0.290717 0.840075 0.96 0.672
v 0.229063 0.910025 0.290633 0.840075 0.96 0.672
v 0.237468 0.915465 0.290549 0.840075 0.96 0.672
v 0.245982 0.920733 0.290465 0.840075 0.96 0.672
v 0.254601 0.925826 0.290381 0.840075 0.96 0.672
v 0.263321 0.930744 0.290296 0.840075 0.96 0.672
v 0.27214 0.935483 0.290211 0.840075 0.96 0.672
v 0.281054 0.940041 0.290126 0.840075 0.96 0.672
v 0.290058 0.944418 0.290041 0.840075 0.96 0.672
v 0.299149 0.94861 0.289955 0.840075 0.96 0.672
v 0.308324 0.952617 0.28987 0.840075 0.96 0.672
v 0.317579 0.956436 0.289785 0.840075 0.96 0.672
v 0.326909 0.960067 0.289699 0.840075 0.96 0.672
v 0.336311 0.963507 0.289614 0.840075 0.96 0.672
v 0.345781 0.966755 0.289529 0.840075 0.96 0.672
v 0.355315 0.96981 0.289444 0.840075 0.96 0.672
v 0.364909 0.97267 0.289359 0.840075 0.96 0.672
v 0.37456 0.975335 0.289274 0.840075 0.96 0.672
v 0.384262 0.977802 0.289189 0.840075 0.96 0.672
v 0.394013 0.980073 0.289105 0.840075 0.96 0.672
v 0.403808 0.982144 0.289021 0.840075 0.96 0.672
v 0.413643 0.984016 0.288938 0.840075 0.96 0.672
v 0.423514 0.985687 0.288854 0.840075 0.96 0.672
v 0.433417 0.987158 0.288771 0.840075 0.96 0.672
v 0.443348 0.988426 0.288689 0.840075 0.96 0.672
v 0.453302 0.989493 0.288607 0.840075 0.96 0.672
v 0.463277 0.990357 0.288525 0.840075 0.96 0.672
v 0.473266 0.991018 0.288444 0.840075 0.96 0.672
v 0.483267 0.991475 0.288364 0.840075 0.96 0.672
v 0.493276 0.991729 0.288284 0.840075 0.96 0.672
v 0.503287 0.99178 0.288205 0.840075 0.96 0.672
v 0.513298 0.991627 0.288127 0.840075 0.96 0.672
v 0.523303 0.991271 0.288049 0.840075 0.96 0.672
v 0.533299 0.990711 0.287972 0.840075 0.96 0.672
v 0.543281 0.989948 0.287896 0.840075 0.96 0.672
v 0.553246 0.988982 0.28782 0.840075 0.96 0.672
v 0.56319 0.987814 0.287745 0.840075 0.96 0.672
v 0.573107 0.986444 0.287672 0.840075 0.96 0.672
v 0.582995 0.984872 0.287599 0.840075 0.96 0.672
v 0.592848 0.9831 0.287527 0.840075 0.96 0.672
v 0.602664 0.981128 0.287456 0.840075 0.96 0.672
v 0.612437 0.978957 0.287386 0.840075 0.96 0.672
v 0.622164 0.976587 0.287317 0.840075 0.96 0.672
v 0.631841 0.97402 0.287248 0.840075 0.96 0.672
v 0.641464 0.971257 0.287182 0.840075 0.96 0.672
v 0.651029 0.968299 0.287116 0.840075 0.96 0.672
v 0.660531 0.965147 0.287051 0.840075 0.96 0.672
v 0.669968 0.961802 0.286987 0.840075 0.96 0.672
v 0.679334 0.958266 0.286925 0.840075 0.96 0.672
v 0.688627 0.954541 0.286864 0.840075 0.96 0.672
v 0.697842 0.950627 0.286804 0.840075 0.96 0.672
v 0.706976 0.946526 0.286745 0.840075 0.96 0.672
v 0.716024 0.942241 0.286687 0.840075 0.96 0.672
v 0.724983 0.937773 0.286631 0.840075 0.96 0.672
v 0.73385 0.933124 0.286576 0.840075 0.96 0.672
v 0.74262 0.928295 0.286523 0.840075 0.96 0.672
v 0.75129 0.923289 0.28647 0.840075 0.96 0.672
v 0.759857 0.918107 0.28642 0.840075 0.96 0.672
v 0.768317 0.912753 0.28637 0.840075 0.96 0.672
v 0.776666 0.907227 0.286322 0.840075 0.96 0.672
v 0.784901 0.901533 0.286276 0.840075 0.96 0.672
v 0.793018 0.895673 0.286231 0.840075 0.96 0.672
v 0.801015 0.889649 0.286187 0.840075 0.96 0.672
v 0.808887 0.883463 0.286145 0.840075 0.96 0.672
v 0.816632 0.877119 0.286104 0.840075 0.96 0.672
v 0.824247 0.870619 0.286065 0.840075 0.96 0.672
v 0.831728 0.863965 0.286028 0.840075 0.96 0.672
v 0.839072 0.85716 0.285992 0.840075 0.96 0.672
v 0.846276 0.850207 0.285958 0.840075 0.96 0.672
v 0.853337 0.84311 0.285925 0.840075 0.96 0.672
v 0.860253 0.83587 0.285894 0.840075 0.96 0.672
v 0.867019 0.828491 0.285864 0.840075 0.96 0.672
v 0.873635 0.820976 0.285837 0.840075 0.96 0.672
v 0.880096 0.813329 0.28581 0.840075 0.96 0.672
v 0.886401 0.805551 0.285786 0.840075 0.96 0.672
v 0.892546 0.797647 0.285763 0.840075 0.96 0.672
v 0.898529 0.789619 0.285742 0.840075 0.96 0.672
v 0.904347 0.781472 0.285722 0.840075 0.96 0.672
v 0.909999 0.773208 0.285704 0.840075 0.96 0.672
v 0.915482 0.76483 0.285688 0.840075 0.96 0.672
v 0.920793 0.756343 0.285674 0.840075 0.96 0.672
v 0.92593 0.74775 0.285661 0.840075 0.96 0.672
v 0.930892 0.739054 0.28565 0.840075 0.96 0.672
v 0.935676 0.730259 0.285641 0.840075 0.96 0.672
v 0.94028 0.721368 0.285633 0.840075 0.96 0.672
v 0.944702 0.712386 0.285628 0.840075 0.96 0.672
v 0.948941 0.703316 0.285624 0.840075 0.96 0.672
v 0.952994 0.694161 0.285621 0.840075 0.96 0.672
v 0.956861 0.684926 0.285621 0.840075 0.96 0.672
v 0.960539 0.675614 0.285622 0.840075 0.96 0.672
v 0.964026 0.666229 0.285625 0.840075 0.96 0.672
v 0.967323 0.656776 0.285629 0.840075 0.96 0.672
v 0.970426 0.647257 0.285636 0.840075 0.96 0.672
v 0.973335 0.637677 0.285644 0.840075 0.96 0.672
v 0.976049 0.62804 0.285654 0.840075 0.96 0.672
v 0.978567 0.61835 0.285665 0.840075 0.96 0.672
v 0.980887 0.60861 0.285678 0.840075 0.96 0.672
v 0.983008 0.598826 0.285693 0.840075 0.96 0.672
v 0.98493 0.589 0.28571 0.840075 0.96 0.672
v 0.986652 0.579137 0.285728 0.840075 0.96 0.672
v 0.988173 0.569242 0.285748 0.840075 0.96 0.672
v 0.989492 0.559317 0.28577 0.840075 0.96 0.672
v 0.990609 0.549368 0.285794 0.840075 0.96 0.672
v 0.991524 0.539398 0.285819 0.840075 0.96 0.672
v 0.992236 0.529411 0.285845 0.840075 0.96 0.672
v 0.992745 0.519412 0.285874 0.840075 0.96 0.672
v 0.99305 0.509405 0.285904 0.840075 0.96 0.672
v 0.993152 0.499394 0.285935 0.840075 0.96 0.672
f 259 159 160
f 152 259 151
f 259 5 6
f 306 259 305
f 259 82 83
f 74 259 73
f 229 259 228
f 259 283 284
f 259 121 122
f 259 90 91
f 35 259 34
f 259 42 43
f 191 259 190
f 217 259 216
f 259 275 276
f 268 259 267
f 259 140 141
f 133 259 132
f 94 259 93
f 259 102 103
f 17 259 16
f 32 259 31
f 259 62 63
f 54 259 53
f 259 162 163
f 259 179 180
f 259 218 219
f 210 259 209
f 303 259 302
f 287 259 286
f 249 259 248
f 259 264 265
f 259 150 151
f 142 259 141
f 123 259 122
f 135 259 134
f 84 259 83
f 259 92 93
f 259 111 112
f 104 259 103
f 7 259 6
f 9 259 8
f 259 33 34
f 26 259 25
f 259 72 73
f 64 259 63
f 44 259 43
f 259 55 56
f 161 259 160
f 171 259 170
f 259 189 190
f 181 259 180
f 259 227 228
f 220 259 219
f 201 259 200
f 259 208 209
f 259 304 305
f 297 259 296
f 277 259 276
f 259 285 286
f 239 259 238
f 259 247 248
f 259 266 267
f 259 155 156
f 147 259 146
f 138 259 137
f 259 145 146
f 118 259 117
f 259 126 127
f 259 136 137
f 128 259 127
f 259 131 132
f 259 87 88
f 86 259 85
f 89 259 88
f 259 116 117
f 109 259 108
f 99 259 98
f 259 107 108
f 2 259 1
f 259 10 11
f 259 19 20
f 12 259 11
f 259 15 16
f 30 259 29
f 21 259 20
f 259 28 29
f 259 24 25
f 69 259 68
f 59 259 58
f 259 67 68
f 40 259 39
f 259 47 48
f 259 57 58
f 49 259 48
f 157 259 156
f 259 164 165
f 259 174 175
f 166 259 165
f 259 194 195
f 186 259 185
f 176 259 175
f 178 259 177
f 259 232 233
f 259 230 231
f 215 259 214
f 259 222 223
f 196 259 195
f 259 203 204
f 259 213 214
f 205 259 204
f 259 309 1
f 301 259 300
f 292 259 291
f 259 299 300
f 273 259 272
f 259 280 281
f 279 259 278
f 282 259 281
f 234 259 233
f 259 237 238
f 259 251 252
f 244 259 243
f 259 245 246
f 263 259 262
f 253 259 252
f 259 261 262
f 155 259 154
f 258 259 257
f 259 147 148
f 259 153 154
f 259 138 139
f 140 259 139
f 149 259 148
f 259 142 143
f 144 259 143
f 121 259 120
f 259 119 120
f 259 123 124
f 125 259 124
f 259 133 134
f 259 128 129
f 130 259 129
f 259 80 81
f 82 259 81
f 79 259 78
f 259 84 85
f 96 259 95
f 259 94 95
f 259 97 98
f 92 259 91
f 116 259 115
f 259 114 115
f 259 109 110
f 111 259 110
f 259 99 100
f 113 259 112
f 101 259 100
f 259 104 105
f 106 259 105
f 5 259 4
f 259 3 4
f 259 7 8
f 19 259 18
f 259 17 18
f 259 12 13
f 14 259 13
f 37 259 36
f 259 35 36
f 259 30 31
f 259 38 39
f 259 21 22
f 23 259 22
f 28 259 27
f 259 26 27
f 76 259 75
f 259 74 75
f 259 69 70
f 259 77 78
f 259 59 60
f 71 259 70
f 67 259 66
f 61 259 60
f 259 40 41
f 42 259 41
f 47 259 46
f 259 65 66
f 57 259 56
f 259 45 46
f 259 49 50
f 51 259 50
f 259 157 158
f 159 259 158
f 164 259 163
f 259 52 53
f 174 259 173
f 259 172 173
f 259 166 167
f 168 259 167
f 194 259 193
f 259 169 170
f 259 186 187
f 259 192 193
f 259 176 177
f 188 259 187
f 183 259 182
f 259 181 182
f 232 259 231
f 259 184 185
f 259 225 226
f 227 259 226
f 259 215 216
f 224 259 223
f 222 259 221
f 259 220 221
f 259 196 197
f 198 259 197
f 203 259 202
f 259 201 202
f 213 259 212
f 259 199 200
f 259 205 206
f 259 211 212
f 207 259 206
f 259 306 307
f 259 301 302
f 308 259 307
f 259 292 293
f 294 259 293
f 299 259 298
f 259 297 298
f 259 273 274
f 275 259 274
f 259 295 296
f 259 277 278
f 289 259 288
f 259 287 288
f 259 290 291
f 285 259 284
f 259 234 235
f 236 259 235
f 241 259 240
f 259 239 240
f 251 259 250
f 259 249 250
f 259 242 243
f 247 259 246
f 270 259 269
f 259 268 269
f 259 271 272
f 266 259 265
f 259 253 254
f 255 259 254
f 261 259 260
f 259 256 257
f 153 259 152
f 259 149 150
f 259 144 145
f 119 259 118
f 259 125 126
f 259 135 136
f 131 259 130
f 259 79 80
f 259 86 87
f 97 259 96
f 90 259 89
f 259 113 114
f 259 101 102
f 259 106 107
f 3 259 2
f 259 9 10
f 15 259 14
f 38 259 37
f 259 32 33
f 24 259 23
f 77 259 76
f 259 71 72
f 259 61 62
f 65 259 64
f 45 259 44
f 55 259 54
f 52 259 51
f 162 259 161
f 259 171 172
f 169 259 168
f 192 259 191
f 259 188 189
f 259 178 179
f 184 259 183
f 230 259 229
f 259 224 225
f 259 217 218
f 199 259 198
f 211 259 210
f 259 207 208
f 259 308 309
f 259 303 304
f 295 259 294
f 259 279 280
f 290 259 289
f 283 259 282
f 237 259 236
f 242 259 241
f 245 259 244
f 271 259 270
f 264 259 263
f 256 259 255
