# Created by Open3D 
# object name: face_00004
# number of vertices: 251
# number of triangles: 248
v 0.901182 0.497421 0.708206 0.672 0.96 0.911851
v 0.901056 0.50745 0.708217 0.672 0.96 0.911851
v 0.900678 0.517472 0.708229 0.672 0.96 0.911851
v 0.900048 0.527481 0.708241 0.672 0.96 0.911851
v 0.899167 0.537471 0.708255 0.672 0.96 0.911851
v 0.898035 0.547436 0.708269 0.672 0.96 0.911851
v 0.896653 0.557369 0.708284 0.672 0.96 0.911851
v 0.895022 0.567265 0.708299 0.672 0.96 0.911851
v 0.893143 0.577116 0.708316 0.672 0.96 0.911851
v 0.891017 0.586917 0.708333 0.672 0.96 0.911851
v 0.888645 0.596662 0.708351 0.672 0.96 0.911851
v 0.886029 0.606343 0.70837 0.672 0.96 0.911851
v 0.883171 0.615956 0.708389 0.672 0.96 0.911851
v 0.880072 0.625495 0.708409 0.672 0.96 0.911851
v 0.876734 0.634952 0.70843 0.672 0.96 0.911851
v 0.873159 0.644322 0.708452 0.672 0.96 0.911851
v 0.869351 0.6536 0.708474 0.672 0.96 0.911851
v 0.86531 0.662779 0.708497 0.672 0.96 0.911851
v 0.86104 0.671853 0.70852 0.672 0.96 0.911851
v 0.856543 0.680817 0.708544 0.672 0.96 0.911851
v 0.851822 0.689666 0.708569 0.672 0.96 0.911851
v 0.846881 0.698393 0.708594 0.672 0.96 0.911851
v 0.841721 0.706993 0.70862 0.672 0.96 0.911851
v 0.836348 0.715461 0.708646 0.672 0.96 0.911851
v 0.830763 0.723791 0.708673 0.672 0.96 0.911851
v 0.82497 0.731978 0.708701 0.672 0.96 0.911851
v 0.818974 0.740017 0.708729 0.672 0.96 0.911851
v 0.812777 0.747903 0.708758 0.672 0.96 0.911851
v 0.806385 0.75563 0.708787 0.672 0.96 0.911851
v 0.7998 0.763194 0.708816 0.672 0.96 0.911851
v 0.793027 0.770591 0.708846 0.672 0.96 0.911851
v 0.78607 0.777815 0.708876 0.672 0.96 0.911851
v 0.778934 0.784862 0.708907 0.672 0.96 0.911851
v 0.771624 0.791727 0.708938 0.672 0.96 0.911851
v 0.764143 0.798406 0.70897 0.672 0.96 0.911851
v 0.756496 0.804896 0.709001 0.672 0.96 0.911851
v 0.748689 0.811191 0.709034 0.672 0.96 0.911851
v 0.740726 0.817288 0.709066 0.672 0.96 0.911851
v 0.732612 0.823183 0.709099 0.672 0.96 0.911851
v 0.724353 0.828872 0.709132 0.672 0.96 0.911851
v 0.715954 0.834351 0.709165 0.672 0.96 0.911851
v 0.707419 0.839618 0.709199 0.672 0.96 0.911851
v 0.698755 0.844669 0.709232 0.672 0.96 0.911851
v 0.689967 0.849501 0.709266 0.672 0.96 0.911851
v 0.681059 0.85411 0.7093 0.672 0.96 0.911851
v 0.672039 0.858494 0.709334 0.672 0.96 0.911851
v 0.662912 0.862649 0.709368 0.672 0.96 0.911851
v 0.653683 0.866574 0.709403 0.672 0.96 0.911851
v 0.644358 0.870266 0.709437 0.672 0.96 0.911851
v 0.634944 0.873723 0.709472 0.672 0.96 0.911851
v 0.625445 0.876941 0.709506 0.672 0.96 0.911851
v 0.615869 0.87992 0.709541 0.672 0.96 0.911851
v 0.606221 0.882658 0.709575 0.672 0.96 0.911851
v 0.596507 0.885152 0.70961 0.672 0.96 0.911851
v 0.586734 0.887401 0.709644 0.672 0.96 0.911851
v 0.576907 0.889404 0.709678 0.672 0.96 0.911851
v 0.567033 0.891159 0.709712 0.672 0.96 0.911851
v 0.557117 0.892666 0.709747 0.672 0.96 0.911851
v 0.547168 0.893923 0.70978 0.672 0.96 0.911851
v 0.537189 0.894929 0.709814 0.672 0.96 0.911851
v 0.527189 0.895685 0.709848 0.672 0.96 0.911851
v 0.517172 0.896188 0.709881 0.672 0.96 0.911851
v 0.507147 0.89644 0.709914 0.672 0.96 0.911851
v 0.497118 0.89644 0.709947 0.672 0.96 0.911851
v 0.487092 0.896188 0.70998 0.672 0.96 0.911851
v 0.477076 0.895684 0.710012 0.672 0.96 0.911851
v 0.467075 0.894929 0.710044 0.672 0.96 0.911851
v 0.457097 0.893922 0.710076 0.672 0.96 0.911851
v 0.447147 0.892665 0.710107 0.672 0.96 0.911851
v 0.437232 0.891159 0.710138 0.672 0.96 0.911851
v 0.427358 0.889403 0.710168 0.672 0.96 0.911851
v 0.417531 0.8874 0.710198 0.672 0.96 0.911851
v 0.407757 0.885151 0.710228 0.672 0.96 0.911851
v 0.398043 0.882657 0.710257 0.672 0.96 0.911851
v 0.388395 0.87992 0.710286 0.672 0.96 0.911851
v 0.378819 0.87694 0.710314 0.672 0.96 0.911851
v 0.369321 0.873722 0.710342 0.672 0.96 0.911851
v 0.359906 0.870265 0.710369 0.672 0.96 0.911851
v 0.350581 0.866573 0.710396 0.672 0.96 0.911851
v 0.341352 0.862648 0.710422 0.672 0.96 0.911851
v 0.332225 0.858492 0.710448 0.672 0.96 0.911851
v 0.323205 0.854109 0.710473 0.672 0.96 0.911851
v 0.314298 0.849499 0.710497 0.672 0.96 0.911851
v 0.305509 0.844668 0.710521 0.672 0.96 0.911851
v 0.296845 0.839617 0.710544 0.672 0.96 0.911851
v 0.288311 0.83435 0.710567 0.672 0.96 0.911851
v 0.279911 0.82887 0.710588 0.672 0.96 0.911851
v 0.271652 0.823181 0.71061 0.672 0.96 0.911851
v 0.263538 0.817286 0.71063 0.672 0.96 0.911851
v 0.255575 0.811189 0.71065 0.672 0.96 0.911851
v 0.247768 0.804894 0.710669 0.672 0.96 0.911851
v 0.240122 0.798405 0.710687 0.672 0.96 0.911851
v 0.232641 0.791725 0.710705 0.672 0.96 0.911851
v 0.22533 0.78486 0.710721 0.672 0.96 0.911851
v 0.218194 0.777813 0.710737 0.672 0.96 0.911851
v 0.211237 0.770589 0.710753 0.672 0.96 0.911851
v 0.204464 0.763192 0.710767 0.672 0.96 0.911851
v 0.19788 0.755628 0.710781 0.672 0.96 0.911851
v 0.191487 0.7479 0.710794 0.672 0.96 0.911851
v 0.18529 0.740015 0.710806 0.672 0.96 0.911851
v 0.179294 0.731976 0.710817 0.672 0.96 0.911851
v 0.173502 0.723789 0.710827 0.672 0.96 0.911851
v 0.167917 0.715459 0.710837 0.672 0.96 0.911851
v 0.162543 0.706991 0.710846 0.672 0.96 0.911851
v 0.157384 0.698391 0.710854 0.672 0.96 0.911851
v 0.152442 0.689664 0.710861 0.672 0.96 0.911851
v 0.147721 0.680815 0.710867 0.672 0.96 0.911851
v 0.143225 0.671851 0.710872 0.672 0.96 0.911851
v 0.138955 0.662776 0.710877 0.672 0.96 0.911851
v 0.134914 0.653597 0.710881 0.672 0.96 0.911851
v 0.131105 0.64432 0.710883 0.672 0.96 0.911851
v 0.127531 0.634949 0.710885 0.672 0.96 0.911851
v 0.124193 0.625492 0.710886 0.672 0.96 0.911851
v 0.121094 0.615954 0.710887 0.672 0.96 0.911851
v 0.118235 0.606341 0.710886 0.672 0.96 0.911851
v 0.115619 0.596659 0.710884 0.672 0.96 0.911851
v 0.113247 0.586914 0.710882 0.672 0.96 0.911851
v 0.111121 0.577113 0.710879 0.672 0.96 0.911851
v 0.109242 0.567262 0.710875 0.672 0.96 0.911851
v 0.107611 0.557367 0.71087 0.672 0.96 0.911851
v 0.106229 0.547433 0.710864 0.672 0.96 0.911851
v 0.105097 0.537468 0.710857 0.672 0.96 0.911851
v 0.104216 0.527478 0.71085 0.672 0.96 0.911851
v 0.103586 0.517469 0.710841 0.672 0.96 0.911851
v 0.103208 0.507447 0.710832 0.672 0.96 0.911851
v 0.103082 0.497419 0.710822 0.672 0.96 0.911851
v 0.103208 0.487391 0.710811 0.672 0.96 0.911851
v 0.103586 0.477369 0.710799 0.672 0.96 0.911851
v 0.104216 0.467359 0.710787 0.672 0.96 0.911851
v 0.105097 0.457369 0.710774 0.672 0.96 0.911851
v 0.106229 0.447404 0.710759 0.672 0.96 0.911851
v 0.107611 0.437471 0.710745 0.672 0.96 0.911851
v 0.109242 0.427576 0.710729 0.672 0.96 0.911851
v 0.111121 0.417724 0.710712 0.672 0.96 0.911851
v 0.113247 0.407923 0.710695 0.672 0.96 0.911851
v 0.115619 0.398179 0.710677 0.672 0.96 0.911851
v 0.118235 0.388497 0.710659 0.672 0.96 0.911851
v 0.121094 0.378884 0.710639 0.672 0.96 0.911851
v 0.124193 0.369346 0.710619 0.672 0.96 0.911851
v 0.127531 0.359888 0.710598 0.672 0.96 0.911851
v 0.131105 0.350518 0.710577 0.672 0.96 0.911851
v 0.134914 0.341241 0.710555 0.672 0.96 0.911851
v 0.138955 0.332062 0.710532 0.672 0.96 0.911851
v 0.143225 0.322987 0.710508 0.672 0.96 0.911851
v 0.147721 0.314023 0.710484 0.672 0.96 0.911851
v 0.152442 0.305174 0.71046 0.672 0.96 0.911851
v 0.157384 0.296447 0.710434 0.672 0.96 0.911851
v 0.162543 0.287847 0.710408 0.672 0.96 0.911851
v 0.167917 0.279379 0.710382 0.672 0.96 0.911851
v 0.173502 0.271049 0.710355 0.672 0.96 0.911851
v 0.179294 0.262862 0.710327 0.672 0.96 0.911851
v 0.18529 0.254823 0.710299 0.672 0.96 0.911851
v 0.191487 0.246938 0.710271 0.672 0.96 0.911851
v 0.19788 0.23921 0.710242 0.672 0.96 0.911851
v 0.204464 0.231646 0.710212 0.672 0.96 0.911851
v 0.211237 0.224249 0.710182 0.672 0.96 0.911851
v 0.218194 0.217025 0.710152 0.672 0.96 0.911851
v 0.22533 0.209979 0.710121 0.672 0.96 0.911851
v 0.232641 0.203113 0.71009 0.672 0.96 0.911851
v 0.240122 0.196434 0.710059 0.672 0.96 0.911851
v 0.247768 0.189945 0.710027 0.672 0.96 0.911851
v 0.255575 0.18365 0.709995 0.672 0.96 0.911851
v 0.263538 0.177553 0.709962 0.672 0.96 0.911851
v 0.271652 0.171658 0.70993 0.672 0.96 0.911851
v 0.279911 0.165969 0.709897 0.672 0.96 0.911851
v 0.288311 0.160489 0.709863 0.672 0.96 0.911851
v 0.296845 0.155222 0.70983 0.672 0.96 0.911851
v 0.305509 0.150171 0.709796 0.672 0.96 0.911851
v 0.314298 0.14534 0.709762 0.672 0.96 0.911851
v 0.323205 0.140731 0.709728 0.672 0.96 0.911851
v 0.332225 0.136347 0.709694 0.672 0.96 0.911851
v 0.341352 0.132191 0.70966 0.672 0.96 0.911851
v 0.350581 0.128266 0.709626 0.672 0.96 0.911851
v 0.359906 0.124574 0.709591 0.672 0.96 0.911851
v 0.369321 0.121118 0.709557 0.672 0.96 0.911851
v 0.378819 0.117899 0.709522 0.672 0.96 0.911851
v 0.388395 0.11492 0.709488 0.672 0.96 0.911851
v 0.398043 0.112183 0.709453 0.672 0.96 0.911851
v 0.407757 0.109688 0.709419 0.672 0.96 0.911851
v 0.417531 0.107439 0.709384 0.672 0.96 0.911851
v 0.427358 0.105436 0.70935 0.672 0.96 0.911851
v 0.437232 0.103681 0.709316 0.672 0.96 0.911851
v 0.447147 0.102175 0.709282 0.672 0.96 0.911851
v 0.457097 0.100918 0.709248 0.672 0.96 0.911851
v 0.467075 0.0999111 0.709214 0.672 0.96 0.911851
v 0.477076 0.0991557 0.709181 0.672 0.96 0.911851
v 0.487092 0.0986519 0.709147 0.672 0.96 0.911851
v 0.497118 0.0983999 0.709114 0.672 0.96 0.911851
v 0.507147 0.0983999 0.709081 0.672 0.96 0.911851
v 0.517172 0.098652 0.709049 0.672 0.96 0.911851
v 0.527189 0.0991559 0.709016 0.672 0.96 0.911851
v 0.537189 0.0999114 0.708984 0.672 0.96 0.911851
v 0.547168 0.100918 0.708953 0.672 0.96 0.911851
v 0.557117 0.102175 0.708921 0.672 0.96 0.911851
v 0.567033 0.103682 0.708891 0.672 0.96 0.911851
v 0.576907 0.105437 0.70886 0.672 0.96 0.911851
v 0.586734 0.10744 0.70883 0.672 0.96 0.911851
v 0.596507 0.109689 0.7088 0.672 0.96 0.911851
v 0.606221 0.112183 0.708771 0.672 0.96 0.911851
v 0.615869 0.114921 0.708742 0.672 0.96 0.911851
v 0.625445 0.1179 0.708714 0.672 0.96 0.911851
v 0.634944 0.121119 0.708686 0.672 0.96 0.911851
v 0.644358 0.124575 0.708659 0.672 0.96 0.911851
v 0.653683 0.128267 0.708632 0.672 0.96 0.911851
v 0.662912 0.132192 0.708606 0.672 0.96 0.911851
v 0.672039 0.136348 0.70858 0.672 0.96 0.911851
v 0.681059 0.140732 0.708555 0.672 0.96 0.911851
v 0.689967 0.145341 0.708531 0.672 0.96 0.911851
v 0.698755 0.150172 0.708507 0.672 0.96 0.911851
v 0.707419 0.155223 0.708484 0.672 0.96 0.911851
v 0.715954 0.16049 0.708462 0.672 0.96 0.911851
v 0.724353 0.16597 0.70844 0.672 0.96 0.911851
v 0.732612 0.171659 0.708419 0.672 0.96 0.911851
v 0.740726 0.177554 0.708398 0.672 0.96 0.911851
v 0.748689 0.183651 0.708379 0.672 0.96 0.911851
v 0.756496 0.189946 0.70836 0.672 0.96 0.911851
v 0.764143 0.196436 0.708341 0.672 0.96 0.911851
v 0.771624 0.203115 0.708324 0.672 0.96 0.911851
v 0.778934 0.20998 0.708307 0.672 0.96 0.911851
v 0.78607 0.217027 0.708291 0.672 0.96 0.911851
v 0.793027 0.224251 0.708276 0.672 0.96 0.911851
v 0.7998 0.231648 0.708261 0.672 0.96 0.911851
v 0.806385 0.239212 0.708248 0.672 0.96 0.911851
v 0.812777 0.24694 0.708235 0.672 0.96 0.911851
v 0.818974 0.254826 0.708223 0.672 0.96 0.911851
v 0.82497 0.262865 0.708211 0.672 0.96 0.911851
v 0.830763 0.271052 0.708201 0.672 0.96 0.911851
v 0.836348 0.279382 0.708191 0.672 0.96 0.911851
v 0.841721 0.287849 0.708182 0.672 0.96 0.911851
v 0.846881 0.29645 0.708175 0.672 0.96 0.911851
v 0.851822 0.305177 0.708167 0.672 0.96 0.911851
v 0.856543 0.314025 0.708161 0.672 0.96 0.911851
v 0.86104 0.32299 0.708156 0.672 0.96 0.911851
v 0.86531 0.332064 0.708151 0.672 0.96 0.911851
v 0.869351 0.341243 0.708148 0.672 0.96 0.911851
v 0.873159 0.350521 0.708145 0.672 0.96 0.911851
v 0.876734 0.359891 0.708143 0.672 0.96 0.911851
v 0.880072 0.369348 0.708142 0.672 0.96 0.911851
v 0.883171 0.378886 0.708142 0.672 0.96 0.911851
v 0.886029 0.388499 0.708142 0.672 0.96 0.911851
v 0.888645 0.398181 0.708144 0.672 0.96 0.911851
v 0.891017 0.407926 0.708146 0.672 0.96 0.911851
v 0.893143 0.417727 0.70815 0.672 0.96 0.911851
v 0.895022 0.427578 0.708154 0.672 0.96 0.911851
v 0.896653 0.437474 0.708159 0.672 0.96 0.911851
v 0.898035 0.447407 0.708164 0.672 0.96 0.911851
v 0.899167 0.457372 0.708171 0.672 0.96 0.911851
v 0.900048 0.467362 0.708179 0.672 0.96 0.911851
v 0.900678 0.477371 0.708187 0.672 0.96 0.911851
v 0.901056 0.487393 0.708196 0.672 0.96 0.911851
v 0.901182 0.497421 0.708206 0.672 0.96 0.911851
f 123 42 122
f 42 129 130
f 248 42 247
f 42 4 5
f 185 42 184
f 42 191 192
f 42 66 67
f 60 42 59
f 42 156 157
f 42 160 161
f 42 222 223
f 217 42 216
f 42 98 99
f 92 42 91
f 42 31 32
f 42 34 35
f 139 42 138
f 42 145 146
f 42 176 177
f 170 42 169
f 42 238 239
f 232 42 231
f 201 42 200
f 42 207 208
f 42 114 115
f 108 42 107
f 76 42 75
f 42 82 83
f 14 42 13
f 42 20 21
f 42 50 51
f 44 42 43
f 131 42 130
f 42 137 138
f 42 153 154
f 147 42 146
f 182 42 181
f 178 42 177
f 162 42 161
f 42 168 169
f 42 246 247
f 221 42 220
f 224 42 223
f 42 230 231
f 193 42 192
f 42 199 200
f 42 215 216
f 209 42 208
f 42 121 122
f 42 117 118
f 100 42 99
f 42 106 107
f 68 42 67
f 42 74 75
f 42 90 91
f 84 42 83
f 6 42 5
f 42 12 13
f 42 28 29
f 22 42 21
f 42 58 59
f 33 42 32
f 36 42 35
f 127 42 126
f 42 133 134
f 42 141 142
f 135 42 134
f 155 42 154
f 151 42 150
f 143 42 142
f 42 149 150
f 42 187 188
f 42 183 184
f 174 42 173
f 42 180 181
f 158 42 157
f 42 164 165
f 42 172 173
f 166 42 165
f 42 250 1
f 244 42 243
f 236 42 235
f 42 242 243
f 240 42 239
f 42 226 227
f 42 234 235
f 228 42 227
f 189 42 188
f 42 195 196
f 42 203 204
f 197 42 196
f 42 219 220
f 213 42 212
f 205 42 204
f 42 211 212
f 42 125 126
f 119 42 118
f 112 42 111
f 116 42 115
f 96 42 95
f 42 102 103
f 42 110 111
f 104 42 103
f 64 42 63
f 42 70 71
f 42 78 79
f 72 42 71
f 42 94 95
f 88 42 87
f 80 42 79
f 42 86 87
f 2 42 1
f 42 8 9
f 42 16 17
f 10 42 9
f 30 42 29
f 26 42 25
f 18 42 17
f 42 24 25
f 42 62 63
f 56 42 55
f 48 42 47
f 42 54 55
f 52 42 51
f 42 38 39
f 42 46 47
f 40 42 39
f 42 127 128
f 129 42 128
f 133 42 132
f 42 131 132
f 141 42 140
f 42 139 140
f 42 135 136
f 137 42 136
f 156 42 155
f 42 151 152
f 153 42 152
f 42 143 144
f 145 42 144
f 149 42 148
f 42 147 148
f 187 42 186
f 42 185 186
f 42 182 183
f 42 174 175
f 176 42 175
f 180 42 179
f 42 178 179
f 42 158 159
f 160 42 159
f 164 42 163
f 42 162 163
f 172 42 171
f 42 170 171
f 42 166 167
f 168 42 167
f 250 42 249
f 42 248 249
f 42 244 245
f 246 42 245
f 42 236 237
f 238 42 237
f 242 42 241
f 42 240 241
f 222 42 221
f 226 42 225
f 42 224 225
f 234 42 233
f 42 232 233
f 42 228 229
f 230 42 229
f 42 189 190
f 191 42 190
f 195 42 194
f 42 193 194
f 203 42 202
f 42 201 202
f 42 197 198
f 199 42 198
f 219 42 218
f 42 217 218
f 42 213 214
f 215 42 214
f 42 205 206
f 207 42 206
f 211 42 210
f 42 209 210
f 125 42 124
f 42 123 124
f 42 119 120
f 121 42 120
f 42 112 113
f 114 42 113
f 117 42 116
f 42 96 97
f 98 42 97
f 102 42 101
f 42 100 101
f 110 42 109
f 42 108 109
f 42 104 105
f 106 42 105
f 42 64 65
f 66 42 65
f 70 42 69
f 42 68 69
f 78 42 77
f 42 76 77
f 42 72 73
f 74 42 73
f 94 42 93
f 42 92 93
f 42 88 89
f 90 42 89
f 42 80 81
f 82 42 81
f 86 42 85
f 42 84 85
f 42 2 3
f 4 42 3
f 8 42 7
f 42 6 7
f 16 42 15
f 42 14 15
f 42 10 11
f 12 42 11
f 31 42 30
f 42 26 27
f 28 42 27
f 42 18 19
f 20 42 19
f 24 42 23
f 42 22 23
f 62 42 61
f 42 60 61
f 42 56 57
f 58 42 57
f 42 48 49
f 50 42 49
f 54 42 53
f 42 52 53
f 34 42 33
f 38 42 37
f 42 36 37
f 46 42 45
f 42 44 45
f 42 40 41
