# Created by Open3D 
# object name: face_00002
# number of vertices: 151
# number of triangles: 149
v 0.0758676 0.252671 0.360364 0.840075 0.96 0.672
v 0.493903 0.00466821 0.360827 0.840075 0.96 0.672
v 0.929453 0.257653 0.358336 0.840075 0.96 0.672
v 0.929871 0.750529 0.355469 0.840075 0.96 0.672
v 0.505161 0.996271 0.355035 0.840075 0.96 0.672
v 0.0739321 0.746167 0.357499 0.840075 0.96 0.672
v 0.0758676 0.252671 0.360364 0.840075 0.96 0.672
v 0.73187 0.497138 0.357406 0.840075 0.96 0.672
v 0.731649 0.487072 0.357465 0.840075 0.96 0.672
v 0.730986 0.477026 0.357525 0.840075 0.96 0.672
v 0.729882 0.467018 0.357586 0.840075 0.96 0.672
v 0.72834 0.457068 0.357647 0.840075 0.96 0.672
v 0.726362 0.447196 0.357709 0.840075 0.96 0.672
v 0.723953 0.437421 0.357772 0.840075 0.96 0.672
v 0.721116 0.42776 0.357835 0.840075 0.96 0.672
v 0.717858 0.418234 0.357898 0.840075 0.96 0.672
v 0.714184 0.408859 0.357961 0.840075 0.96 0.672
v 0.710103 0.399656 0.358024 0.840075 0.96 0.672
v 0.70562 0.39064 0.358087 0.840075 0.96 0.672
v 0.700747 0.38183 0.35815 0.840075 0.96 0.672
v 0.695491 0.373242 0.358212 0.840075 0.96 0.672
v 0.689862 0.364894 0.358273 0.840075 0.96 0.672
v 0.683873 0.356801 0.358335 0.840075 0.96 0.672
v 0.677534 0.348979 0.358395 0.840075 0.96 0.672
v 0.670857 0.341443 0.358454 0.840075 0.96 0.672
v 0.663856 0.334207 0.358513 0.840075 0.96 0.672
v 0.656544 0.327286 0.35857 0.840075 0.96 0.672
v 0.648934 0.320693 0.358626 0.840075 0.96 0.672
v 0.641043 0.31444 0.358681 0.840075 0.96 0.672
v 0.632884 0.30854 0.358735 0.840075 0.96 0.672
v 0.624475 0.303004 0.358786 0.840075 0.96 0.672
v 0.61583 0.297843 0.358837 0.840075 0.96 0.672
v 0.606966 0.293066 0.358885 0.840075 0.96 0.672
v 0.597902 0.288684 0.358932 0.840075 0.96 0.672
v 0.588654 0.284704 0.358977 0.840075 0.96 0.672
v 0.579239 0.281133 0.35902 0.840075 0.96 0.672
v 0.569678 0.27798 0.35906 0.840075 0.96 0.672
v 0.559986 0.27525 0.359099 0.840075 0.96 0.672
v 0.550185 0.272948 0.359135 0.840075 0.96 0.672
v 0.540291 0.271079 0.359169 0.840075 0.96 0.672
v 0.530325 0.269646 0.359201 0.840075 0.96 0.672
v 0.520306 0.268653 0.35923 0.840075 0.96 0.672
v 0.510253 0.2681 0.359257 0.840075 0.96 0.672
v 0.500185 0.26799 0.359281 0.840075 0.96 0.672
v 0.490122 0.268322 0.359303 0.840075 0.96 0.672
v 0.480083 0.269095 0.359322 0.840075 0.96 0.672
v 0.470088 0.270309 0.359338 0.840075 0.96 0.672
v 0.460156 0.27196 0.359352 0.840075 0.96 0.672
v 0.450306 0.274047 0.359363 0.840075 0.96 0.672
v 0.440557 0.276564 0.359371 0.840075 0.96 0.672
v 0.430928 0.279506 0.359376 0.840075 0.96 0.672
v 0.421438 0.282869 0.359379 0.840075 0.96 0.672
v 0.412104 0.286645 0.359379 0.840075 0.96 0.672
v 0.402946 0.290828 0.359376 0.840075 0.96 0.672
v 0.39398 0.295409 0.35937 0.840075 0.96 0.672
v 0.385223 0.300379 0.359362 0.840075 0.96 0.672
v 0.376694 0.305729 0.359351 0.840075 0.96 0.672
v 0.368408 0.311449 0.359337 0.840075 0.96 0.672
v 0.360381 0.317527 0.35932 0.840075 0.96 0.672
v 0.352629 0.323952 0.359301 0.840075 0.96 0.672
v 0.345166 0.330711 0.359279 0.840075 0.96 0.672
v 0.338007 0.337791 0.359255 0.840075 0.96 0.672
v 0.331167 0.345179 0.359228 0.840075 0.96 0.672
v 0.324657 0.35286 0.359199 0.840075 0.96 0.672
v 0.318492 0.36082 0.359167 0.840075 0.96 0.672
v 0.312681 0.369042 0.359132 0.840075 0.96 0.672
v 0.307238 0.377513 0.359096 0.840075 0.96 0.672
v 0.302172 0.386214 0.359057 0.840075 0.96 0.672
v 0.297493 0.395129 0.359016 0.840075 0.96 0.672
v 0.29321 0.404241 0.358973 0.840075 0.96 0.672
v 0.289331 0.413532 0.358928 0.840075 0.96 0.672
v 0.285865 0.422985 0.358882 0.840075 0.96 0.672
v 0.282816 0.432581 0.358833 0.840075 0.96 0.672
v 0.280193 0.442301 0.358783 0.840075 0.96 0.672
v 0.277999 0.452128 0.358731 0.840075 0.96 0.672
v 0.276238 0.462041 0.358677 0.840075 0.96 0.672
v 0.274915 0.472022 0.358622 0.840075 0.96 0.672
v 0.274031 0.482051 0.358566 0.840075 0.96 0.672
v 0.273589 0.49211 0.358508 0.840075 0.96 0.672
v 0.273589 0.502178 0.35845 0.840075 0.96 0.672
v 0.274031 0.512237 0.35839 0.840075 0.96 0.672
v 0.274915 0.522266 0.35833 0.840075 0.96 0.672
v 0.276238 0.532247 0.358269 0.840075 0.96 0.672
v 0.277999 0.542161 0.358207 0.840075 0.96 0.672
v 0.280193 0.551987 0.358145 0.840075 0.96 0.672
v 0.282816 0.561707 0.358082 0.840075 0.96 0.672
v 0.285865 0.571303 0.358019 0.840075 0.96 0.672
v 0.289331 0.580756 0.357956 0.840075 0.96 0.672
v 0.29321 0.590047 0.357893 0.840075 0.96 0.672
v 0.297493 0.599159 0.35783 0.840075 0.96 0.672
v 0.302172 0.608074 0.357767 0.840075 0.96 0.672
v 0.307238 0.616775 0.357705 0.840075 0.96 0.672
v 0.312681 0.625245 0.357643 0.840075 0.96 0.672
v 0.318492 0.633467 0.357581 0.840075 0.96 0.672
v 0.324657 0.641427 0.357521 0.840075 0.96 0.672
v 0.331167 0.649108 0.357461 0.840075 0.96 0.672
v 0.338007 0.656496 0.357402 0.840075 0.96 0.672
v 0.345166 0.663576 0.357344 0.840075 0.96 0.672
v 0.352629 0.670335 0.357287 0.840075 0.96 0.672
v 0.360381 0.676759 0.357231 0.840075 0.96 0.672
v 0.368408 0.682837 0.357177 0.840075 0.96 0.672
v 0.376694 0.688556 0.357125 0.840075 0.96 0.672
v 0.385223 0.693906 0.357074 0.840075 0.96 0.672
v 0.39398 0.698876 0.357024 0.840075 0.96 0.672
v 0.402946 0.703457 0.356977 0.840075 0.96 0.672
v 0.412104 0.707639 0.356931 0.840075 0.96 0.672
v 0.421438 0.711415 0.356887 0.840075 0.96 0.672
v 0.430928 0.714778 0.356845 0.840075 0.96 0.672
v 0.440557 0.71772 0.356806 0.840075 0.96 0.672
v 0.450306 0.720237 0.356768 0.840075 0.96 0.672
v 0.460156 0.722323 0.356733 0.840075 0.96 0.672
v 0.470088 0.723974 0.3567 0.840075 0.96 0.672
v 0.480083 0.725188 0.35667 0.840075 0.96 0.672
v 0.490122 0.725961 0.356642 0.840075 0.96 0.672
v 0.500185 0.726292 0.356616 0.840075 0.96 0.672
v 0.510253 0.726182 0.356593 0.840075 0.96 0.672
v 0.520306 0.725629 0.356573 0.840075 0.96 0.672
v 0.530325 0.724635 0.356555 0.840075 0.96 0.672
v 0.540291 0.723202 0.35654 0.840075 0.96 0.672
v 0.550185 0.721333 0.356528 0.840075 0.96 0.672
v 0.559986 0.71903 0.356518 0.840075 0.96 0.672
v 0.569678 0.7163 0.356512 0.840075 0.96 0.672
v 0.579239 0.713147 0.356507 0.840075 0.96 0.672
v 0.588654 0.709576 0.356506 0.840075 0.96 0.672
v 0.597902 0.705596 0.356508 0.840075 0.96 0.672
v 0.606966 0.701213 0.356512 0.840075 0.96 0.672
v 0.61583 0.696436 0.356519 0.840075 0.96 0.672
v 0.624475 0.691275 0.356529 0.840075 0.96 0.672
v 0.632884 0.685738 0.356541 0.840075 0.96 0.672
v 0.641043 0.679838 0.356556 0.840075 0.96 0.672
v 0.648934 0.673585 0.356574 0.840075 0.96 0.672
v 0.656544 0.666992 0.356595 0.840075 0.96 0.672
v 0.663856 0.660071 0.356618 0.840075 0.96 0.672
v 0.670857 0.652835 0.356644 0.840075 0.96 0.672
v 0.677534 0.645298 0.356672 0.840075 0.96 0.672
v 0.683873 0.637476 0.356702 0.840075 0.96 0.672
v 0.689862 0.629383 0.356736 0.840075 0.96 0.672
v 0.695491 0.621034 0.356771 0.840075 0.96 0.672
v 0.700747 0.612447 0.356809 0.840075 0.96 0.672
v 0.70562 0.603637 0.356848 0.840075 0.96 0.672
v 0.710103 0.594621 0.35689 0.840075 0.96 0.672
v 0.714184 0.585417 0.356934 0.840075 0.96 0.672
v 0.717858 0.576043 0.35698 0.840075 0.96 0.672
v 0.721116 0.566516 0.357028 0.840075 0.96 0.672
v 0.723953 0.556855 0.357077 0.840075 0.96 0.672
v 0.726362 0.54708 0.357129 0.840075 0.96 0.672
v 0.72834 0.537207 0.357181 0.840075 0.96 0.672
v 0.729882 0.527258 0.357236 0.840075 0.96 0.672
v 0.730986 0.51725 0.357291 0.840075 0.96 0.672
v 0.731649 0.507204 0.357348 0.840075 0.96 0.672
v 0.73187 0.497138 0.357406 0.840075 0.96 0.672
f 5 103 6
f 3 8 4
f 32 3 2
f 7 56 2
f 80 7 6
f 127 5 4
f 128 127 4
f 120 119 5
f 119 118 5
f 117 116 5
f 118 117 5
f 113 112 5
f 114 113 5
f 116 115 5
f 115 114 5
f 104 103 5
f 105 104 5
f 108 107 5
f 112 111 5
f 111 110 5
f 109 108 5
f 110 109 5
f 85 84 6
f 84 83 6
f 83 82 6
f 139 138 4
f 136 135 4
f 131 130 4
f 135 134 4
f 134 133 4
f 130 129 4
f 129 128 4
f 127 126 5
f 142 141 4
f 143 142 4
f 144 143 4
f 8 150 4
f 150 149 4
f 147 146 4
f 18 17 3
f 15 14 3
f 11 10 3
f 14 13 3
f 44 43 2
f 39 38 2
f 35 34 2
f 38 37 2
f 23 22 3
f 26 25 3
f 32 31 3
f 27 26 3
f 45 44 2
f 48 47 2
f 56 55 2
f 51 50 2
f 67 7 68
f 65 64 7
f 59 58 7
f 60 59 7
f 106 105 5
f 107 106 5
f 103 102 6
f 102 101 6
f 101 100 6
f 95 94 6
f 96 95 6
f 98 97 6
f 97 96 6
f 86 85 6
f 87 86 6
f 89 88 6
f 88 87 6
f 94 93 6
f 90 89 6
f 91 90 6
f 81 80 6
f 82 81 6
f 7 69 68
f 72 71 7
f 78 77 7
f 75 74 7
f 141 140 4
f 140 139 4
f 138 137 4
f 137 136 4
f 133 132 4
f 132 131 4
f 121 120 5
f 122 121 5
f 124 123 5
f 123 122 5
f 125 124 5
f 126 125 5
f 146 145 4
f 145 144 4
f 149 148 4
f 148 147 4
f 19 3 20
f 19 18 3
f 17 16 3
f 16 15 3
f 9 8 3
f 10 9 3
f 12 11 3
f 13 12 3
f 42 41 2
f 43 42 2
f 41 40 2
f 40 39 2
f 33 32 2
f 34 33 2
f 36 35 2
f 37 36 2
f 3 21 20
f 22 21 3
f 24 23 3
f 25 24 3
f 30 29 3
f 31 30 3
f 29 28 3
f 28 27 3
f 47 46 2
f 46 45 2
f 50 49 2
f 49 48 2
f 54 53 2
f 55 54 2
f 53 52 2
f 52 51 2
f 66 65 7
f 67 66 7
f 63 62 7
f 64 63 7
f 57 56 7
f 58 57 7
f 62 61 7
f 61 60 7
f 99 98 6
f 100 99 6
f 92 91 6
f 93 92 6
f 71 70 7
f 70 69 7
f 74 73 7
f 73 72 7
f 80 79 7
f 79 78 7
f 77 76 7
f 76 75 7
