# Created by Open3D 
# object name: face_00009
# number of vertices: 157
# number of triangles: 155
v 0.928821 0.374381 0.647145 0.672 0.852335 0.96
v 0.928988 0.573979 0.646671 0.672 0.852335 0.96
v 0.792005 0.82581 0.644827 0.672 0.852335 0.96
v 0.60369 0.934798 0.642855 0.672 0.852335 0.96
v 0.397409 0.934768 0.64098 0.672 0.852335 0.96
v 0.204285 0.822751 0.63949 0.672 0.852335 0.96
v 0.0723218 0.664875 0.638666 0.672 0.852335 0.96
v 0.0734744 0.372729 0.639371 0.672 0.852335 0.96
v 0.180632 0.191521 0.640777 0.672 0.852335 0.96
v 0.35555 0.0877552 0.642614 0.672 0.852335 0.96
v 0.634799 0.0792706 0.645173 0.672 0.852335 0.96
v 0.815637 0.184247 0.646568 0.672 0.852335 0.96
v 0.928821 0.374381 0.647145 0.672 0.852335 0.96
v 0.730654 0.497783 0.645049 0.672 0.852335 0.96
v 0.730433 0.507849 0.645023 0.672 0.852335 0.96
v 0.72977 0.517896 0.644993 0.672 0.852335 0.96
v 0.728666 0.527903 0.64496 0.672 0.852335 0.96
v 0.727124 0.537853 0.644922 0.672 0.852335 0.96
v 0.725146 0.547725 0.64488 0.672 0.852335 0.96
v 0.722737 0.557501 0.644835 0.672 0.852335 0.96
v 0.7199 0.567162 0.644786 0.672 0.852335 0.96
v 0.716642 0.576688 0.644734 0.672 0.852335 0.96
v 0.712969 0.586063 0.644678 0.672 0.852335 0.96
v 0.708887 0.595267 0.644619 0.672 0.852335 0.96
v 0.704405 0.604282 0.644557 0.672 0.852335 0.96
v 0.699532 0.613092 0.644492 0.672 0.852335 0.96
v 0.694276 0.62168 0.644424 0.672 0.852335 0.96
v 0.688648 0.630028 0.644353 0.672 0.852335 0.96
v 0.682659 0.638121 0.644279 0.672 0.852335 0.96
v 0.67632 0.645944 0.644203 0.672 0.852335 0.96
v 0.669644 0.65348 0.644124 0.672 0.852335 0.96
v 0.662643 0.660716 0.644043 0.672 0.852335 0.96
v 0.655331 0.667637 0.64396 0.672 0.852335 0.96
v 0.647722 0.67423 0.643875 0.672 0.852335 0.96
v 0.63983 0.680483 0.643789 0.672 0.852335 0.96
v 0.631672 0.686383 0.643701 0.672 0.852335 0.96
v 0.623263 0.691919 0.643611 0.672 0.852335 0.96
v 0.614618 0.69708 0.64352 0.672 0.852335 0.96
v 0.605755 0.701856 0.643428 0.672 0.852335 0.96
v 0.596691 0.706239 0.643335 0.672 0.852335 0.96
v 0.587443 0.710219 0.643242 0.672 0.852335 0.96
v 0.578029 0.713789 0.643148 0.672 0.852335 0.96
v 0.568468 0.716942 0.643053 0.672 0.852335 0.96
v 0.558777 0.719673 0.642959 0.672 0.852335 0.96
v 0.548976 0.721974 0.642864 0.672 0.852335 0.96
v 0.539082 0.723843 0.64277 0.672 0.852335 0.96
v 0.529117 0.725276 0.642676 0.672 0.852335 0.96
v 0.519098 0.72627 0.642582 0.672 0.852335 0.96
v 0.509045 0.726822 0.642489 0.672 0.852335 0.96
v 0.498978 0.726933 0.642398 0.672 0.852335 0.96
v 0.488915 0.726601 0.642307 0.672 0.852335 0.96
v 0.478877 0.725827 0.642217 0.672 0.852335 0.96
v 0.468882 0.724613 0.642129 0.672 0.852335 0.96
v 0.45895 0.722961 0.642043 0.672 0.852335 0.96
v 0.449101 0.720875 0.641958 0.672 0.852335 0.96
v 0.439352 0.718358 0.641876 0.672 0.852335 0.96
v 0.429724 0.715415 0.641795 0.672 0.852335 0.96
v 0.420234 0.712052 0.641717 0.672 0.852335 0.96
v 0.4109 0.708276 0.641641 0.672 0.852335 0.96
v 0.401742 0.704093 0.641568 0.672 0.852335 0.96
v 0.392777 0.699512 0.641497 0.672 0.852335 0.96
v 0.384021 0.694542 0.641429 0.672 0.852335 0.96
v 0.375492 0.689191 0.641365 0.672 0.852335 0.96
v 0.367206 0.683472 0.641303 0.672 0.852335 0.96
v 0.359179 0.677394 0.641244 0.672 0.852335 0.96
v 0.351427 0.670969 0.641189 0.672 0.852335 0.96
v 0.343965 0.66421 0.641137 0.672 0.852335 0.96
v 0.336807 0.657129 0.641089 0.672 0.852335 0.96
v 0.329966 0.649741 0.641045 0.672 0.852335 0.96
v 0.323457 0.64206 0.641004 0.672 0.852335 0.96
v 0.317292 0.6341 0.640966 0.672 0.852335 0.96
v 0.311482 0.625877 0.640933 0.672 0.852335 0.96
v 0.306038 0.617407 0.640904 0.672 0.852335 0.96
v 0.300972 0.608705 0.640879 0.672 0.852335 0.96
v 0.296294 0.59979 0.640857 0.672 0.852335 0.96
v 0.292011 0.590678 0.64084 0.672 0.852335 0.96
v 0.288132 0.581386 0.640827 0.672 0.852335 0.96
v 0.284666 0.571933 0.640818 0.672 0.852335 0.96
v 0.281618 0.562337 0.640813 0.672 0.852335 0.96
v 0.278994 0.552617 0.640812 0.672 0.852335 0.96
v 0.2768 0.54279 0.640816 0.672 0.852335 0.96
v 0.27504 0.532877 0.640823 0.672 0.852335 0.96
v 0.273716 0.522896 0.640835 0.672 0.852335 0.96
v 0.272833 0.512866 0.640851 0.672 0.852335 0.96
v 0.27239 0.502807 0.640871 0.672 0.852335 0.96
v 0.27239 0.492739 0.640895 0.672 0.852335 0.96
v 0.272833 0.48268 0.640923 0.672 0.852335 0.96
v 0.273716 0.47265 0.640954 0.672 0.852335 0.96
v 0.27504 0.462669 0.64099 0.672 0.852335 0.96
v 0.2768 0.452756 0.64103 0.672 0.852335 0.96
v 0.278994 0.44293 0.641073 0.672 0.852335 0.96
v 0.281618 0.433209 0.64112 0.672 0.852335 0.96
v 0.284666 0.423613 0.641171 0.672 0.852335 0.96
v 0.288132 0.41416 0.641225 0.672 0.852335 0.96
v 0.292011 0.404869 0.641282 0.672 0.852335 0.96
v 0.296294 0.395757 0.641343 0.672 0.852335 0.96
v 0.300972 0.386842 0.641406 0.672 0.852335 0.96
v 0.306038 0.378141 0.641473 0.672 0.852335 0.96
v 0.311482 0.369671 0.641543 0.672 0.852335 0.96
v 0.317292 0.361448 0.641615 0.672 0.852335 0.96
v 0.323457 0.353489 0.64169 0.672 0.852335 0.96
v 0.329966 0.345808 0.641768 0.672 0.852335 0.96
v 0.336807 0.33842 0.641847 0.672 0.852335 0.96
v 0.343965 0.33134 0.641929 0.672 0.852335 0.96
v 0.351427 0.324581 0.642013 0.672 0.852335 0.96
v 0.359179 0.318156 0.642099 0.672 0.852335 0.96
v 0.367206 0.312078 0.642186 0.672 0.852335 0.96
v 0.375492 0.306359 0.642275 0.672 0.852335 0.96
v 0.384021 0.301009 0.642366 0.672 0.852335 0.96
v 0.392777 0.296039 0.642457 0.672 0.852335 0.96
v 0.401742 0.291459 0.64255 0.672 0.852335 0.96
v 0.4109 0.287276 0.642643 0.672 0.852335 0.96
v 0.420234 0.2835 0.642737 0.672 0.852335 0.96
v 0.429724 0.280138 0.642831 0.672 0.852335 0.96
v 0.439352 0.277195 0.642925 0.672 0.852335 0.96
v 0.449101 0.274679 0.64302 0.672 0.852335 0.96
v 0.45895 0.272593 0.643115 0.672 0.852335 0.96
v 0.468882 0.270941 0.643209 0.672 0.852335 0.96
v 0.478877 0.269728 0.643303 0.672 0.852335 0.96
v 0.488915 0.268955 0.643396 0.672 0.852335 0.96
v 0.498978 0.268623 0.643488 0.672 0.852335 0.96
v 0.509045 0.268734 0.643579 0.672 0.852335 0.96
v 0.519098 0.269287 0.643669 0.672 0.852335 0.96
v 0.529117 0.270281 0.643758 0.672 0.852335 0.96
v 0.539082 0.271714 0.643845 0.672 0.852335 0.96
v 0.548976 0.273584 0.643931 0.672 0.852335 0.96
v 0.558777 0.275886 0.644014 0.672 0.852335 0.96
v 0.568468 0.278616 0.644096 0.672 0.852335 0.96
v 0.578029 0.28177 0.644176 0.672 0.852335 0.96
v 0.587443 0.285341 0.644253 0.672 0.852335 0.96
v 0.596691 0.289321 0.644327 0.672 0.852335 0.96
v 0.605755 0.293704 0.644399 0.672 0.852335 0.96
v 0.614618 0.298481 0.644468 0.672 0.852335 0.96
v 0.623263 0.303643 0.644535 0.672 0.852335 0.96
v 0.631672 0.309179 0.644598 0.672 0.852335 0.96
v 0.63983 0.315079 0.644658 0.672 0.852335 0.96
v 0.647722 0.321332 0.644715 0.672 0.852335 0.96
v 0.655331 0.327926 0.644769 0.672 0.852335 0.96
v 0.662643 0.334847 0.644819 0.672 0.852335 0.96
v 0.669644 0.342083 0.644865 0.672 0.852335 0.96
v 0.67632 0.34962 0.644908 0.672 0.852335 0.96
v 0.682659 0.357442 0.644947 0.672 0.852335 0.96
v 0.688648 0.365536 0.644982 0.672 0.852335 0.96
v 0.694276 0.373884 0.645013 0.672 0.852335 0.96
v 0.699532 0.382472 0.645041 0.672 0.852335 0.96
v 0.704405 0.391283 0.645064 0.672 0.852335 0.96
v 0.708887 0.400298 0.645083 0.672 0.852335 0.96
v 0.712969 0.409503 0.645099 0.672 0.852335 0.96
v 0.716642 0.418877 0.64511 0.672 0.852335 0.96
v 0.7199 0.428404 0.645117 0.672 0.852335 0.96
v 0.722737 0.438064 0.645119 0.672 0.852335 0.96
v 0.725146 0.44784 0.645118 0.672 0.852335 0.96
v 0.727124 0.457713 0.645113 0.672 0.852335 0.96
v 0.728666 0.467662 0.645103 0.672 0.852335 0.96
v 0.72977 0.47767 0.645089 0.672 0.852335 0.96
v 0.730433 0.487717 0.645071 0.672 0.852335 0.96
v 0.730654 0.497783 0.645049 0.672 0.852335 0.96
f 12 134 11
f 135 134 12
f 145 12 1
f 74 73 7
f 71 70 6
f 121 10 11
f 155 1 2
f 80 79 7
f 79 78 7
f 77 76 7
f 78 77 7
f 76 75 7
f 75 74 7
f 67 66 6
f 68 67 6
f 70 69 6
f 69 68 6
f 72 71 6
f 72 6 7
f 73 72 7
f 10 108 9
f 3 26 2
f 136 135 12
f 137 136 12
f 140 139 12
f 143 142 12
f 141 140 12
f 142 141 12
f 128 127 11
f 124 123 11
f 127 126 11
f 97 8 9
f 138 137 12
f 139 138 12
f 145 144 12
f 144 143 12
f 146 145 1
f 150 149 1
f 149 148 1
f 153 152 1
f 151 150 1
f 152 151 1
f 5 50 4
f 39 3 4
f 134 133 11
f 133 132 11
f 131 130 11
f 132 131 11
f 130 129 11
f 129 128 11
f 122 121 11
f 123 122 11
f 125 124 11
f 126 125 11
f 115 114 10
f 109 108 10
f 112 111 10
f 8 84 7
f 97 96 8
f 148 147 1
f 147 146 1
f 155 154 1
f 154 153 1
f 19 18 2
f 20 19 2
f 121 120 10
f 120 119 10
f 118 117 10
f 119 118 10
f 117 116 10
f 116 115 10
f 111 110 10
f 110 109 10
f 114 113 10
f 113 112 10
f 88 87 8
f 85 84 8
f 95 94 8
f 96 95 8
f 156 155 2
f 14 156 2
f 16 15 2
f 15 14 2
f 17 16 2
f 18 17 2
f 26 25 2
f 25 24 2
f 23 22 2
f 24 23 2
f 22 21 2
f 21 20 2
f 47 46 4
f 48 47 4
f 50 49 4
f 49 48 4
f 40 39 4
f 94 93 8
f 93 92 8
f 91 90 8
f 92 91 8
f 90 89 8
f 89 88 8
f 81 80 7
f 82 81 7
f 84 83 7
f 83 82 7
f 87 86 8
f 86 85 8
f 106 105 9
f 105 104 9
f 98 97 9
f 102 101 9
f 101 100 9
f 61 5 6
f 62 61 6
f 46 45 4
f 45 44 4
f 43 42 4
f 44 43 4
f 42 41 4
f 41 40 4
f 27 26 3
f 32 31 3
f 35 34 3
f 108 107 9
f 107 106 9
f 103 102 9
f 104 103 9
f 100 99 9
f 99 98 9
f 51 50 5
f 52 51 5
f 54 53 5
f 53 52 5
f 58 57 5
f 57 56 5
f 55 54 5
f 56 55 5
f 66 65 6
f 65 64 6
f 63 62 6
f 64 63 6
f 59 58 5
f 29 28 3
f 28 27 3
f 30 29 3
f 31 30 3
f 39 38 3
f 38 37 3
f 36 35 3
f 37 36 3
f 33 32 3
f 34 33 3
f 61 60 5
f 60 59 5
