# Created by Open3D 
# object name: face_00004
# number of vertices: 7
# number of triangles: 6
v 0.856749 0.0599415 -0.00107422 0.672 0.96 0.911851
v 0.879386 0.073769 0.0829469 0.672 0.96 0.911851
v 0.925465 0.0265815 0.995296 0.672 0.96 0.911851
v 0.98116 0.0816097 0.995303 0.672 0.96 0.911851
v 0.94955 0.116629 0.343381 0.672 0.96 0.911851
v 0.932865 0.135114 -0.00074324 0.672 0.96 0.911851
v 0.875146 0.0781105 -0.000994222 0.672 0.96 0.911851
f 3 5 4
f 3 2 5
f 7 2 1
f 5 2 6
f 2 7 6
f 2 3 7
