# Created by Open3D 
# object name: face_00012
# number of vertices: 15
# number of triangles: 19
v 0.925465 0.0265815 0.995296 0.672 0.96 0.815553
v 0.0691035 0.0241582 0.993556 0.672 0.96 0.815553
v 0.0275678 0.0240407 0.993472 0.672 0.96 0.815553
v 0.0273136 0.0743245 0.993374 0.672 0.96 0.815553
v 0.0264878 0.237639 0.993056 0.672 0.96 0.815553
v 0.023174 0.893001 0.991779 0.672 0.96 0.815553
v 0.0229995 0.927502 0.991711 0.672 0.96 0.815553
v 0.0227563 0.975601 0.991618 0.672 0.96 0.815553
v 0.0780432 0.974211 0.991733 0.672 0.96 0.815553
v 0.748841 0.969797 0.993108 0.672 0.96 0.815553
v 0.813135 0.976601 0.993226 0.672 0.96 0.815553
v 0.921385 0.97906 0.993441 0.672 0.96 0.815553
v 0.978436 0.912094 0.993687 0.672 0.96 0.815553
v 0.980687 0.225724 0.995022 0.672 0.96 0.815553
v 0.98116 0.0816097 0.995303 0.672 0.96 0.815553
f 10 6 5
f 2 1 5
f 14 10 5
f 1 14 5
f 14 1 15
f 14 13 10
f 9 6 10
f 2 4 3
f 4 2 5
f 7 9 8
f 9 7 6
f 13 11 10
f 12 11 13
f 12 11 14
f 11 10 14
f 12 11 12
f 8 9 8
f 9 10 9
f 11 12 11
