# Created by Open3D 
# object name: face_00003
# number of vertices: 12
# number of triangles: 22
v 0.748833 0.976499 0.992728 0.96 0.672 0.924112
v 0.0780415 0.975665 0.99163 0.96 0.672 0.924112
v 0.08087 0.974221 0.966064 0.96 0.672 0.924112
v 0.0759411 0.919999 0.00859183 0.96 0.672 0.924112
v 0.0227563 0.975601 0.991618 0.96 0.672 0.924112
v 0.920385 0.972937 0.926343 0.96 0.672 0.924112
v 0.921388 0.976745 0.993572 0.96 0.672 0.924112
v 0.813135 0.976601 0.993226 0.96 0.672 0.924112
v 0.89714 0.943234 0.402249 0.96 0.672 0.924112
v 0.881965 0.920754 0.0055457 0.96 0.672 0.924112
v 0.122238 0.920043 0.00842738 0.96 0.672 0.924112
v 0.910361 0.968966 0.856414 0.96 0.672 0.924112
f 3 2 1
f 4 5 2
f 4 2 3
f 4 3 6
f 4 6 7
f 4 7 8
f 4 8 9
f 4 9 10
f 4 10 11
f 4 11 4
f 3 1 9
f 3 9 10
f 1 12 9
f 8 12 1
f 6 8 7
f 6 12 8
f 9 1 8
f 4 3 11
f 1 8 6
f 3 1 6
f 6 12 1
f 12 6 9
