# Created by Open3D 
# object name: face_00007
# number of vertices: 12
# number of triangles: 12
v 0.856749 0.0599415 -0.00107422 0.684261 0.96 0.672
v 0.875146 0.0781105 -0.000994222 0.684261 0.96 0.672
v 0.932865 0.135114 -0.00074324 0.684261 0.96 0.672
v 0.930835 0.860471 0.00507205 0.684261 0.96 0.672
v 0.881969 0.917923 0.00570602 0.684261 0.96 0.672
v 0.122238 0.920043 0.00842738 0.684261 0.96 0.672
v 0.0759411 0.919999 0.00859183 0.684261 0.96 0.672
v 0.0761596 0.880927 0.00827819 0.684261 0.96 0.672
v 0.076454 0.828298 0.00785573 0.684261 0.96 0.672
v 0.0803823 0.125974 0.00221811 0.684261 0.96 0.672
v 0.125625 0.0717556 0.00162293 0.684261 0.96 0.672
v 0.0804523 0.0728315 0.00179234 0.684261 0.96 0.672
f 2 1 10
f 9 2 10
f 1 11 10
f 6 5 9
f 5 4 9
f 2 4 3
f 4 2 9
f 6 8 7
f 8 6 9
f 10 12 9
f 10 2 11
f 2 1 11
