# Created by Open3D 
# object name: face_00006
# number of vertices: 12
# number of triangles: 19
v 0.0669216 0.112874 0.253621 0.743776 0.672 0.96
v 0.0803823 0.125974 0.00221811 0.743776 0.672 0.96
v 0.076454 0.828298 0.00785573 0.743776 0.672 0.96
v 0.0759411 0.919999 0.00859183 0.743776 0.672 0.96
v 0.0227563 0.975601 0.991618 0.743776 0.672 0.96
v 0.0229995 0.927502 0.991711 0.743776 0.672 0.96
v 0.023174 0.893001 0.991779 0.743776 0.672 0.96
v 0.0264878 0.237639 0.993056 0.743776 0.672 0.96
v 0.0273136 0.0743245 0.993374 0.743776 0.672 0.96
v 0.0275678 0.0240407 0.993472 0.743776 0.672 0.96
v 0.0804664 0.0727998 0.00575432 0.743776 0.672 0.96
v 0.0761596 0.880927 0.00827819 0.743776 0.672 0.96
f 1 11 10
f 1 3 2
f 9 1 10
f 9 8 1
f 8 7 1
f 7 3 1
f 4 6 5
f 7 6 4
f 12 7 4
f 12 7 6
f 11 1 2
f 3 7 12
f 5 6 8
f 6 5 12
f 1 7 2
f 8 1 10
f 4 12 5
f 4 5 5
f 4 12 4
