# Created by Open3D 
# object name: face_00004
# number of vertices: 8
# number of triangles: 6
v 0.999437 0.97049 0.21415 0.672 0.96 0.911851
v 0.434206 0.971199 0.216503 0.672 0.96 0.911851
v 0.0117218 0.97173 0.218262 0.672 0.96 0.911851
v 0.0132034 0.544849 0.217342 0.672 0.96 0.911851
v 0.0149656 0.0370989 0.216248 0.672 0.96 0.911851
v 0.423668 0.030655 0.214534 0.672 0.96 0.911851
v 0.429508 0.551874 0.215625 0.672 0.96 0.911851
v 0.996236 0.561436 0.213288 0.672 0.96 0.911851
f 2 7 3
f 8 2 1
f 2 8 7
f 7 4 3
f 5 4 6
f 4 7 6
