# Created by Open3D 
# object name: lines
# number of vertices: 798
# number of triangles: 1520
v 0.00173499 0.962944 0.777356 0 0 1
v 0.0117218 0.97173 0.218262 0 0 1
v 0.00673419 0.962943 0.777446 0 0 1
v 0.00526946 0.966479 0.777475 0 0 1
v 0.00173428 0.967943 0.777435 0 0 1
v -0.00180048 0.96648 0.777349 0 0 1
v -0.00326422 0.962945 0.777267 0 0 1
v -0.00179949 0.959409 0.777238 0 0 1
v 0.00173569 0.957945 0.777278 0 0 1
v 0.00527045 0.959408 0.777364 0 0 1
v 0.00923089 0.96514 0.637672 0 0 1
v 0.00776616 0.968675 0.637701 0 0 1
v 0.00423098 0.97014 0.637661 0 0 1
v 0.00069622 0.968676 0.637575 0 0 1
v -0.000767516 0.965141 0.637493 0 0 1
v 0.000697212 0.961606 0.637464 0 0 1
v 0.00423239 0.960141 0.637504 0 0 1
v 0.00776715 0.961605 0.63759 0 0 1
v 0.0117276 0.967336 0.497898 0 0 1
v 0.0102629 0.970872 0.497928 0 0 1
v 0.00672769 0.972336 0.497888 0 0 1
v 0.00319292 0.970873 0.497801 0 0 1
v 0.00172918 0.967338 0.49772 0 0 1
v 0.00319391 0.963802 0.49769 0 0 1
v 0.00672909 0.962338 0.497731 0 0 1
v 0.0102639 0.963801 0.497817 0 0 1
v 0.0142243 0.969533 0.358125 0 0 1
v 0.0127596 0.973068 0.358154 0 0 1
v 0.00922439 0.974533 0.358114 0 0 1
v 0.00568962 0.973069 0.358028 0 0 1
v 0.00422589 0.969534 0.357946 0 0 1
v 0.00569061 0.965999 0.357917 0 0 1
v 0.00922579 0.964534 0.357957 0 0 1
v 0.0127606 0.965998 0.358043 0 0 1
v 0.016721 0.971729 0.218351 0 0 1
v 0.0152563 0.975265 0.21838 0 0 1
v 0.0117211 0.976729 0.21834 0 0 1
v 0.00818632 0.975265 0.218254 0 0 1
v 0.00672259 0.971731 0.218172 0 0 1
v 0.00818732 0.968195 0.218143 0 0 1
v 0.0117225 0.966731 0.218183 0 0 1
v 0.0152573 0.968194 0.218269 0 0 1
v 0.434206 0.971199 0.216503 0 0 1
v 0.432784 0.962378 0.777132 0 0 1
v 0.438953 0.969628 0.21649 0 0 1
v 0.436452 0.966732 0.216438 0 0 1
v 0.432635 0.966453 0.216424 0 0 1
v 0.429739 0.968954 0.216456 0 0 1
v 0.429459 0.97277 0.216515 0 0 1
v 0.431961 0.975666 0.216567 0 0 1
v 0.435777 0.975945 0.216581 0 0 1
v 0.438673 0.973444 0.216549 0 0 1
v 0.438597 0.967423 0.356647 0 0 1
v 0.436096 0.964527 0.356595 0 0 1
v 0.43228 0.964248 0.356581 0 0 1
v 0.429383 0.966749 0.356613 0 0 1
v 0.429104 0.970565 0.356673 0 0 1
v 0.431605 0.973461 0.356725 0 0 1
v 0.435422 0.97374 0.356739 0 0 1
v 0.438318 0.971239 0.356707 0 0 1
v 0.438242 0.965218 0.496805 0 0 1
v 0.435741 0.962322 0.496753 0 0 1
v 0.431924 0.962043 0.496739 0 0 1
v 0.429028 0.964544 0.496771 0 0 1
v 0.428748 0.96836 0.49683 0 0 1
v 0.43125 0.971256 0.496882 0 0 1
v 0.435066 0.971535 0.496896 0 0 1
v 0.437962 0.969034 0.496864 0 0 1
v 0.437886 0.963012 0.636962 0 0 1
v 0.435385 0.960116 0.63691 0 0 1
v 0.431569 0.959837 0.636896 0 0 1
v 0.428672 0.962338 0.636928 0 0 1
v 0.428393 0.966154 0.636987 0 0 1
v 0.430894 0.96905 0.637039 0 0 1
v 0.434711 0.969329 0.637053 0 0 1
v 0.437607 0.966828 0.637021 0 0 1
v 0.437531 0.960807 0.777119 0 0 1
v 0.43503 0.957911 0.777067 0 0 1
v 0.431213 0.957632 0.777053 0 0 1
v 0.428317 0.960133 0.777085 0 0 1
v 0.428037 0.963949 0.777145 0 0 1
v 0.430539 0.966845 0.777196 0 0 1
v 0.434355 0.967124 0.77721 0 0 1
v 0.437251 0.964623 0.777178 0 0 1
v 0.0117218 0.97173 0.218262 0 0 1
v 0.999437 0.97049 0.21415 0 0 1
v 0.0117426 0.971736 0.223262 0 0 1
v 0.0117409 0.97527 0.221793 0 0 1
v 0.011728 0.97673 0.218255 0 0 1
v 0.0117115 0.975261 0.214722 0 0 1
v 0.011701 0.971724 0.213262 0 0 1
v 0.0117026 0.96819 0.214731 0 0 1
v 0.0117155 0.96673 0.218268 0 0 1
v 0.0117321 0.968199 0.221802 0 0 1
v 0.258671 0.971426 0.222234 0 0 1
v 0.25867 0.97496 0.220765 0 0 1
v 0.258657 0.97642 0.217227 0 0 1
v 0.25864 0.974951 0.213694 0 0 1
v 0.25863 0.971414 0.212234 0 0 1
v 0.258631 0.96788 0.213703 0 0 1
v 0.258644 0.96642 0.21724 0 0 1
v 0.258661 0.967889 0.220774 0 0 1
v 0.5056 0.971116 0.221206 0 0 1
v 0.505599 0.97465 0.219737 0 0 1
v 0.505586 0.97611 0.216199 0 0 1
v 0.505569 0.974641 0.212666 0 0 1
v 0.505559 0.971103 0.211206 0 0 1
v 0.50556 0.96757 0.212675 0 0 1
v 0.505573 0.96611 0.216212 0 0 1
v 0.50559 0.967579 0.219746 0 0 1
v 0.752529 0.970806 0.220178 0 0 1
v 0.752527 0.97434 0.218709 0 0 1
v 0.752515 0.9758 0.215171 0 0 1
v 0.752498 0.974331 0.211638 0 0 1
v 0.752487 0.970793 0.210178 0 0 1
v 0.752489 0.96726 0.211647 0 0 1
v 0.752502 0.9658 0.215184 0 0 1
v 0.752519 0.967269 0.218718 0 0 1
v 0.999458 0.970496 0.21915 0 0 1
v 0.999456 0.974029 0.217681 0 0 1
v 0.999443 0.97549 0.214143 0 0 1
v 0.999427 0.974021 0.21061 0 0 1
v 0.999416 0.970483 0.20915 0 0 1
v 0.999418 0.96695 0.210619 0 0 1
v 0.999431 0.96549 0.214156 0 0 1
v 0.999447 0.966958 0.21769 0 0 1
v 0.999437 0.97049 0.21415 0 0 1
v 0.491585 0.962301 0.777101 0 0 1
v 0.995727 0.970349 0.210801 0 0 1
v 0.996714 0.973924 0.211743 0 0 1
v 0.999297 0.975487 0.214096 0 0 1
v 1.00196 0.974123 0.21648 0 0 1
v 1.00315 0.97063 0.217499 0 0 1
v 1.00216 0.967055 0.216556 0 0 1
v 0.999578 0.965492 0.214204 0 0 1
v 0.996913 0.966856 0.21182 0 0 1
v 0.868764 0.968302 0.351539 0 0 1
v 0.869751 0.971877 0.352481 0 0 1
v 0.872334 0.97344 0.354834 0 0 1
v 0.874998 0.972076 0.357217 0 0 1
v 0.876184 0.968583 0.358237 0 0 1
v 0.875197 0.965008 0.357294 0 0 1
v 0.872615 0.963445 0.354942 0 0 1
v 0.86995 0.964809 0.352558 0 0 1
v 0.741801 0.966255 0.492276 0 0 1
v 0.742788 0.96983 0.493219 0 0 1
v 0.745371 0.971393 0.495571 0 0 1
v 0.748035 0.970028 0.497955 0 0 1
v 0.749221 0.966536 0.498974 0 0 1
v 0.748234 0.962961 0.498032 0 0 1
v 0.745652 0.961397 0.495679 0 0 1
v 0.742987 0.962762 0.493296 0 0 1
v 0.614838 0.964208 0.633014 0 0 1
v 0.615825 0.967783 0.633957 0 0 1
v 0.618408 0.969346 0.636309 0 0 1
v 0.621072 0.967981 0.638693 0 0 1
v 0.622258 0.964488 0.639712 0 0 1
v 0.621271 0.960913 0.63877 0 0 1
v 0.618689 0.95935 0.636417 0 0 1
v 0.616024 0.960715 0.634033 0 0 1
v 0.487875 0.96216 0.773752 0 0 1
v 0.488862 0.965735 0.774695 0 0 1
v 0.491445 0.967299 0.777047 0 0 1
v 0.494109 0.965934 0.779431 0 0 1
v 0.495295 0.962441 0.78045 0 0 1
v 0.494308 0.958866 0.779507 0 0 1
v 0.491726 0.957303 0.777155 0 0 1
v 0.489061 0.958668 0.774771 0 0 1
v 0.491585 0.962301 0.777101 0 0 1
v 0.00173499 0.962944 0.777356 0 0 1
v 0.491582 0.962307 0.772101 0 0 1
v 0.491588 0.965841 0.77357 0 0 1
v 0.491592 0.967301 0.777108 0 0 1
v 0.491592 0.965832 0.780641 0 0 1
v 0.491588 0.962294 0.782101 0 0 1
v 0.491582 0.958761 0.780632 0 0 1
v 0.491579 0.957301 0.777095 0 0 1
v 0.491579 0.95877 0.773561 0 0 1
v 0.36912 0.962468 0.772165 0 0 1
v 0.369125 0.966002 0.773634 0 0 1
v 0.369129 0.967462 0.777172 0 0 1
v 0.369129 0.965993 0.780705 0 0 1
v 0.369125 0.962455 0.782165 0 0 1
v 0.36912 0.958921 0.780696 0 0 1
v 0.369116 0.957462 0.777158 0 0 1
v 0.369116 0.958931 0.773625 0 0 1
v 0.246657 0.962629 0.772229 0 0 1
v 0.246663 0.966163 0.773698 0 0 1
v 0.246667 0.967622 0.777235 0 0 1
v 0.246667 0.966153 0.780769 0 0 1
v 0.246663 0.962616 0.782229 0 0 1
v 0.246657 0.959082 0.78076 0 0 1
v 0.246653 0.957622 0.777222 0 0 1
v 0.246654 0.959092 0.773689 0 0 1
v 0.124195 0.96279 0.772293 0 0 1
v 0.1242 0.966323 0.773762 0 0 1
v 0.124204 0.967783 0.777299 0 0 1
v 0.124204 0.966314 0.780833 0 0 1
v 0.1242 0.962777 0.782293 0 0 1
v 0.124195 0.959243 0.780824 0 0 1
v 0.124191 0.957783 0.777286 0 0 1
v 0.124191 0.959252 0.773752 0 0 1
v 0.00173239 0.962951 0.772356 0 0 1
v 0.00173779 0.966484 0.773826 0 0 1
v 0.00174155 0.967944 0.777363 0 0 1
v 0.00174147 0.966475 0.780897 0 0 1
v 0.00173758 0.962938 0.782356 0 0 1
v 0.00173218 0.959404 0.780887 0 0 1
v 0.00172842 0.957944 0.77735 0 0 1
v 0.0017285 0.959413 0.773816 0 0 1
v 0.00332286 0.542273 0.769315 0 0 1
v 0.0149656 0.0370989 0.216248 0 0 1
v 0.00832217 0.542303 0.769393 0 0 1
v 0.00687922 0.544905 0.766986 0 0 1
v 0.00335301 0.545965 0.765943 0 0 1
v -0.000190866 0.544862 0.766876 0 0 1
v -0.00167644 0.542243 0.769237 0 0 1
v -0.000233498 0.539641 0.771644 0 0 1
v 0.00329272 0.538581 0.772687 0 0 1
v 0.00683659 0.539684 0.771754 0 0 1
v 0.0112329 0.41601 0.631126 0 0 1
v 0.00978991 0.418611 0.628719 0 0 1
v 0.0062637 0.419671 0.627677 0 0 1
v 0.00271983 0.418569 0.628609 0 0 1
v 0.00123425 0.415949 0.630971 0 0 1
v 0.0026772 0.413347 0.633377 0 0 1
v 0.00620341 0.412287 0.63442 0 0 1
v 0.00974728 0.41339 0.633487 0 0 1
v 0.0141436 0.289716 0.492859 0 0 1
v 0.0127006 0.292318 0.490452 0 0 1
v 0.0091744 0.293378 0.48941 0 0 1
v 0.00563052 0.292275 0.490342 0 0 1
v 0.00414495 0.289656 0.492704 0 0 1
v 0.00558789 0.287054 0.495111 0 0 1
v 0.00911411 0.285994 0.496153 0 0 1
v 0.012658 0.287097 0.495221 0 0 1
v 0.0170543 0.163423 0.354593 0 0 1
v 0.0156113 0.166024 0.352186 0 0 1
v 0.0120851 0.167084 0.351143 0 0 1
v 0.00854122 0.165982 0.352076 0 0 1
v 0.00705564 0.163362 0.354437 0 0 1
v 0.00849859 0.16076 0.356844 0 0 1
v 0.0120248 0.1597 0.357887 0 0 1
v 0.0155687 0.160803 0.356954 0 0 1
v 0.0199649 0.037129 0.216326 0 0 1
v 0.018522 0.0397308 0.213919 0 0 1
v 0.0149958 0.0407909 0.212877 0 0 1
v 0.0114519 0.0396882 0.213809 0 0 1
v 0.00996634 0.0370687 0.216171 0 0 1
v 0.0114093 0.0344669 0.218577 0 0 1
v 0.0149355 0.0334069 0.21962 0 0 1
v 0.0184794 0.0345096 0.218687 0 0 1
v 0.0149656 0.0370989 0.216248 0 0 1
v 0.0117218 0.97173 0.218262 0 0 1
v 0.0199656 0.0371163 0.216231 0 0 1
v 0.0185134 0.0371036 0.219771 0 0 1
v 0.014983 0.0370882 0.221248 0 0 1
v 0.0114424 0.037079 0.219796 0 0 1
v 0.0099657 0.0370815 0.216266 0 0 1
v 0.0114179 0.0370942 0.212725 0 0 1
v 0.0149483 0.0371096 0.211248 0 0 1
v 0.0184888 0.0371188 0.2127 0 0 1
v 0.0191546 0.270774 0.216734 0 0 1
v 0.0177025 0.270761 0.220275 0 0 1
v 0.0141721 0.270746 0.221752 0 0 1
v 0.0106315 0.270737 0.220299 0 0 1
v 0.00915474 0.270739 0.216769 0 0 1
v 0.0106069 0.270752 0.213228 0 0 1
v 0.0141373 0.270767 0.211752 0 0 1
v 0.0176779 0.270777 0.213204 0 0 1
v 0.0183437 0.504432 0.217238 0 0 1
v 0.0168915 0.504419 0.220778 0 0 1
v 0.0133611 0.504404 0.222255 0 0 1
v 0.00982052 0.504395 0.220803 0 0 1
v 0.00834378 0.504397 0.217272 0 0 1
v 0.00979593 0.50441 0.213732 0 0 1
v 0.0133263 0.504425 0.212255 0 0 1
v 0.0168669 0.504434 0.213707 0 0 1
v 0.0175327 0.73809 0.217741 0 0 1
v 0.0160805 0.738077 0.221282 0 0 1
v 0.0125501 0.738061 0.222758 0 0 1
v 0.00900956 0.738052 0.221306 0 0 1
v 0.00753281 0.738055 0.217776 0 0 1
v 0.00898496 0.738067 0.214235 0 0 1
v 0.0125154 0.738083 0.212758 0 0 1
v 0.0160559 0.738092 0.214211 0 0 1
v 0.0167217 0.971747 0.218244 0 0 1
v 0.0152696 0.971735 0.221785 0 0 1
v 0.0117392 0.971719 0.223262 0 0 1
v 0.0081986 0.97171 0.221809 0 0 1
v 0.00672185 0.971713 0.218279 0 0 1
v 0.008174 0.971725 0.214738 0 0 1
v 0.0117044 0.971741 0.213262 0 0 1
v 0.015245 0.97175 0.214714 0 0 1
v 0.00332286 0.542273 0.769315 0 0 1
v 0.0132034 0.544849 0.217342 0 0 1
v 0.00832206 0.542273 0.769404 0 0 1
v 0.00685768 0.545808 0.769395 0 0 1
v 0.00332265 0.547273 0.769338 0 0 1
v -0.000212254 0.545808 0.769268 0 0 1
v -0.00167634 0.542273 0.769225 0 0 1
v -0.000211959 0.538738 0.769235 0 0 1
v 0.00332307 0.537273 0.769292 0 0 1
v 0.00685798 0.538737 0.769362 0 0 1
v 0.0107922 0.542917 0.631411 0 0 1
v 0.00932781 0.546452 0.631401 0 0 1
v 0.00579278 0.547917 0.631345 0 0 1
v 0.00225787 0.546453 0.631275 0 0 1
v 0.000793791 0.542917 0.631232 0 0 1
v 0.00225817 0.539382 0.631242 0 0 1
v 0.0057932 0.537917 0.631298 0 0 1
v 0.00932811 0.539381 0.631368 0 0 1
v 0.0132623 0.543561 0.493418 0 0 1
v 0.0117979 0.547096 0.493408 0 0 1
v 0.00826291 0.548561 0.493352 0 0 1
v 0.004728 0.547097 0.493282 0 0 1
v 0.00326392 0.543561 0.493239 0 0 1
v 0.0047283 0.540026 0.493249 0 0 1
v 0.00826333 0.538561 0.493305 0 0 1
v 0.0117982 0.540025 0.493375 0 0 1
v 0.0157324 0.544205 0.355425 0 0 1
v 0.0142681 0.547741 0.355415 0 0 1
v 0.010733 0.549205 0.355359 0 0 1
v 0.00719813 0.547741 0.355288 0 0 1
v 0.00573405 0.544205 0.355246 0 0 1
v 0.00719843 0.54067 0.355255 0 0 1
v 0.0107335 0.539205 0.355312 0 0 1
v 0.0142684 0.54067 0.355382 0 0 1
v 0.0182026 0.544849 0.217432 0 0 1
v 0.0167382 0.548385 0.217422 0 0 1
v 0.0132032 0.549849 0.217365 0 0 1
v 0.00966826 0.548385 0.217295 0 0 1
v 0.00820418 0.54485 0.217253 0 0 1
v 0.00966856 0.541314 0.217262 0 0 1
v 0.0132036 0.539849 0.217319 0 0 1
v 0.0167385 0.541314 0.217389 0 0 1
v 0.00173499 0.962944 0.777356 0 0 1
v 0.00332286 0.542273 0.769315 0 0 1
v 0.00673492 0.962963 0.777375 0 0 1
v 0.00528356 0.963025 0.773835 0 0 1
v 0.0017535 0.96304 0.772357 0 0 1
v -0.00178741 0.962999 0.773808 0 0 1
v -0.00326494 0.962926 0.777338 0 0 1
v -0.00181359 0.962863 0.780878 0 0 1
v 0.00171647 0.962848 0.782356 0 0 1
v 0.00525738 0.96289 0.780905 0 0 1
v 0.00713188 0.857795 0.775365 0 0 1
v 0.00568053 0.857857 0.771825 0 0 1
v 0.00215047 0.857872 0.770347 0 0 1
v -0.00139044 0.857831 0.771798 0 0 1
v -0.00286798 0.857758 0.775327 0 0 1
v -0.00141662 0.857696 0.778868 0 0 1
v 0.00211344 0.857681 0.780345 0 0 1
v 0.00565435 0.857722 0.778894 0 0 1
v 0.00752885 0.752627 0.773355 0 0 1
v 0.0060775 0.752689 0.769814 0 0 1
v 0.00254744 0.752704 0.768337 0 0 1
v -0.000993471 0.752663 0.769787 0 0 1
v -0.00247101 0.75259 0.773317 0 0 1
v -0.00101965 0.752528 0.776857 0 0 1
v 0.00251041 0.752513 0.778335 0 0 1
v 0.00605132 0.752554 0.776884 0 0 1
v 0.00792582 0.647459 0.771344 0 0 1
v 0.00647447 0.647521 0.767804 0 0 1
v 0.0029444 0.647536 0.766326 0 0 1
v -0.000596502 0.647495 0.767777 0 0 1
v -0.00207404 0.647422 0.771306 0 0 1
v -0.000622683 0.64736 0.774847 0 0 1
v 0.00290738 0.647345 0.776324 0 0 1
v 0.00644829 0.647386 0.774874 0 0 1
v 0.00832279 0.542291 0.769334 0 0 1
v 0.00687144 0.542354 0.765793 0 0 1
v 0.00334137 0.542368 0.764316 0 0 1
v -0.000199533 0.542327 0.765767 0 0 1
v -0.00167707 0.542254 0.769296 0 0 1
v -0.000225714 0.542192 0.772836 0 0 1
v 0.00330435 0.542177 0.774314 0 0 1
v 0.00684526 0.542218 0.772863 0 0 1
v 0.428123 0.545235 0.771294 0 0 1
v 0.423668 0.030655 0.214534 0 0 1
v 0.433123 0.545223 0.771265 0 0 1
v 0.43165 0.547823 0.768874 0 0 1
v 0.428111 0.548907 0.767901 0 0 1
v 0.424579 0.547839 0.768915 0 0 1
v 0.423123 0.545246 0.771324 0 0 1
v 0.424595 0.542646 0.773715 0 0 1
v 0.428134 0.541563 0.774688 0 0 1
v 0.431666 0.54263 0.773673 0 0 1
v 0.432009 0.416578 0.632075 0 0 1
v 0.430536 0.419178 0.629684 0 0 1
v 0.426998 0.420262 0.628711 0 0 1
v 0.423466 0.419194 0.629725 0 0 1
v 0.422009 0.416601 0.632134 0 0 1
v 0.423482 0.414001 0.634525 0 0 1
v 0.427021 0.412918 0.635498 0 0 1
v 0.430553 0.413985 0.634483 0 0 1
v 0.430896 0.287933 0.492885 0 0 1
v 0.429423 0.290533 0.490494 0 0 1
v 0.425884 0.291617 0.489521 0 0 1
v 0.422352 0.290549 0.490535 0 0 1
v 0.420896 0.287956 0.492944 0 0 1
v 0.422368 0.285357 0.495335 0 0 1
v 0.425907 0.284273 0.496308 0 0 1
v 0.429439 0.28534 0.495293 0 0 1
v 0.429782 0.159288 0.353695 0 0 1
v 0.428309 0.161888 0.351304 0 0 1
v 0.424771 0.162972 0.35033 0 0 1
v 0.421238 0.161905 0.351345 0 0 1
v 0.419782 0.159311 0.353753 0 0 1
v 0.421255 0.156712 0.356145 0 0 1
v 0.424794 0.155628 0.357118 0 0 1
v 0.428326 0.156695 0.356103 0 0 1
v 0.428668 0.0306435 0.214505 0 0 1
v 0.427196 0.0332434 0.212114 0 0 1
v 0.423657 0.034327 0.21114 0 0 1
v 0.420125 0.0332596 0.212155 0 0 1
v 0.418669 0.0306665 0.214563 0 0 1
v 0.420141 0.0280667 0.216954 0 0 1
v 0.42368 0.0269831 0.217928 0 0 1
v 0.427212 0.0280505 0.216913 0 0 1
v 0.423668 0.030655 0.214534 0 0 1
v 0.0149656 0.0370989 0.216248 0 0 1
v 0.423649 0.0307342 0.209535 0 0 1
v 0.42371 0.0342457 0.211055 0 0 1
v 0.423748 0.0356538 0.214613 0 0 1
v 0.423738 0.0341337 0.218125 0 0 1
v 0.423688 0.0305759 0.219533 0 0 1
v 0.423626 0.0270644 0.218013 0 0 1
v 0.423589 0.0256563 0.214455 0 0 1
v 0.423599 0.0271764 0.210943 0 0 1
v 0.321473 0.0323451 0.209963 0 0 1
v 0.321535 0.0358566 0.211483 0 0 1
v 0.321572 0.0372648 0.215041 0 0 1
v 0.321563 0.0357447 0.218553 0 0 1
v 0.321512 0.0321869 0.219962 0 0 1
v 0.321451 0.0286754 0.218442 0 0 1
v 0.321414 0.0272673 0.214884 0 0 1
v 0.321423 0.0287873 0.211372 0 0 1
v 0.219297 0.0339561 0.210392 0 0 1
v 0.219359 0.0374676 0.211912 0 0 1
v 0.219396 0.0388757 0.21547 0 0 1
v 0.219387 0.0373557 0.218982 0 0 1
v 0.219337 0.0337978 0.22039 0 0 1
v 0.219275 0.0302864 0.21887 0 0 1
v 0.219238 0.0288782 0.215312 0 0 1
v 0.219247 0.0303983 0.2118 0 0 1
v 0.117122 0.0355671 0.21082 0 0 1
v 0.117183 0.0390785 0.21234 0 0 1
v 0.11722 0.0404867 0.215898 0 0 1
v 0.117211 0.0389666 0.21941 0 0 1
v 0.117161 0.0354088 0.220819 0 0 1
v 0.117099 0.0318973 0.219299 0 0 1
v 0.117062 0.0304892 0.215741 0 0 1
v 0.117071 0.0320092 0.212229 0 0 1
v 0.0149459 0.037178 0.211249 0 0 1
v 0.0150077 0.0406895 0.212769 0 0 1
v 0.0150448 0.0420976 0.216327 0 0 1
v 0.0150355 0.0405776 0.219839 0 0 1
v 0.0149854 0.0370197 0.221248 0 0 1
v 0.0149236 0.0335083 0.219728 0 0 1
v 0.0148865 0.0321001 0.216169 0 0 1
v 0.0148957 0.0336202 0.212657 0 0 1
v 0.492271 0.545713 0.771881 0 0 1
v 0.00332286 0.542273 0.769315 0 0 1
v 0.492298 0.545678 0.766881 0 0 1
v 0.492265 0.549224 0.76832 0 0 1
v 0.492236 0.550713 0.771846 0 0 1
v 0.492228 0.549273 0.775391 0 0 1
v 0.492245 0.545748 0.77688 0 0 1
v 0.492277 0.542203 0.775441 0 0 1
v 0.492306 0.540714 0.771916 0 0 1
v 0.492315 0.542153 0.76837 0 0 1
v 0.370061 0.544818 0.766239 0 0 1
v 0.370028 0.548364 0.767679 0 0 1
v 0.369999 0.549853 0.771204 0 0 1
v 0.369991 0.548413 0.77475 0 0 1
v 0.370008 0.544888 0.776239 0 0 1
v 0.37004 0.541343 0.7748 0 0 1
v 0.370069 0.539853 0.771274 0 0 1
v 0.370078 0.541293 0.767729 0 0 1
v 0.247824 0.543958 0.765598 0 0 1
v 0.247791 0.547504 0.767038 0 0 1
v 0.247762 0.548993 0.770563 0 0 1
v 0.247754 0.547553 0.774108 0 0 1
v 0.247771 0.544028 0.775598 0 0 1
v 0.247803 0.540482 0.774158 0 0 1
v 0.247832 0.538993 0.770633 0 0 1
v 0.247841 0.540433 0.767087 0 0 1
v 0.125586 0.543098 0.764957 0 0 1
v 0.125554 0.546644 0.766396 0 0 1
v 0.125525 0.548133 0.769921 0 0 1
v 0.125517 0.546693 0.773467 0 0 1
v 0.125533 0.543168 0.774956 0 0 1
v 0.125566 0.539622 0.773517 0 0 1
v 0.125595 0.538133 0.769992 0 0 1
v 0.125603 0.539573 0.766446 0 0 1
v 0.00334934 0.542238 0.764315 0 0 1
v 0.00331684 0.545783 0.765755 0 0 1
v 0.00328786 0.547273 0.76928 0 0 1
v 0.00327939 0.545833 0.772825 0 0 1
v 0.00329638 0.542308 0.774315 0 0 1
v 0.00332888 0.538762 0.772875 0 0 1
v 0.00335786 0.537273 0.76935 0 0 1
v 0.00336633 0.538713 0.765804 0 0 1
v 0.434206 0.971199 0.216503 0 0 1
v 0.423668 0.030655 0.214534 0 0 1
v 0.439205 0.971143 0.216447 0 0 1
v 0.437702 0.971168 0.212928 0 0 1
v 0.43415 0.97121 0.211503 0 0 1
v 0.430631 0.971247 0.213007 0 0 1
v 0.429207 0.971255 0.216559 0 0 1
v 0.430711 0.971231 0.220078 0 0 1
v 0.434262 0.971188 0.221502 0 0 1
v 0.437781 0.971152 0.219998 0 0 1
v 0.436571 0.736007 0.215955 0 0 1
v 0.435067 0.736032 0.212436 0 0 1
v 0.431516 0.736074 0.211011 0 0 1
v 0.427997 0.736111 0.212515 0 0 1
v 0.426572 0.736119 0.216067 0 0 1
v 0.428076 0.736095 0.219586 0 0 1
v 0.431628 0.736052 0.22101 0 0 1
v 0.435146 0.736016 0.219506 0 0 1
v 0.433937 0.500871 0.215462 0 0 1
v 0.432433 0.500896 0.211944 0 0 1
v 0.428881 0.500938 0.210519 0 0 1
v 0.425363 0.500975 0.212023 0 0 1
v 0.423938 0.500983 0.215574 0 0 1
v 0.425442 0.500959 0.219093 0 0 1
v 0.428993 0.500916 0.220518 0 0 1
v 0.432512 0.50088 0.219014 0 0 1
v 0.431302 0.265735 0.21497 0 0 1
v 0.429798 0.265759 0.211451 0 0 1
v 0.426247 0.265802 0.210027 0 0 1
v 0.422728 0.265838 0.211531 0 0 1
v 0.421304 0.265847 0.215082 0 0 1
v 0.422807 0.265823 0.218601 0 0 1
v 0.426359 0.26578 0.220026 0 0 1
v 0.429877 0.265744 0.218522 0 0 1
v 0.428668 0.0305992 0.214478 0 0 1
v 0.427164 0.0306234 0.210959 0 0 1
v 0.423613 0.0306661 0.209534 0 0 1
v 0.420094 0.0307024 0.211038 0 0 1
v 0.418669 0.0307109 0.21459 0 0 1
v 0.420173 0.0306867 0.218109 0 0 1
v 0.423724 0.030644 0.219534 0 0 1
v 0.427243 0.0306077 0.21803 0 0 1
v 0.429508 0.551874 0.215625 0 0 1
v 0.428123 0.545235 0.771294 0 0 1
v 0.434091 0.549874 0.215613 0 0 1
v 0.431335 0.547219 0.215574 0 0 1
v 0.427508 0.547291 0.215565 0 0 1
v 0.424854 0.550047 0.215592 0 0 1
v 0.424925 0.553873 0.215638 0 0 1
v 0.427682 0.556528 0.215676 0 0 1
v 0.431508 0.556456 0.215685 0 0 1
v 0.434162 0.5537 0.215658 0 0 1
v 0.433744 0.548214 0.35453 0 0 1
v 0.430988 0.54556 0.354491 0 0 1
v 0.427162 0.545631 0.354483 0 0 1
v 0.424507 0.548387 0.354509 0 0 1
v 0.424579 0.552213 0.354555 0 0 1
v 0.427335 0.554868 0.354593 0 0 1
v 0.431161 0.554796 0.354602 0 0 1
v 0.433816 0.55204 0.354576 0 0 1
v 0.433398 0.546554 0.493447 0 0 1
v 0.430642 0.5439 0.493409 0 0 1
v 0.426816 0.543972 0.4934 0 0 1
v 0.424161 0.546728 0.493426 0 0 1
v 0.424233 0.550554 0.493472 0 0 1
v 0.426989 0.553208 0.493511 0 0 1
v 0.430815 0.553136 0.493519 0 0 1
v 0.43347 0.55038 0.493493 0 0 1
v 0.433052 0.544895 0.632365 0 0 1
v 0.430296 0.54224 0.632326 0 0 1
v 0.426469 0.542312 0.632317 0 0 1
v 0.423815 0.545068 0.632344 0 0 1
v 0.423886 0.548894 0.632389 0 0 1
v 0.426642 0.551548 0.632428 0 0 1
v 0.430469 0.551477 0.632437 0 0 1
v 0.433123 0.548721 0.63241 0 0 1
v 0.432705 0.543235 0.771282 0 0 1
v 0.429949 0.54058 0.771243 0 0 1
v 0.426123 0.540652 0.771235 0 0 1
v 0.423468 0.543408 0.771261 0 0 1
v 0.42354 0.547234 0.771307 0 0 1
v 0.426296 0.549889 0.771345 0 0 1
v 0.430122 0.549817 0.771354 0 0 1
v 0.432777 0.547061 0.771328 0 0 1
v 0.428123 0.545235 0.771294 0 0 1
v 0.432784 0.962378 0.777132 0 0 1
v 0.433122 0.545178 0.77135 0 0 1
v 0.431618 0.545146 0.774869 0 0 1
v 0.428066 0.545165 0.776293 0 0 1
v 0.424548 0.545226 0.77479 0 0 1
v 0.423123 0.545291 0.771238 0 0 1
v 0.424628 0.545324 0.76772 0 0 1
v 0.428179 0.545304 0.766295 0 0 1
v 0.431698 0.545244 0.767799 0 0 1
v 0.434287 0.649464 0.77281 0 0 1
v 0.432783 0.649431 0.776328 0 0 1
v 0.429231 0.649451 0.777753 0 0 1
v 0.425713 0.649512 0.776249 0 0 1
v 0.424289 0.649577 0.772698 0 0 1
v 0.425793 0.64961 0.769179 0 0 1
v 0.429345 0.64959 0.767754 0 0 1
v 0.432863 0.649529 0.769258 0 0 1
v 0.435453 0.75375 0.774269 0 0 1
v 0.433948 0.753717 0.777788 0 0 1
v 0.430397 0.753737 0.779212 0 0 1
v 0.426878 0.753797 0.777709 0 0 1
v 0.425454 0.753863 0.774157 0 0 1
v 0.426958 0.753895 0.770639 0 0 1
v 0.43051 0.753876 0.769214 0 0 1
v 0.434029 0.753815 0.770718 0 0 1
v 0.436618 0.858036 0.775728 0 0 1
v 0.435114 0.858003 0.779247 0 0 1
v 0.431562 0.858023 0.780672 0 0 1
v 0.428044 0.858083 0.779168 0 0 1
v 0.426619 0.858149 0.775617 0 0 1
v 0.428124 0.858181 0.772098 0 0 1
v 0.431675 0.858162 0.770673 0 0 1
v 0.435194 0.858101 0.772177 0 0 1
v 0.437783 0.962321 0.777188 0 0 1
v 0.436279 0.962289 0.780706 0 0 1
v 0.432727 0.962309 0.782131 0 0 1
v 0.429209 0.962369 0.780627 0 0 1
v 0.427785 0.962435 0.777076 0 0 1
v 0.429289 0.962467 0.773557 0 0 1
v 0.432841 0.962447 0.772133 0 0 1
v 0.436359 0.962387 0.773636 0 0 1
v 0.0132034 0.544849 0.217342 0 0 1
v 0.996236 0.561436 0.213288 0 0 1
v 0.0132254 0.544765 0.222341 0 0 1
v 0.0131596 0.548325 0.220937 0 0 1
v 0.0131194 0.549848 0.217426 0 0 1
v 0.0131284 0.548443 0.213867 0 0 1
v 0.0131813 0.544933 0.212343 0 0 1
v 0.0132472 0.541374 0.213747 0 0 1
v 0.0132874 0.539851 0.217258 0 0 1
v 0.0132783 0.541256 0.220817 0 0 1
v 0.258984 0.548912 0.221328 0 0 1
v 0.258918 0.552471 0.219923 0 0 1
v 0.258878 0.553995 0.216413 0 0 1
v 0.258887 0.55259 0.212853 0 0 1
v 0.25894 0.54908 0.211329 0 0 1
v 0.259005 0.545521 0.212734 0 0 1
v 0.259046 0.543997 0.216244 0 0 1
v 0.259037 0.545402 0.219804 0 0 1
v 0.504742 0.553059 0.220314 0 0 1
v 0.504676 0.556618 0.218909 0 0 1
v 0.504636 0.558141 0.215399 0 0 1
v 0.504645 0.556736 0.211839 0 0 1
v 0.504698 0.553226 0.210316 0 0 1
v 0.504764 0.549667 0.21172 0 0 1
v 0.504804 0.548144 0.215231 0 0 1
v 0.504795 0.549549 0.21879 0 0 1
v 0.7505 0.557205 0.219301 0 0 1
v 0.750434 0.560764 0.217896 0 0 1
v 0.750394 0.562288 0.214386 0 0 1
v 0.750403 0.560883 0.210826 0 0 1
v 0.750456 0.557373 0.209302 0 0 1
v 0.750522 0.553814 0.210707 0 0 1
v 0.750562 0.55229 0.214217 0 0 1
v 0.750553 0.553695 0.217777 0 0 1
v 0.996258 0.561352 0.218287 0 0 1
v 0.996192 0.564911 0.216882 0 0 1
v 0.996152 0.566434 0.213372 0 0 1
v 0.996161 0.56503 0.209812 0 0 1
v 0.996214 0.56152 0.208288 0 0 1
v 0.99628 0.55796 0.209693 0 0 1
v 0.99632 0.556437 0.213203 0 0 1
v 0.996311 0.557842 0.216763 0 0 1
v 0.996236 0.561436 0.213288 0 0 1
v 0.999437 0.97049 0.21415 0 0 1
v 1.00124 0.561396 0.213327 0 0 1
v 0.999744 0.561401 0.216851 0 0 1
v 0.996197 0.561425 0.218288 0 0 1
v 0.992673 0.561456 0.216795 0 0 1
v 0.991237 0.561475 0.213249 0 0 1
v 0.992729 0.561471 0.209725 0 0 1
v 0.996275 0.561446 0.208288 0 0 1
v 0.999799 0.561415 0.20978 0 0 1
v 1.00204 0.66366 0.213542 0 0 1
v 1.00054 0.663664 0.217066 0 0 1
v 0.996997 0.663689 0.218503 0 0 1
v 0.993473 0.66372 0.217011 0 0 1
v 0.992037 0.663738 0.213464 0 0 1
v 0.993529 0.663734 0.20994 0 0 1
v 0.997076 0.663709 0.208503 0 0 1
v 1.0006 0.663679 0.209995 0 0 1
v 1.00284 0.765923 0.213758 0 0 1
v 1.00134 0.765928 0.217282 0 0 1
v 0.997797 0.765952 0.218718 0 0 1
v 0.994274 0.765983 0.217226 0 0 1
v 0.992837 0.766002 0.21368 0 0 1
v 0.994329 0.765998 0.210156 0 0 1
v 0.997876 0.765973 0.208719 0 0 1
v 1.0014 0.765942 0.210211 0 0 1
v 1.00364 0.868187 0.213973 0 0 1
v 1.00214 0.868191 0.217497 0 0 1
v 0.998598 0.868216 0.218934 0 0 1
v 0.995074 0.868247 0.217442 0 0 1
v 0.993637 0.868265 0.213895 0 0 1
v 0.995129 0.868261 0.210371 0 0 1
v 0.998676 0.868236 0.208934 0 0 1
v 1.0022 0.868206 0.210426 0 0 1
v 1.00444 0.97045 0.214189 0 0 1
v 1.00294 0.970455 0.217713 0 0 1
v 0.999398 0.970479 0.219149 0 0 1
v 0.995874 0.97051 0.217657 0 0 1
v 0.994437 0.970529 0.214111 0 0 1
v 0.99593 0.970525 0.210587 0 0 1
v 0.999476 0.9705 0.20915 0 0 1
v 1.003 0.970469 0.210642 0 0 1
v 0.492271 0.545713 0.771881 0 0 1
v 0.996236 0.561436 0.213288 0 0 1
v 0.495984 0.545673 0.775229 0 0 1
v 0.494868 0.54922 0.774322 0 0 1
v 0.492231 0.550712 0.771985 0 0 1
v 0.489618 0.549276 0.769587 0 0 1
v 0.488559 0.545754 0.768532 0 0 1
v 0.489674 0.542207 0.769439 0 0 1
v 0.492312 0.540715 0.771776 0 0 1
v 0.494925 0.54215 0.774175 0 0 1
v 0.621975 0.549604 0.635581 0 0 1
v 0.62086 0.55315 0.634674 0 0 1
v 0.618222 0.554643 0.632337 0 0 1
v 0.615609 0.553207 0.629938 0 0 1
v 0.61455 0.549684 0.628884 0 0 1
v 0.615666 0.546138 0.629791 0 0 1
v 0.618303 0.544645 0.632128 0 0 1
v 0.620916 0.546081 0.634526 0 0 1
v 0.747967 0.553534 0.495933 0 0 1
v 0.746851 0.557081 0.495026 0 0 1
v 0.744214 0.558573 0.492689 0 0 1
v 0.7416 0.557138 0.49029 0 0 1
v 0.740541 0.553615 0.489236 0 0 1
v 0.741657 0.550068 0.490142 0 0 1
v 0.744294 0.548576 0.49248 0 0 1
v 0.746908 0.550011 0.494878 0 0 1
v 0.873958 0.557465 0.356285 0 0 1
v 0.872842 0.561011 0.355378 0 0 1
v 0.870205 0.562504 0.35304 0 0 1
v 0.867591 0.561068 0.350642 0 0 1
v 0.866532 0.557545 0.349587 0 0 1
v 0.867648 0.553999 0.350494 0 0 1
v 0.870285 0.552506 0.352831 0 0 1
v 0.872899 0.553942 0.35523 0 0 1
v 0.999949 0.561395 0.216636 0 0 1
v 0.998833 0.564942 0.215729 0 0 1
v 0.996196 0.566434 0.213392 0 0 1
v 0.993582 0.564999 0.210994 0 0 1
v 0.992523 0.561476 0.209939 0 0 1
v 0.993639 0.557929 0.210846 0 0 1
v 0.996276 0.556437 0.213183 0 0 1
v 0.99889 0.557873 0.215582 0 0 1
v 0.492271 0.545713 0.771881 0 0 1
v 0.491585 0.962301 0.777101 0 0 1
v 0.497271 0.545722 0.771872 0 0 1
v 0.495813 0.545675 0.77541 0 0 1
v 0.49228 0.545651 0.77688 0 0 1
v 0.488742 0.545663 0.775422 0 0 1
v 0.487271 0.545705 0.771889 0 0 1
v 0.48873 0.545752 0.768351 0 0 1
v 0.492263 0.545776 0.766881 0 0 1
v 0.495801 0.545764 0.76834 0 0 1
v 0.4971 0.649869 0.773178 0 0 1
v 0.495641 0.649822 0.776715 0 0 1
v 0.492108 0.649798 0.778185 0 0 1
v 0.48857 0.64981 0.776727 0 0 1
v 0.4871 0.649852 0.773194 0 0 1
v 0.488558 0.649899 0.769656 0 0 1
v 0.492091 0.649923 0.768186 0 0 1
v 0.495629 0.64991 0.769645 0 0 1
v 0.496928 0.754015 0.774483 0 0 1
v 0.49547 0.753969 0.77802 0 0 1
v 0.491937 0.753944 0.779491 0 0 1
v 0.488399 0.753957 0.778032 0 0 1
v 0.486928 0.753999 0.774499 0 0 1
v 0.488387 0.754045 0.770962 0 0 1
v 0.49192 0.75407 0.769491 0 0 1
v 0.495458 0.754057 0.77095 0 0 1
v 0.496757 0.858162 0.775788 0 0 1
v 0.495298 0.858116 0.779325 0 0 1
v 0.491765 0.858091 0.780796 0 0 1
v 0.488227 0.858104 0.779337 0 0 1
v 0.486757 0.858146 0.775804 0 0 1
v 0.488215 0.858192 0.772267 0 0 1
v 0.491748 0.858217 0.770796 0 0 1
v 0.495286 0.858204 0.772255 0 0 1
v 0.496585 0.962309 0.777093 0 0 1
v 0.495127 0.962262 0.780631 0 0 1
v 0.491593 0.962238 0.782101 0 0 1
v 0.488055 0.962251 0.780642 0 0 1
v 0.486585 0.962293 0.777109 0 0 1
v 0.488044 0.962339 0.773572 0 0 1
v 0.491577 0.962363 0.772102 0 0 1
v 0.495115 0.962351 0.77356 0 0 1
f 1 3 4
f 2 36 35
f 1 4 5
f 2 37 36
f 1 5 6
f 2 38 37
f 1 6 7
f 2 39 38
f 1 7 8
f 2 40 39
f 1 8 9
f 2 41 40
f 1 9 10
f 2 42 41
f 1 10 3
f 2 35 42
f 11 4 3
f 11 12 4
f 12 5 4
f 12 13 5
f 13 6 5
f 13 14 6
f 14 7 6
f 14 15 7
f 15 8 7
f 15 16 8
f 16 9 8
f 16 17 9
f 17 10 9
f 17 18 10
f 18 3 10
f 18 11 3
f 19 12 11
f 19 20 12
f 20 13 12
f 20 21 13
f 21 14 13
f 21 22 14
f 22 15 14
f 22 23 15
f 23 16 15
f 23 24 16
f 24 17 16
f 24 25 17
f 25 18 17
f 25 26 18
f 26 11 18
f 26 19 11
f 27 20 19
f 27 28 20
f 28 21 20
f 28 29 21
f 29 22 21
f 29 30 22
f 30 23 22
f 30 31 23
f 31 24 23
f 31 32 24
f 32 25 24
f 32 33 25
f 33 26 25
f 33 34 26
f 34 19 26
f 34 27 19
f 35 28 27
f 35 36 28
f 36 29 28
f 36 37 29
f 37 30 29
f 37 38 30
f 38 31 30
f 38 39 31
f 39 32 31
f 39 40 32
f 40 33 32
f 40 41 33
f 41 34 33
f 41 42 34
f 42 27 34
f 42 35 27
f 43 45 46
f 44 78 77
f 43 46 47
f 44 79 78
f 43 47 48
f 44 80 79
f 43 48 49
f 44 81 80
f 43 49 50
f 44 82 81
f 43 50 51
f 44 83 82
f 43 51 52
f 44 84 83
f 43 52 45
f 44 77 84
f 53 46 45
f 53 54 46
f 54 47 46
f 54 55 47
f 55 48 47
f 55 56 48
f 56 49 48
f 56 57 49
f 57 50 49
f 57 58 50
f 58 51 50
f 58 59 51
f 59 52 51
f 59 60 52
f 60 45 52
f 60 53 45
f 61 54 53
f 61 62 54
f 62 55 54
f 62 63 55
f 63 56 55
f 63 64 56
f 64 57 56
f 64 65 57
f 65 58 57
f 65 66 58
f 66 59 58
f 66 67 59
f 67 60 59
f 67 68 60
f 68 53 60
f 68 61 53
f 69 62 61
f 69 70 62
f 70 63 62
f 70 71 63
f 71 64 63
f 71 72 64
f 72 65 64
f 72 73 65
f 73 66 65
f 73 74 66
f 74 67 66
f 74 75 67
f 75 68 67
f 75 76 68
f 76 61 68
f 76 69 61
f 77 70 69
f 77 78 70
f 78 71 70
f 78 79 71
f 79 72 71
f 79 80 72
f 80 73 72
f 80 81 73
f 81 74 73
f 81 82 74
f 82 75 74
f 82 83 75
f 83 76 75
f 83 84 76
f 84 69 76
f 84 77 69
f 85 87 88
f 86 120 119
f 85 88 89
f 86 121 120
f 85 89 90
f 86 122 121
f 85 90 91
f 86 123 122
f 85 91 92
f 86 124 123
f 85 92 93
f 86 125 124
f 85 93 94
f 86 126 125
f 85 94 87
f 86 119 126
f 95 88 87
f 95 96 88
f 96 89 88
f 96 97 89
f 97 90 89
f 97 98 90
f 98 91 90
f 98 99 91
f 99 92 91
f 99 100 92
f 100 93 92
f 100 101 93
f 101 94 93
f 101 102 94
f 102 87 94
f 102 95 87
f 103 96 95
f 103 104 96
f 104 97 96
f 104 105 97
f 105 98 97
f 105 106 98
f 106 99 98
f 106 107 99
f 107 100 99
f 107 108 100
f 108 101 100
f 108 109 101
f 109 102 101
f 109 110 102
f 110 95 102
f 110 103 95
f 111 104 103
f 111 112 104
f 112 105 104
f 112 113 105
f 113 106 105
f 113 114 106
f 114 107 106
f 114 115 107
f 115 108 107
f 115 116 108
f 116 109 108
f 116 117 109
f 117 110 109
f 117 118 110
f 118 103 110
f 118 111 103
f 119 112 111
f 119 120 112
f 120 113 112
f 120 121 113
f 121 114 113
f 121 122 114
f 122 115 114
f 122 123 115
f 123 116 115
f 123 124 116
f 124 117 116
f 124 125 117
f 125 118 117
f 125 126 118
f 126 111 118
f 126 119 111
f 127 129 130
f 128 162 161
f 127 130 131
f 128 163 162
f 127 131 132
f 128 164 163
f 127 132 133
f 128 165 164
f 127 133 134
f 128 166 165
f 127 134 135
f 128 167 166
f 127 135 136
f 128 168 167
f 127 136 129
f 128 161 168
f 137 130 129
f 137 138 130
f 138 131 130
f 138 139 131
f 139 132 131
f 139 140 132
f 140 133 132
f 140 141 133
f 141 134 133
f 141 142 134
f 142 135 134
f 142 143 135
f 143 136 135
f 143 144 136
f 144 129 136
f 144 137 129
f 145 138 137
f 145 146 138
f 146 139 138
f 146 147 139
f 147 140 139
f 147 148 140
f 148 141 140
f 148 149 141
f 149 142 141
f 149 150 142
f 150 143 142
f 150 151 143
f 151 144 143
f 151 152 144
f 152 137 144
f 152 145 137
f 153 146 145
f 153 154 146
f 154 147 146
f 154 155 147
f 155 148 147
f 155 156 148
f 156 149 148
f 156 157 149
f 157 150 149
f 157 158 150
f 158 151 150
f 158 159 151
f 159 152 151
f 159 160 152
f 160 145 152
f 160 153 145
f 161 154 153
f 161 162 154
f 162 155 154
f 162 163 155
f 163 156 155
f 163 164 156
f 164 157 156
f 164 165 157
f 165 158 157
f 165 166 158
f 166 159 158
f 166 167 159
f 167 160 159
f 167 168 160
f 168 153 160
f 168 161 153
f 169 171 172
f 170 204 203
f 169 172 173
f 170 205 204
f 169 173 174
f 170 206 205
f 169 174 175
f 170 207 206
f 169 175 176
f 170 208 207
f 169 176 177
f 170 209 208
f 169 177 178
f 170 210 209
f 169 178 171
f 170 203 210
f 179 172 171
f 179 180 172
f 180 173 172
f 180 181 173
f 181 174 173
f 181 182 174
f 182 175 174
f 182 183 175
f 183 176 175
f 183 184 176
f 184 177 176
f 184 185 177
f 185 178 177
f 185 186 178
f 186 171 178
f 186 179 171
f 187 180 179
f 187 188 180
f 188 181 180
f 188 189 181
f 189 182 181
f 189 190 182
f 190 183 182
f 190 191 183
f 191 184 183
f 191 192 184
f 192 185 184
f 192 193 185
f 193 186 185
f 193 194 186
f 194 179 186
f 194 187 179
f 195 188 187
f 195 196 188
f 196 189 188
f 196 197 189
f 197 190 189
f 197 198 190
f 198 191 190
f 198 199 191
f 199 192 191
f 199 200 192
f 200 193 192
f 200 201 193
f 201 194 193
f 201 202 194
f 202 187 194
f 202 195 187
f 203 196 195
f 203 204 196
f 204 197 196
f 204 205 197
f 205 198 197
f 205 206 198
f 206 199 198
f 206 207 199
f 207 200 199
f 207 208 200
f 208 201 200
f 208 209 201
f 209 202 201
f 209 210 202
f 210 195 202
f 210 203 195
f 211 213 214
f 212 246 245
f 211 214 215
f 212 247 246
f 211 215 216
f 212 248 247
f 211 216 217
f 212 249 248
f 211 217 218
f 212 250 249
f 211 218 219
f 212 251 250
f 211 219 220
f 212 252 251
f 211 220 213
f 212 245 252
f 221 214 213
f 221 222 214
f 222 215 214
f 222 223 215
f 223 216 215
f 223 224 216
f 224 217 216
f 224 225 217
f 225 218 217
f 225 226 218
f 226 219 218
f 226 227 219
f 227 220 219
f 227 228 220
f 228 213 220
f 228 221 213
f 229 222 221
f 229 230 222
f 230 223 222
f 230 231 223
f 231 224 223
f 231 232 224
f 232 225 224
f 232 233 225
f 233 226 225
f 233 234 226
f 234 227 226
f 234 235 227
f 235 228 227
f 235 236 228
f 236 221 228
f 236 229 221
f 237 230 229
f 237 238 230
f 238 231 230
f 238 239 231
f 239 232 231
f 239 240 232
f 240 233 232
f 240 241 233
f 241 234 233
f 241 242 234
f 242 235 234
f 242 243 235
f 243 236 235
f 243 244 236
f 244 229 236
f 244 237 229
f 245 238 237
f 245 246 238
f 246 239 238
f 246 247 239
f 247 240 239
f 247 248 240
f 248 241 240
f 248 249 241
f 249 242 241
f 249 250 242
f 250 243 242
f 250 251 243
f 251 244 243
f 251 252 244
f 252 237 244
f 252 245 237
f 253 255 256
f 254 288 287
f 253 256 257
f 254 289 288
f 253 257 258
f 254 290 289
f 253 258 259
f 254 291 290
f 253 259 260
f 254 292 291
f 253 260 261
f 254 293 292
f 253 261 262
f 254 294 293
f 253 262 255
f 254 287 294
f 263 256 255
f 263 264 256
f 264 257 256
f 264 265 257
f 265 258 257
f 265 266 258
f 266 259 258
f 266 267 259
f 267 260 259
f 267 268 260
f 268 261 260
f 268 269 261
f 269 262 261
f 269 270 262
f 270 255 262
f 270 263 255
f 271 264 263
f 271 272 264
f 272 265 264
f 272 273 265
f 273 266 265
f 273 274 266
f 274 267 266
f 274 275 267
f 275 268 267
f 275 276 268
f 276 269 268
f 276 277 269
f 277 270 269
f 277 278 270
f 278 263 270
f 278 271 263
f 279 272 271
f 279 280 272
f 280 273 272
f 280 281 273
f 281 274 273
f 281 282 274
f 282 275 274
f 282 283 275
f 283 276 275
f 283 284 276
f 284 277 276
f 284 285 277
f 285 278 277
f 285 286 278
f 286 271 278
f 286 279 271
f 287 280 279
f 287 288 280
f 288 281 280
f 288 289 281
f 289 282 281
f 289 290 282
f 290 283 282
f 290 291 283
f 291 284 283
f 291 292 284
f 292 285 284
f 292 293 285
f 293 286 285
f 293 294 286
f 294 279 286
f 294 287 279
f 295 297 298
f 296 330 329
f 295 298 299
f 296 331 330
f 295 299 300
f 296 332 331
f 295 300 301
f 296 333 332
f 295 301 302
f 296 334 333
f 295 302 303
f 296 335 334
f 295 303 304
f 296 336 335
f 295 304 297
f 296 329 336
f 305 298 297
f 305 306 298
f 306 299 298
f 306 307 299
f 307 300 299
f 307 308 300
f 308 301 300
f 308 309 301
f 309 302 301
f 309 310 302
f 310 303 302
f 310 311 303
f 311 304 303
f 311 312 304
f 312 297 304
f 312 305 297
f 313 306 305
f 313 314 306
f 314 307 306
f 314 315 307
f 315 308 307
f 315 316 308
f 316 309 308
f 316 317 309
f 317 310 309
f 317 318 310
f 318 311 310
f 318 319 311
f 319 312 311
f 319 320 312
f 320 305 312
f 320 313 305
f 321 314 313
f 321 322 314
f 322 315 314
f 322 323 315
f 323 316 315
f 323 324 316
f 324 317 316
f 324 325 317
f 325 318 317
f 325 326 318
f 326 319 318
f 326 327 319
f 327 320 319
f 327 328 320
f 328 313 320
f 328 321 313
f 329 322 321
f 329 330 322
f 330 323 322
f 330 331 323
f 331 324 323
f 331 332 324
f 332 325 324
f 332 333 325
f 333 326 325
f 333 334 326
f 334 327 326
f 334 335 327
f 335 328 327
f 335 336 328
f 336 321 328
f 336 329 321
f 337 339 340
f 338 372 371
f 337 340 341
f 338 373 372
f 337 341 342
f 338 374 373
f 337 342 343
f 338 375 374
f 337 343 344
f 338 376 375
f 337 344 345
f 338 377 376
f 337 345 346
f 338 378 377
f 337 346 339
f 338 371 378
f 347 340 339
f 347 348 340
f 348 341 340
f 348 349 341
f 349 342 341
f 349 350 342
f 350 343 342
f 350 351 343
f 351 344 343
f 351 352 344
f 352 345 344
f 352 353 345
f 353 346 345
f 353 354 346
f 354 339 346
f 354 347 339
f 355 348 347
f 355 356 348
f 356 349 348
f 356 357 349
f 357 350 349
f 357 358 350
f 358 351 350
f 358 359 351
f 359 352 351
f 359 360 352
f 360 353 352
f 360 361 353
f 361 354 353
f 361 362 354
f 362 347 354
f 362 355 347
f 363 356 355
f 363 364 356
f 364 357 356
f 364 365 357
f 365 358 357
f 365 366 358
f 366 359 358
f 366 367 359
f 367 360 359
f 367 368 360
f 368 361 360
f 368 369 361
f 369 362 361
f 369 370 362
f 370 355 362
f 370 363 355
f 371 364 363
f 371 372 364
f 372 365 364
f 372 373 365
f 373 366 365
f 373 374 366
f 374 367 366
f 374 375 367
f 375 368 367
f 375 376 368
f 376 369 368
f 376 377 369
f 377 370 369
f 377 378 370
f 378 363 370
f 378 371 363
f 379 381 382
f 380 414 413
f 379 382 383
f 380 415 414
f 379 383 384
f 380 416 415
f 379 384 385
f 380 417 416
f 379 385 386
f 380 418 417
f 379 386 387
f 380 419 418
f 379 387 388
f 380 420 419
f 379 388 381
f 380 413 420
f 389 382 381
f 389 390 382
f 390 383 382
f 390 391 383
f 391 384 383
f 391 392 384
f 392 385 384
f 392 393 385
f 393 386 385
f 393 394 386
f 394 387 386
f 394 395 387
f 395 388 387
f 395 396 388
f 396 381 388
f 396 389 381
f 397 390 389
f 397 398 390
f 398 391 390
f 398 399 391
f 399 392 391
f 399 400 392
f 400 393 392
f 400 401 393
f 401 394 393
f 401 402 394
f 402 395 394
f 402 403 395
f 403 396 395
f 403 404 396
f 404 389 396
f 404 397 389
f 405 398 397
f 405 406 398
f 406 399 398
f 406 407 399
f 407 400 399
f 407 408 400
f 408 401 400
f 408 409 401
f 409 402 401
f 409 410 402
f 410 403 402
f 410 411 403
f 411 404 403
f 411 412 404
f 412 397 404
f 412 405 397
f 413 406 405
f 413 414 406
f 414 407 406
f 414 415 407
f 415 408 407
f 415 416 408
f 416 409 408
f 416 417 409
f 417 410 409
f 417 418 410
f 418 411 410
f 418 419 411
f 419 412 411
f 419 420 412
f 420 405 412
f 420 413 405
f 421 423 424
f 422 456 455
f 421 424 425
f 422 457 456
f 421 425 426
f 422 458 457
f 421 426 427
f 422 459 458
f 421 427 428
f 422 460 459
f 421 428 429
f 422 461 460
f 421 429 430
f 422 462 461
f 421 430 423
f 422 455 462
f 431 424 423
f 431 432 424
f 432 425 424
f 432 433 425
f 433 426 425
f 433 434 426
f 434 427 426
f 434 435 427
f 435 428 427
f 435 436 428
f 436 429 428
f 436 437 429
f 437 430 429
f 437 438 430
f 438 423 430
f 438 431 423
f 439 432 431
f 439 440 432
f 440 433 432
f 440 441 433
f 441 434 433
f 441 442 434
f 442 435 434
f 442 443 435
f 443 436 435
f 443 444 436
f 444 437 436
f 444 445 437
f 445 438 437
f 445 446 438
f 446 431 438
f 446 439 431
f 447 440 439
f 447 448 440
f 448 441 440
f 448 449 441
f 449 442 441
f 449 450 442
f 450 443 442
f 450 451 443
f 451 444 443
f 451 452 444
f 452 445 444
f 452 453 445
f 453 446 445
f 453 454 446
f 454 439 446
f 454 447 439
f 455 448 447
f 455 456 448
f 456 449 448
f 456 457 449
f 457 450 449
f 457 458 450
f 458 451 450
f 458 459 451
f 459 452 451
f 459 460 452
f 460 453 452
f 460 461 453
f 461 454 453
f 461 462 454
f 462 447 454
f 462 455 447
f 463 465 466
f 464 498 497
f 463 466 467
f 464 499 498
f 463 467 468
f 464 500 499
f 463 468 469
f 464 501 500
f 463 469 470
f 464 502 501
f 463 470 471
f 464 503 502
f 463 471 472
f 464 504 503
f 463 472 465
f 464 497 504
f 473 466 465
f 473 474 466
f 474 467 466
f 474 475 467
f 475 468 467
f 475 476 468
f 476 469 468
f 476 477 469
f 477 470 469
f 477 478 470
f 478 471 470
f 478 479 471
f 479 472 471
f 479 480 472
f 480 465 472
f 480 473 465
f 481 474 473
f 481 482 474
f 482 475 474
f 482 483 475
f 483 476 475
f 483 484 476
f 484 477 476
f 484 485 477
f 485 478 477
f 485 486 478
f 486 479 478
f 486 487 479
f 487 480 479
f 487 488 480
f 488 473 480
f 488 481 473
f 489 482 481
f 489 490 482
f 490 483 482
f 490 491 483
f 491 484 483
f 491 492 484
f 492 485 484
f 492 493 485
f 493 486 485
f 493 494 486
f 494 487 486
f 494 495 487
f 495 488 487
f 495 496 488
f 496 481 488
f 496 489 481
f 497 490 489
f 497 498 490
f 498 491 490
f 498 499 491
f 499 492 491
f 499 500 492
f 500 493 492
f 500 501 493
f 501 494 493
f 501 502 494
f 502 495 494
f 502 503 495
f 503 496 495
f 503 504 496
f 504 489 496
f 504 497 489
f 505 507 508
f 506 540 539
f 505 508 509
f 506 541 540
f 505 509 510
f 506 542 541
f 505 510 511
f 506 543 542
f 505 511 512
f 506 544 543
f 505 512 513
f 506 545 544
f 505 513 514
f 506 546 545
f 505 514 507
f 506 539 546
f 515 508 507
f 515 516 508
f 516 509 508
f 516 517 509
f 517 510 509
f 517 518 510
f 518 511 510
f 518 519 511
f 519 512 511
f 519 520 512
f 520 513 512
f 520 521 513
f 521 514 513
f 521 522 514
f 522 507 514
f 522 515 507
f 523 516 515
f 523 524 516
f 524 517 516
f 524 525 517
f 525 518 517
f 525 526 518
f 526 519 518
f 526 527 519
f 527 520 519
f 527 528 520
f 528 521 520
f 528 529 521
f 529 522 521
f 529 530 522
f 530 515 522
f 530 523 515
f 531 524 523
f 531 532 524
f 532 525 524
f 532 533 525
f 533 526 525
f 533 534 526
f 534 527 526
f 534 535 527
f 535 528 527
f 535 536 528
f 536 529 528
f 536 537 529
f 537 530 529
f 537 538 530
f 538 523 530
f 538 531 523
f 539 532 531
f 539 540 532
f 540 533 532
f 540 541 533
f 541 534 533
f 541 542 534
f 542 535 534
f 542 543 535
f 543 536 535
f 543 544 536
f 544 537 536
f 544 545 537
f 545 538 537
f 545 546 538
f 546 531 538
f 546 539 531
f 547 549 550
f 548 582 581
f 547 550 551
f 548 583 582
f 547 551 552
f 548 584 583
f 547 552 553
f 548 585 584
f 547 553 554
f 548 586 585
f 547 554 555
f 548 587 586
f 547 555 556
f 548 588 587
f 547 556 549
f 548 581 588
f 557 550 549
f 557 558 550
f 558 551 550
f 558 559 551
f 559 552 551
f 559 560 552
f 560 553 552
f 560 561 553
f 561 554 553
f 561 562 554
f 562 555 554
f 562 563 555
f 563 556 555
f 563 564 556
f 564 549 556
f 564 557 549
f 565 558 557
f 565 566 558
f 566 559 558
f 566 567 559
f 567 560 559
f 567 568 560
f 568 561 560
f 568 569 561
f 569 562 561
f 569 570 562
f 570 563 562
f 570 571 563
f 571 564 563
f 571 572 564
f 572 557 564
f 572 565 557
f 573 566 565
f 573 574 566
f 574 567 566
f 574 575 567
f 575 568 567
f 575 576 568
f 576 569 568
f 576 577 569
f 577 570 569
f 577 578 570
f 578 571 570
f 578 579 571
f 579 572 571
f 579 580 572
f 580 565 572
f 580 573 565
f 581 574 573
f 581 582 574
f 582 575 574
f 582 583 575
f 583 576 575
f 583 584 576
f 584 577 576
f 584 585 577
f 585 578 577
f 585 586 578
f 586 579 578
f 586 587 579
f 587 580 579
f 587 588 580
f 588 573 580
f 588 581 573
f 589 591 592
f 590 624 623
f 589 592 593
f 590 625 624
f 589 593 594
f 590 626 625
f 589 594 595
f 590 627 626
f 589 595 596
f 590 628 627
f 589 596 597
f 590 629 628
f 589 597 598
f 590 630 629
f 589 598 591
f 590 623 630
f 599 592 591
f 599 600 592
f 600 593 592
f 600 601 593
f 601 594 593
f 601 602 594
f 602 595 594
f 602 603 595
f 603 596 595
f 603 604 596
f 604 597 596
f 604 605 597
f 605 598 597
f 605 606 598
f 606 591 598
f 606 599 591
f 607 600 599
f 607 608 600
f 608 601 600
f 608 609 601
f 609 602 601
f 609 610 602
f 610 603 602
f 610 611 603
f 611 604 603
f 611 612 604
f 612 605 604
f 612 613 605
f 613 606 605
f 613 614 606
f 614 599 606
f 614 607 599
f 615 608 607
f 615 616 608
f 616 609 608
f 616 617 609
f 617 610 609
f 617 618 610
f 618 611 610
f 618 619 611
f 619 612 611
f 619 620 612
f 620 613 612
f 620 621 613
f 621 614 613
f 621 622 614
f 622 607 614
f 622 615 607
f 623 616 615
f 623 624 616
f 624 617 616
f 624 625 617
f 625 618 617
f 625 626 618
f 626 619 618
f 626 627 619
f 627 620 619
f 627 628 620
f 628 621 620
f 628 629 621
f 629 622 621
f 629 630 622
f 630 615 622
f 630 623 615
f 631 633 634
f 632 666 665
f 631 634 635
f 632 667 666
f 631 635 636
f 632 668 667
f 631 636 637
f 632 669 668
f 631 637 638
f 632 670 669
f 631 638 639
f 632 671 670
f 631 639 640
f 632 672 671
f 631 640 633
f 632 665 672
f 641 634 633
f 641 642 634
f 642 635 634
f 642 643 635
f 643 636 635
f 643 644 636
f 644 637 636
f 644 645 637
f 645 638 637
f 645 646 638
f 646 639 638
f 646 647 639
f 647 640 639
f 647 648 640
f 648 633 640
f 648 641 633
f 649 642 641
f 649 650 642
f 650 643 642
f 650 651 643
f 651 644 643
f 651 652 644
f 652 645 644
f 652 653 645
f 653 646 645
f 653 654 646
f 654 647 646
f 654 655 647
f 655 648 647
f 655 656 648
f 656 641 648
f 656 649 641
f 657 650 649
f 657 658 650
f 658 651 650
f 658 659 651
f 659 652 651
f 659 660 652
f 660 653 652
f 660 661 653
f 661 654 653
f 661 662 654
f 662 655 654
f 662 663 655
f 663 656 655
f 663 664 656
f 664 649 656
f 664 657 649
f 665 658 657
f 665 666 658
f 666 659 658
f 666 667 659
f 667 660 659
f 667 668 660
f 668 661 660
f 668 669 661
f 669 662 661
f 669 670 662
f 670 663 662
f 670 671 663
f 671 664 663
f 671 672 664
f 672 657 664
f 672 665 657
f 673 675 676
f 674 708 707
f 673 676 677
f 674 709 708
f 673 677 678
f 674 710 709
f 673 678 679
f 674 711 710
f 673 679 680
f 674 712 711
f 673 680 681
f 674 713 712
f 673 681 682
f 674 714 713
f 673 682 675
f 674 707 714
f 683 676 675
f 683 684 676
f 684 677 676
f 684 685 677
f 685 678 677
f 685 686 678
f 686 679 678
f 686 687 679
f 687 680 679
f 687 688 680
f 688 681 680
f 688 689 681
f 689 682 681
f 689 690 682
f 690 675 682
f 690 683 675
f 691 684 683
f 691 692 684
f 692 685 684
f 692 693 685
f 693 686 685
f 693 694 686
f 694 687 686
f 694 695 687
f 695 688 687
f 695 696 688
f 696 689 688
f 696 697 689
f 697 690 689
f 697 698 690
f 698 683 690
f 698 691 683
f 699 692 691
f 699 700 692
f 700 693 692
f 700 701 693
f 701 694 693
f 701 702 694
f 702 695 694
f 702 703 695
f 703 696 695
f 703 704 696
f 704 697 696
f 704 705 697
f 705 698 697
f 705 706 698
f 706 691 698
f 706 699 691
f 707 700 699
f 707 708 700
f 708 701 700
f 708 709 701
f 709 702 701
f 709 710 702
f 710 703 702
f 710 711 703
f 711 704 703
f 711 712 704
f 712 705 704
f 712 713 705
f 713 706 705
f 713 714 706
f 714 699 706
f 714 707 699
f 715 717 718
f 716 750 749
f 715 718 719
f 716 751 750
f 715 719 720
f 716 752 751
f 715 720 721
f 716 753 752
f 715 721 722
f 716 754 753
f 715 722 723
f 716 755 754
f 715 723 724
f 716 756 755
f 715 724 717
f 716 749 756
f 725 718 717
f 725 726 718
f 726 719 718
f 726 727 719
f 727 720 719
f 727 728 720
f 728 721 720
f 728 729 721
f 729 722 721
f 729 730 722
f 730 723 722
f 730 731 723
f 731 724 723
f 731 732 724
f 732 717 724
f 732 725 717
f 733 726 725
f 733 734 726
f 734 727 726
f 734 735 727
f 735 728 727
f 735 736 728
f 736 729 728
f 736 737 729
f 737 730 729
f 737 738 730
f 738 731 730
f 738 739 731
f 739 732 731
f 739 740 732
f 740 725 732
f 740 733 725
f 741 734 733
f 741 742 734
f 742 735 734
f 742 743 735
f 743 736 735
f 743 744 736
f 744 737 736
f 744 745 737
f 745 738 737
f 745 746 738
f 746 739 738
f 746 747 739
f 747 740 739
f 747 748 740
f 748 733 740
f 748 741 733
f 749 742 741
f 749 750 742
f 750 743 742
f 750 751 743
f 751 744 743
f 751 752 744
f 752 745 744
f 752 753 745
f 753 746 745
f 753 754 746
f 754 747 746
f 754 755 747
f 755 748 747
f 755 756 748
f 756 741 748
f 756 749 741
f 757 759 760
f 758 792 791
f 757 760 761
f 758 793 792
f 757 761 762
f 758 794 793
f 757 762 763
f 758 795 794
f 757 763 764
f 758 796 795
f 757 764 765
f 758 797 796
f 757 765 766
f 758 798 797
f 757 766 759
f 758 791 798
f 767 760 759
f 767 768 760
f 768 761 760
f 768 769 761
f 769 762 761
f 769 770 762
f 770 763 762
f 770 771 763
f 771 764 763
f 771 772 764
f 772 765 764
f 772 773 765
f 773 766 765
f 773 774 766
f 774 759 766
f 774 767 759
f 775 768 767
f 775 776 768
f 776 769 768
f 776 777 769
f 777 770 769
f 777 778 770
f 778 771 770
f 778 779 771
f 779 772 771
f 779 780 772
f 780 773 772
f 780 781 773
f 781 774 773
f 781 782 774
f 782 767 774
f 782 775 767
f 783 776 775
f 783 784 776
f 784 777 776
f 784 785 777
f 785 778 777
f 785 786 778
f 786 779 778
f 786 787 779
f 787 780 779
f 787 788 780
f 788 781 780
f 788 789 781
f 789 782 781
f 789 790 782
f 790 775 782
f 790 783 775
f 791 784 783
f 791 792 784
f 792 785 784
f 792 793 785
f 793 786 785
f 793 794 786
f 794 787 786
f 794 795 787
f 795 788 787
f 795 796 788
f 796 789 788
f 796 797 789
f 797 790 789
f 797 798 790
f 798 783 790
f 798 791 783
